<svg width="49" height="35" viewBox="0 0 49 35" fill="none" xmlns="http://www.w3.org/2000/svg">
<path d="M20.9134 4.60723C20.9484 3.89235 20.9788 3.18575 21.0055 2.48836L21.034 2.39624H25.2718L25.3353 2.48836C25.3326 3.21707 25.3814 3.95038 25.48 4.6883L25.7038 4.79056C27.8734 4.71133 30.2511 4.71041 32.4289 4.79056L32.6307 4.90848C32.6869 5.0006 32.6169 6.82744 32.4289 7.00063C34.6593 7.17106 37.0039 7.14434 39.2462 7.00063C39.1209 6.87534 39.1771 6.82191 39.3383 6.90851C39.4636 6.38616 39.4931 5.69522 39.4267 4.83662L39.5225 4.78964C40.8473 4.71225 42.3941 4.70857 43.7603 4.78964L43.8524 4.83294L43.8506 6.82651C43.8533 6.69662 43.8846 6.72333 43.9445 6.90758L44.115 6.77124C44.7276 6.84586 45.3494 6.85507 45.9814 6.79795C46.0929 6.76111 46.314 6.9214 46.314 6.96654C46.3241 9.24939 46.2992 11.5359 46.2476 13.8169C46.2476 13.8473 46.2476 13.8787 46.2476 13.9091C45.5033 14.179 44.6898 14.1716 43.9445 13.9091C43.8469 14.5613 43.8091 15.2486 43.8331 15.9708C43.8211 16.0897 43.728 16.086 43.6221 16.0279C43.0113 16.1016 42.2761 16.1108 41.6414 16.0279C42.2964 16.1366 43.097 16.1118 43.7658 15.9938L43.9445 16.1201C43.9445 16.1505 43.9445 16.1818 43.9445 16.2122L43.8395 16.3964H41.7731L41.6414 16.2122L41.5364 16.3964H39.47L39.3383 16.2122L39.2333 16.3964H37.1669L37.0352 16.2122C36.7975 15.4991 36.8012 14.7428 36.9274 14.0095C36.2005 14.1394 35.4331 14.1725 34.7321 13.9091C34.6501 13.8916 34.6528 13.8612 34.7321 13.8169L34.896 13.7184C35.587 13.7819 36.3728 13.8418 37.0352 13.7257C36.3562 13.8133 35.5934 13.7939 34.9163 13.7257L34.8131 13.6364C34.7965 12.9335 34.7698 12.2573 34.7321 11.6069L34.6307 11.8068C33.9416 11.839 33.2516 11.8344 32.5616 11.792L32.4289 11.6069C32.2484 10.9316 32.1793 10.2241 32.2235 9.48339L27.9287 9.39772L27.8227 9.21162C29.3824 9.19043 30.9172 9.16003 32.4289 9.1195C30.9642 9.22544 29.3824 9.1803 27.9148 9.1195C27.8927 8.41106 27.8614 7.70446 27.8227 7.00063L27.738 7.18488H21.0239L20.9134 7.00063C20.9078 6.93062 20.8903 6.89284 20.8212 6.90851C20.7613 7.65379 20.7466 8.40185 20.7761 9.15358C20.0253 9.18767 19.2533 9.17662 18.519 9.1195C18.4435 9.85373 18.3937 10.6009 18.3698 11.36C18.2362 11.5193 16.4997 11.5682 16.3698 11.2771C16.4029 10.1927 16.3965 9.11489 16.3477 8.0444C16.391 7.37005 16.4343 7.08723 17.2081 7.19041C17.6853 7.18027 18.122 7.11671 18.519 6.99971C18.437 6.96286 18.3541 6.91311 18.3164 6.82744C18.2685 6.72149 18.3191 5.1434 18.3486 4.89651L18.519 4.69659C18.5458 4.63579 18.5771 4.63763 18.6112 4.69659L18.7245 4.86702C18.6333 5.51743 18.5918 6.27837 18.7033 6.90758C18.6185 6.30785 18.6333 5.61692 18.7033 5.01903C18.6314 4.92506 18.6637 4.77766 18.7834 4.78319L20.8222 4.69659C20.7789 4.62842 20.836 4.61828 20.9143 4.60447L20.9134 4.60723Z" fill="#FADB10"/>
<path d="M27.7296 2.30498H27.9138C27.9332 2.23312 27.9645 2.12626 28.0197 2.12073C28.4896 2.07743 29.4293 2.07743 29.8991 2.12073L30.0318 2.30498H30.216C30.2353 2.23312 30.2667 2.12626 30.3219 2.12073C30.7918 2.07743 31.7315 2.07743 32.2013 2.12073L32.3339 2.30498C32.3339 2.31696 32.4261 2.40908 32.4298 2.52792C32.4528 3.21978 32.4058 3.91717 32.4261 4.6081C30.1239 4.67719 27.8189 4.68088 25.5167 4.6081C25.4163 3.83886 25.4163 3.07054 25.5167 2.30498L25.56 2.18246C26.1828 2.30775 27.0368 2.30406 27.666 2.18246L27.7277 2.30498H27.7296Z" fill="#010101"/>
<path d="M23.1241 30.0327C23.2006 30.7587 23.1969 31.6007 23.1241 32.3358C21.5801 32.3349 20.0361 32.2935 18.5179 32.2437C18.446 32.2244 18.341 32.1949 18.3336 32.1378C18.306 31.9268 18.2949 30.4104 18.3336 30.2584L18.5179 30.1258V30.0336C18.5354 29.9517 18.5658 29.9544 18.61 30.0336C18.5999 29.8595 18.6929 29.8282 18.8882 29.9415C20.1927 29.9415 21.4981 29.9415 22.8044 29.9406C22.9767 29.7996 23.0467 29.8171 23.1241 30.0336V30.0327Z" fill="#020202"/>
<path d="M32.3361 27.7305C32.5397 28.426 32.3776 29.2192 32.4283 29.9415C30.9349 29.9415 29.3504 30.0317 27.822 30.0336C27.5936 29.2625 27.5954 28.5015 27.822 27.7305C29.3237 27.654 30.8345 27.6595 32.3361 27.7305Z" fill="#020202"/>
<path d="M41.5487 2.30504H41.7329C41.7523 2.23319 41.7836 2.12632 41.8389 2.1208C42.3087 2.0775 43.2484 2.0775 43.7182 2.1208L43.8509 2.30504C43.873 2.94808 44.0001 3.64362 43.943 4.33179C44.0139 4.4147 44.0499 4.65699 43.9071 4.65699C42.7638 4.66159 41.6187 4.66528 40.4754 4.65238C40.0959 4.6487 39.7163 4.63027 39.3368 4.60724C39.3543 3.94763 39.3128 3.28249 39.3368 2.62195C39.3414 2.48653 39.428 2.35572 39.4298 2.30413C39.4492 2.23227 39.4805 2.1254 39.5358 2.11988C40.0056 2.07658 40.9453 2.07658 41.4151 2.11988L41.5478 2.30413L41.5487 2.30504Z" fill="#020202"/>
<path d="M18.5181 27.7305C18.5881 28.496 18.5891 29.268 18.5181 30.0336C16.9843 30.0336 15.4458 30.0299 13.9119 30.0336C13.9635 29.2809 13.8004 28.4573 14.004 27.7305C15.5066 27.6586 17.0156 27.6614 18.5181 27.7305Z" fill="#020202"/>
<path d="M25.5196 0.0939937L25.6421 0.137292C25.5168 0.760055 25.5205 1.61405 25.6421 2.24234L25.5196 2.30407C25.4938 2.38422 25.4624 2.38329 25.4274 2.30407C25.3906 2.55557 25.3381 2.52977 25.2432 2.30407H21.0055C20.9797 2.38422 20.9483 2.38329 20.9133 2.30407C20.8875 2.38422 20.8562 2.38329 20.8212 2.30407C20.7493 2.28472 20.6443 2.25432 20.637 2.19628C20.6038 1.9457 20.5918 0.433013 20.637 0.226653L20.8212 0.0921522C21.5812 0.087546 22.3984 0.00187004 23.1243 2.75425e-05C23.888 -0.00181495 24.7282 0.0893885 25.5196 0.0921522V0.0939937Z" fill="#030303"/>
<path d="M43.944 4.69933C44.716 4.64129 45.4963 4.63115 46.2711 4.65326C46.2711 5.40869 46.2941 6.16134 46.3392 6.91032C46.5686 7.13971 48.1301 6.92966 48.5502 7.00152C48.5521 8.40089 48.5502 9.80303 48.5429 11.2042C48.5429 11.3701 48.6414 11.5 48.6414 11.5156C48.6396 12.2222 48.4618 13.2181 48.4572 13.9109C48.4378 13.9827 48.4074 14.0896 48.3512 14.0951C48.1043 14.1191 46.4912 14.12 46.4 14.0334C46.3687 14.0039 46.3521 13.9597 46.3383 13.9109C46.3383 13.8805 46.3383 13.8491 46.3383 13.8187C46.7133 13.1287 47.5405 12.8266 48.1808 13.3581C48.2812 12.6156 48.3116 11.8731 48.2711 11.1305L48.0887 10.8708C47.7856 10.7703 47.8722 10.447 48.1808 10.5023C48.3503 9.90529 48.3162 9.27884 48.2729 8.65977C47.9468 8.44051 47.8197 8.10701 47.8906 7.66113C47.8952 7.35896 46.529 7.25855 46.5124 7.33133C46.5963 9.49994 46.5382 11.663 46.3392 13.8187H46.2471C46.2545 11.5479 46.2416 9.27239 46.2471 7.00152C45.5608 6.92137 44.5557 7.15353 43.944 6.91032L43.8519 6.86702V4.83382C43.7892 4.75552 43.8288 4.71407 43.944 4.69933Z" fill="#030303"/>
<path d="M43.9438 16.2148C43.9438 16.9813 43.9438 17.7515 43.9438 18.518H42.2855C42.1658 18.7722 41.9419 18.7768 41.8249 18.518C41.7963 18.693 41.7236 18.6829 41.6407 18.518C41.4601 17.7524 41.4592 16.9804 41.6407 16.2148H43.9438Z" fill="#030303"/>
<path d="M27.822 30.0326V30.1248C27.8939 30.1441 28.0007 30.1745 28.0063 30.2307C28.0302 30.4776 28.0311 32.0907 27.9445 32.1819C27.9151 32.2132 27.8708 32.2298 27.822 32.2436C27.0841 32.2685 26.2937 32.3265 25.5189 32.3358C25.4507 31.5684 25.4507 30.7991 25.5189 30.0326C26.2845 29.8521 27.0565 29.8521 27.822 30.0326Z" fill="#020202"/>
<path d="M23.1243 32.428C23.8106 32.4206 24.5144 32.4013 25.2008 32.428C25.3786 32.4354 25.5702 32.3331 25.5186 32.6122C25.7683 32.7394 25.7775 33.2249 25.5186 33.3492V34.639C24.7973 34.6206 24.0695 34.6611 23.3463 34.6427C23.2275 34.6399 23.1363 34.5469 23.1234 34.5469C23.0515 34.5275 22.9465 34.498 22.9391 34.4409C22.9115 34.23 22.9004 32.7136 22.9391 32.5616L23.1234 32.4289L23.1243 32.428Z" fill="#030303"/>
<path d="M46.2462 13.9118C46.2434 14.6783 46.248 15.4485 46.2462 16.2149C45.5866 16.2002 44.9214 16.2334 44.26 16.2149C44.1245 16.2112 43.9928 16.1237 43.9421 16.1219C43.8952 16.1145 43.8519 16.1035 43.8196 16.0786C43.7321 16.0113 43.8924 14.097 43.9421 13.9109C44.7086 13.9044 45.4788 13.9155 46.2453 13.9109L46.2462 13.9118Z" fill="#030303"/>
<path d="M44.036 4.33081C44.0433 4.41925 43.9881 4.59521 44.0866 4.61363C44.7757 4.60626 45.4667 4.60258 46.1548 4.60718C46.2166 4.60718 46.2774 4.60718 46.3391 4.60718C46.3391 4.66891 46.3391 4.72971 46.3391 4.79143C46.3418 5.49619 46.3372 6.20555 46.3391 6.9103C46.1097 6.68091 46.3197 5.1194 46.2479 4.69931C45.4814 4.69839 44.7112 4.70207 43.9448 4.69931C42.4109 4.77025 40.8724 4.77301 39.3385 4.69931C37.04 4.95081 34.7277 4.95542 32.4292 4.69931C30.1887 4.77025 27.9445 4.77301 25.7041 4.69931C25.5935 4.78222 25.471 4.74906 25.5198 4.60718C27.8211 4.60903 30.127 4.60442 32.4292 4.60718C32.4596 4.60718 32.4909 4.60718 32.5213 4.60718C33.2261 4.60718 33.9354 4.60718 34.6402 4.60718C34.7019 4.60718 34.7627 4.60718 34.8244 4.60718C35.5292 4.60718 36.2385 4.60811 36.9433 4.60718C37.005 4.60718 37.0658 4.60718 37.1275 4.60718C37.8323 4.60626 38.5416 4.60903 39.2464 4.60718C39.2768 4.60718 39.3081 4.60718 39.3385 4.60718C40.8558 4.60258 42.3759 4.60534 43.8941 4.61363C43.9917 4.59521 43.9374 4.41925 43.9448 4.33081H44.0369H44.036Z" fill="#010101"/>
<path d="M23.3088 30.0327C24.0264 30.0852 24.7477 30.1008 25.4737 30.0815C25.4958 30.8461 25.4801 31.5969 25.4276 32.3358C24.6925 32.3441 23.9518 32.3358 23.2166 32.3358C23.1448 31.5702 23.1457 30.7982 23.2166 30.0327C23.2424 29.9525 23.2738 29.9534 23.3088 30.0327Z" fill="#FADB10"/>
<path d="M25.5196 30.0327C25.5196 30.7991 25.5196 31.5693 25.5196 32.3358C25.4892 32.3358 25.4579 32.3358 25.4275 32.3358V30.1248C25.3335 30.0308 23.5831 30.2657 23.3086 30.0336C23.3279 29.9617 23.3583 29.8567 23.4164 29.8493C23.6412 29.8226 25.2349 29.8079 25.386 29.8493L25.5205 30.0336L25.5196 30.0327Z" fill="#FADB10"/>
<path d="M23.2167 30.0327C23.2186 30.7992 23.2158 31.5694 23.2167 32.3358C23.1863 32.3358 23.155 32.3358 23.1246 32.3358V30.0327C23.0288 29.562 23.0288 29.0709 23.1246 28.5587C23.5392 28.602 23.5309 29.8614 23.2167 30.0327Z" fill="#020202"/>
<path d="M18.5179 4.69932C18.5879 5.42066 18.4221 6.30506 18.5179 7.00244C18.2369 7.13234 17.6262 7.18485 17.2475 7.18669C16.8099 7.25302 16.4967 7.19222 16.3069 7.00244C16.2489 8.49117 16.2185 10.026 16.2148 11.6087C16.2102 11.6612 16.201 11.7063 16.1724 11.7312C16.0868 11.8058 14.1641 11.6464 13.9117 11.6087C13.8002 11.5562 13.8002 11.4032 13.9117 11.1481C13.7367 9.80579 13.7763 8.35022 13.9117 7.00244C13.8933 7.18853 13.7938 7.26592 13.709 7.09549C12.2369 7.08075 10.7693 7.04942 9.30546 7.00244C9.15898 6.24794 9.16082 5.45382 9.30546 4.69932C9.22347 4.68182 9.22623 4.65142 9.30546 4.6072C9.33586 4.6072 9.36718 4.6072 9.39758 4.6072C12.4386 4.60628 15.4787 4.63668 18.5179 4.69932Z" fill="#010101"/>
<path d="M27.8217 7.00246C27.8447 7.73393 27.8853 8.45066 27.9442 9.15173L27.8217 9.21345L32.4279 9.30466C32.4316 10.0711 32.4215 10.8422 32.4279 11.6078C32.4104 11.6898 32.38 11.687 32.3358 11.6078C30.8296 11.6916 29.3243 11.6916 27.8217 11.6078C27.6863 11.7211 27.6338 11.6658 27.7296 11.5156C27.6697 10.8422 27.6181 10.0619 27.7554 9.41336C26.2455 9.32677 24.7328 9.29084 23.2164 9.30466C22.4379 9.34888 21.6576 9.37006 20.8764 9.3673L20.8211 8.56766C20.7217 8.06926 20.7447 7.51007 20.8211 7.00154C20.8469 6.92139 20.8783 6.92231 20.9133 7.00154H27.8226L27.8217 7.00246Z" fill="#020202"/>
<path d="M39.3373 4.69932C39.4036 4.70853 39.4552 4.7205 39.4598 4.74261C39.481 4.84579 39.4819 6.75554 39.4322 6.84766C39.4165 6.87714 39.3797 6.89465 39.3373 6.90939C39.3041 6.9315 39.2728 6.9923 39.2452 7.00151C37.0001 7.14523 34.6629 7.17194 32.4279 7.00151C32.2833 6.563 32.5348 5.32945 32.4279 4.79052C32.3478 4.76472 32.3487 4.7334 32.4279 4.69839C34.7292 4.703 37.0351 4.69563 39.3373 4.69839V4.69932Z" fill="#010101"/>
<path d="M41.6407 16.2148C41.6407 16.9813 41.6407 17.7515 41.6407 18.518C40.9442 18.7842 40.0285 18.7999 39.3376 18.518C39.2657 18.4986 39.1579 18.4682 39.1533 18.4129C39.1073 17.8694 39.1082 16.8901 39.1533 16.3466L39.3376 16.2148H41.6407Z" fill="#DBA707"/>
<path d="M39.3372 16.2148V18.518C39.2976 18.7022 39.1926 18.7833 39.1069 18.6101L37.1879 18.6119L37.1262 18.518L36.9935 18.5124C36.9327 17.7312 36.9456 16.9657 37.0341 16.2158H39.3372V16.2148Z" fill="#020202"/>
<path d="M34.7313 13.9118C35.4977 13.9173 36.2688 13.9081 37.0344 13.9118C37.0371 14.6783 37.0288 15.4493 37.0344 16.2149C37.0086 16.2951 36.9773 16.2941 36.9422 16.2149L36.8345 16.3992C36.1684 16.3015 35.4876 16.2739 34.793 16.3181L34.7313 16.2149C34.6493 16.1633 34.5553 16.1034 34.5304 16.0122C34.4567 15.7414 34.4982 14.4608 34.5452 14.1301L34.7313 13.9118Z" fill="#020202"/>
<path d="M34.7314 11.6086C34.7507 12.3125 34.7913 13.0283 34.8539 13.7579L34.7314 13.8196C34.7314 13.85 34.7314 13.8814 34.7314 13.9118C33.9603 14.1872 33.1256 14.1255 32.3232 14.0168C32.3702 13.2135 32.4052 12.4111 32.4283 11.6086C33.0759 11.6077 34.151 11.7054 34.7314 11.6086Z" fill="#020202"/>
<path d="M18.5176 7.00244C18.5194 7.01258 18.6512 7.06693 18.6097 7.18577C18.1519 7.16182 17.7143 7.31382 17.2675 7.37186C16.9478 7.41332 16.6475 7.17011 16.4503 7.74404C16.2688 8.27008 16.5231 8.42392 16.5452 8.70859C16.5673 8.99325 16.4116 9.82791 16.4006 10.1817C16.3932 10.4203 16.3499 10.9933 16.3987 11.1748C16.4798 11.4779 17.648 11.465 17.9243 11.429C18.8161 11.312 17.9704 9.25213 18.5185 9.12131C18.5987 9.1471 18.5978 9.17843 18.5185 9.21343C18.5987 9.23923 18.5978 9.27055 18.5185 9.30556C18.7 10.0407 18.7 10.7814 18.5185 11.5166C17.7769 11.5681 17.0307 11.5838 16.2799 11.5626C16.2283 10.0379 16.2375 8.51789 16.3075 7.00244H18.5185H18.5176Z" fill="#FADB10"/>
<path d="M43.9431 4.69936V6.91035C43.8962 6.89193 43.7773 6.96563 43.7552 6.85231L43.7589 4.79149H39.5212C39.4263 5.36082 39.6474 6.34471 39.5258 6.85324C39.4981 6.96747 39.3664 6.89101 39.3369 6.91035V4.69936C40.8708 4.7012 42.4093 4.69383 43.9431 4.69936Z" fill="#FADB10"/>
<path d="M25.2429 2.30505H25.4272C25.4336 3.05403 25.464 3.82235 25.5193 4.60817C25.5774 4.6745 25.6013 4.70859 25.7036 4.7003C25.7837 4.72609 25.7828 4.75742 25.7036 4.79242C25.6161 4.79242 25.4926 4.80624 25.4244 4.75281C25.2144 4.58883 25.3968 2.8707 25.3351 2.4893H21.0052C20.9195 3.04481 21.1627 4.16413 20.9131 4.60817V2.30505H25.2429Z" fill="#FADB10"/>
<path d="M32.4283 4.69934V4.79147L32.2901 5.89789L32.245 4.79147H25.7041V4.70027C27.9446 4.70303 30.1887 4.69658 32.4292 4.70027L32.4283 4.69934Z" fill="#FADB10"/>
<path d="M20.8213 6.91033C20.8922 6.83939 20.9217 6.79794 21.0424 6.8136L27.7306 6.82004C27.7518 6.98034 27.5215 6.90664 27.41 6.91125C25.4404 6.99232 23.4008 6.88545 21.4201 6.90941C21.2644 6.91125 21.0101 6.85045 20.9143 7.00338H20.8222V6.91125L20.8213 6.91033Z" fill="#FADB10"/>
<path d="M39.2449 7.00244C39.1408 7.03653 39.1325 7.08259 38.9317 7.10102C37.5176 7.22723 34.0196 7.26868 32.6525 7.09917C32.5502 7.08627 32.4719 7.13879 32.4268 7.00336H39.244L39.2449 7.00244Z" fill="#FADB10"/>
<path d="M27.8213 7.00243C27.9116 6.99782 27.907 7.06231 27.9162 7.13601C27.9936 7.74311 27.8545 8.49669 27.9134 9.1213H32.4275C32.4478 9.28344 32.2193 9.20882 32.106 9.21342C30.6827 9.27238 29.2446 9.1692 27.8213 9.21342V7.00243Z" fill="#FADB10"/>
<path d="M43.9431 13.9118V16.1228C43.2853 16.1053 42.6192 16.1504 41.9615 16.1228C41.8481 16.1182 41.6197 16.1928 41.6399 16.0307H43.6206C43.9449 16.0307 43.5884 14.0951 43.8509 13.8602C43.9255 13.7939 43.9329 13.9118 43.9431 13.9118Z" fill="#FADB10"/>
<path d="M34.7314 11.6087C34.7397 11.6069 34.7489 11.4927 34.8226 11.5166C34.8475 12.2536 34.7526 13.0044 34.9157 13.7276H37.0346C37.0548 13.8897 36.8264 13.8151 36.713 13.8197C36.0544 13.8474 35.3892 13.7995 34.7314 13.8197V11.6087Z" fill="#FADB10"/>
<path d="M20.8209 4.69934C20.4284 4.91952 18.702 4.60537 18.702 5.02178V6.91033C18.5399 6.9306 18.6145 6.70213 18.6099 6.58882C18.5841 5.96145 18.6292 5.32671 18.6099 4.69934H20.8209Z" fill="#FADB10"/>
<path d="M20.8207 7.0024C20.8529 7.51093 20.7756 8.06736 20.8207 8.56852L20.8677 9.25577C20.0708 9.28433 19.2877 9.26959 18.5176 9.2134V9.12127C18.8428 9.04389 20.6512 9.19958 20.7286 9.12127C20.8004 8.70026 20.5913 7.13875 20.8198 6.91028V7.0024H20.8207Z" fill="#FADB10"/>
<path d="M11.6084 20.8212C11.8608 22.3486 11.8571 23.899 11.6084 25.4274C10.8419 25.4246 10.0717 25.4292 9.30527 25.4274C9.30251 23.8935 9.3108 22.355 9.30527 20.8212C10.0764 20.5945 10.8373 20.5918 11.6084 20.8212Z" fill="#020202"/>
<path d="M6.9105 2.30498H7.09475C7.1141 2.23312 7.14542 2.12626 7.2007 2.12073C7.67053 2.07743 8.6102 2.07743 9.08004 2.12073L9.2127 2.30498C9.23757 3.04382 9.29745 3.83241 9.30482 4.6081C7.77187 4.67904 6.23154 4.6818 4.69859 4.6081C4.71978 3.91717 4.67187 3.21978 4.6949 2.52792C4.69859 2.40908 4.79071 2.31696 4.79071 2.30498C4.81006 2.23312 4.84138 2.12626 4.89666 2.12073C5.36649 2.07743 6.30616 2.07743 6.776 2.12073L6.90866 2.30498H6.9105Z" fill="#010101"/>
<path d="M4.69961 16.2149C5.50293 16.1827 6.31087 16.1551 7.12248 16.1311C7.0626 16.8948 7.02207 17.6595 7.00272 18.4259C7.08471 18.4434 7.08195 18.4738 7.00272 18.5181C6.97232 18.5181 6.941 18.5181 6.9106 18.5181C6.75951 18.7907 6.33113 18.7778 6.1736 18.5181H4.69961C4.69776 17.7525 4.70329 16.9814 4.69961 16.2149Z" fill="#030303"/>
<path d="M13.9117 25.4274C14.0112 25.4458 14.107 25.4836 14.0959 25.5877C13.9559 26.1745 13.9577 26.9963 14.0499 27.5988C14.0609 27.6734 13.9973 27.7167 13.9117 27.7305C13.1452 27.7277 12.375 27.7323 11.6086 27.7305C11.6076 26.964 11.6113 26.1938 11.6086 25.4274C12.2995 25.1427 13.2272 25.1243 13.9117 25.4274Z" fill="#020202"/>
<path d="M20.8212 2.30503C20.8212 3.0715 20.8212 3.84167 20.8212 4.60815C20.0547 4.60907 19.2846 4.60446 18.5181 4.60815C18.4324 4.57314 18.367 4.51694 18.3237 4.43679C18.2767 4.35019 18.3016 2.86791 18.5181 2.76565C18.461 2.5989 18.5982 2.41834 18.6102 2.30503C18.6296 2.23317 18.659 2.12999 18.718 2.12078C18.9778 2.07932 20.438 2.07748 20.6876 2.12078L20.8221 2.30503H20.8212Z" fill="#020202"/>
<path d="M2.39599 13.9117C2.56089 13.7468 4.74148 13.7643 4.74977 13.8832C4.80229 14.6303 4.85111 15.3857 4.69911 16.1227C4.7811 16.1402 4.77833 16.1706 4.69911 16.2149C4.60698 16.2121 4.51486 16.2185 4.42273 16.2149C3.75299 16.1725 3.06942 16.1467 2.37296 16.1375C2.34071 15.3949 2.32229 14.6506 2.39599 13.9117Z" fill="#030303"/>
<path d="M2.48829 4.60722C3.19304 4.60998 3.9024 4.60538 4.60716 4.60722C4.63756 4.60722 4.66888 4.60722 4.69928 4.60722C6.23316 4.61183 7.77164 4.59524 9.30551 4.60722C9.30551 4.63762 9.30551 4.66894 9.30551 4.69934C7.77256 4.77489 6.23224 4.7712 4.69928 4.69934C3.9282 4.92966 3.16817 4.92689 2.39616 4.69934C2.46802 4.71869 2.57212 4.74817 2.58041 4.80713C2.61818 5.06692 2.62555 6.5446 2.58041 6.77675L2.39616 6.91126L2.57304 6.71872C3.21423 6.75741 3.85265 6.74543 4.48647 6.68095L4.69928 6.81913C4.76653 6.84309 4.76377 6.87441 4.69928 6.91126C4.78035 6.93613 4.77851 6.96653 4.69928 7.00338C3.97887 7.04208 3.25477 7.07339 2.52698 7.09642C2.48829 9.33782 2.44407 11.5792 2.39616 13.8197C2.47815 13.8372 2.47539 13.8676 2.39616 13.9118C2.39893 14.6479 2.39432 15.3876 2.39616 16.1228C2.99405 16.1449 3.60208 16.0933 4.19997 16.1182C4.31973 16.1228 4.41093 16.214 4.42291 16.214C3.7937 16.1928 3.15711 16.2407 2.52698 16.2177C2.40814 16.2131 2.31602 16.1219 2.30404 16.1219V13.9109L2.11979 13.8261V7.11209L2.30404 7.00154L2.19625 7.18579H0.226627L0.0921247 7.00154L0.276374 7.08721V13.7082L0.0921247 13.8188C0.102258 13.4945 0.915719 13.5617 0.736997 13.9109C0.553669 13.9044 0.367577 13.9164 0.184249 13.9109C0.101337 13.9081 0.0175037 13.8197 0 13.8188V9.39678C0 9.33506 0 9.27425 0 9.21253C0 8.50778 0.00276374 7.79842 0 7.09366C0 7.03194 0 6.97114 0 6.90941C0.0617235 6.90941 0.122526 6.90941 0.184249 6.90941C0.889003 6.90665 1.59836 6.91126 2.30312 6.90941C2.30404 6.17334 2.29943 5.43358 2.30312 4.69842C2.30312 4.66802 2.30312 4.6367 2.30312 4.6063C2.36484 4.6063 2.42564 4.6063 2.48737 4.6063L2.48829 4.60722Z" fill="#030303"/>
<path d="M14.0964 25.4274C14.7707 25.4872 15.4488 25.5001 16.1305 25.467C16.2779 25.3813 16.3027 25.4661 16.2152 25.6116C16.206 25.6835 16.1857 25.7885 16.1332 25.7959C15.9591 25.8207 14.498 25.8299 14.3672 25.7959L14.2345 25.6116C14.3709 25.8115 14.3138 25.8502 14.0964 25.7498C14.1673 25.759 14.2696 25.7774 14.2806 25.8309C14.3055 25.9552 14.3073 27.2505 14.2806 27.3712L14.0964 27.5011C14.2963 27.3647 14.335 27.4219 14.2345 27.6393C14.2345 27.5683 14.2511 27.4587 14.2963 27.455C15.2627 27.3758 17.1392 27.3537 18.0872 27.455L18.1959 27.6393C18.1204 27.3297 18.0384 26.5623 18.3341 26.4417C18.3 26.1082 18.3617 25.9239 18.5183 25.8889C18.7809 26.4057 18.8021 27.2293 18.5183 27.7314C17.0158 27.7415 15.5068 27.736 14.0042 27.7314C13.9738 27.7314 13.9425 27.7314 13.9121 27.7314V25.4283C13.9407 25.2533 14.0134 25.2634 14.0964 25.4283V25.4274Z" fill="#FADB10"/>
<path d="M9.30546 18.518C9.53577 19.2891 9.533 20.0491 9.30546 20.8211C8.53898 20.8184 7.76882 20.823 7.00234 20.8211C7.0005 20.0547 7.00603 19.2845 7.00234 18.518C7.68683 18.2158 8.6136 18.2352 9.30546 18.518Z" fill="#131313"/>
<path d="M25.5192 4.60719C25.2815 4.33266 25.5054 2.7647 25.4271 2.30408H25.5192C25.5192 2.62191 25.4381 4.52612 25.5192 4.60719Z" fill="#3F3F3F"/>
<path d="M39.3369 20.8212C39.3341 21.5877 39.3387 22.3578 39.3369 23.1243H37.0338V25.4274C36.2673 25.4293 35.4971 25.4246 34.7307 25.4274C34.516 23.911 34.5335 22.3523 34.7307 20.8212L35.0513 20.6904L38.6883 20.7226C38.9196 20.6517 39.1351 20.6858 39.336 20.8212H39.3369Z" fill="#020202"/>
<path d="M41.6408 18.518C41.6998 19.208 41.7173 19.9211 41.6943 20.6562C41.8804 20.7649 41.6565 20.9676 41.4566 20.9123C40.949 21.15 39.9043 21.1224 39.4299 20.8202C39.3995 20.8202 39.3681 20.8202 39.3377 20.8202C39.1553 20.0676 39.2134 19.2781 39.3377 18.5171C40.1024 18.5171 40.8771 18.4959 41.6408 18.5171V18.518Z" fill="#030303"/>
<path d="M27.8221 25.4273C28.0248 25.3223 28.0709 25.4596 28.0847 25.6567C28.1031 26.3237 28.1225 26.9842 28.1446 27.6383C28.1446 27.5665 28.1621 27.4568 28.2063 27.4541C29.1755 27.4034 30.7195 27.3583 31.6555 27.4541C31.906 27.4006 32.0562 27.4624 32.1059 27.6383C31.9696 27.4384 32.0267 27.3997 32.2441 27.5001C32.1732 27.4909 32.0672 27.4707 32.0599 27.4191C32.0405 27.2818 32.0286 25.9497 32.0599 25.8787C32.0912 25.8078 32.1714 25.7765 32.2441 25.7489C32.0442 25.8852 32.0055 25.8281 32.1059 25.6107C32.0977 25.6825 32.0746 25.7894 32.024 25.7949C31.7964 25.8179 30.2773 25.8198 30.187 25.7332C30.1557 25.7037 30.1391 25.6586 30.1262 25.6107L30.0166 25.5397C30.7342 25.478 31.4767 25.4402 32.2451 25.4264C32.2727 25.2505 32.3455 25.2606 32.4293 25.4264C32.5012 25.4458 32.608 25.4752 32.6136 25.5314C32.6366 25.7489 32.6504 27.4854 32.6136 27.5978L32.4293 27.7295C32.3989 27.7295 32.3676 27.7295 32.3372 27.7295C30.8337 27.7397 29.3265 27.724 27.8231 27.7295C27.5928 26.9584 27.5955 26.1984 27.8231 25.4264L27.8221 25.4273Z" fill="#FADB10"/>
<path d="M34.7309 25.4274C34.7309 25.4578 34.7309 25.4891 34.7309 25.5195C34.7382 26.0612 34.6673 26.7595 34.7309 27.2699C34.706 27.3805 34.7935 27.7139 34.6774 27.7324C34.0897 27.8245 33.0763 27.7259 32.4277 27.7305V25.4274C32.5106 25.3583 32.5945 25.304 32.6811 25.2994C33.1537 25.2717 34.039 25.2533 34.4757 25.3049C34.5641 25.315 34.6479 25.3657 34.7299 25.4274H34.7309Z" fill="#171717"/>
<path d="M20.9131 27.7305C20.9527 27.0193 20.9831 26.3136 21.0053 25.6116C21.0135 25.56 21.0218 25.5204 21.0329 25.5195C21.6326 25.4909 22.3705 25.4919 22.9712 25.5195C22.9924 25.5204 23.0126 25.5609 23.032 25.6116C23.1094 26.812 23.1094 28.2031 23.032 29.4348C23.0974 29.5988 23.0348 29.9903 22.8017 29.8493C22.798 29.9009 22.7925 29.9415 22.786 29.9415C21.5856 30.0087 20.1107 29.9894 18.903 29.9415C18.8809 29.9415 18.8606 29.9009 18.8412 29.8493C18.7132 29.9931 18.6386 29.8761 18.7031 29.7112C18.622 29.2201 18.6257 28.6278 18.7031 28.145C18.6478 28.0538 18.6754 27.9138 18.7952 27.9147C19.417 27.8392 20.1807 27.842 20.8219 27.9147C20.7418 27.8889 20.7427 27.8576 20.8219 27.8226C20.0905 27.8401 19.3737 27.8816 18.6727 27.9451L18.6109 27.8226L18.7335 27.8659C18.6459 28.4868 18.5446 29.351 18.7952 29.8991L18.6109 30.0336C18.5805 30.0336 18.5492 30.0336 18.5188 30.0336C18.5188 29.2671 18.516 28.497 18.5188 27.7305L18.692 27.5472L20.645 27.5647L20.8219 27.7305C20.8505 27.6522 20.8818 27.6522 20.914 27.7305H20.9131Z" fill="#FADB10"/>
<path d="M20.9135 25.4273C20.9218 25.3555 20.9439 25.2477 20.9945 25.2431C21.2295 25.2219 23.2286 25.2016 23.2479 25.3592C23.3796 26.4214 23.3492 27.5131 23.1245 28.5587C23.1263 29.0488 23.1245 29.5426 23.1245 30.0327H18.6104V27.8217H20.8213V27.9138H18.7946C18.8241 28.0041 18.7025 28.1137 18.7025 28.1441V29.7102C18.7025 29.7204 18.8305 29.8484 18.8407 29.8484H22.802C22.8435 29.8484 23.0323 29.4864 23.0323 29.4339V25.6107H21.0056C20.9393 26.2242 21.0959 27.0064 21.0074 27.596C20.9918 27.6973 20.9991 27.6899 20.9135 27.7295C20.8969 26.9704 20.8564 26.2233 20.7909 25.4872L20.9135 25.4264V25.4273Z" fill="#FADB10"/>
<path d="M27.8216 27.7305C27.8244 28.497 27.8216 29.2672 27.8216 30.0337C27.0552 30.0337 26.285 30.0337 25.5185 30.0337C25.4688 29.7785 25.4236 29.5233 25.396 29.2663C25.3398 28.7541 25.232 27.7527 25.408 27.632C25.6696 27.4514 26.765 27.5316 27.2468 27.6089C27.4402 27.6403 27.6319 27.6836 27.8226 27.7305H27.8216Z" fill="#FADB10"/>
<path d="M46.3383 13.8196C46.3309 11.5801 46.3438 9.33501 46.3383 7.09546C46.8063 7.29998 47.9357 6.98675 48.0684 7.62149C48.1108 7.82324 48.0463 8.07382 48.1015 8.23596C48.19 8.49483 48.3595 8.14568 48.2729 8.66158C48.3512 9.28618 48.3208 9.89973 48.1808 10.5041C48.12 10.6459 48.0573 10.6533 48.0886 10.8726L48.2646 11.1149C48.3162 11.8629 48.2886 12.611 48.1808 13.3599C48.0196 13.4475 47.3728 13.2291 47.1398 13.2826C46.9417 13.3286 46.6791 13.8675 46.3383 13.8206V13.8196Z" fill="#020202"/>
<path d="M44.1278 5.11393C44.1278 5.07708 43.9887 4.99969 44.0753 4.88269C44.3083 4.56671 45.6303 5.1692 45.833 5.61969C45.891 5.74959 46.1499 6.56581 46.1591 6.67728C46.1748 6.87167 46.1472 6.79889 46.02 6.81824C45.8929 6.83758 45.5014 6.84679 45.3908 6.82007C45.2803 6.79336 45.2692 6.50777 45.0988 6.4829C44.7938 6.43776 44.6133 7.02275 44.1287 6.81824C44.1204 6.25167 44.1398 5.68142 44.1287 5.11393H44.1278Z" fill="#020202"/>
<path d="M48.0889 10.8717C48.6057 10.9611 48.2915 11.898 48.286 12.2195C48.2805 12.5493 48.4583 13.208 48.181 13.3591C48.0686 12.7603 48.3026 12.0205 48.2777 11.4742C48.2667 11.2301 48.1128 11.0421 48.0889 10.8717Z" fill="#020202"/>
<path d="M48.1813 10.5031C48.1057 10.1088 48.2559 9.71087 48.2743 9.35158C48.2881 9.07244 48.2089 9.0448 48.2743 8.66064C48.3287 9.13048 48.4208 9.61321 48.3692 10.0913C48.3388 10.3742 48.2402 10.3686 48.1822 10.5031H48.1813Z" fill="#020202"/>
<path d="M25.5198 23.1243C25.5705 23.7913 25.5843 24.4721 25.5631 25.1667L25.6801 25.3436C26.396 25.3638 27.1099 25.3915 27.823 25.4274C27.8248 26.1939 27.8202 26.964 27.823 27.7305C27.0565 27.7333 26.2863 27.7287 25.5198 27.7305C25.5198 28.497 25.5208 29.2671 25.5198 30.0336H23.2167C23.2158 29.5656 23.295 28.9714 23.1246 28.5596C23.12 27.5168 23.1274 26.4693 23.1246 25.4274H20.9136C20.8408 24.6646 20.8418 23.888 20.9136 23.1252C20.9219 23.0524 20.9468 22.9437 20.9984 22.9409C22.208 22.8857 23.7566 22.8663 24.957 22.9409C25.2647 22.8811 25.4526 22.9419 25.5198 23.1252V23.1243Z" fill="#020202"/>
<path d="M25.3353 30.2169H23.3086V32.2437H25.3353V30.2169Z" fill="#FADB10"/>
<path d="M4.69916 6.91027C4.83827 6.30593 4.85854 5.6583 4.75996 4.9692C4.7701 4.79969 4.86406 4.71863 5.0216 4.7914C6.31319 4.71126 7.79731 4.71494 9.12114 4.7914C9.16997 4.80154 9.20866 4.81351 9.21327 4.83378C9.28052 5.11015 9.23169 6.53071 9.21327 6.89553C9.21235 6.91764 9.17181 6.93699 9.12114 6.95633C9.22617 6.82367 9.25841 6.87526 9.30816 7.02174C10.7969 7.04845 12.2875 7.07241 13.7808 7.09452C13.8241 8.42664 13.837 9.76337 13.8186 11.1047L13.9107 11.148C13.9162 11.3009 13.907 11.4557 13.9107 11.6086C14.6505 11.7026 15.4031 11.7367 16.1678 11.7109C16.1457 12.4479 16.1604 13.1812 16.2138 13.9117C16.9849 13.6842 17.7459 13.6814 18.5169 13.9117C19.2807 13.7192 20.0628 13.6612 20.8403 13.792L20.7233 13.7045C20.7537 13.0817 20.7381 12.4617 20.6773 11.8445L20.8201 11.6086C20.7031 11.476 20.7556 11.4271 20.9122 11.5165L21.1185 11.3783C21.7266 11.4419 22.3383 11.4548 22.9537 11.4161L23.1232 11.6086C23.0513 11.5893 22.9463 11.5589 22.9389 11.5008C22.9122 11.2761 22.8975 9.6823 22.9389 9.53122L23.1232 9.39672C23.1038 9.46857 23.0734 9.57544 23.0172 9.58097C22.7703 9.60492 21.1572 9.60584 21.066 9.51924C21.0347 9.48976 21.0181 9.44554 21.0043 9.39672C21.2558 9.62703 21.2374 10.4561 21.2033 10.8403C21.2346 11.2005 21.1379 11.3949 20.9122 11.4235L20.727 11.1996C20.7574 10.6266 20.7335 10.0582 20.6552 9.49345L18.6478 9.48884L18.5169 9.30459V9.21247H20.8201V8.56759C20.8348 8.73065 21.0052 9.04296 20.9122 9.30459C21.6787 9.30551 22.4488 9.30183 23.2153 9.30459L27.6778 9.35065C27.6612 10.0886 27.6778 10.8108 27.7294 11.5156C27.7764 11.5451 27.8151 11.6059 27.8215 11.6077C29.2918 11.6519 30.7658 11.6823 32.2435 11.6998C32.3135 12.3677 32.3283 13.1361 32.2435 13.8187C32.2859 13.0983 32.3163 12.3613 32.3356 11.6077C32.366 11.6077 32.3974 11.6077 32.4278 11.6077C32.4333 12.3742 32.4241 13.1443 32.4278 13.9108C33.1942 13.9145 33.9653 13.9044 34.7309 13.9108C34.7309 14.6312 34.6627 15.5202 34.7309 16.2139C35.0303 16.3438 36.2491 16.3908 36.7447 16.3337L36.9419 16.2139H37.034C37.0386 16.8257 36.929 18.0233 37.1261 18.5171C37.6466 18.6221 38.3016 18.6525 39.0921 18.6092L39.1529 18.7013C39.3113 19.0081 39.3049 19.805 39.1529 20.1292C39.3334 20.2103 39.1501 20.6193 39.0018 20.6903C38.8166 20.7796 35.045 20.81 34.8976 20.6663C34.8175 19.9395 34.7622 19.2237 34.7309 18.5171L34.6295 18.717C33.9395 18.7501 33.2495 18.7455 32.5586 18.7032L32.4268 18.518C32.1661 17.8353 32.2186 17.0928 32.2767 16.3752C31.5765 16.4295 30.8792 16.4212 30.1845 16.3503L30.1237 16.1227L30.2942 15.9965C30.9353 16.1154 31.7064 16.1384 32.3347 16.0306C31.6843 16.1172 30.9538 16.0988 30.308 16.0306L30.2177 15.9763C30.191 15.289 30.1597 14.6008 30.1237 13.9117L30.062 14.0214C29.4162 14.0665 28.7262 14.1098 28.0611 14.1218C27.9975 14.693 27.9754 15.2724 27.9947 15.8593L27.8215 16.2149L27.945 16.2526C28.612 16.2803 29.2955 16.3208 29.9957 16.3752C29.9699 17.0919 29.9828 17.7755 30.0325 18.4259C30.0878 18.2757 30.2288 18.2471 30.4526 18.3383C31.1657 18.2656 31.8243 18.3254 32.4268 18.518C32.6304 19.1951 32.6848 19.9017 32.5881 20.6369H34.4121L34.5448 20.8211C34.6646 21.5056 34.6655 22.2168 34.5485 22.9547C34.6388 23.2311 34.6544 25.1482 34.5586 25.2615C34.4564 25.3831 32.6701 25.3518 32.5724 25.2412C32.5604 24.5024 32.5116 23.7967 32.4259 23.1242C32.4001 23.3932 32.2343 23.3776 32.1496 23.1242L31.9828 23.0607C31.4844 23.0699 30.9022 23.033 30.2352 22.9501C30.2251 22.2324 30.1873 21.5231 30.1228 20.8211C30.1016 21.0072 30.0095 20.9998 29.9386 20.8211L29.8667 20.7059L28.5521 20.7354C28.0841 20.7889 27.8704 20.7096 27.9118 20.4987C27.8529 19.8612 27.8354 19.0827 27.9118 18.4259C27.8777 18.6976 27.8473 18.974 27.8197 19.255C27.6327 19.2476 27.5157 19.0634 27.4696 18.7022H25.6474L25.5175 18.518C25.5894 18.5355 25.6769 18.5594 25.7017 18.623C25.7395 18.7188 25.7229 20.4793 25.7017 20.6894L25.5175 20.8211C25.5368 20.7492 25.5663 20.6442 25.6234 20.6369C25.8344 20.6092 27.3508 20.5982 27.5028 20.6369L27.6354 20.8211L27.5765 20.9243C26.8754 20.939 26.1891 20.9657 25.5166 21.0054C26.1928 20.9713 26.8791 20.9427 27.5737 20.9215L27.6354 21.0054C27.7055 21.6742 27.7202 22.4416 27.6354 23.1242C27.7414 22.4628 27.7211 21.6567 27.6014 20.9851L27.7276 20.822C27.6078 20.6709 27.6557 20.6203 27.8197 20.7299C27.9017 20.7465 27.8989 20.7778 27.8197 20.822C28.0334 21.4835 28.0878 22.1901 27.9809 22.9409H29.805L29.9376 23.1251L29.9468 23.314C29.337 23.244 28.6064 23.2081 28.0039 23.3094C28.6156 23.2265 29.3591 23.2458 29.9386 23.3094C30.0086 23.9782 30.0233 24.7456 29.9386 25.4283C30.0445 24.7668 30.0242 23.9607 29.9045 23.2891L30.0307 23.1261C30.0473 23.0431 30.0786 23.0468 30.1228 23.1261C30.2592 23.8253 30.3448 24.5337 30.284 25.2449H32.1081L32.2408 25.4292C32.2288 25.4292 32.1385 25.5204 32.0178 25.525C31.4945 25.5453 30.9667 25.4992 30.4434 25.5213C30.3301 25.5259 30.1016 25.4513 30.1219 25.6134H32.1026C32.1127 25.6134 32.2408 25.7415 32.2408 25.7516V27.502C32.2408 27.5121 32.1127 27.6402 32.1026 27.6402H28.1412C27.7368 27.6402 28.0583 25.6669 27.8188 25.4292C27.0532 25.4172 26.3024 25.3702 25.5682 25.2882C25.5792 24.5604 25.5617 23.84 25.5157 23.1261H20.9094C20.891 22.3706 20.8597 21.6032 20.8173 20.8229C20.6165 20.8128 20.5686 20.7373 20.7537 20.7373L14.1558 20.7308L14.0931 20.6387C14.0434 20.6267 14.0038 20.6138 14.001 20.5954C13.9623 20.2748 13.9853 19.7792 14.001 19.4448C14.0148 19.15 14.0581 18.7999 14.0931 18.5198C14.0572 18.8257 14.0314 19.1361 14.0139 19.4512L13.9089 19.4411C13.7145 19.3379 13.6528 19.091 13.7246 18.6976C13.0116 18.7289 12.2976 18.7142 11.6057 18.5198C10.8356 18.7455 10.0728 18.7437 9.30263 18.5198C9.07232 17.7487 9.07508 16.9887 9.30263 16.2167C9.28328 16.2886 9.25749 16.3853 9.19485 16.401C9.02257 16.4452 7.45645 16.4295 7.22522 16.401L7.09072 16.2167C7.25562 16.4793 7.39565 18.2895 7.33024 18.3789C7.24917 18.4894 7.09256 18.5161 6.99859 18.4268C6.99583 17.6907 7.00043 16.9509 6.99859 16.2158C6.23304 16.1983 5.46011 16.2407 4.69547 16.2158C4.69547 16.1854 4.69547 16.1541 4.69547 16.1237L4.85854 15.9975C5.53105 16.1172 6.33622 16.1375 6.99767 16.0315C6.31871 16.1191 5.55592 16.0997 4.8788 16.0315C4.82906 16.026 4.78944 16.0186 4.78668 16.0039C4.72035 15.6391 4.76181 14.4396 4.78668 14.0186C4.7876 13.9965 4.82813 13.9772 4.8788 13.9587C4.78484 13.9256 4.66231 13.8786 4.51123 13.8196L2.6457 13.8178L2.57569 13.7284C2.5241 13.7201 2.48356 13.7109 2.48356 13.7017C2.43842 11.5285 2.4071 9.20417 2.5112 7.09728C3.23714 7.06964 3.96493 7.03833 4.69455 7.00332C4.70469 6.98581 4.68903 6.94436 4.69455 6.91119L4.69916 6.91027Z" fill="#FADB10"/>
<path d="M16.3065 7.00244V11.5166C17.0408 11.5341 17.7833 11.4917 18.5175 11.5166C18.5516 11.441 18.6087 11.4014 18.6861 11.3802C18.7819 11.3544 20.4696 11.4244 20.6557 11.4475L20.8197 11.6087C20.9874 12.3623 20.8851 13.1453 20.9128 13.9118C20.1159 13.909 19.3144 13.9136 18.5175 13.9118L18.3333 13.8068V11.8003C17.6221 11.8114 16.9127 11.7478 16.2144 11.6087C16.2098 10.2443 16.1987 8.87349 16.2126 7.50821C16.2144 7.35251 16.1536 7.09825 16.3065 7.00244Z" fill="#DBA707"/>
<path d="M9.30596 4.69932C9.30964 5.4658 9.30319 6.23596 9.30596 7.00244H13.9122C13.9509 8.37971 13.8597 9.77171 13.9122 11.1481L13.7289 11.5156V7.18577C13.2747 7.27052 12.8104 7.10009 12.3921 7.08627C12.0356 7.0743 11.6045 7.09917 11.1982 7.08996C10.4999 7.07522 9.72512 7.29724 9.12171 6.95546V4.79053H5.02216C4.99729 4.79053 4.82685 4.96648 4.81396 5.03189C4.89871 5.49897 4.91622 6.02684 4.8895 6.50036C4.87937 6.67263 4.90977 6.84583 4.69972 6.91032C4.70525 6.88084 4.69788 6.84859 4.69972 6.81819C4.44638 6.27926 4.37821 5.19956 4.69972 4.69932C6.2336 4.6938 7.77208 4.70301 9.30596 4.69932Z" fill="#FADB10"/>
<path d="M16.2152 11.6086C16.4455 12.3797 16.4428 13.1398 16.2152 13.9118C15.9831 13.6372 16.218 11.8869 16.124 11.7929C15.4036 11.7846 14.6786 11.8463 13.9701 11.6869L13.9121 11.6096H16.2152V11.6086Z" fill="#FADB10"/>
<path d="M23.2168 9.30556C24.7507 9.31109 26.2892 9.30095 27.823 9.30556C27.6222 9.99834 27.7797 10.7906 27.7309 11.5156C27.7263 11.5129 27.6535 11.6861 27.6388 11.5617V9.39676L23.2177 9.30556H23.2168Z" fill="#FADB10"/>
<path d="M34.7309 18.518C34.7392 18.5162 34.7484 18.402 34.8221 18.4259C34.8839 18.9768 34.8221 19.793 34.918 20.3117C34.9456 20.4628 35.0138 20.5678 35.1639 20.6185L38.7384 20.6378C38.8812 20.6811 39.1529 20.1744 39.1529 20.1311V18.7032L37.1842 18.7069C37.0709 18.6848 37.1446 18.565 37.1262 18.519H39.3372C39.3372 19.2854 39.3399 20.0556 39.3372 20.8221C37.8346 20.7871 36.2326 20.7806 34.7309 20.8221C34.6591 20.8027 34.5541 20.7742 34.5467 20.717C34.5098 20.4333 34.496 18.8902 34.5467 18.6507L34.7309 18.519V18.518Z" fill="#FADB10"/>
<path d="M36.942 16.2148L36.8959 18.5189C36.5956 18.0398 37.094 16.8643 36.7145 16.4894C36.4058 16.1844 34.9521 16.6414 34.7439 16.3834C34.7098 16.33 34.7375 16.2701 34.7319 16.2158H36.9429L36.942 16.2148Z" fill="#FADB10"/>
<path d="M27.9133 11.4244C27.823 11.16 28.127 10.9453 28.1022 10.739C28.0957 10.6883 27.9317 10.6984 27.9142 10.6266C27.8359 10.3032 27.9677 9.756 27.9133 9.39856H32.105C32.3749 9.39856 32.3574 10.1724 32.3316 10.3622C32.3141 10.493 32.1768 10.5897 32.1658 10.6607C32.1474 10.786 32.3436 10.8808 32.327 10.9988C32.3215 11.0365 31.9493 11.4253 31.9198 11.4253H27.9124L27.9133 11.4244Z" fill="#020202"/>
<path d="M32.3354 11.6087C32.3161 12.2361 32.3612 12.8708 32.3354 13.4982C32.3308 13.6115 32.4054 13.8399 32.2433 13.8197V11.7008C30.9185 11.5829 29.334 11.8565 28.0415 11.7063C27.8904 11.6888 27.8489 11.6161 27.8213 11.6087C29.3248 11.6068 30.8319 11.6105 32.3354 11.6087Z" fill="#FADB10"/>
<path d="M18.5176 9.30561L20.8161 9.31021C20.9616 10.0048 20.9045 10.717 20.9128 11.4245C20.992 11.4503 20.9911 11.4816 20.9128 11.5166C20.8944 11.5359 20.8271 11.6069 20.8207 11.6087C20.4568 11.6935 19.2933 11.6198 18.8354 11.6087C18.6991 11.605 18.5701 11.5175 18.5176 11.5157V9.30469V9.30561Z" fill="#020202"/>
<path d="M11.6086 18.5181C11.6805 18.5356 11.768 18.5595 11.7929 18.6231C11.8306 18.7189 11.814 20.4794 11.7929 20.6894L11.6086 20.8212C10.8421 20.8193 10.072 20.8239 9.30549 20.8212C9.30272 20.0547 9.30825 19.2845 9.30549 18.5181C10.072 18.5135 10.8421 18.5153 11.6086 18.5181Z" fill="#DBA707"/>
<path d="M13.912 20.8211C14.1755 22.3117 14.2004 23.9414 13.912 25.4274C13.1474 25.4062 12.3735 25.4301 11.6089 25.4274C11.6034 23.8935 11.6089 22.355 11.6089 20.8211C12.38 20.5936 13.1409 20.5917 13.912 20.8211Z" fill="#DBA707"/>
<path d="M7.00293 18.4258C7.32997 18.4572 7.10703 18.3485 7.10242 18.1891C7.08031 17.5313 7.10427 16.8717 7.09505 16.2148H9.30605C9.30789 16.9813 9.30328 17.7515 9.30605 18.518C8.54049 18.5226 7.76756 18.4977 7.00293 18.518C7.00293 18.4876 7.00293 18.4562 7.00293 18.4258Z" fill="#DBA707"/>
<path d="M2.58073 13.7276C2.952 13.6852 4.22424 13.6659 4.55865 13.7304C4.65999 13.7497 4.88385 13.8897 4.88385 13.9579V16.0307H7.00272C7.02299 16.1929 6.79452 16.1182 6.6812 16.1228C6.02251 16.1505 5.35737 16.1026 4.6996 16.1228C4.69684 15.3868 4.70144 14.647 4.6996 13.9119H2.39648C2.39648 13.8815 2.39648 13.8511 2.39648 13.8207C2.43794 13.6355 2.49966 13.6051 2.58073 13.7285V13.7276Z" fill="#FADB10"/>
<path d="M0.737646 13.9118C0.682371 13.734 0.0927734 13.8528 0.0927734 13.8197V7.00244H2.30377V13.9118C1.78326 13.8989 1.25723 13.9302 0.737646 13.9118Z" fill="#030303"/>
<path d="M4.6996 4.6993C4.66275 5.39208 4.74935 6.13184 4.6996 6.81817C3.97366 7.02269 3.14914 6.8587 2.39648 6.91029V4.6993C3.16296 4.69746 3.93312 4.70207 4.6996 4.6993Z" fill="#020202"/>
<path d="M4.6989 7.00244C4.59388 7.18393 3.54458 7.07337 3.26728 7.09088C3.00473 7.10746 2.75507 7.21064 2.48883 7.18761L2.58003 13.7275C2.5524 13.7303 2.46488 13.827 2.39578 13.8197C2.38841 11.5488 2.40223 9.27331 2.39578 7.00244H4.6989Z" fill="#FADB10"/>
<path d="M20.8209 20.8211C20.9066 21.5866 20.9047 22.3586 20.8209 23.1242C19.346 23.1795 17.8471 23.1942 16.3243 23.1703C16.2838 23.2873 16.2469 23.2624 16.2147 23.1242L16.3372 23.1666C16.2709 23.9017 16.2294 24.6544 16.2147 25.4273C15.5486 25.4936 14.7913 25.5102 14.0958 25.4273C14.0341 25.4255 13.9733 25.4292 13.9115 25.4273C13.9115 23.8953 13.8821 22.3531 13.9115 20.8211C16.2119 20.6801 18.5196 20.6866 20.8209 20.8211Z" fill="#010101"/>
<path d="M20.8207 23.1242C20.8834 23.1436 20.8797 23.1749 20.8207 23.2163C20.8207 23.4162 20.7277 23.4393 20.5425 23.2854H16.6263C16.431 23.4116 16.3251 23.3886 16.3066 23.2163C16.4642 23.2154 16.4798 23.372 16.3518 23.6862C16.3748 24.297 16.3601 24.9077 16.3066 25.5195C16.3426 24.799 16.373 24.0768 16.3988 23.3527C16.8916 23.3287 20.5674 23.15 20.713 23.3103C20.8585 23.4706 20.7682 25.2127 20.6153 25.3288L19.0169 25.3232C18.5093 25.2753 18.2809 25.6475 18.3325 26.4398C18.3104 26.6554 18.4181 27.6374 18.1943 27.6374H14.2329C14.2228 27.6374 14.0947 27.5093 14.0947 27.4992V25.7488C14.0947 25.7387 14.2228 25.6107 14.2329 25.6107H16.2136C16.2339 25.4485 16.0054 25.5231 15.8921 25.5185C15.3688 25.4964 14.84 25.5425 14.3177 25.5222C14.197 25.5176 14.1067 25.4264 14.0947 25.4264H16.2136V23.1233H20.8198L20.8207 23.1242Z" fill="#FADB10"/>
<path d="M20.2685 25.4274C20.4886 25.4993 20.6886 25.4974 20.8673 25.4228C20.8894 26.2059 20.8737 26.9751 20.8212 27.7305C20.1754 27.8162 19.21 27.7259 18.5181 27.7305C18.5199 27.1207 18.4905 26.497 18.5181 25.888C18.3449 25.8696 18.4149 25.4679 18.4988 25.4044C18.7033 25.2505 20.0041 25.2911 20.2685 25.4274Z" fill="#020202"/>
<path d="M20.8207 23.2164C20.8806 23.994 20.8917 24.7706 20.8548 25.5472C20.6687 25.4855 20.4734 25.4458 20.268 25.4265C19.7134 25.3712 19.0824 25.467 18.5176 25.4265C18.5121 25.5794 18.525 25.7342 18.5176 25.888C18.4587 25.9857 18.3417 26.3551 18.3334 26.4408C18.0091 24.6324 19.3716 25.4044 20.5324 25.2312C20.6706 24.8535 20.9304 23.5416 20.5453 23.3546H16.583C16.267 23.5075 16.4181 24.2501 16.4393 24.5522L16.3066 25.5195V23.2164H20.8207Z" fill="#FADB10"/>
<path d="M9.21359 18.6101V20.729C9.1141 20.7631 9.01184 20.6369 8.98328 20.6369H7.09473V18.6101H9.21359Z" fill="#010101"/>
<path d="M34.7313 20.8211C34.7313 22.3541 34.7138 23.8944 34.7313 25.4274C33.9667 25.4301 33.1928 25.4062 32.4282 25.4274C32.3564 25.408 32.2513 25.3795 32.244 25.3223C32.2071 25.0386 32.1933 23.4955 32.244 23.256L32.4282 23.1242C32.4429 23.1215 32.4466 23.0082 32.5194 23.0321C32.7331 23.4236 32.4881 24.9594 32.7424 25.1593C32.8308 25.2293 34.0385 25.2689 34.22 25.2376C34.3287 25.2192 34.3923 25.1952 34.466 25.1086C34.3849 24.6111 34.5996 24.0879 34.5517 23.6291C34.5287 23.408 34.4043 23.2753 34.3794 23.0791C34.3306 22.6811 34.7157 21.3969 34.5342 21.1122C34.3619 21.0081 32.4273 21.0671 32.4273 20.9602C33.05 20.8543 33.6949 20.9418 34.3241 20.9179C34.4448 20.9132 34.5351 20.822 34.5471 20.822C34.5747 20.6461 34.6475 20.6562 34.7313 20.822V20.8211Z" fill="#FADB10"/>
<path d="M32.1517 23.1243C32.2393 23.1224 32.3517 23.139 32.4281 23.1243V25.4274C32.3664 25.4292 32.3056 25.4255 32.2439 25.4274H30.125C30.125 24.6609 30.1259 23.8908 30.125 23.1243C30.1904 23.0543 30.2567 22.9999 30.3258 22.9962C30.8869 22.9677 31.6156 23.0285 32.1517 23.1243Z" fill="#020202"/>
<path d="M34.6394 25.5195C34.538 26.2224 34.5325 26.9272 34.5473 27.6384H32.5205V25.5195H34.6394Z" fill="#010101"/>
<path d="M20.9134 23.1243C20.9208 23.8908 20.9134 24.6609 20.9134 25.4274V27.7305C20.8932 27.7397 20.8545 27.7259 20.8213 27.7305V25.5195C20.6168 25.6098 20.3736 25.4385 20.2686 25.4274H20.8222C20.8231 24.6922 20.8185 23.9525 20.8222 23.2164C20.8222 23.186 20.8222 23.1547 20.8222 23.1243C20.8204 22.3578 20.8241 21.5876 20.8222 20.8212C21.0203 21.3186 20.9088 22.508 20.9143 23.1243H20.9134Z" fill="#020202"/>
<path d="M27.6377 27.9148V29.6191C27.6377 29.6504 27.5373 29.8393 27.482 29.8531C27.3706 29.8798 25.8588 29.8614 25.7897 29.8116C25.5226 29.62 25.5198 27.9148 25.9334 27.9148H27.6377Z" fill="#FADB10"/>
<path d="M25.5195 23.1243C25.6098 23.1196 25.6052 23.1841 25.6144 23.2578C25.6605 23.6153 25.5324 25.0828 25.6246 25.2302C26.0704 25.5084 27.549 25.1556 27.8226 25.4274H25.5195V23.1243Z" fill="#FADB10"/>
<path d="M30.1244 13.9118C30.152 14.6276 30.1926 15.3434 30.2469 16.0611L30.1244 16.1228C30.4173 16.3568 32.3317 16.1182 32.4275 16.214C32.4312 16.9805 32.4211 17.7515 32.4275 18.5171C31.7688 18.5171 31.1 18.5411 30.4404 18.5208C30.2653 18.5153 30.1133 18.4296 30.0323 18.425C30.0286 17.7211 29.9844 17.0339 29.8996 16.3632C29.24 16.2886 28.5684 16.2711 27.8821 16.3098L27.8213 16.214C27.7844 15.4512 27.8489 14.6746 27.8213 13.9109C28.3832 14.0233 29.6638 13.7607 30.1244 13.9109V13.9118Z" fill="#030303"/>
<path d="M29.9404 20.8211C30.0013 20.8267 30.0639 20.8174 30.1247 20.8211C30.2168 21.5885 30.2518 22.3596 30.1247 23.1242C30.0943 23.1252 30.063 23.1233 30.0326 23.1242C30.016 23.2072 29.9847 23.2035 29.9404 23.1242H27.8216C27.8124 22.3587 27.8354 21.5876 27.8216 20.8211C27.8603 20.7566 27.899 20.706 27.9404 20.7041C28.5512 20.6746 29.3895 20.6995 29.9404 20.8211Z" fill="#030303"/>
<path d="M16.2153 11.6086C16.9818 11.6086 17.7519 11.6086 18.5184 11.6086V13.9118C17.7519 13.9099 16.9808 13.9136 16.2153 13.9118C16.2135 13.1453 16.2181 12.3751 16.2153 11.6086Z" fill="#010101"/>
<path d="M11.6083 18.518C12.3748 18.5208 13.145 18.5162 13.9115 18.518V19.4393C13.9925 19.595 14.0708 20.6185 14.0349 20.7069C14.0156 20.7539 13.9677 20.7889 13.9105 20.8211C13.1441 20.8211 12.3739 20.823 11.6074 20.8211V18.518H11.6083Z" fill="#020202"/>
<path d="M34.7307 18.5181V20.8212C34.669 20.823 34.6082 20.8193 34.5465 20.8212H32.4276C32.4239 20.0556 32.434 19.2845 32.4276 18.5181C33.0715 18.5181 34.154 18.6139 34.7307 18.5181Z" fill="#020202"/>
<path d="M20.9131 11.4244C21.1369 10.8542 20.9398 10.0278 21.0052 9.39771H23.1241V11.6087C22.4018 11.558 21.6086 11.7202 20.9131 11.5166C20.9269 11.5009 20.902 11.4539 20.9131 11.4244Z" fill="#DBA707"/>
<path d="M27.6374 20.8212H25.5186V18.5181H27.7295C27.6365 18.7797 27.8069 19.092 27.8217 19.2551C27.8475 19.7203 27.888 20.1772 27.9433 20.6259L27.8217 20.7291C27.7609 20.7291 27.7452 20.8129 27.7295 20.8212C27.7019 20.9023 27.6706 20.9013 27.6374 20.8212Z" fill="#030303"/>
<path d="M13.9122 19.4392C13.9141 19.4135 14.0366 19.302 14.008 19.2163L14.0053 18.5189H14.0965V20.6369L20.8115 20.6498C20.8511 20.7023 20.8078 20.7852 20.8216 20.8202C18.5203 20.8184 16.2144 20.823 13.9122 20.8202C13.9205 20.3669 13.8818 19.886 13.9122 19.4383V19.4392Z" fill="#FADB10"/>
<path d="M30.125 20.8211C30.2162 20.8156 30.2079 20.8828 30.2199 20.9547C30.2742 21.2707 30.2623 22.7281 30.3498 22.8543C30.4613 23.0137 31.5557 22.9308 31.8339 22.9409C32.0117 22.9464 32.2033 22.8469 32.1517 23.1252C31.4783 23.1399 30.7975 23.1021 30.125 23.1252C30.125 22.3587 30.125 21.5885 30.125 20.822V20.8211Z" fill="#FADB10"/>
<path d="M27.8217 16.2149H30.1248C30.0161 16.9482 30.0216 17.6843 30.0327 18.4259C30.0244 18.4259 30.0097 18.5392 29.9415 18.518C29.8816 18.1753 30.0539 16.5779 29.854 16.4388C29.631 16.2831 28.1957 16.4719 27.8208 16.3982C27.8162 16.3374 27.8245 16.2757 27.8208 16.214L27.8217 16.2149Z" fill="#FADB10"/>
<path d="M27.8217 19.255V18.4268H27.9138V20.4996C27.9138 20.7271 29.5306 20.6267 29.8033 20.6378C30.0308 20.647 30.1036 20.5733 29.9405 20.822C29.2616 20.763 28.5098 20.8653 27.8217 20.822C27.8217 20.7916 27.8217 20.7603 27.8217 20.7299C27.8115 20.2527 27.8631 19.7193 27.8217 19.2559V19.255Z" fill="#FADB10"/>
<path d="M30.125 13.9117C30.3019 13.9698 30.1969 14.9924 30.2134 15.2512C30.23 15.5101 30.336 15.7634 30.3092 16.0306H32.336C32.3563 16.1928 32.1278 16.1181 32.0145 16.1227C31.3871 16.1485 30.7524 16.1034 30.125 16.1227V13.9117Z" fill="#FADB10"/>
<path d="M27.7298 20.8211C27.7096 21.4789 27.7575 22.144 27.7298 22.8027C27.7252 22.916 27.7998 23.1445 27.6377 23.1242V21.0053H25.5188C25.4986 20.8432 25.727 20.9178 25.8404 20.9132C26.4456 20.8883 27.0675 20.9952 27.6377 20.8211C27.6681 20.8119 27.7086 20.8321 27.7298 20.8211Z" fill="#FADB10"/>
<path d="M30.0329 23.1243C30.0126 23.7821 30.0605 24.4472 30.0329 25.1059C30.0283 25.2192 30.1029 25.4477 29.9408 25.4274V23.3085H28.0061C27.9859 23.1464 28.2143 23.221 28.3277 23.2164C28.7901 23.1971 29.2572 23.2404 29.7187 23.221C29.8413 23.2155 29.9288 23.1252 29.9408 23.1243C29.9712 23.1234 30.0025 23.1252 30.0329 23.1243Z" fill="#FADB10"/>
<path d="M18.7021 9.39769C19.1176 9.30188 19.3737 9.84449 19.7708 9.86015C20.0177 9.86936 20.3171 9.51468 20.7178 9.77632C20.8781 10.0241 20.5456 10.4295 20.5621 10.5308C20.5787 10.6386 20.7353 10.728 20.7409 11.0089C20.7575 11.8933 19.839 11.3876 19.3719 11.2623C19.1443 11.2015 18.856 11.3249 18.7031 11.102V9.39769H18.7021Z" fill="#020202"/>
<path d="M13.7276 21.0054V25.151C13.6373 25.1215 13.5277 25.2431 13.4973 25.2431H11.793V21.1436C11.793 21.1334 11.921 21.0054 11.9312 21.0054H13.7276Z" fill="#DBA707"/>
<path d="M27.5455 18.6101C27.41 19.1039 27.7444 20.2453 27.3216 20.5512C27.0397 20.7548 26.8425 20.5438 26.5782 20.5438C26.3976 20.5438 26.2235 20.6617 26.0309 20.6396C25.4662 20.5733 25.7214 19.0486 25.703 18.6101H27.5455Z" fill="#010101"/>
<path d="M29.9408 14.0039C29.9131 14.2498 29.985 14.552 29.9398 14.7851C29.9021 14.9804 29.7169 15.0504 29.7012 15.1499C29.6791 15.2936 29.8136 15.57 29.7602 15.7846C29.7519 15.8187 29.3659 16.0297 29.341 16.0297H27.9131V14.0029H29.9398L29.9408 14.0039Z" fill="#010101"/>
</svg>
