<svg width="1440" height="14" viewBox="0 0 1440 14" fill="none" xmlns="http://www.w3.org/2000/svg">
<g clip-path="url(#clip0_234_6555)">
<path d="M1440 12.6419C1390.54 12.6619 1341.07 12.6419 1291.59 12.7418C1260.62 12.8217 1229.66 13.1412 1198.67 13.281C1166.77 13.4408 1134.85 13.7004 1102.95 13.5407C1073.25 13.4009 1043.57 12.5021 1013.87 12.4023C994.045 12.3424 974.204 13.4009 954.364 13.4009C929.494 13.4009 904.624 12.8017 879.754 12.5221C852.013 12.2026 824.212 11.3438 796.531 11.883C770.136 12.3823 744.098 12.4223 717.802 10.9244C705.268 10.2054 692.18 11.903 679.329 12.0428C657.568 12.2625 635.767 12.1027 613.986 12.1227C590.047 12.1626 566.108 12.0428 542.188 12.3823C515.893 12.7418 489.617 14.0599 463.361 14C439.441 13.9401 415.542 12.2225 391.602 11.903C374.118 11.6633 356.575 12.4622 339.051 12.8217C325.665 13.0813 312.26 13.5806 298.875 13.5806C261.61 13.5806 224.344 13.3409 187.079 13.2211C127.756 13.0214 68.432 12.7817 9.10857 12.6819C2.27726 12.6819 -0.296855 11.9629 0.0199596 8.52782C0.613986 1.97718 0.198168 1.91726 14.1182 1.97718C46.5521 2.11698 78.9661 2.57632 111.38 2.39658C155.061 2.17689 198.722 1.1184 242.403 1.07846C282.321 1.03852 322.24 1.83738 362.158 2.33666C400.632 2.83595 439.085 3.77461 477.558 3.87446C515.516 3.97432 553.475 3.33524 591.433 2.93581C617.016 2.67618 642.618 2.39658 668.201 1.91726C692.695 1.45792 717.149 0.399429 741.643 0.259629C762.176 0.119829 782.769 0.738944 803.303 1.33809C839.677 2.39658 875.893 2.07703 912.227 0.639087C931.018 -0.0998574 950.087 0.978602 969.036 0.95863C995.351 0.918688 1021.65 0.599144 1047.96 0.459344C1085.54 0.259629 1123.13 0.0199715 1160.69 0C1186.11 0 1211.56 0.279601 1236.98 0.53923C1264.19 0.81883 1291.39 1.37803 1318.6 1.49786C1359.07 1.65763 1399.53 1.5378 1440 1.5378V12.6619V12.6419Z" fill="#4498D6"/>
</g>
<defs>
<clipPath id="clip0_234_6555">
<rect width="1440" height="14" fill="white"/>
</clipPath>
</defs>
</svg>
