<svg width="42" height="31" viewBox="0 0 42 31" fill="none" xmlns="http://www.w3.org/2000/svg">
<path d="M11.5146 25.4748C11.7384 26.2449 11.7403 27.0077 11.5146 27.7779C17.6528 27.5227 23.8003 27.5218 29.9386 27.7779C29.9561 27.6959 29.9865 27.6987 30.0307 27.7779C30.1127 27.7954 30.1099 27.8258 30.0307 27.87C30.2601 28.1538 30.2592 28.4126 30.0307 28.6991C29.8225 29.0824 29.9911 29.6434 29.9386 30.081H11.5146C11.5109 29.7448 11.5192 29.4039 11.5146 29.0676C11.4418 28.6448 11.4399 28.2035 11.5146 27.7779C9.96042 27.9723 8.40905 27.9925 6.86227 27.8387C6.842 27.0483 6.85674 26.2606 6.90833 25.4748L6.99309 25.2905C8.47169 25.4002 9.95766 25.4306 11.4519 25.3799L11.5146 25.4748Z" fill="#020202"/>
<path d="M36.9402 4.65554C37.1668 6.18849 37.1695 7.72882 36.9402 9.26177C36.9595 9.18992 36.9881 9.08581 37.0452 9.07752C37.34 9.03422 38.8352 9.0287 39.1115 9.07752L39.2433 9.26177C38.9872 7.73435 38.9936 6.18389 39.2433 4.65554C40.0097 4.6583 40.7799 4.6537 41.5464 4.65554V9.26177C40.8628 9.31797 40.0816 9.14293 39.4275 9.3539C39.3971 9.43405 39.3658 9.43405 39.3354 9.3539C39.1825 9.44971 39.2433 9.70305 39.2414 9.85966C39.1963 13.5318 39.2663 17.2213 39.1511 20.8695H36.9402V25.3836C36.2041 25.4075 35.4109 25.4656 34.637 25.4757L34.5099 24.9644C34.4979 23.6065 34.5403 22.2412 34.637 20.8695L34.7697 20.6705C35.4367 20.7202 36.0954 20.7147 36.743 20.6548L36.7495 16.2992L36.8904 16.1877C36.8655 14.6548 36.8821 13.1439 36.9402 11.657C36.86 11.6312 36.8609 11.5999 36.9402 11.5649L37.1502 11.5502C37.304 13.0103 37.3326 14.4714 37.234 15.9334C37.4376 16.243 37.4938 16.5037 37.5178 16.875C37.5482 17.3558 37.5288 18.2449 37.2174 18.5673C37.1087 19.0215 37.1345 19.4931 37.2174 19.9492C37.3179 20.1399 38.0438 19.9399 38.077 19.9068C38.1553 19.8294 38.4621 19.0445 38.4621 18.8547C38.4445 18.0809 38.5146 17.3319 38.6712 16.6078C38.2649 16.9901 37.9683 16.6253 37.9333 16.1573C37.5436 15.9731 37.5979 15.6967 38.0945 15.3273C38.1018 15.0104 38.2096 14.7718 38.4178 14.6105C38.1967 14.3332 38.1534 14.0062 38.3552 13.7031C37.9701 13.4544 38.1369 13.1688 38.5579 13.1301C38.6334 12.8132 38.568 12.4953 38.3598 12.1766C38.5311 11.8063 38.7661 9.89006 38.6343 9.6229C38.6288 9.61185 38.5146 9.62106 38.5007 9.64317C38.3285 10.4511 37.4155 10.6731 37.1069 9.82373C36.4841 9.73437 36.2759 9.4884 36.2151 8.87761C36.4215 7.77672 36.5035 6.64543 36.3542 5.53257C35.9093 5.07471 35.7545 5.39991 35.8927 6.50817C35.2312 7.29675 35.1483 7.45429 35.1235 8.4649C35.1723 9.35206 35.1861 10.2475 35.0977 11.1033C35.4293 11.0508 35.7057 11.1126 35.9268 11.2876C36.2363 11.1218 37.1723 10.9311 36.9402 11.564C36.1377 11.6257 35.3197 11.6349 34.4878 11.5916L34.591 11.4792C34.626 9.97666 34.602 8.48793 34.5182 7.01209C34.6739 6.28983 34.6158 5.39438 34.5164 4.71726L34.637 4.65462C35.4017 4.67857 36.1746 4.6454 36.9402 4.65462V4.65554Z" fill="#020202"/>
<path d="M18.4238 2.3524L18.6081 2.45742V4.4639L22.9204 4.47127L23.0301 4.65552C23.1019 5.42107 23.1019 6.19308 23.0301 6.95863C21.5036 7.10511 19.9494 7.1088 18.4238 6.95863C18.1935 6.21795 18.1963 5.48833 18.4238 4.74764L18.3161 4.93189H16.3464L16.2119 4.74764C16.2939 4.75225 16.3473 4.7937 16.3962 4.85543C16.4579 4.93189 16.4155 6.61869 16.3962 6.82505L16.2119 6.95956C16.9526 6.73201 17.6822 6.72924 18.4229 6.95956L18.5473 7.1392C18.5031 8.52475 18.4948 9.91215 18.5224 11.3014L18.4238 11.4737C18.4635 11.5004 18.4616 11.5317 18.4238 11.5658C17.6979 11.6413 16.8559 11.6395 16.1207 11.5658C16.0664 10.113 16.0507 8.65741 16.0747 7.19816C15.8471 7.12722 15.9125 7.0397 16.1207 6.95956C16.0958 7.13459 16.0369 7.21198 15.9835 7.05168H11.8342C11.6831 7.21014 11.5817 7.16499 11.5145 6.95956C11.4435 6.194 11.4426 5.422 11.5145 4.65644C12.2413 4.50443 12.9783 4.43718 13.7135 4.55234C13.5993 3.81718 13.6656 3.08019 13.8176 2.35332C15.3515 2.35332 16.89 2.34964 18.4238 2.35332V2.3524Z" fill="#020202"/>
<path d="M6.81636 4.65558C6.90848 4.57543 6.94349 4.6261 6.90848 4.7477C6.98403 6.31106 6.98034 7.88178 6.90848 9.44606C7.0872 9.52989 7.0872 9.6386 6.90848 9.72243C6.98955 10.3332 6.97666 10.9532 6.90848 11.5649L6.85874 11.6875C6.79794 11.5465 6.5842 11.6064 6.44786 11.6571C5.87484 11.6921 5.29999 11.7151 4.72605 11.7252C4.64867 13.2351 4.60813 14.7478 4.60537 16.2633C4.83292 17.004 4.832 17.7336 4.60537 18.4743C4.79515 19.1984 4.83015 19.9427 4.76566 20.6853H6.77767L6.90941 20.8695C7.09089 21.5927 7.05128 22.3518 6.90941 23.0805C6.9914 23.098 6.98863 23.1284 6.90941 23.1726C7.09089 23.4767 7.08997 23.7899 6.90941 24.0939C7.05404 24.5407 7.04667 25.0271 6.90941 25.4758L6.86611 25.5983C6.16228 25.5319 5.44002 25.4905 4.69841 25.4758C4.69841 25.4592 4.59984 25.3357 4.59984 25.1644C4.59984 23.9529 4.73987 22.3352 4.61182 21.1827C4.59708 21.0538 4.60445 21.0519 4.51509 20.9616C4.2857 20.7323 2.72418 20.9423 2.30409 20.8704C2.29949 17.9059 2.30962 14.9395 2.3087 11.974C2.3087 11.8026 2.21289 11.6294 2.21289 11.5658C2.21289 10.9127 2.39714 9.93063 2.39714 9.26273L2.47821 9.07848H4.41928L4.41559 5.42297C4.44047 5.15766 4.50495 4.90247 4.60813 4.6565C5.34421 4.58925 6.08305 4.58832 6.81912 4.6565L6.81636 4.65558Z" fill="#020202"/>
<path d="M2.21099 4.65552H0V9.26175H2.21099V4.65552Z" fill="#020202"/>
<path d="M22.5696 0.0493512L23.0726 0.154373V2.35431C21.6549 2.31285 20.2278 2.31193 18.7925 2.35247C18.7087 2.53119 18.6 2.53119 18.5162 2.35247C18.3264 1.9029 18.4627 1.36121 18.424 0.878473C18.1587 0.848993 18.1799 0.398504 18.424 0.325725C18.413 0.00328884 18.3669 0.0714611 18.6497 0.0493512C19.8271 -0.0427735 21.3683 0.0161863 22.5696 0.0493512Z" fill="#020202"/>
<path d="M23.1223 2.35242H27.6364C27.7332 2.44823 27.4946 4.36258 27.7276 4.65553L27.7709 4.53301C28.4527 4.61868 29.1307 4.59842 29.8041 4.47128L29.9386 4.65553C30.0317 5.36674 30.0086 6.24192 29.9386 6.95865C28.4637 7.01393 26.9648 7.02867 25.442 7.00471C25.4015 7.12171 25.3646 7.09684 25.3324 6.95865C25.4088 8.49161 25.4052 10.0319 25.3324 11.5649C25.2145 11.575 23.0772 11.704 23.0753 11.5898C23.0505 10.0467 23.0597 8.49898 23.1214 6.95865C23.1407 6.88679 23.1702 6.78361 23.2292 6.7744C23.489 6.73295 24.9491 6.7311 25.1988 6.7744L25.3333 6.95865C25.103 6.21797 25.1058 5.48834 25.3333 4.74766C24.5853 4.69791 23.8326 4.67949 23.0763 4.6933C23.0541 3.90011 23.0698 3.11982 23.1223 2.35242Z" fill="#020202"/>
<path d="M2.30225 2.35242H4.60536V3.18154C4.86055 3.45883 4.89463 4.3073 4.60536 4.56341C4.68735 4.58091 4.68367 4.61131 4.60536 4.65553C3.83981 4.8361 3.0678 4.83702 2.30225 4.65553C2.30225 3.88906 2.30225 3.11889 2.30225 2.35242Z" fill="#030303"/>
<path d="M13.7256 0.0493164C13.7496 0.789078 13.8186 1.57306 13.8177 2.35243C13.7984 2.42429 13.7689 2.53116 13.7127 2.53668C13.4953 2.55971 11.7587 2.57353 11.6463 2.53668L11.5146 2.35243C11.5174 1.58596 11.5128 0.815794 11.5146 0.0493164H13.7256Z" fill="#030303"/>
<path d="M32.3337 2.44453C32.3862 3.11612 32.4009 3.80982 32.3798 4.52562C32.6193 4.61038 32.3226 4.9061 32.2287 4.70158C31.4834 4.72277 30.751 4.70803 30.0306 4.65552C29.955 3.92958 29.9569 3.08756 30.0306 2.3524C30.7215 2.37451 31.4198 2.32477 32.1117 2.3478C32.2333 2.3524 32.3217 2.44361 32.3337 2.44453Z" fill="#020202"/>
<path d="M37.0321 2.35242H39.2431C39.244 3.11889 39.2403 3.88906 39.2431 4.65553C38.4978 4.92085 37.6834 4.93007 36.9399 4.65553C36.9409 3.89366 37.0293 3.07283 37.0321 2.35242Z" fill="#020202"/>
<path d="M29.9388 0.0492613C30.0143 0.79455 30.0125 1.61538 29.9388 2.35238C29.913 2.43253 29.8816 2.43161 29.8466 2.35238C29.8798 2.62875 29.3427 2.61493 29.2939 2.35238C29.0728 2.46201 28.7734 2.49517 28.3957 2.45279C28.0309 2.57901 27.8088 2.54584 27.7278 2.35238C27.7149 2.28328 27.7047 2.27315 27.6356 2.26025C27.3427 1.86135 27.3666 1.10409 27.6356 0.694134C27.8291 0.598324 27.678 0.0990085 27.7278 0.0483399C27.8051 -0.0299661 29.644 0.0409699 29.9388 0.0483399V0.0492613Z" fill="#030303"/>
<path d="M18.7923 2.35245L23.0761 2.2981C23.0964 3.08576 23.0807 3.87159 23.0301 4.65557H18.4238V2.35245C18.4542 2.35245 18.4856 2.35245 18.516 2.35245C18.6081 2.35245 18.7002 2.35245 18.7923 2.35245Z" fill="#F9DA0C"/>
<path d="M4.60537 4.65552C4.57681 6.18847 4.62564 7.7288 4.60537 9.26175H2.39438C2.39438 7.76657 2.30133 6.18479 2.30225 4.65552C3.06873 4.65552 3.83889 4.65552 4.60537 4.65552Z" fill="#F9DA0C"/>
<path d="M23.1223 0.141386V2.26025C23.1223 2.29065 23.1223 2.32198 23.1223 2.35238V4.6555C23.2172 4.75131 25.0496 4.51454 25.3333 4.7467L25.2523 4.93095H23.3112C23.3204 5.61359 23.3186 6.29624 23.1223 6.95769C23.1168 8.49157 23.1269 10.0301 23.1223 11.5639H25.3333C25.4153 11.5805 25.4126 11.6118 25.3333 11.6551C24.6 11.7095 23.7893 11.7602 23.0302 11.6551C22.916 10.0927 22.892 8.51828 23.0302 6.95677C23.0284 6.19029 23.033 5.42013 23.0302 4.65365C23.0275 3.88718 23.0321 3.11701 23.0302 2.35054C21.6189 2.34869 20.2029 2.35514 18.7925 2.35054L23.0302 2.25933C22.9713 1.97835 23.1076 0.212322 23.0302 0.140465C22.9906 0.103615 22.6286 0.216928 22.5696 0.0483398C22.8017 0.0547886 23.0247 0.13678 23.1223 0.140465V0.141386Z" fill="#010101"/>
<path d="M29.2938 2.35242C29.5923 2.40216 29.4818 2.65551 29.2146 2.72829C28.2178 2.57352 27.8465 2.83331 28.0999 3.50674L27.9479 4.25019C29.5932 4.58552 29.8493 4.11292 29.6734 2.53851L29.8466 2.35242H29.9387C30.0142 3.07836 30.0124 3.92038 29.9387 4.65553H27.7277C27.6466 4.57446 27.794 2.70341 27.7277 2.35242H29.2938Z" fill="#DCA604"/>
<path d="M30.0306 0.141441V4.74768C30.2111 5.48283 30.2102 6.22351 30.0306 6.95867L30.2139 7.18529C30.1402 8.57085 30.1319 9.95456 30.1899 11.3364L30.0306 11.5649C30.0002 11.6441 29.9688 11.6441 29.9384 11.5649L29.8924 7.16042C29.7754 7.11989 29.8002 7.08304 29.9384 7.05079C29.8583 7.025 29.8592 6.99368 29.9384 6.95867V0.0493164C29.9624 0.0493164 30.0094 0.14052 30.0306 0.141441Z" fill="#010101"/>
<path d="M34.637 25.4749C34.637 25.5053 34.637 25.5366 34.637 25.567L34.8213 25.7356L34.8056 27.1451L34.637 27.3174C34.6122 27.4279 34.6997 27.7614 34.5836 27.7798C33.9959 27.872 32.9825 27.7734 32.3339 27.778C31.5693 27.8535 30.7945 27.8508 30.0308 27.778C29.9792 26.9986 29.9636 26.2165 29.9847 25.4325C30.0446 25.1828 33.9811 25.2307 34.637 25.4749Z" fill="#020202"/>
<path d="M18.4238 25.4748C19.9264 25.7032 21.6307 25.6821 23.1222 25.4748L23.2079 25.2905H29.8289L29.9394 25.4748C30.0076 25.5356 30.0057 25.601 29.9394 25.659C29.874 26.326 29.8418 27.0354 29.9394 27.6858C30.0002 27.7125 29.9984 27.7438 29.9394 27.7779C23.8002 27.7899 17.6546 27.7917 11.5154 27.7779C11.5126 27.0114 11.5099 26.2413 11.5154 25.4748C13.8167 25.2472 16.1235 25.2481 18.4247 25.4748H18.4238Z" fill="#DCA604"/>
<path d="M32.2418 18.4733L32.4278 18.5544L32.5135 22.9303C33.081 22.9838 33.6853 23.039 34.2648 23.0225L34.4527 23.1717C34.4924 22.3997 34.5228 21.6314 34.5449 20.8686C34.5707 20.7884 34.602 20.7894 34.637 20.8686C34.6499 22.4025 34.6195 23.9409 34.637 25.4748C33.1031 25.4951 31.5637 25.4601 30.0308 25.4748C30.0308 26.2413 30.0335 27.0115 30.0308 27.7779C30.0004 27.7779 29.969 27.7779 29.9386 27.7779V27.6858C29.8659 27.0105 29.8603 26.3334 29.9386 25.6591C29.9386 25.5973 29.9386 25.5365 29.9386 25.4748C29.653 25.1551 29.7102 24.4117 29.7498 23.9612C29.7074 23.5863 29.8014 23.3228 30.0308 23.1717C30.3486 23.0197 30.9935 23.04 31.3205 23.1717C31.7074 22.9967 31.9534 22.9967 32.0575 23.1717C32.1294 22.642 32.3035 18.9109 32.1671 18.734C32.0197 18.5424 30.274 18.5351 30.0308 18.7497L30.2095 18.934C30.2436 19.2149 30.3302 20.9883 30.0676 20.9349C30.0215 20.9257 29.9792 20.8999 29.9386 20.8686C29.8585 20.8428 29.8594 20.8115 29.9386 20.7765C29.8668 20.7571 29.759 20.7267 29.7544 20.6714C29.736 20.4273 29.6835 18.5701 29.7654 18.4982C30.5844 18.4494 31.4108 18.4411 32.2418 18.4733Z" fill="#DCA604"/>
<path d="M35.0974 11.1043C34.7418 10.8159 34.9933 10.5147 34.997 10.219C35.0072 9.52159 34.798 7.7528 35.1149 7.2065C35.1785 7.09687 36.1228 6.26867 35.5931 6.13601C35.3674 6.07981 34.7649 6.51833 34.9316 5.73619C35.0984 4.95405 35.4051 5.89833 35.5129 5.94531C35.9127 6.11758 35.6078 5.65696 35.6622 5.45797C35.7478 5.1429 36.3724 4.95958 36.5309 5.48008C36.6516 5.8753 36.6 7.34284 36.5751 7.83663C36.5502 8.33042 36.1965 8.91265 36.5668 9.40367C36.7428 9.63675 37.0523 9.5695 37.2145 9.67728C37.3969 9.79981 37.3011 10.1305 37.6493 10.1619C38.3955 10.2282 38.1449 9.53633 38.4775 9.45434C39.0183 9.31984 38.7769 10.0126 38.7778 10.2245C38.7797 10.5138 38.8322 10.8169 38.8128 11.0886C38.7926 11.3899 38.5337 12.0845 38.5383 12.1628C38.5475 12.3176 38.8377 12.4512 38.7751 12.9836C38.7179 13.4691 38.5282 13.2029 38.2306 13.4544L38.6903 13.4995C38.612 13.7059 38.4112 13.8524 38.4066 14.0956C38.401 14.4143 38.6636 14.5129 38.6903 14.7874C38.1956 14.7441 38.3872 15.1255 38.2545 15.412C38.1615 15.6129 37.3563 16.0109 38.2297 15.9869C38.0767 16.2651 38.1127 16.4448 38.3679 16.629L38.7364 16.2624C39.021 16.6438 38.6967 16.9736 38.6848 17.3246C38.6599 18.0431 38.7502 18.5526 38.5567 19.3034C38.5097 19.4876 38.2684 19.7548 38.2297 19.9013C38.2094 19.9777 38.5475 19.9639 38.5042 20.1749C38.4296 20.5388 38.0482 20.0662 37.9994 20.0625C37.7589 20.045 37.4807 20.5637 37.2154 19.9464C37.1306 19.4904 37.1067 19.0196 37.2154 18.5646C37.2439 17.9132 37.3895 17.2389 37.3103 16.582C37.2697 16.2504 37.0588 16.138 37.0256 15.8506C36.9971 15.6018 37.0956 15.378 37.0883 15.1863C37.0496 14.1435 37.1546 12.7386 37.0357 11.7833C37.0182 11.6395 36.9759 11.6386 36.9381 11.5631C36.6903 11.0684 36.4572 11.4028 36.1477 11.3844C36.0168 11.377 35.9413 11.2885 35.9247 11.2867C35.6566 11.1881 35.3803 11.1273 35.0956 11.1025L35.0974 11.1043Z" fill="#010101"/>
<path d="M34.6372 20.8686H34.5451C34.4502 20.2283 34.4354 19.5733 34.5451 18.934C34.6492 18.0063 34.6363 17.0629 34.5451 16.1343C35.2747 16.2624 36.1139 16.2707 36.8491 16.1702C36.6409 16.1362 36.5967 16.0707 36.803 16.0321V11.7658C36.686 11.7252 36.7109 11.6884 36.8491 11.6561H36.9412L36.9283 20.7175C36.8979 20.8373 36.8159 20.8492 36.7109 20.8686C36.1195 20.9782 35.2544 20.7792 34.6381 20.8686H34.6372Z" fill="#0A9E8F"/>
<path d="M36.3596 24.9875C36.0529 25.3596 35.8705 25.0464 35.6807 25.028C35.466 25.0068 35.3905 25.4637 35.1445 24.9211C34.706 23.9547 34.7797 23.0224 34.8295 22.0201C34.846 21.6885 34.5531 21.2269 35.0708 21.0722C35.3896 20.9773 36.3652 21.2315 36.4637 21.5807C36.5844 22.01 36.1874 22.2818 36.2012 22.5655C36.2113 22.7737 36.4085 22.8916 36.4555 23.0584C36.5982 23.565 36.7198 24.5508 36.3606 24.9875H36.3596Z" fill="#010101"/>
<path d="M39.2435 4.65558C39.249 6.18945 39.2398 7.72793 39.2435 9.26181H36.9404C36.9422 7.72793 36.9376 6.18945 36.9404 4.65558C37.7059 4.66479 38.477 4.65281 39.2435 4.65558Z" fill="#F9DA0C"/>
<path d="M35.0977 11.1042C35.3077 11.2083 35.5739 10.8297 35.6043 10.8297C35.7038 10.8297 35.7398 11.2535 35.9268 11.2885C35.6486 11.2618 35.3326 11.2949 35.0977 11.1042Z" fill="#010101"/>
<path d="M37.2167 19.9473C37.037 19.53 37.0167 18.9781 37.2167 18.5654C37.1964 19.0233 37.2314 19.4885 37.2167 19.9473Z" fill="#010101"/>
<path d="M18.424 11.4728L18.5189 11.3853C18.5115 10.0633 18.5124 8.74225 18.5217 7.42303C18.5438 7.17982 18.5788 6.96333 18.8386 7.14297C18.8432 7.09138 18.8487 7.05177 18.8542 7.05177C19.9653 7.02137 21.1352 7.02321 22.2481 7.05085C22.4849 7.00847 22.6534 7.03979 22.7539 7.14389C22.8856 7.25997 22.9409 7.40276 22.9151 7.57411C22.8819 8.97165 22.9197 10.3332 23.0302 11.658C23.8078 11.693 24.5752 11.7243 25.3334 11.7501C25.5637 12.4908 25.5609 13.2204 25.3334 13.9611C25.3527 13.8893 25.3813 13.7842 25.4384 13.7769C25.7221 13.74 27.2652 13.7262 27.5047 13.7769L27.6365 13.9611C27.7083 13.9805 27.8124 14.009 27.8207 14.0661C27.8566 14.3112 27.864 15.7769 27.8207 15.9943L27.6365 16.126C27.8364 15.9897 27.8751 16.0468 27.7747 16.2642C27.7829 16.1915 27.8087 16.0818 27.8594 16.08C29.1888 16.0229 30.7549 16.0238 32.0861 16.08L32.1966 16.2642C32.1791 15.5899 32.1644 14.8934 32.1506 14.1748L32.3348 14.0532C33.0672 14.0293 33.8042 13.9989 34.5458 13.9611C34.579 13.9565 34.6177 13.9703 34.6379 13.9611C34.6757 13.2674 34.7015 12.57 34.7163 11.869C34.7236 11.7151 34.8286 11.6718 34.9604 11.7501C35.5021 11.6737 36.1958 11.6783 36.7568 11.7501C36.836 13.132 36.8342 14.6788 36.7568 16.08C36.0889 16.15 35.3206 16.1647 34.6379 16.08C35.3584 16.1224 36.0954 16.1528 36.8489 16.1721C36.8535 16.2624 36.7891 16.2578 36.7154 16.267C36.0806 16.3481 35.2911 16.2025 34.637 16.2642C34.5375 16.3637 34.7817 18.607 34.5458 18.9359C34.4196 18.8704 34.4804 17.3587 34.4813 17.4351C34.5025 19.3384 34.5237 21.3016 34.4537 23.1736C34.0262 23.3127 32.8553 23.0695 32.3348 23.1736L32.2436 18.4752L29.9866 18.4522C29.8862 18.5038 29.8401 18.5729 29.8484 18.6595C29.8401 18.7304 29.8189 18.8382 29.7682 18.8437C29.5656 18.8668 28.204 18.8732 28.1109 18.782C28.0805 18.7516 28.0639 18.7074 28.051 18.6595C28.1763 18.8879 28.0547 18.992 27.8207 18.8898C28.005 18.9451 28.0658 19.1284 28.005 19.4407C28.0344 19.7954 28.0906 20.6208 27.8207 20.7783C27.8401 20.7065 27.8695 20.6015 27.9267 20.5941C28.1376 20.5665 29.654 20.5554 29.806 20.5941L29.9387 20.7783V20.8705C29.9506 20.9423 29.9534 21.0464 29.9009 21.0667C29.7397 21.1293 28.285 21.0934 28.04 21.0566L27.9119 20.8705C27.8143 21.0105 27.7581 21.051 27.7277 20.8705C27.7019 20.9506 27.6706 20.9497 27.6355 20.8705C27.4753 20.7295 27.5886 19.449 27.5867 19.5172C27.4633 20.7332 27.4789 21.9207 27.6355 23.0815C27.677 23.0428 27.7083 23.0741 27.7277 23.1736C27.7562 23.0953 27.7876 23.0953 27.8198 23.1736C28.5236 23.1294 29.2348 23.1027 29.9387 23.1736C29.9552 23.0916 29.9866 23.0944 30.0308 23.1736C29.8696 23.9189 29.9414 24.7167 29.9387 25.4767H23.1214C23.01 25.543 22.9685 25.4997 23.0293 25.3846C22.9621 25.3735 22.9096 25.3615 22.9068 25.3413C22.8911 25.2372 22.9519 23.3385 22.9777 23.2362C22.9832 23.2132 23.0044 23.1929 23.0293 23.1745C23.0468 23.0925 23.0772 23.0953 23.1214 23.1745C23.7912 23.0879 24.4674 23.0418 25.1482 23.0372C25.244 21.7318 25.2854 20.3988 25.2716 19.0381C25.1141 18.6982 25.1344 18.5102 25.3324 18.4752C24.6673 18.4375 23.9985 18.4107 23.3269 18.3969C23.1767 18.3905 23.1362 18.2772 23.2136 18.1528C23.1389 17.566 23.1408 16.8594 23.2136 16.2642C23.1878 16.3444 23.1564 16.3435 23.1214 16.2642C23.1739 16.8695 23.1887 17.4913 23.1675 18.1298C23.2909 18.3509 23.2762 18.466 23.1214 18.4752L23.1647 18.3527C23.852 18.4153 24.5438 18.4559 25.2403 18.4752C25.2246 18.5296 25.2053 18.5803 25.1712 18.6171C25.0883 18.7083 23.4089 18.6226 23.1214 18.5674C23.091 18.6475 23.0597 18.6475 23.0293 18.5674C22.9473 18.5498 22.9501 18.5194 23.0293 18.4752C22.8736 17.718 22.893 16.9321 23.0293 16.1721H18.4231C18.6092 16.1933 18.6018 16.2854 18.4231 16.3564L18.3079 16.4282L18.3383 17.7742L18.3024 18.373C17.5755 18.4006 16.8477 18.4347 16.12 18.4752C16.2968 18.5268 16.2978 18.6079 16.12 18.6595V23.0815C16.202 23.1036 16.1992 23.134 16.12 23.1736C16.8376 23.2528 17.5617 23.2943 18.2932 23.298C18.3125 24.0303 18.3328 24.6771 18.3531 25.2381L18.4231 25.3837C18.5023 25.4113 18.5014 25.4417 18.4231 25.4758C16.1218 25.4776 13.8159 25.4758 11.5137 25.4758C11.3378 25.4242 11.3378 25.3431 11.5137 25.2915C11.4363 25.286 11.3332 25.2565 11.3295 25.1948C11.2889 24.5601 11.2899 23.9198 11.3083 23.2841L11.5137 23.1736C12.2065 23.0759 12.938 23.1119 13.6326 23.1736C13.6704 23.1036 13.7008 22.9829 13.7247 22.8115V18.7949C13.6639 18.6622 13.5884 18.5904 13.4428 18.5987L11.5137 18.6595C11.5966 18.6687 11.592 18.7009 11.5137 18.7516L11.3949 18.911C10.7979 18.8189 10.1853 18.782 9.58556 18.8566C9.53765 18.9948 9.45382 19.0234 9.30366 18.9819C9.37367 18.9911 9.47132 19.0068 9.48791 19.0621C9.51278 19.1487 9.51002 20.513 9.48791 20.6503L9.30366 20.7793C9.323 20.7074 9.35249 20.6042 9.41145 20.595C9.67124 20.5536 11.1314 20.5517 11.3811 20.595L11.5156 20.7793C11.6657 20.9304 11.6095 21.0308 11.405 21.0566L9.38841 21.0317C9.47317 21.6194 9.41421 22.1492 9.21153 22.6218C9.13691 22.8254 9.12862 23.0824 9.24746 23.2685C9.2576 23.438 7.25849 23.367 7.03739 23.3468L6.90841 23.1745C6.90841 23.1441 6.90841 23.1128 6.90841 23.0824C6.92868 22.9193 6.96093 22.8806 7.00699 22.9663C7.04476 20.8087 7.04752 18.653 7.01252 16.4973L6.90841 16.2661C6.8255 16.244 6.82827 16.2126 6.90841 16.174L5.00973 16.1049C4.92866 16.0708 4.81903 16.0026 4.77112 15.9335C4.60254 15.6903 4.56476 11.9639 4.69374 11.8017C4.82271 11.6396 6.58506 11.6525 6.73061 11.8349C6.77115 11.8865 6.76194 12.0164 6.72417 12.0744C6.79879 12.6207 6.80523 13.3006 6.72417 13.8708C6.79694 13.2711 6.808 12.6483 6.75733 12.0016C6.67442 11.8644 6.57124 11.7501 6.44779 11.6598C6.52518 11.5124 6.76009 11.5714 6.90841 11.5677L7.09174 11.7096L7.06779 13.81L6.90841 13.962C7.6187 14.0652 8.40544 14.0625 9.11941 13.962C9.14704 13.9132 9.17837 13.9151 9.21153 13.962C9.5266 14.6152 9.45658 15.5705 9.25759 16.2652L9.31932 16.0809H13.7091L13.8178 16.2652C13.7459 16.2458 13.6381 16.2154 13.6335 16.1601C13.5875 15.6166 13.5884 14.6373 13.6335 14.0938L13.8178 13.962C13.8371 13.8902 13.8657 13.7861 13.9237 13.7778C14.201 13.7373 15.687 13.7308 15.9412 13.7778L16.0739 13.962C16.0435 13.2591 16.002 12.5415 15.9505 11.8091L16.12 11.6589C16.1467 11.5981 16.178 11.6 16.2121 11.6589C16.9214 11.7464 17.7128 11.7557 18.4231 11.6589C18.3448 11.6331 18.3457 11.6027 18.4231 11.5668C18.4286 11.5373 18.4212 11.5051 18.4231 11.4747L18.424 11.4728Z" fill="#F9DA0C"/>
<path d="M14.002 3.13545C14.118 2.32659 14.5823 2.78353 15.1544 2.81209C15.4667 2.82775 16.0241 2.73194 16.3392 2.75129C16.9066 2.78629 16.668 3.02858 16.7049 3.23402C16.7215 3.32891 16.8753 3.32707 16.9251 3.39524C16.9785 3.46894 16.9352 3.62002 16.9536 3.63753C17.0126 3.69372 17.5994 3.48552 17.7781 3.64213C17.6685 3.41919 17.8638 2.63521 18.1466 2.90606C18.2452 3.00095 17.99 3.3243 17.9808 3.42748C17.9679 3.59146 18.1568 3.72136 18.1328 3.85955C18.0729 4.21146 17.2503 4.35334 16.9481 4.28793C16.926 4.17738 17.0025 3.73149 16.9011 3.73426C16.5041 3.74531 16.6994 4.24924 16.5317 4.28793C16.3253 4.33583 15.8398 3.91482 15.4741 4.19672C15.4483 4.3432 15.7486 4.50442 15.7486 4.52745C15.7496 4.89134 15.6611 5.35381 15.6528 5.7131C15.6436 6.1037 15.7569 6.48234 15.6584 6.86742H14.1844C14.2378 6.66014 14.738 6.62882 14.4617 6.35889C14.2866 6.24281 14.0738 6.40403 13.8822 6.38745C13.7118 6.37271 13.5312 6.22439 13.3055 6.21702C12.8467 6.20136 12.188 6.77806 12.1106 6.77253C11.8204 6.75226 11.6049 5.03506 11.9365 4.93648C12.1438 4.87568 12.3907 5.16219 12.5832 5.18154C12.7389 5.1972 12.9941 5.10415 13.218 5.10876C13.4639 5.11336 14.0001 5.38237 14.0001 4.97794C14.0001 4.43441 13.9283 3.63753 14.0001 3.13545H14.002Z" fill="#010101"/>
<path d="M17.2124 7.89923C17.2825 7.99965 16.9655 8.64084 17.7283 8.52384C17.885 8.49989 18.0655 8.21522 18.1355 8.49067C18.1724 8.63715 18.2406 9.47364 18.2433 9.67263C18.2479 10.0642 18.1669 10.335 18.1392 10.6897C18.1263 10.8537 18.329 11.4672 18.0093 11.4709C17.9789 11.4709 17.7357 11.142 17.5349 11.1236C17.2088 11.0941 16.6348 11.8468 16.5151 11.2212C16.3824 10.5303 16.4828 9.96651 16.4708 9.32901C16.469 9.2074 16.3326 9.05632 16.3345 8.92734C16.3373 8.72006 16.4312 7.32714 16.6284 7.32898C16.7021 7.54547 17.1636 7.82922 17.2134 7.89923H17.2124Z" fill="#010101"/>
<path d="M23.0301 6.95869C23.0328 8.52297 23.0282 10.0928 23.0301 11.6571C22.6183 11.3908 22.9075 10.4779 22.9029 10.0596C22.8919 9.09598 22.8642 8.08906 22.7537 7.14294H18.8384C18.7693 7.14294 18.6302 7.3668 18.6108 7.46814C18.4257 8.43453 18.6615 10.2365 18.6081 11.3365C18.597 11.5622 18.6744 11.6377 18.4238 11.4737C18.527 10.0651 18.4294 8.39768 18.4238 6.95961C19.9577 6.96514 21.4962 6.95501 23.0301 6.95961V6.95869Z" fill="#F9DA0C"/>
<path d="M11.5148 6.95862H16.121V11.5649H18.4241C18.4186 11.598 18.4343 11.6395 18.4241 11.657C17.7065 11.7546 16.9372 11.7298 16.2131 11.657H16.121C16.0427 11.6524 15.9358 11.6293 15.9248 11.5667C15.759 10.6058 15.688 8.28614 15.9091 7.47452C15.9395 7.3612 15.9828 7.25157 16.0289 7.14379L16.0215 7.26631C14.6719 7.33909 13.2974 7.35936 11.8989 7.32804L11.7912 7.14379C12.0399 7.28474 11.9763 7.44596 11.699 7.3741C11.77 7.3741 11.8796 7.39068 11.8833 7.43675C11.9745 8.49249 11.9772 10.4032 11.8833 11.4561L11.699 11.5658L11.6281 11.6754C11.6078 10.1885 11.5701 8.67859 11.5148 7.14471C11.3388 7.09312 11.3388 7.01205 11.5148 6.96046V6.95862Z" fill="#DCA604"/>
<path d="M13.8176 2.35242C13.8176 3.11889 13.8176 3.88906 13.8176 4.65553C13.0511 4.65553 12.2809 4.65553 11.5145 4.65553C11.2869 3.88445 11.2842 3.1235 11.5145 2.35242H13.8176Z" fill="#DCA604"/>
<path d="M2.57868 9.44608C2.93151 9.36316 4.53817 9.57321 4.68465 9.34105C4.74361 9.24709 4.68096 8.68789 4.70123 8.48337C4.7519 7.96195 4.81086 7.4267 4.79335 6.81684C4.7823 6.42715 4.51237 5.26362 4.82744 5.0158C5.01906 4.86564 5.64827 4.89327 5.85647 5.01856C6.51516 5.41562 6.59715 7.15033 6.54648 7.83942C6.52253 8.17015 6.22958 8.95413 6.21392 9.21484C6.19273 9.56952 6.55109 9.98408 6.61097 10.3443C6.68283 10.7782 6.58978 11.1006 6.39264 11.4802C6.04072 11.4415 5.64551 11.5189 5.30188 11.4701C4.98682 11.4258 4.76664 11.0177 4.44144 11.6313C4.2968 12.7552 4.56581 14.115 4.42946 15.2085C4.40551 15.4019 4.23784 15.3485 4.16506 15.4977C3.92278 15.9934 3.89514 16.2486 4.05359 16.7248C3.90803 17.1127 4.03148 17.4499 4.42209 17.7382C4.53725 18.4531 4.43591 19.0547 4.14572 19.6728C4.18441 20.1058 4.03056 20.2965 3.68417 20.244C3.4815 20.4817 3.05864 20.7719 2.76385 20.502C2.67356 20.4375 2.64408 20.4098 2.5796 20.3177C2.36126 20.0146 2.45062 19.6268 2.5796 19.3043C2.645 19.1358 2.72055 19.039 2.76385 18.9358C3.16367 18.4826 3.3691 18.1878 2.76385 17.8303C2.69015 17.6875 2.64685 17.6737 2.5796 17.4618C2.46352 16.6484 2.46352 15.8506 2.5796 15.0666C2.61552 14.5111 2.70304 14.4383 2.85597 13.9611C2.89374 13.5309 2.84768 13.0942 2.76385 12.6714C2.73713 12.6013 2.63579 12.4318 2.5796 12.3029C2.46076 11.3429 2.46076 10.3913 2.5796 9.447L2.57868 9.44608Z" fill="#010101"/>
<path d="M9.21173 22.6189C9.41625 22.7184 9.49455 22.9708 9.28267 23.05C9.98189 22.9625 10.6959 23.0031 11.4227 23.1716C11.4402 23.0897 11.4706 23.0924 11.5148 23.1716C11.4282 23.4324 11.5185 24.8686 11.5148 25.2905C11.5056 25.3412 11.4964 25.3808 11.4863 25.3817C10.0095 25.425 8.48763 25.4213 7.01732 25.3034C7.06154 24.7691 7.02561 24.3665 6.90861 24.0938C6.90769 23.787 6.90861 23.4793 6.90861 23.1726C7.20249 23.1118 9.04314 23.2527 9.11961 23.1726C9.16198 23.1283 9.0284 22.6972 9.21081 22.6189H9.21173Z" fill="#DCA604"/>
<path d="M6.58619 21.0528C6.6083 21.0564 6.8073 21.1486 6.82112 21.2002C6.86441 21.4507 6.5604 21.529 6.54013 21.7446C6.51157 22.0477 6.76491 22.4862 6.78795 22.6815C6.82203 22.9763 6.86717 24.0745 6.81558 24.3057C6.799 24.3812 6.64516 24.3766 6.60094 24.4844C6.41392 24.945 6.80269 25.3937 5.75154 25.2969C5.17945 25.2444 5.11312 24.828 5.00441 24.3103C4.98599 24.2209 5.06245 24.0883 5.04218 23.9796C4.93256 23.4056 4.63039 22.5185 4.80727 21.9473C4.8478 21.8174 5.0385 21.7299 5.04311 21.6543C5.04863 21.5576 4.78976 21.3052 4.97401 21.0537C5.47333 21.108 6.10807 20.9791 6.58619 21.0537V21.0528Z" fill="#020202"/>
<path d="M6.90825 18.4733C7.11092 19.249 7.10539 20.092 6.90825 20.8686H4.60513C4.60421 20.0717 4.6079 19.2702 4.60513 18.4733L4.6733 18.3444C5.33752 18.3434 6.01924 18.3407 6.71755 18.3361L6.90825 18.4733Z" fill="#0A9E8F"/>
<path d="M6.90858 16.1711C6.91226 16.2015 6.90397 16.2338 6.90858 16.2632C7.06519 16.8224 7.11586 17.8137 7.03111 18.4097C7.02742 18.4365 6.97491 18.4567 6.90858 18.4742C6.14947 18.7285 5.37747 18.3959 4.60546 18.4742C4.6027 17.7391 4.60454 16.9993 4.60546 16.2632C4.81643 16.0827 5.03937 16.0827 5.25034 16.2632C5.74965 16.2448 6.24067 16.2135 6.72433 16.1711H6.90858Z" fill="#09C4B3"/>
<path d="M6.44772 11.657C6.57025 11.6644 6.69462 11.6506 6.81622 11.657C6.79688 12.2844 6.84202 12.9191 6.81622 13.5474C6.81161 13.6607 6.88624 13.8892 6.7241 13.8689V12.0725C6.7241 11.6588 4.90279 11.6063 4.74342 11.9343C4.65314 12.1195 4.65774 14.9118 4.69828 15.2969C4.81712 16.4429 6.13266 15.8892 6.90927 16.172C6.84939 16.1766 6.78398 16.1637 6.72502 16.172C6.23584 16.207 5.74481 16.2374 5.25102 16.2642C5.03637 16.2642 4.8208 16.2642 4.60615 16.2642C4.60799 14.7303 4.60523 13.1918 4.60615 11.6579C5.21602 11.6856 5.84062 11.622 6.44864 11.6579L6.44772 11.657Z" fill="#F9DA0C"/>
<path d="M6.90825 16.2633C7.12013 16.3278 7.08605 16.501 7.09802 16.6733C7.22147 18.513 7.15514 20.8963 7.0925 22.7627C7.08697 22.9405 7.18646 23.1321 6.90825 23.0805C6.9064 22.3454 6.91009 21.6056 6.90825 20.8695C6.9064 20.0727 6.91193 19.2712 6.90825 18.4743C6.90548 17.8515 7.00221 16.8188 6.90825 16.2633Z" fill="#F9DA0C"/>
<path d="M6.90825 24.0929C7.18554 24.0413 7.08697 24.2329 7.0925 24.4107C7.09987 24.6539 7.08789 24.899 7.08697 25.1413C7.16435 25.4296 10.9709 25.2288 11.5145 25.2905C11.5145 25.3522 11.5145 25.413 11.5145 25.4748H6.90825C6.9064 25.0151 6.91009 24.5526 6.90825 24.0929Z" fill="#DCA604"/>
<path d="M4.14451 19.6709C4.1049 20.1195 4.51485 20.8335 3.74192 20.688C3.67652 20.676 3.68204 20.5 3.63322 20.4945C3.39277 20.4659 3.24445 20.8215 2.85384 20.6373C2.79396 20.6087 2.78291 20.5148 2.76172 20.5C3.36145 20.6898 3.39554 20.1988 3.58992 20.0845C3.73916 19.9979 4.00264 20.0735 4.0441 20.032C4.05699 20.0191 4.07634 19.8128 4.14267 19.6709H4.14451Z" fill="#020202"/>
<path d="M2.57867 12.3019C2.22215 11.4829 2.45154 11.0536 2.49484 10.2291C2.50866 9.9601 2.25347 9.52251 2.57867 9.44604V12.3019Z" fill="#020202"/>
<path d="M2.57877 17.4609C2.37334 16.8124 2.44888 16.5434 2.45256 15.9252C2.4544 15.6396 2.25634 15.2978 2.57877 15.0657C2.52811 15.8515 2.61562 16.6714 2.57877 17.4609Z" fill="#020202"/>
<path d="M2.7627 17.8293C3.57892 18.0164 3.36243 18.6382 2.7627 18.9348C2.80415 18.8363 3.02617 18.2946 3.02341 18.2586C3.01143 18.1297 2.82995 17.9592 2.7627 17.8293Z" fill="#020202"/>
<path d="M7.00056 11.5649C6.98305 11.6469 6.95265 11.6441 6.90843 11.5649C6.90383 10.9523 6.91028 10.335 6.90843 9.72241C7.11848 10.2807 6.94528 10.9744 7.00056 11.5649Z" fill="#010101"/>
<path d="M4.42088 17.7372C3.99434 17.413 3.70599 17.2545 4.05238 16.7239C4.15003 17.0187 4.03027 17.05 4.06527 17.2131C4.10028 17.3761 4.37113 17.4286 4.42088 17.7372Z" fill="#020202"/>
<path d="M2.57864 20.3159C2.47177 20.1639 2.39991 20.2615 2.3861 19.9041C2.37043 19.5024 2.49664 19.5171 2.57864 19.3025C2.53349 19.6673 2.45979 19.9501 2.57864 20.3159Z" fill="#020202"/>
<path d="M2.85482 13.9602L2.7627 12.6704C2.89259 13.0085 2.96445 13.6165 2.85482 13.9602Z" fill="#020202"/>
<path d="M29.9386 6.95869V7.05081C29.9045 7.25901 29.8391 7.30323 29.8004 7.09687H25.6631C25.5102 7.19913 25.431 7.18439 25.4236 7.05081C25.6005 7.03238 25.6161 7.12543 25.4696 7.32903C25.4936 8.7542 25.4789 10.1665 25.4236 11.5649C25.4494 11.4848 25.4807 11.4857 25.5157 11.5649C25.4374 10.2125 25.4374 8.66483 25.5157 7.28112C25.4291 7.15399 25.5249 7.07292 25.6539 7.14293C26.9759 7.06463 28.4923 7.06463 29.8456 7.14293C29.9156 8.59298 29.946 10.067 29.9377 11.5649C29.9681 11.5668 29.9994 11.5631 30.0298 11.5649C30.0344 11.5981 30.0206 11.6368 30.0298 11.657C30.7373 11.7188 31.4522 11.7344 32.1763 11.7022C32.1791 12.429 32.2003 13.1504 32.2408 13.8671C32.2611 13.8763 32.2998 13.8625 32.3329 13.8671C32.3329 13.8975 32.3329 13.9288 32.3329 13.9592C32.4149 13.9767 32.4122 14.0071 32.3329 14.0514C32.3274 14.605 32.4223 15.5456 32.3329 16.032C32.3191 16.1085 32.2592 16.2624 32.1947 16.2624H27.7728C27.7626 16.2624 27.6346 16.1343 27.6346 16.1242V13.9592H25.3315C25.3296 13.2241 25.3342 12.4843 25.3315 11.7482C25.2495 11.7307 25.2522 11.7003 25.3315 11.6561C25.3315 11.6257 25.3315 11.5944 25.3315 11.564C25.3269 10.0301 25.337 8.49164 25.3315 6.95776H29.9377L29.9386 6.95869Z" fill="#DCA604"/>
<path d="M28.0972 6.86654C28.0271 6.56805 28.4445 6.61319 28.4657 6.58924C28.6877 6.33774 27.8853 6.31563 27.7867 6.33958C27.6881 6.36354 27.6255 6.4833 27.5333 6.53765C27.4412 6.59201 27.2772 6.58187 27.2671 6.59201C27.2118 6.6436 27.4375 6.84166 27.3141 6.86838C27.0257 6.9301 26.5688 6.82416 26.2547 6.86746C26.3578 6.61964 26.6637 6.58556 26.8986 6.59109C26.9318 6.03189 25.7544 6.46211 25.7019 6.40684C25.7682 5.68181 26.1404 5.20645 25.5573 4.57079C25.2192 4.20229 24.6517 4.25849 24.1883 4.29442C24.0464 4.30547 23.9469 4.46577 23.829 4.45656C23.6927 4.44642 23.4449 4.21519 23.2182 4.2852C23.2606 3.86419 23.069 3.06824 23.4025 2.77252C23.7323 2.48048 24.6121 2.84069 25.0073 2.86188C25.5066 2.88767 26.801 2.6113 27.1345 2.90241C27.397 3.1318 27.1713 3.30131 27.2026 3.49477C27.2266 3.6431 27.3574 3.76009 27.3684 3.9683C27.3823 4.23361 27.1326 4.52749 27.2164 4.65739C27.2717 4.74306 27.9396 5.17144 28.0649 5.18342C28.3358 5.20921 28.778 4.92363 29.1124 5.02497C29.1179 5.25712 29.0728 5.5252 29.1787 5.74262C29.2939 5.97846 29.6154 5.94713 29.6412 6.07887C29.6485 6.11756 29.6126 6.86746 29.573 6.86746H28.099L28.0972 6.86654Z" fill="#010101"/>
<path d="M11.5149 2.35242C11.5121 3.11889 11.5167 3.88906 11.5149 4.65553C10.7484 4.65553 9.97821 4.65553 9.21174 4.65553C9.23016 3.96368 9.18963 3.26629 9.20805 2.57444C9.21174 2.45283 9.30386 2.36439 9.30478 2.35242H11.5158H11.5149Z" fill="#010101"/>
<path d="M29.8467 2.35242C29.9628 4.26308 29.9379 4.83241 27.8338 4.36626C27.738 4.06778 27.9001 3.77298 27.9167 3.50029C27.9333 3.2276 27.7343 3.03782 27.9204 2.77619C28.1314 2.47863 28.6556 2.55325 28.9771 2.53667C29.154 2.52745 29.3465 2.6334 29.2958 2.35242H29.8486H29.8467Z" fill="#DCA604"/>
<path d="M22.8461 2.53662V4.47032C21.6006 4.34319 20.1404 4.61864 18.9262 4.47585C18.8332 4.46479 18.6084 4.43347 18.6084 4.33305V2.67481C18.6084 2.66467 18.7365 2.53662 18.7466 2.53662H22.8461Z" fill="#F9DA0C"/>
<path d="M32.2419 6.95866C32.2677 7.73987 32.3341 8.54781 32.3341 9.3539C32.4059 9.37324 32.51 9.4018 32.5183 9.45984C32.5524 9.68831 32.5598 11.1439 32.5183 11.3392L32.3341 11.4718C31.6044 11.4746 30.8057 11.6192 30.0309 11.564C29.8633 10.3055 30.0337 8.30828 30.0309 6.95774C30.0503 6.88588 30.0798 6.7827 30.1387 6.77349C30.3985 6.73203 31.8587 6.73019 32.1084 6.77349L32.2429 6.95774L32.2419 6.95866Z" fill="#010101"/>
<path d="M2.39448 5.07012C2.52345 4.6095 3.13424 4.97063 3.26874 4.978C3.55248 4.99366 4.20565 4.76611 4.37516 5.11527C4.48571 5.34373 4.42306 6.38659 4.4249 6.73113C4.42582 6.92644 4.33094 7.10147 4.32817 7.2802C4.32265 7.75648 4.74089 9.02872 4.00297 9.16599C3.75976 9.21113 2.39355 9.23969 2.39355 8.93844V5.0692L2.39448 5.07012Z" fill="#F9DA0C"/>
<path d="M32.3339 13.868C32.3367 13.1328 32.3321 12.3931 32.3339 11.657H34.5449V13.868C33.8503 13.8016 33.0065 13.9573 32.3339 13.868Z" fill="#020202"/>
<path d="M36.848 11.657V16.1711C36.2206 16.1517 35.5859 16.1969 34.9585 16.1711C34.8452 16.1665 34.6167 16.2411 34.637 16.079H36.7559V11.7491H34.9594C34.4942 11.7491 34.9079 13.8339 34.637 13.9601V11.657H36.848Z" fill="#F9DA0C"/>
<path d="M30.0308 11.657H32.2418V13.868C32.1561 13.8284 32.1635 13.8357 32.1478 13.7344C32.1008 13.4212 32.2206 11.8191 32.1496 11.7491C31.5361 11.6828 30.753 11.8394 30.1643 11.751C30.063 11.7353 30.0704 11.7427 30.0308 11.657Z" fill="#DCA604"/>
<path d="M34.545 13.9601C33.8586 14.1711 33.0498 13.996 32.334 14.0522C32.334 14.0218 32.334 13.9905 32.334 13.9601C33.0286 13.8947 33.8715 14.0495 34.545 13.9601Z" fill="#F9DA0C"/>
<path d="M25.3334 11.657C25.3334 11.6874 25.3334 11.7187 25.3334 11.7491C24.7926 11.6588 23.4246 11.9112 23.0303 11.657H25.3334Z" fill="#F9DA0C"/>
<path d="M29.9384 7.05078V11.5649L29.8463 7.14291H25.6546C25.6445 7.14291 25.5164 7.27096 25.5164 7.28109V11.5649H25.4243V7.05078H29.9384Z" fill="#DCA604"/>
<path d="M23.1222 25.4748C23.0936 25.5466 23.0457 25.6185 22.9693 25.6406C22.598 25.7447 19.2566 25.7263 18.7417 25.6636C18.5768 25.6434 18.48 25.6517 18.4238 25.4748L18.644 25.2915C19.9964 25.4628 21.5588 25.4868 22.9094 25.2804L23.0301 25.3827C23.0724 25.3744 23.1388 25.4177 23.1222 25.4748Z" fill="#DCA604"/>
<path d="M29.9387 27.6858C29.6116 27.7171 29.8346 27.6075 29.8392 27.449C29.8585 26.8677 29.7618 26.2017 29.9387 25.6591C29.9387 26.3334 29.9387 27.0114 29.9387 27.6858Z" fill="#DCA604"/>
<path d="M32.0575 23.1717C31.8143 23.1837 31.5646 23.1634 31.3205 23.1717C31.3573 23.0649 31.5112 23.0031 31.7811 22.9875C30.5098 23.1072 29.2357 23.1072 27.9579 22.9875C27.8851 23.0252 27.8289 23.0529 27.8271 23.0464C27.7589 22.8217 27.7239 21.0225 27.8013 20.9082C27.8188 20.8824 27.8621 20.8732 27.9128 20.8695C28.3135 20.8695 29.6899 20.9506 29.9395 20.8695C30.0326 20.8391 30.0224 20.8299 30.0344 20.7359C30.11 20.1454 30.0012 19.3753 30.0316 18.7507C30.145 18.5526 31.9856 18.5636 32.0989 18.6392C32.215 20.0422 32.1892 21.6415 32.1505 23.1109C32.1505 23.1321 32.11 23.1524 32.0584 23.1726L32.0575 23.1717Z" fill="#D232A0"/>
<path d="M34.453 23.1717L34.3618 16.1712C34.4751 16.0219 34.5286 16.173 34.5461 16.3075C34.641 17.0501 34.5424 18.1445 34.5461 18.9349C34.5488 19.578 34.5516 20.2265 34.5461 20.8695C34.5405 21.5264 34.6271 22.4246 34.5488 23.0391C34.5369 23.133 34.5479 23.1423 34.4539 23.1727L34.453 23.1717Z" fill="#F9DA0C"/>
<path d="M27.9126 20.8685C27.8085 21.0224 27.8223 21.1956 27.8168 21.3706C27.8094 21.6037 27.7523 22.9874 27.9586 22.9874H31.7818V23.0786C31.6049 22.9966 31.3995 23.1634 31.3212 23.1716C30.9278 23.2149 30.4432 23.1634 30.0314 23.1716C30.001 23.1716 29.9697 23.1716 29.9393 23.1716C29.2355 23.1007 28.5252 23.1283 27.8205 23.1716C27.7882 23.168 27.7541 23.179 27.7283 23.1716C27.6528 22.4264 27.6546 21.6055 27.7283 20.8685H27.9126Z" fill="#D232A0"/>
<path d="M30.0309 18.7497C30.0336 18.6889 30.0262 18.6262 30.0309 18.5654H32.2428V23.1717C32.182 23.1763 32.1202 23.168 32.0585 23.1717L32.1101 18.7442C32.0042 18.5921 30.3201 18.6161 30.0318 18.7497H30.0309Z" fill="#D232A0"/>
<path d="M37.2625 4.83984H38.9207C38.9309 4.83984 39.0589 4.9679 39.0589 4.97803V9.03152C39.0589 9.04165 38.9309 9.1697 38.9207 9.1697H37.3546C37.3353 9.1697 37.1013 8.93939 37.0801 8.89149C36.9898 8.6925 36.9843 5.7399 37.0303 5.34469C37.0543 5.13741 37.0985 4.98079 37.2625 4.83984Z" fill="#F9DA0C"/>
<path d="M11.5148 7.14294C11.6677 7.23875 11.6069 7.4921 11.6088 7.64871C11.6235 8.84357 11.5572 10.0513 11.6069 11.2434C11.6115 11.3567 11.5369 11.5852 11.699 11.5649V7.37326C11.699 7.34285 11.8206 7.23323 11.7912 7.14294H16.0289C16.0455 8.35531 16.004 9.57227 16.0335 10.7865C16.0436 11.2204 16.0869 11.33 16.121 11.6571C16.1763 12.1822 16.2509 13.0362 16.2205 13.5475C16.2141 13.6506 16.2021 13.9602 16.075 13.9602H13.8179V16.2633H9.25773C9.02558 16.2633 9.2126 15.7216 9.21628 15.576C9.2301 15.039 9.1914 14.4963 9.21167 13.9602C9.27432 13.2232 9.28906 12.4779 9.25497 11.7252C10.0132 11.7206 10.7658 11.6976 11.5148 11.6571C11.524 11.6368 11.5102 11.5981 11.5148 11.5649L11.3554 11.3392C11.4098 10.0163 11.4015 8.69248 11.3315 7.36681L11.5148 7.14294Z" fill="#DCA604"/>
<path d="M11.5146 18.6576C12.2166 18.6153 12.9093 18.6051 13.6159 18.6014C13.6924 18.6014 13.6942 18.7009 13.6334 18.7958C13.685 18.7958 13.7256 18.7986 13.7256 18.8032C13.756 20.1197 13.756 21.4702 13.7256 22.7876C13.7256 22.8088 13.685 22.829 13.6334 22.8493C13.7845 23.0234 13.6952 23.1036 13.4953 22.9875C12.4939 23.0391 11.3312 23.0851 10.317 22.9875C10.6679 23.0336 11.0364 23.0584 11.4224 23.0612V23.1717C10.6873 23.169 9.94753 23.1736 9.21146 23.1717C9.20685 22.9884 9.21883 22.8023 9.21146 22.6181C9.19119 22.0368 9.22712 21.449 9.21146 20.8677C9.28792 20.7912 11.0438 20.9138 11.3819 20.8705C11.4759 20.8585 11.4851 20.8696 11.5155 20.7756L11.3598 20.6153C11.3331 20.3675 11.3018 18.9248 11.3856 18.8271C11.4169 18.7903 11.4639 18.7673 11.5146 18.7479C11.5173 18.7175 11.5118 18.6862 11.5146 18.6558V18.6576Z" fill="#D232A0"/>
<path d="M16.305 18.4733C17.0199 18.4927 17.7256 18.524 18.4239 18.5654C18.4958 18.5848 18.6017 18.6143 18.6082 18.6705C18.6404 18.9367 18.657 20.5332 18.6082 20.7368L18.4239 20.8686C18.6763 21.6304 18.6726 22.4089 18.4239 23.1717C18.4055 23.2712 18.3705 23.3633 18.2636 23.3559C17.5699 23.3053 16.8292 23.2408 16.1208 23.1717C16.1097 23.1486 16.1291 23.109 16.1208 23.0796C16.0978 21.6037 16.0978 20.1306 16.1208 18.6576C16.1272 18.5968 16.1171 18.5341 16.1208 18.4733C16.1908 18.4392 16.2525 18.4392 16.305 18.4733Z" fill="#0A9E8F"/>
<path d="M23.1223 18.5655C23.8317 18.6309 24.5319 18.665 25.2209 18.6668C25.2615 20.092 25.2615 21.5338 25.2209 22.9921C24.5033 23.0713 23.8575 23.11 23.2845 23.1063L23.1223 23.1717C23.0919 23.1717 23.0606 23.1717 23.0302 23.1717C22.7778 21.6443 22.7815 20.0938 23.0302 18.5655C23.0606 18.5683 23.0919 18.5627 23.1223 18.5655Z" fill="#0A9E8F"/>
<path d="M23.0304 18.4733C23.0304 18.5037 23.0304 18.535 23.0304 18.5654L22.5366 18.711C21.3169 18.6299 20.0999 18.5507 18.8848 18.4733L18.6425 18.395C18.5614 18.033 18.3809 16.5682 18.6526 16.3747C18.824 16.2522 22.6914 16.2135 22.8489 16.3535C22.9033 17.0509 22.9631 17.7575 23.0304 18.4733Z" fill="#0A9E8F"/>
<path d="M9.11962 11.5649C9.14081 11.5649 9.1878 11.6561 9.21175 11.657L9.32967 11.6975C9.2311 13.1899 9.18135 13.9362 9.18135 13.9362L9.11962 13.9601C8.40013 14.0578 7.6272 14.0596 6.90863 13.9601C6.81466 13.6754 6.91232 12.0292 6.90863 11.5649C6.93903 11.5649 6.97036 11.5649 7.00076 11.5649C7.70275 11.5556 8.41856 11.5455 9.11962 11.5649Z" fill="#030303"/>
<path d="M29.9385 20.7764H27.8197V18.8878C27.8197 18.8713 28.0334 18.6575 28.05 18.6575H29.8464L28.787 18.5249C28.4737 18.5166 27.9238 18.734 27.7275 18.3821L32.2416 18.4733H29.9385V20.7764Z" fill="#EF84D4"/>
<path d="M11.5147 18.7497C11.464 19.2453 11.628 20.4291 11.5147 20.7764H9.30371V18.98C9.30371 18.9542 9.4465 18.7285 9.48796 18.7036C9.70814 18.57 11.1738 18.641 11.5147 18.7497Z" fill="#EF84D4"/>
<path d="M23.03 16.1711C23.0319 16.9376 23.0273 17.7078 23.03 18.4743C22.6238 17.9657 22.9821 17.1375 22.8052 16.5341C22.7546 16.4604 21.9687 16.383 21.7863 16.3738C21.3948 16.3526 20.8126 16.4429 20.4082 16.453C20.0553 16.4623 18.9526 16.3333 18.7407 16.5396C18.4874 16.7865 18.667 18.1454 18.8844 18.4752C18.7333 18.5424 18.5767 18.5434 18.4238 18.4752C18.3593 18.4365 18.3096 18.3978 18.3068 18.3563C18.2773 17.7465 18.3013 16.9054 18.4238 16.3563C18.4293 16.2955 18.4201 16.2329 18.4238 16.1721H23.03V16.1711Z" fill="#0A9E8F"/>
<path d="M18.6084 23.1717L18.7899 23.2832C18.7586 23.9023 18.7881 24.5158 18.8765 25.1248L18.7927 25.2906C18.7816 25.2141 18.801 25.1073 18.8544 25.1064C19.8963 25.0861 20.9631 25.0778 22.0078 25.1064C22.4215 25.0373 22.7015 25.099 22.8462 25.2906L22.6896 25.0907C22.6711 24.8779 22.6831 23.4011 22.7264 23.3237C22.7697 23.2464 22.8572 23.2021 22.9392 23.1717C22.9567 23.0897 22.9871 23.0925 23.0313 23.1717V25.3827C21.7877 25.637 19.7757 25.4739 18.4251 25.4748C18.4177 25.45 18.4288 25.415 18.4251 25.3827C18.3698 25.3588 18.3256 25.3339 18.3247 25.3063C18.2924 24.7434 18.2805 24.0036 18.3053 23.4444C18.1782 23.3366 18.2823 23.2574 18.426 23.1717C18.4555 22.9267 18.5403 22.9377 18.6103 23.1717H18.6084Z" fill="#0A9E8F"/>
<path d="M25.3333 18.4733V23.1716C24.5981 23.1735 23.8584 23.1679 23.1223 23.1716C23.0707 22.8943 23.2632 22.9929 23.4401 22.9874C23.9836 22.9708 24.6064 23.0242 25.1085 22.9008C25.1988 22.2117 25.1288 21.5115 25.1453 20.8188C25.1573 20.3038 25.1767 20.0689 25.1453 19.529C25.1278 19.2342 25.3996 18.8915 24.9611 18.7008C24.7897 18.6262 24.436 18.7708 24.1817 18.757C23.8482 18.7386 23.4245 18.593 23.1232 18.5663C23.8353 18.5396 24.5622 18.6455 25.2421 18.4742H25.3342L25.3333 18.4733Z" fill="#0A9E8F"/>
<path d="M11.5146 18.6575L13.8168 18.4733V23.1716C13.756 23.1762 13.6942 23.1679 13.6334 23.1716C12.9508 23.1071 12.1926 23.0712 11.5146 23.1716C11.4842 23.1716 11.4528 23.1716 11.4224 23.1716C11.2124 22.9358 10.5279 23.1781 10.3179 23.0786V22.9874H13.4953C13.5054 22.9874 13.6334 22.8593 13.6334 22.8492V18.7957C13.6334 18.5368 11.7974 18.7054 11.5146 18.6575Z" fill="#D232A0"/>
<path d="M18.4242 23.1716C18.4297 23.8478 18.3459 24.7442 18.4242 25.3826C18.1451 25.4342 18.2473 25.2417 18.24 25.0648C18.228 24.7672 18.3155 23.5097 18.1534 23.3964C17.9249 23.237 16.2814 23.4959 16.1211 23.1716H18.4242Z" fill="#F9DA0C"/>
<path d="M27.6366 20.8686C27.7121 21.5651 27.7094 22.3749 27.6366 23.0796C27.3814 22.8217 27.4173 21.9658 27.4118 21.5596C27.3989 20.5637 27.5813 19.5641 27.5454 18.5664C27.7057 18.5452 27.632 18.7756 27.6366 18.887C27.6633 19.543 27.6366 20.2118 27.6366 20.8686Z" fill="#F9DA0C"/>
<path d="M18.4242 16.3554C18.3616 17.0307 18.4694 17.7879 18.4242 18.4743C17.7259 18.5397 17.0202 18.5397 16.3053 18.4743C16.2445 18.4807 16.1819 18.4706 16.1211 18.4743C16.5089 18.2062 17.8696 18.5397 18.1534 18.3416C18.3164 18.2283 18.2271 16.804 18.24 16.4917C18.2492 16.2642 18.1755 16.1914 18.4242 16.3545V16.3554Z" fill="#F9DA0C"/>
<path d="M11.5144 11.657C11.4748 11.7427 11.4822 11.7353 11.3809 11.751C11.0557 11.7998 9.37622 11.6754 9.30344 11.7491C9.28226 12.4087 9.33293 13.0766 9.30806 13.7372C9.30345 13.856 9.21224 13.9472 9.21224 13.9601H9.12012C9.34951 13.6985 9.13946 12.0983 9.21224 11.657C9.97688 11.68 10.7498 11.6395 11.5154 11.657H11.5144Z" fill="#DCA604"/>
<path d="M25.3336 18.4733C25.3041 18.4788 25.27 18.466 25.2414 18.4733H23.1226V16.2623H23.2147V18.1509C23.2147 18.5986 25.0388 18.2172 25.3336 18.4733Z" fill="#F9DA0C"/>
<path d="M16.121 23.0796V18.6576C15.9819 20.0524 16.2242 21.6609 16.121 23.0796Z" fill="#B5B5B5"/>
<path d="M27.7288 23.1716C27.6911 23.1615 27.6644 23.1072 27.6367 23.0795V20.8685H27.7288V23.1716Z" fill="#F9DA0C"/>
<path d="M18.4238 11.657C18.3511 11.7823 18.3206 11.7427 18.199 11.7537C17.755 11.7933 17.1792 11.7565 16.7177 11.7509C16.562 11.7491 16.3077 11.8099 16.2119 11.657H18.4229H18.4238Z" fill="#F9DA0C"/>
<path d="M9.1192 13.9601C9.0326 14.0587 9.02431 14.0448 8.8981 14.0577C8.49736 14.0983 7.52544 14.1056 7.13391 14.0568C7.03165 14.0439 6.95334 14.0964 6.9082 13.961H9.1192V13.9601Z" fill="#F9DA0C"/>
<path d="M29.9387 23.1717C29.3067 23.1836 28.4214 23.2408 27.8198 23.1717C28.4463 23.0178 29.3122 23.0178 29.9387 23.1717Z" fill="#F9DA0C"/>
<path d="M13.6335 23.1717C12.9407 23.2058 12.212 23.1717 11.5146 23.1717C11.5598 23.0354 11.6381 23.0879 11.7404 23.0759C12.1264 23.028 12.7141 23.0741 13.1287 23.0787C13.2844 23.0805 13.5386 23.0197 13.6344 23.1727L13.6335 23.1717Z" fill="#F9DA0C"/>
<path d="M11.4223 6.95868H11.5144C11.5144 7.02041 11.5144 7.08121 11.5144 7.14293C11.5117 8.44005 11.6757 10.3553 11.5144 11.5649H9.21132C9.20487 10.9348 9.21962 10.3019 9.21593 9.66991C9.21501 9.5004 9.12012 9.32445 9.12012 9.2618C9.12012 8.59574 9.28041 7.6358 9.30437 6.95868C9.32371 6.88683 9.35319 6.7818 9.41031 6.77443C9.62128 6.7468 11.1376 6.73574 11.2897 6.77443L11.4223 6.95868Z" fill="#020202"/>
<path d="M13.6333 2.53662H11.6987V4.47124H13.6333V2.53662Z" fill="#DCA604"/>
<path d="M6.72399 16.1712C6.70004 16.1749 6.62634 16.2606 6.50105 16.267C6.09386 16.2891 5.65995 16.2633 5.25 16.2633C5.66548 16.0551 6.25508 16.2228 6.72399 16.1712Z" fill="#F9DA0C"/>
<path d="M11.4022 25.9538C11.5975 26.2901 11.1719 26.5075 11.1424 26.7231C11.1212 26.8769 11.265 27.1957 11.2382 27.2242C11.0245 27.4555 11.0733 26.8364 10.8246 26.8493C10.3999 26.8695 10.3207 27.2896 9.9531 27.3726C9.615 27.449 9.45102 27.3025 9.17649 27.32C8.63019 27.355 8.5224 27.7088 7.76237 27.4306C7.23911 27.239 7.14514 26.7636 7.41875 26.3076C7.43349 26.2827 7.84713 25.9391 7.87661 25.9391C7.90885 25.9391 8.03598 26.1427 8.17417 26.1906C8.26629 26.2228 9.03093 26.3417 9.02909 26.2569L8.88813 25.9345C9.36718 25.5559 9.69239 25.7558 10.176 25.7567C10.4036 25.7567 10.8836 25.6489 10.9895 25.6738C11.0135 25.6793 11.3902 25.9317 11.4031 25.9538H11.4022Z" fill="#020202"/>
<path d="M18.424 18.4733C18.5779 18.4733 18.7308 18.4733 18.8847 18.4733C20.2573 18.4715 21.6714 18.4374 23.0303 18.5654C23.0349 20.0993 23.0303 21.6378 23.0303 23.1717C22.9999 23.1717 22.9686 23.1717 22.9382 23.1717C21.4964 23.4038 20.051 23.4011 18.6083 23.1717H18.424C18.4185 22.4052 18.424 21.635 18.424 20.8686C18.4434 20.7967 18.4738 20.6889 18.5291 20.6843C18.7953 20.6613 20.5752 20.6576 20.6664 20.746C20.6977 20.7755 20.7143 20.8207 20.7272 20.8686C20.6553 20.8492 20.5475 20.8188 20.5429 20.7635C20.5199 20.4973 20.5162 18.7174 20.6046 18.6262C20.6341 18.5949 20.6793 18.5783 20.7272 18.5654C19.9616 18.746 19.1896 18.7469 18.424 18.5654C17.7405 18.5654 16.9574 18.6428 16.3052 18.4733C16.9445 18.4098 17.7598 18.4733 18.424 18.4733Z" fill="#09C4B3"/>
<path d="M18.4238 18.5654C19.1903 18.5654 19.9605 18.5654 20.7269 18.5654V20.8685H18.4238V18.5654Z" fill="#F9DA0C"/>
<path d="M22.9382 23.1716C22.7927 23.8801 22.9742 24.5747 22.8461 25.2905H18.7926C18.5577 25.2905 18.6001 23.4425 18.6084 23.1716C20.0501 23.1716 21.4965 23.1762 22.9382 23.1716Z" fill="#0A9E8F"/>
</svg>
