<svg width="38" height="37" viewBox="0 0 38 37" fill="none" xmlns="http://www.w3.org/2000/svg">
<path d="M23.3066 2.34643C23.4899 3.01986 23.5572 3.72646 23.5084 4.4653H27.8032L27.9128 4.64863C27.9128 4.67903 27.9128 4.71035 27.9128 4.74075C28.1266 5.43261 28.1275 6.12815 27.9948 6.8329C29.5038 6.71314 31.0137 6.80158 32.5191 6.95174C32.7494 7.72283 32.7466 8.48285 32.5191 9.25486L32.4343 9.43911H25.7792C25.8271 10.1503 25.747 10.8588 25.6097 11.558C25.7442 12.259 25.8474 12.9675 25.7479 13.6768H32.4085L32.5191 13.8602C32.6011 13.8777 32.5983 13.9081 32.5191 13.9523L32.4343 14.1365H25.7203L25.6097 13.9523C25.4798 14.0748 25.4328 14.0232 25.5176 13.8602C25.4457 13.8408 25.3416 13.8123 25.3333 13.7551C25.29 13.4604 25.2845 11.9652 25.3333 11.6888L25.5176 11.5571L25.4328 11.7413H18.7188L18.6082 11.5571C18.6801 11.5764 18.786 11.6059 18.7925 11.6621C18.8247 11.9283 18.8413 13.5248 18.7925 13.7284L18.6082 13.8602C18.3263 13.8675 18.061 13.9293 17.8123 14.0444L17.7496 13.9053C16.4967 13.933 15.2475 13.9182 14.002 13.8602L13.8767 13.8279C13.943 13.1425 13.9403 12.4396 13.8675 11.7192L13.9559 11.558C13.9366 11.6298 13.9071 11.7358 13.8509 11.7422C13.6584 11.7643 12.0204 11.7745 11.9228 11.7422L11.791 11.558C11.7192 11.5386 11.6123 11.5082 11.6068 11.453C11.5856 11.2337 11.5653 9.48149 11.6068 9.3866C11.6372 9.3175 11.7182 9.2825 11.791 9.25486C11.7827 9.32764 11.7578 9.43727 11.7063 9.43911C10.504 9.49162 8.71405 9.55242 7.55051 9.43911C7.29625 9.49254 7.14332 9.43174 7.09265 9.25486C7.0208 9.23551 6.91301 9.20511 6.9084 9.14984C6.88814 8.92413 6.84852 7.16824 6.9084 7.08348C6.95539 7.01715 7.01158 6.97017 7.09265 6.95174C7.07331 7.0236 7.04291 7.13139 6.98763 7.13599C6.4441 7.18205 5.46481 7.18113 4.92127 7.13599L4.78954 6.95174C4.71768 6.9324 4.61266 6.90384 4.60529 6.84672C4.56844 6.56298 4.55462 5.01989 4.60529 4.78036L4.78954 4.64863C6.28104 4.40357 7.79464 4.42016 9.29535 4.54084C9.18296 3.80753 9.24192 3.07145 9.39577 2.34551C14.0278 2.0719 18.6746 2.06821 23.3066 2.34551V2.34643Z" fill="#52AF3F"/>
<path d="M34.822 6.9527C34.8745 9.06144 34.8846 11.1729 34.8542 13.2863C34.9233 14.2379 34.9132 15.1969 34.822 16.1643L34.7796 16.2868C34.1264 16.1615 33.2384 16.1652 32.5797 16.2868L32.5189 16.1643C32.2895 15.4236 32.2922 14.6939 32.5189 13.9533C32.5189 13.9229 32.5189 13.8915 32.5189 13.8611C32.2886 13.0901 32.2913 12.3291 32.5189 11.558C32.2895 10.7869 32.2913 10.026 32.5189 9.2549C32.517 8.48842 32.5216 7.71826 32.5189 6.95178H34.822V6.9527Z" fill="#030303"/>
<path d="M32.7439 16.4415L32.6113 16.2572C32.8388 16.9979 32.8416 17.7275 32.6113 18.4682C32.5947 18.5502 32.5634 18.5474 32.5191 18.4682L32.3275 18.4065L32.3192 16.4055L30.2151 16.3503C30.1147 16.47 29.9802 16.423 29.8125 16.2075C29.222 16.2296 28.6453 16.3281 28.0962 16.4884C28.1672 16.4967 28.275 16.5179 28.2805 16.5686C28.3035 16.7713 28.31 18.1329 28.2188 18.2259C28.1884 18.2563 28.1441 18.2729 28.0962 18.2858C28.0704 18.3659 28.0391 18.365 28.0041 18.2858L27.8199 18.1798V16.3005L28.0041 16.1678C27.2036 16.3954 26.4094 16.3982 25.6089 16.1678C25.537 16.1485 25.4292 16.1172 25.4246 16.0601C25.3795 15.5543 25.3804 14.5962 25.4246 14.0904L25.6089 13.9559H32.5182C32.521 14.6911 32.5164 15.4308 32.5182 16.1669" fill="#2A731F"/>
<path d="M32.7955 18.5604C32.778 18.8036 32.6969 18.7852 32.6112 18.5604C32.5293 18.5429 32.532 18.5125 32.6112 18.4683" fill="#2A731F"/>
<path d="M4.69826 2.34646C6.26253 2.34093 7.83234 2.3483 9.39662 2.34646C9.39662 3.11293 9.39662 3.8831 9.39662 4.64957C7.86274 4.65234 6.32426 4.64405 4.79038 4.64957C4.0193 4.87988 3.25927 4.8762 2.48727 4.64957C2.49003 3.8831 2.48542 3.11293 2.48727 2.34646C3.22334 2.34553 3.9631 2.34922 4.69826 2.34646Z" fill="#010101"/>
<path d="M23.3065 2.34646C24.8404 2.35014 26.3789 2.34461 27.9127 2.34646C27.9146 3.11293 27.909 3.88402 27.9127 4.64957H23.3065C23.3028 3.88402 23.3129 3.11293 23.3065 2.34646Z" fill="#020202"/>
<path d="M27.9127 4.74161L32.519 4.64856C32.5199 5.41504 32.5162 6.1852 32.519 6.95168C30.9851 6.95168 29.4466 6.95168 27.9127 6.95168C27.9118 6.2156 27.9164 5.47584 27.9127 4.74068V4.74161Z" fill="#020202"/>
<path d="M4.79062 25.4689C5.55709 25.4726 6.32726 25.4671 7.09373 25.4689C7.09097 26.2354 7.09558 27.0055 7.09373 27.772C6.32726 27.772 5.55709 27.772 4.79062 27.772V27.035C4.71968 27.0175 4.63216 26.9945 4.60637 26.9318C4.55662 26.8112 4.52714 25.4938 4.79062 25.4689Z" fill="#020202"/>
<path d="M7.09348 27.7719C7.85996 27.7719 8.63012 27.7719 9.3966 27.7719V29.9829C8.98296 30.0023 8.56011 29.9571 8.14555 29.9792C8.02579 29.9857 7.93827 30.0741 7.92261 30.075C7.64992 30.0944 7.36709 30.0612 7.09348 30.075V29.6135L6.92582 29.4412L6.91016 28.0317L7.09441 27.8631C7.09441 27.8327 7.09441 27.8014 7.09441 27.771L7.09348 27.7719Z" fill="#030303"/>
<path d="M32.5191 18.4683C32.5495 18.4683 32.5808 18.4683 32.6112 18.4683C32.6112 18.4987 32.6112 18.53 32.6112 18.5604C32.8608 20.0574 32.8664 21.5775 32.6112 23.0745C32.7466 22.7742 33.8779 22.7862 34.0391 23.0745C34.0833 22.9059 34.2575 22.7963 34.5624 22.7466L34.5458 18.8902C33.9498 18.8948 33.3823 18.8313 32.8424 18.7023L32.7945 18.5613H34.8213C34.895 18.6341 34.777 20.3136 34.8185 20.6388C34.8305 20.7327 34.8194 20.7419 34.9134 20.7723C35.0893 20.8239 35.0893 20.905 34.9134 20.9566C34.9161 21.6613 34.9115 22.3707 34.9134 23.0755C35.1971 23.3085 37.0295 23.0718 37.1244 23.1667C37.1778 23.6632 37.0065 24.2722 37.2156 24.7328C37.2137 24.9474 37.2156 25.163 37.2156 25.3776C37.2156 25.4394 37.2156 25.5002 37.2156 25.5619C37.2128 26.2667 37.2156 26.976 37.2156 27.6808C37.4606 27.7102 37.4496 27.795 37.2156 27.865V29.9839C36.4463 30.0078 35.6292 30.076 34.8203 30.076C34.8176 30.8425 34.8222 31.6126 34.8203 32.3791C32.5495 32.3727 30.274 32.3856 28.0031 32.3791C27.9727 32.3791 27.9414 32.3791 27.911 32.3791C27.8299 32.3745 27.7765 32.334 27.7267 32.2741C27.6613 32.194 27.7074 30.427 27.7267 30.2077L27.911 30.076C27.9285 29.994 27.9589 29.9968 28.0031 30.076C28.075 30.0954 28.1791 30.1248 28.1874 30.1838C28.2251 30.4436 28.2325 31.9213 28.1874 32.1534L28.0031 32.2879L28.0888 32.1037H34.3864L34.4979 32.2879C34.5043 31.6541 34.5062 31.0249 34.5016 30.3984C33.9571 30.298 33.3961 30.2538 32.8185 30.2658L32.7015 30.0769C33.4053 29.8964 34.1165 29.8954 34.8203 30.0769C34.5937 29.3058 34.5919 28.5449 34.8203 27.7738C34.5919 27.0027 34.5937 26.2418 34.8203 25.4707C34.6186 24.7475 34.5863 24.0087 34.7153 23.2708C34.0087 23.3997 33.3012 23.3702 32.6093 23.1676C32.3698 23.0082 32.274 22.7226 32.3219 22.3127C32.2851 21.8843 32.2344 21.1565 32.5172 20.8645C32.2869 20.0934 32.2897 19.3333 32.5172 18.5613C32.4979 18.6332 32.4684 18.7401 32.4122 18.7456C32.1948 18.7686 30.4582 18.7824 30.3458 18.7456L30.2141 18.5613C29.9405 18.0768 29.9276 17.3766 30.2141 16.9031C30.3873 16.8202 30.4582 16.8893 30.4776 17.0689L30.4969 18.2656L32.4104 18.285L32.5172 18.4692L32.5191 18.4683Z" fill="#171717"/>
<path d="M9.39665 0.135444C9.41323 0.135444 9.53944 0.0414764 9.70803 0.0368701C14.2341 -0.0847345 18.7805 0.141892 23.3075 0.0433188C23.3112 0.809796 23.301 1.58088 23.3075 2.34644C18.6727 2.3363 14.0324 2.34183 9.39665 2.34644C9.39665 2.31603 9.39665 2.28471 9.39665 2.25431L9.2124 2.14837C9.25662 1.46849 9.31835 0.79782 9.39665 0.135444Z" fill="#151515"/>
<path d="M7.09354 11.5589C7.19948 12.3014 7.1829 13.1269 7.09354 13.862C7.07604 13.9339 7.05208 14.0214 6.98852 14.0463C6.89271 14.084 5.1322 14.0675 4.92216 14.0463L4.79042 13.862C4.86228 13.8795 4.9498 13.9035 4.97467 13.967C5.01244 14.0629 4.99586 15.8234 4.97467 16.0334L4.79042 16.1651C4.77108 16.2278 4.73975 16.2241 4.6983 16.1651C3.96222 16.2333 3.22338 16.2342 2.4873 16.1651V11.5589C4.0092 11.2954 5.57164 11.2881 7.09354 11.5589Z" fill="#020202"/>
<path d="M2.4872 4.6495C2.74791 6.9434 2.75436 9.26494 2.4872 11.5588C1.72072 11.5561 0.950559 11.5607 0.184082 11.5588V4.6495C0.950559 4.64765 1.72072 4.65226 2.4872 4.6495Z" fill="#010101"/>
<path d="M2.4872 16.2572C2.55906 16.2766 2.66316 16.3061 2.67145 16.365C2.70922 16.6248 2.71659 18.1025 2.67145 18.3347L2.4872 18.4692C2.66868 20.0334 2.66868 21.6023 2.4872 23.1675C2.49273 23.0901 2.52221 22.986 2.58393 22.9823C3.28039 22.9409 3.9833 22.9372 4.68161 22.9612L4.79032 23.1675V25.3785H2.4872V23.1675C1.72072 23.1638 0.950559 23.1694 0.184082 23.1675V16.2582C0.940426 16.202 1.73362 16.1826 2.4872 16.2582V16.2572Z" fill="#030303"/>
<path d="M0.276374 16.1651C0.981128 16.1679 1.69049 16.1633 2.39524 16.1651C2.42564 16.1651 2.45697 16.1651 2.48737 16.1651C3.22252 16.167 3.96228 16.167 4.69836 16.1651C4.77851 16.1909 4.77759 16.2222 4.69836 16.2572C3.9632 16.4378 3.22252 16.4387 2.48737 16.2572C1.73563 16.2572 0.926774 16.2996 0.184249 16.2572C0.105943 16.2526 0.0248737 16.2536 0 16.1651C0.0304011 16.1651 0.0617235 16.1651 0.0921247 16.1651C0.153848 16.1651 0.214651 16.1651 0.276374 16.1651Z" fill="#444444"/>
<path d="M4.79069 4.64948V6.9526H7.09381V9.25571H11.7922V11.5588H13.9571C14.1644 11.5588 14.1063 13.0273 14.099 13.2668C14.0934 13.4649 13.9801 13.7127 14.0032 13.8619C15.2782 13.9172 16.5559 13.9329 17.8365 13.908C17.994 14.0425 17.1649 15.1222 16.9014 15.1213C16.6656 15.0992 16.4951 15.2107 16.3892 15.4575C15.6467 15.7477 15.1704 16.119 15.3012 16.9877C15.3408 17.3931 14.4334 18.1863 14.1552 17.9237C14.1616 17.3332 14.1423 16.7473 14.0953 16.1651C14.0888 16.2378 14.0658 16.3475 14.0142 16.3512C12.8138 16.4304 11.3085 16.4718 10.1109 16.4295C9.77832 16.4986 9.57104 16.4414 9.48905 16.2572L9.36652 16.2139C9.49273 15.5294 9.48905 14.6128 9.36652 13.9228L9.48905 13.8619C9.12147 13.9255 8.74929 13.9403 8.38355 13.8619C7.98742 14.0425 7.58207 14.0434 7.18593 13.8619C7.17948 13.0936 7.14908 12.3253 7.09381 11.5588C5.55993 11.5551 4.02145 11.5644 2.48757 11.5588C2.48757 9.25756 2.47928 6.95075 2.48757 4.64948C3.25405 4.64672 4.02421 4.65224 4.79069 4.64948Z" fill="#2B7422"/>
<path d="M14.0028 13.862H18.609V11.5588H25.5184V13.862L25.4327 14.0462H18.9425C18.9176 14.2765 18.8375 14.4608 18.7002 14.599C18.6744 14.6791 18.6431 14.6782 18.6081 14.599C18.5003 14.5179 18.562 15.0034 18.6081 15.1517C18.6772 15.4824 18.6845 15.8353 18.6081 16.1651L18.5031 16.3493H16.5749L16.4432 16.1651C16.5178 16.8772 16.5463 17.5976 16.527 18.3272L16.305 18.3761C16.1348 18.2459 16.1348 18.2459 16.305 18.3761C16.3851 18.4019 16.3842 18.4332 16.305 18.4682C15.5201 18.5244 14.7112 18.5548 13.9659 18.4875C13.883 18.3844 13.8867 16.5658 13.9097 16.2968L14.094 16.1651C14.3105 16.6073 14.1225 17.2107 14.1861 17.687C14.1999 17.792 14.1511 17.874 14.3224 17.8224C14.4376 17.7874 14.9867 17.3636 15.0401 17.2494C15.2732 16.7519 14.8789 16.4332 15.4169 15.8297C15.7062 15.5055 16.1189 15.4327 16.3077 15.2908C16.4128 15.2116 16.3713 15.0144 16.4081 14.9803C16.4671 14.9269 16.7794 15.0255 17.0023 14.8818C17.193 14.7592 17.5422 14.1383 17.778 13.955C17.3976 13.9006 14.0304 14.0609 14.0009 13.862H14.0028Z" fill="#2A731F"/>
<path d="M32.5192 9.25574C32.5211 10.0222 32.5174 10.7924 32.5192 11.5589L32.4345 11.7431H25.7204L25.6099 11.5589C25.6099 10.7924 25.6099 10.0222 25.6099 9.25574H32.5192Z" fill="#2A731F"/>
<path d="M32.5192 11.5588C32.5211 12.3253 32.5165 13.0955 32.5192 13.862H25.6099C25.6099 13.0955 25.6099 12.3253 25.6099 11.5588H32.5192Z" fill="#FDFDFD"/>
<path d="M25.5178 13.862L25.6099 13.9541V16.1651C25.5924 16.2471 25.562 16.2443 25.5178 16.1651C23.2377 16.2176 20.9558 16.2324 18.673 16.2112C18.6287 15.6676 18.6379 15.1306 18.7006 14.599C18.7061 14.354 18.696 14.1061 18.7006 13.8611H25.5178V13.862Z" fill="#FDFDFD"/>
<path d="M25.6097 16.1651C26.4066 16.1679 27.2081 16.1633 28.0049 16.1651V18.284H28.0971V16.4876C28.0971 16.0343 29.6208 16.0905 29.899 16.0021L30.2159 16.3494C30.473 16.4738 30.4794 16.7815 30.2159 16.9021C30.204 17.453 30.2242 18.0095 30.2159 18.5604H32.5191C32.5209 19.3269 32.5163 20.097 32.5191 20.8635C28.6913 21.1334 24.7714 21.1039 21.0311 20.9897L21.0044 20.7714C21.1094 20.2472 21.1398 19.6871 21.0947 19.0929C21.0873 18.6295 21.3895 18.4821 21.8068 18.4323L24.3522 18.495C24.7272 18.4738 24.9934 18.3817 25.3343 18.2379V16.3918L25.5185 16.2573C25.4384 16.2315 25.4393 16.2001 25.5185 16.1651C25.5489 16.1651 25.5802 16.1651 25.6106 16.1651H25.6097Z" fill="#D91F1D"/>
<path d="M32.7954 18.5604C33.4062 18.7474 34.0852 18.6148 34.7301 18.6516V22.7512C34.7826 22.9529 34.1699 23.0736 34.0391 23.0736H32.6112C32.6149 21.5701 32.6057 20.063 32.6112 18.5595C32.6692 18.5696 32.7475 18.5447 32.7954 18.5595V18.5604Z" fill="#010101"/>
<path d="M32.5193 18.4683C32.1803 18.4646 30.5331 18.5245 30.3949 18.4277C30.1526 18.2592 30.4668 17.1905 30.2162 16.9022C30.2199 16.7188 30.2061 16.5318 30.2162 16.3494C30.2199 16.2886 30.2107 16.226 30.2162 16.1652L32.4336 16.2057C32.6326 16.3448 32.4622 18.1062 32.5193 18.4683Z" fill="#020202"/>
<path d="M14.0028 27.9561C14.0747 27.9755 14.1788 28.004 14.1871 28.0621C14.2212 28.2905 14.2285 29.7461 14.1871 29.9414L14.0028 30.0741C14.0222 30.0022 14.0507 29.8972 14.1078 29.8898C14.3916 29.853 15.9347 29.8391 16.1742 29.8898L16.3059 30.0741C16.2341 30.0547 16.1309 30.0252 16.1217 29.9663C16.0802 29.7065 16.0784 28.2463 16.1217 27.9966L16.3059 27.8621C16.3363 27.8621 16.3677 27.8621 16.3981 27.8621C16.4699 27.8815 16.5768 27.9119 16.5823 27.9681C16.6063 28.215 16.6072 29.8281 16.5206 29.9193C16.4911 29.9506 16.4469 29.9672 16.3981 29.981L16.4616 29.7968H25.4051L25.5175 29.981C25.219 29.7295 25.2568 28.9667 25.5175 28.6913C25.5571 28.402 25.4134 27.9884 25.6096 27.77C25.7911 28.5356 25.7911 29.3076 25.6096 30.0731C22.5455 30.3357 19.4612 30.3449 16.3971 30.0731C16.469 30.0925 16.5759 30.122 16.5814 30.1782C16.6035 30.39 16.6164 32.1469 16.5814 32.2445L16.3971 32.3763L16.4819 32.192H20.8938L21.0034 32.3763V34.6794H14.094V32.3763H11.7909C11.7264 31.6945 11.8784 30.8691 11.7937 30.2067C11.7817 30.1128 11.7928 30.1035 11.6988 30.0731C11.0125 29.8622 10.2027 30.0381 9.48779 29.981V27.77C10.8411 27.9515 12.2257 27.8317 13.5929 27.8575C13.7467 27.8603 13.9853 27.9672 14.0019 27.9543L14.0028 27.9561Z" fill="#173EA4"/>
<path d="M25.6099 30.0751C25.6818 30.0944 25.7886 30.1239 25.7942 30.1801C25.8172 30.3975 25.831 32.1341 25.7942 32.2465L25.6099 32.3782C25.4939 32.5569 25.3575 32.5578 25.2414 32.3782H16.3975V30.0751C19.4671 30.0797 22.5403 30.0686 25.6099 30.0751Z" fill="#FEFEFE"/>
<path d="M20.9116 34.7734C20.8665 35.3326 20.9144 36.1286 20.8195 36.662C20.8057 36.7385 20.7449 36.8923 20.6813 36.8923H14.1865V34.8656C14.2768 34.895 14.3864 34.7734 14.4168 34.7734H20.9116Z" fill="#020202"/>
<path d="M25.6098 32.3782C25.6218 32.3782 25.7139 32.4731 25.8328 32.474C26.4951 32.4804 27.1593 32.4611 27.8208 32.4703V34.497L21.1823 34.5486C21.0423 33.9074 21.1501 33.1502 21.0957 32.4694C22.3726 32.4639 23.6522 32.4758 24.9299 32.4767C25.0994 32.4767 25.2247 32.3782 25.2413 32.3782C25.3638 32.3782 25.4873 32.3782 25.6098 32.3782Z" fill="#010101"/>
<path d="M27.913 30.0751V32.3782C27.1465 32.3754 26.3763 32.38 25.6099 32.3782V30.0751C26.3727 29.8227 27.1511 29.8181 27.913 30.0751Z" fill="#173EA4"/>
<path d="M13.911 32.4702V34.3588C13.911 34.5762 12.7189 34.4905 12.484 34.497C12.367 34.5006 11.8843 34.6867 11.8843 34.4509V32.6084C11.8843 32.5983 12.0123 32.4702 12.0225 32.4702H13.911Z" fill="#020202"/>
<path d="M11.6078 30.1673V32.0558C11.6078 32.2824 9.87401 32.1618 9.58105 32.2861V30.3054C9.58105 30.0438 10.1513 30.2658 10.272 30.2603C10.6866 30.241 11.1545 30.0871 11.6078 30.1673Z" fill="#030303"/>
<path d="M8.38323 13.862C8.75081 13.8638 9.12115 13.861 9.48873 13.862V16.2572L14.095 16.1651V18.4682C14.8301 18.4691 15.5699 18.4645 16.306 18.4682C17.077 18.2416 17.838 18.2397 18.6091 18.4682C18.8808 18.2563 20.9214 18.19 21.0255 18.3383C21.0679 18.3982 21.0366 18.4885 21.0043 18.5603L20.9196 18.7446H14.2055L14.095 18.5603C14.1668 18.5797 14.2737 18.6091 14.2792 18.6653C14.3022 18.8828 14.3161 20.6193 14.2792 20.7317L14.095 20.8634C16.4349 20.6921 18.7104 20.6258 20.9223 20.6626L21.0043 20.7713C21.0209 20.7713 21.1508 20.8699 21.3157 20.8699C25.0504 20.8736 28.7861 20.8542 32.519 20.8634C32.5217 21.6152 32.4425 22.4434 32.6111 23.1666C32.5936 23.2485 32.5632 23.2458 32.519 23.1666C25.6198 23.4402 18.6901 23.4752 11.7918 23.1666C11.8637 23.1859 11.9706 23.2154 11.9761 23.2716C11.9991 23.489 12.0129 25.2255 11.9761 25.3379L11.7918 25.4697L11.8563 25.2854H32.4047L32.519 25.4697C32.5908 25.4789 32.6968 25.4992 32.7032 25.5507C32.7253 25.7212 32.7345 27.2615 32.7032 27.3647L32.519 27.4955C31.8759 27.7654 30.9593 27.7424 30.2159 27.6797C28.7916 27.7175 27.3554 27.677 25.9284 27.6834C20.7316 27.7083 15.4906 27.6512 10.2727 27.6779C9.1322 27.7101 9.53387 26.5052 9.49241 25.6917C9.48596 25.5729 9.39752 25.4807 9.3966 25.4688C9.07785 24.7898 9.10641 23.7635 9.3966 23.0735L9.50162 22.8893H11.568L11.6997 23.0735C11.6279 23.0542 11.5247 23.0247 11.5155 22.9657C11.474 22.7059 11.4722 21.2458 11.5155 20.9961L11.6997 20.8616L11.8047 20.6773H13.8711L14.0028 20.8616C13.9319 20.8432 13.837 20.8183 13.8186 20.7566C13.7771 20.6184 13.7937 18.9159 13.8186 18.6902L14.0028 18.5585L13.9144 18.7409C12.4441 18.7114 10.9738 18.6819 9.50254 18.6524L9.3966 18.4664C9.32474 18.447 9.22156 18.4175 9.21235 18.3586C9.1709 18.0988 9.16905 16.6386 9.21235 16.3889L9.3966 16.2544C8.62552 16.482 7.86457 16.4848 7.09348 16.2544C6.3224 16.4811 5.56145 16.4838 4.79037 16.2544C4.77286 16.3364 4.74246 16.3337 4.69824 16.2544V16.1623C4.72864 16.1623 4.75997 16.1623 4.79037 16.1623C5.56145 15.9329 6.32148 15.9357 7.09348 16.1623C7.86457 15.932 8.6246 15.9348 9.3966 16.1623C9.32474 16.143 9.22156 16.1135 9.21235 16.0545C9.1709 15.7947 9.16905 14.3346 9.21235 14.0849L9.3966 13.9504C9.36067 14.2618 8.22017 14.248 8.38323 13.8583V13.862Z" fill="#B20205"/>
<path d="M4.79042 18.4682L4.97375 18.5428L4.98573 20.6423C5.63981 20.7013 6.29758 20.7133 6.95719 20.6801L7.09354 20.8634C7.16632 20.8717 7.27595 20.8975 7.27779 20.9482C7.33491 22.3098 7.33491 23.9045 7.27779 25.267L7.09354 25.3766H4.88255C4.80885 25.3038 4.92677 23.6244 4.88531 23.2992C4.87333 23.2052 4.88439 23.196 4.79042 23.1656C4.51036 23.0744 2.93779 23.1675 2.4873 23.1656V18.4673L2.68077 18.2839C3.31274 18.3521 3.94287 18.365 4.57209 18.3208L4.79042 18.4673V18.4682Z" fill="#173EA4"/>
<path d="M16.3975 27.8641C16.6259 27.8687 16.8618 27.8641 17.0884 27.8641H25.1954C25.2239 27.8641 25.3262 27.737 25.4248 27.772C25.4441 28.0004 25.3971 28.2436 25.422 28.4703C25.4349 28.5873 25.5169 28.6812 25.5178 28.6932C25.5482 29.1179 25.4957 29.5573 25.5178 29.983H16.3975V27.8641Z" fill="#193FA4"/>
<path d="M30.2161 27.772C30.288 27.7913 30.3939 27.8208 30.4003 27.877C30.4298 28.1331 30.4473 29.7609 30.4003 29.9434L30.2161 30.0751C29.5178 30.3423 28.7016 30.3533 28.0051 30.0751C27.9747 30.0751 27.9434 30.0751 27.913 30.0751C27.1465 30.0705 26.3763 30.0769 25.6099 30.0751C25.6099 29.3086 25.6099 28.5385 25.6099 27.772C27.1437 27.772 28.6822 27.772 30.2161 27.772Z" fill="#FDFDFD"/>
<path d="M7.09343 16.2572L7.27768 16.342V20.7538L7.09343 20.8634C7.59274 20.6644 9.41958 20.5797 9.50525 20.7621C9.67937 21.1324 9.59922 22.0334 9.51815 22.5217C9.48683 22.7078 9.44353 22.8911 9.39654 23.0744C9.39931 23.8685 9.36338 24.6774 9.39654 25.4697H9.30442C9.28507 25.5415 9.25467 25.6475 9.19848 25.6539C9.01331 25.676 7.41402 25.6852 7.31913 25.6539L7.18647 25.4697L7.09435 25.3775V20.8634C6.75257 20.8616 4.93955 20.9325 4.83177 20.7768C4.7378 20.6423 4.79123 18.8173 4.79123 18.4682C4.71937 18.4488 4.61619 18.4194 4.60698 18.3604C4.56553 18.1006 4.56368 16.6404 4.60698 16.3908L4.79123 16.2563C5.55771 16.2581 6.32787 16.2535 7.09435 16.2563L7.09343 16.2572Z" fill="#020202"/>
<path d="M16.3049 27.8641V30.075H14.0018V27.9562C14.0193 27.9424 13.9262 27.7904 14.1326 27.7636C14.8401 27.6724 15.6342 27.8484 16.3049 27.8641Z" fill="#2C65C8"/>
<path d="M9.30441 25.4688C9.34126 26.2057 9.18189 26.9842 9.48866 27.6797H7.18555V25.4688H9.30441Z" fill="#173EA4"/>
<path d="M32.5189 27.4954C32.764 27.5249 32.7529 27.6097 32.5189 27.6797L32.2684 27.8722C31.6972 27.9643 30.6866 28.0344 30.2158 27.7718V27.6797C30.6276 27.6686 31.044 27.6889 31.4549 27.6824C31.7838 27.6778 32.1698 27.4678 32.5189 27.4954Z" fill="#3B3B3B"/>
<path d="M37.0334 23.2578V29.8908C36.2983 29.8871 35.6497 30.0271 34.9146 29.8908V23.2578H37.0334Z" fill="#020202"/>
<path d="M34.8221 27.772C34.8221 28.5385 34.8248 29.3086 34.8221 30.0751C34.1173 30.0751 33.4079 30.0751 32.7032 30.0751C31.9791 30.3376 30.9224 30.3727 30.2158 30.0751V27.772C31.0615 27.772 31.735 27.6992 32.5189 27.6799C32.5337 27.6375 32.5503 27.5969 32.5779 27.5656C32.6424 27.4892 34.3329 27.5758 34.5521 27.6504C34.6452 27.6817 34.7345 27.725 34.8221 27.772Z" fill="#173EA4"/>
<path d="M32.6111 23.1657C33.3471 23.1685 34.0869 23.1639 34.822 23.1657C34.823 23.9322 34.8193 24.7024 34.822 25.4688C34.8027 25.5407 34.7723 25.6485 34.717 25.6531C34.4913 25.6734 32.7354 25.713 32.6507 25.6531C32.5843 25.6061 32.5374 25.5499 32.5189 25.4688C32.3374 24.7033 32.3374 23.9313 32.5189 23.1657C32.5493 23.1657 32.5807 23.1657 32.6111 23.1657Z" fill="#173EA4"/>
<path d="M34.8222 25.4688C34.8249 26.2352 34.8222 27.0054 34.8222 27.7719C34.192 27.7765 33.5591 27.7645 32.9272 27.7756C32.7576 27.7783 32.5743 27.6779 32.519 27.6797V25.4688H34.8222Z" fill="#FDFDFD"/>
<path d="M23.2146 2.25428H9.58105V0.227539L23.2146 0.273601V2.25428Z" fill="#010101"/>
<path d="M7.18577 13.862C7.26223 13.8952 7.30185 13.9514 7.32303 14.0297C7.34883 14.1246 7.26592 15.8989 7.21986 15.9864C7.18577 16.0509 7.14155 16.1089 7.09364 16.166C6.32717 16.1688 5.557 16.1642 4.79053 16.166V13.8629H7.09364V11.5598C7.22078 11.5699 7.1784 11.6952 7.18945 11.7855C7.25855 12.3429 7.20235 13.2696 7.18577 13.8629V13.862Z" fill="#D91F1D"/>
<path d="M2.0256 16.7188C1.81003 17.255 2.09285 17.6143 2.11957 18.0528C2.2034 19.4236 2.09746 20.8083 2.19235 22.1754C2.11312 22.2758 2.04218 22.7687 2.01823 22.7889C1.89294 22.893 0.199691 22.928 0.360909 22.2942C0.446585 21.2855 0.351696 20.2537 0.371042 19.2532C0.383019 18.6627 0.423554 18.0602 0.478828 17.501C0.496332 17.3259 0.558056 16.7234 0.638204 16.6654L2.0256 16.7188Z" fill="#010101"/>
<path d="M4.6983 16.2572C4.7287 16.2572 4.76002 16.2572 4.79042 16.2572V18.4682C3.99446 18.6451 3.28326 18.4572 2.4873 18.4682V16.2572C3.22338 16.2572 3.96222 16.2563 4.6983 16.2572Z" fill="#2C65C8"/>
<path d="M8.38335 13.862C8.47087 14.0591 9.39672 13.9025 9.39672 13.9541V16.1651C8.63024 16.1669 7.86008 16.1623 7.0936 16.1651C7.11111 15.5055 7.06965 14.8403 7.0936 14.1798C7.09821 14.0444 7.18481 13.9126 7.18665 13.862C7.58463 13.8629 7.98629 13.8601 8.38427 13.862H8.38335Z" fill="#010101"/>
<path d="M18.7004 14.5989C18.6884 15.1194 18.7096 15.6446 18.7004 16.1651C20.9712 16.1697 23.2467 16.1577 25.5176 16.1651V16.2572L25.4328 16.4414L18.7925 16.446V18.3374L18.6082 18.4673C17.8418 18.4673 17.0716 18.47 16.3051 18.4673V18.3751C16.5437 18.1209 16.0647 16.1641 16.4433 16.1641H18.6082C18.6119 15.8279 18.6027 15.487 18.6082 15.1508C18.552 14.9684 18.5226 14.7712 18.6082 14.598H18.7004V14.5989Z" fill="#FDFDFD"/>
<path d="M16.3054 18.3761C15.8604 18.4691 15.8493 18.2112 15.8447 17.8233L16.3044 17.7312V18.3761H16.3054Z" fill="#2A731F"/>
<path d="M18.6082 15.1517C18.3908 14.9841 18.5916 14.1199 18.517 14.0462C18.4737 14.0029 17.9633 14.1153 17.9624 14.0011C18.7842 13.8325 18.5879 13.9578 18.6082 14.5999C18.6137 14.7832 18.611 14.9693 18.6082 15.1526V15.1517Z" fill="#2A731F"/>
<path d="M30.2159 30.075C31.0413 30.086 31.8796 30.0409 32.7032 30.075C33.1712 30.0943 33.958 30.1072 34.4122 30.1625C34.9999 30.2334 34.6775 31.2634 34.6314 31.689C34.6194 31.7977 34.7807 32.286 34.4997 32.286H28.0049V30.075C28.74 30.0796 29.4807 30.0658 30.2159 30.075Z" fill="#010101"/>
<path d="M25.5178 16.2573V18.4683C25.2147 18.3807 24.9697 18.6184 24.7301 18.6479C23.7444 18.7695 22.7817 18.5705 21.8798 18.6129C20.766 18.6654 21.2957 19.8013 21.1889 20.635C21.1714 20.7705 21.117 20.9215 21.0046 20.7714C20.9328 20.752 20.8296 20.7226 20.8204 20.6636C20.7789 20.4038 20.7771 18.9436 20.8204 18.694L21.0046 18.5595C20.9088 18.4065 20.6555 18.4673 20.4989 18.4655C19.8696 18.459 19.2377 18.4673 18.6094 18.4673V16.2563H25.5187L25.5178 16.2573Z" fill="#2A731F"/>
<path d="M27.913 16.2572H25.6099V18.5603H27.913V16.2572Z" fill="#020202"/>
<path d="M32.5191 23.1657V25.4688H11.792V23.1657C18.6995 23.1832 25.6116 23.1427 32.5191 23.1657Z" fill="#FDFDFD"/>
<path d="M7.09375 16.2573C7.86023 16.26 8.63039 16.2554 9.39687 16.2573V18.4683L14.0031 18.5604V20.8635H11.7V23.0745H9.39687C9.3941 22.3384 9.39871 21.5987 9.39687 20.8635C8.63039 20.8608 7.85931 20.8681 7.09375 20.8635V16.2573Z" fill="#D91F1D"/>
<path d="M21.0036 18.5603V20.7713C20.94 20.7713 20.7668 20.8671 20.5955 20.8671C18.4287 20.8643 16.2601 20.8616 14.0942 20.8634V18.5603H21.0036Z" fill="#010101"/>
<path d="M14.003 16.2572H11.792V18.4682H14.003V16.2572Z" fill="#020202"/>
<path d="M6.72507 16.6249C6.71217 16.9436 6.74718 17.2688 6.71862 17.5885C6.69743 17.8252 6.47449 18.4121 6.46712 18.623C6.46067 18.8045 6.74718 18.9658 6.71217 19.1463C6.63939 19.5259 5.98162 19.4568 5.7117 19.3895C5.66472 19.8686 6.32893 19.4807 6.35565 19.8022C6.16587 19.9524 5.56522 20.4573 5.34044 20.3568C5.05024 20.2279 5.2695 19.9266 5.25937 19.711C5.21699 18.7935 5.20409 18.2407 5.34504 17.3094C5.36531 17.1739 5.26213 17.0109 5.30174 16.8966C5.44822 16.4692 6.36763 16.6645 6.72599 16.6249H6.72507Z" fill="#010101"/>
</svg>
