<svg width="162" height="33" viewBox="0 0 162 33" fill="none" xmlns="http://www.w3.org/2000/svg">
<g clip-path="url(#clip0_234_6558)">
<path d="M91.6558 12.1893V12.1844H91.6509L91.6558 12.1893Z" fill="white"/>
<path d="M92.9297 14.6134V14.6086H92.9248L92.9297 14.6134Z" fill="white"/>
<path d="M78.4639 13.416H78.4688V13.4111L78.4639 13.416Z" fill="white"/>
<path d="M87.0249 8.53347V8.53836H87.0298L87.0249 8.53347Z" fill="white"/>
<path d="M88.2251 9.73089V9.73578H88.23L88.2251 9.73089Z" fill="white"/>
<path d="M89.4551 10.9576V10.9625H89.46L89.4551 10.9576Z" fill="white"/>
<path d="M90.6851 12.1844V12.1893H90.69L90.6851 12.1844Z" fill="white"/>
<path d="M91.915 14.6086V14.6134H91.9199L91.915 14.6086Z" fill="white"/>
<path d="M89.8181 15.9722C89.8181 15.7571 89.6466 15.586 89.4359 15.586H89.2889C89.0733 15.586 88.8968 15.4101 88.8968 15.1951V14.2273C88.8968 14.0123 88.7204 13.8363 88.5048 13.8363H88.3725C88.1569 13.8363 87.9805 13.6604 87.9805 13.4453V13.3427C87.9805 13.1277 87.8041 12.9517 87.5885 12.9517H87.4561C87.2405 12.9517 87.0641 12.7758 87.0641 12.5607V12.4581C87.0641 12.243 86.8877 12.0671 86.6721 12.0671H86.5594C86.3438 12.0671 86.1674 11.8911 86.1674 11.6761V11.5979C86.1674 11.3828 85.9909 11.2069 85.7753 11.2069C85.5744 11.2069 85.3686 11.2069 85.1677 11.2069C84.565 11.2069 83.4967 11.2069 82.9135 11.2069C82.6881 11.2069 82.5019 11.3926 82.5019 11.6174C82.5019 11.7299 82.5019 11.8423 82.5019 11.9547C82.5019 12.0182 82.4529 12.0671 82.3892 12.0622C82.252 12.0573 82.1099 12.0622 81.9727 12.0622C81.7571 12.0622 81.5856 12.2382 81.5856 12.4483V12.5705C81.5856 12.7855 81.4091 12.9566 81.1984 12.9566H81.0857C80.8701 12.9566 80.6986 13.1326 80.6986 13.3427V14.3446C80.6986 14.5597 80.5222 14.7307 80.3115 14.7307H80.1694C79.9537 14.7307 79.7822 14.9067 79.7822 15.1169V15.5958C79.8361 15.5958 79.8802 15.5958 79.9243 15.5958C80.5173 15.5958 81.9384 15.5958 82.7028 15.5958C82.9821 15.5958 83.2027 15.8109 83.2027 16.0797V16.1481C83.2027 16.1481 83.2027 16.2019 83.2027 16.3827C83.2027 16.5635 83.3497 16.7004 83.531 16.7053C84.2121 16.7053 85.7753 16.7102 86.4663 16.715C86.9073 16.715 87.265 17.0621 87.265 17.4873V18.8069C87.2748 18.9877 87.4267 19.1343 87.613 19.1294H88.25C88.5734 19.1246 88.8331 19.3738 88.8331 19.6866C88.8331 19.6866 88.8331 19.6866 88.8331 19.6915C88.8331 19.8626 88.9703 19.9994 89.137 19.9994H89.3379C89.6172 19.9994 89.8426 19.7746 89.8426 19.496C89.8426 18.6505 89.8426 16.935 89.8426 15.977L89.8181 15.9722Z" fill="#E5B661"/>
<path d="M84.3101 8.54325V8.54813H84.315L84.3101 8.54325Z" fill="white"/>
<path d="M84.315 8.54813V8.54325H84.3101L84.315 8.54813Z" fill="white"/>
<path d="M79.3267 14.7161H79.3218V14.721L79.3267 14.7161Z" fill="white"/>
<path d="M75.6367 9.41321L75.6318 9.4181H75.6367V9.41321Z" fill="white"/>
<path d="M77.4839 10.7915V10.6937C77.4839 10.4787 77.6603 10.3027 77.876 10.3027H78.0083C78.2239 10.3027 78.4003 10.1268 78.4003 9.91173V9.75533C78.4003 9.56472 78.2484 9.41321 78.0573 9.41321C77.6162 9.41321 76.8616 9.41321 76.4353 9.41321C76.298 9.41321 76.1608 9.41321 76.0236 9.41321C75.808 9.41321 75.6365 9.58916 75.6365 9.80421V9.89218C75.6365 10.1121 75.4601 10.293 75.2347 10.2978C74.627 10.2978 73.4755 10.3076 72.8237 10.3076H72.3337C72.1181 10.3076 71.9417 10.4836 71.9417 10.6986V10.7964C71.9417 11.0114 71.7652 11.1874 71.5496 11.1874H71.4614C71.2458 11.1874 71.0694 11.3633 71.0694 11.5783V11.7543C71.0694 11.9693 71.2458 12.1453 71.4614 12.1453H72.2308C72.4464 12.1453 72.6228 12.3212 72.6228 12.5363C72.6228 12.7513 72.4464 12.9273 72.2308 12.9273C71.6721 12.9273 71.0008 12.9273 70.5696 12.9273C70.3343 12.9273 70.1383 13.113 70.1285 13.3476C70.1138 13.6066 69.9276 13.8168 69.6679 13.8168C69.418 13.8168 69.2122 14.0172 69.2122 14.2664C69.2122 14.7894 69.2073 15.63 69.2073 16.1188C69.2073 16.3045 69.0505 16.456 68.8544 16.456C68.7956 16.456 68.7319 16.456 68.6731 16.456C68.4771 16.456 68.3203 16.6075 68.3203 16.7932C68.3203 17.0816 68.3203 17.4824 68.3203 17.6779C68.3203 17.9711 68.5702 18.2057 68.8741 18.2057C68.9378 18.2057 69.0064 18.2057 69.0701 18.2057C69.173 18.2057 69.2073 18.2302 69.2073 18.3328C69.2073 19.1343 69.2171 20.5615 69.222 21.2897C69.222 21.5438 69.4425 21.7491 69.712 21.7442C69.9521 21.7442 70.1481 21.9397 70.1481 22.1694V23.0883C70.1481 23.3229 70.349 23.5135 70.5941 23.5135H70.6284C70.8783 23.5135 71.0694 23.709 71.0743 23.9485C71.0743 24.1782 71.2752 24.3688 71.5202 24.3688H71.9613C71.9613 24.3688 71.976 24.3639 71.976 24.3541V21.1626C71.976 20.8694 72.221 20.6348 72.5297 20.6348C72.7355 20.6348 72.907 20.4735 72.907 20.278V19.3054C72.907 19.061 73.1128 18.8606 73.3726 18.8606H73.3775C73.6323 18.8606 73.8381 18.6651 73.8381 18.4208C73.8381 18.1617 73.8381 17.8489 73.8381 17.5948C73.8381 17.3504 74.0439 17.1549 74.2987 17.1549C74.6368 17.1549 75.0926 17.1549 75.4405 17.1549C75.6953 17.1549 75.906 16.9594 75.906 16.7102C75.906 16.4707 75.906 16.1921 75.906 15.9673C75.906 15.7424 76.0775 15.5763 76.2932 15.5763C76.7636 15.5763 77.5476 15.5665 78.0328 15.5665C78.2484 15.5665 78.4248 15.3906 78.4248 15.1755V15.0973C78.4248 14.8823 78.6012 14.7063 78.8168 14.7063H78.9589C79.1745 14.7063 79.351 14.5304 79.351 14.3153C79.351 14.0465 79.3559 13.6115 79.3608 13.2987C79.3608 13.0935 79.5323 12.9322 79.7332 12.9322H79.9488C80.1301 12.9322 80.2722 12.7855 80.2722 12.6096V11.5686C80.2722 11.3535 80.0958 11.1776 79.8802 11.1776H77.9005C77.6848 11.1776 77.5084 11.0016 77.5084 10.7866L77.4839 10.7915Z" fill="#4498D6"/>
<path d="M93.5867 15.5812C93.5181 15.5812 93.4593 15.5274 93.4593 15.459C93.4593 14.9067 93.4593 13.939 93.4495 13.3769C93.4495 13.1326 93.2486 12.9371 93.0035 12.9371H92.9888C92.7438 12.9371 92.5429 12.7367 92.5429 12.4923V11.6272C92.5429 11.3828 92.342 11.1825 92.097 11.1825H92.0676C91.8226 11.1825 91.6217 10.9821 91.6217 10.7377C91.6217 10.4933 91.4256 10.2929 91.1806 10.2929C90.6759 10.2929 89.8624 10.2929 89.392 10.2929C89.2254 10.2929 89.0882 10.1561 89.0882 9.98993V9.72112C89.0882 9.55495 89.2254 9.4181 89.392 9.4181C89.588 9.4181 89.784 9.41321 89.9751 9.41321C90.2986 9.41321 90.867 9.41321 91.2443 9.41321C91.455 9.41321 91.6266 9.24215 91.6266 9.03199V8.91469C91.6266 8.70942 91.7932 8.54813 91.9941 8.54813H92.1754C92.3812 8.54813 92.5429 8.38196 92.5429 8.18157V8.03006C92.5429 7.82479 92.7095 7.66351 92.9104 7.66351H93.0672C93.2682 7.66351 93.4348 7.50222 93.4348 7.29695C93.4348 6.9255 93.4348 6.55894 93.4348 6.1875C93.4348 6.02621 93.5622 5.89914 93.7239 5.89425C93.8415 5.89425 93.9689 5.89425 94.0767 5.88936C94.2384 5.88936 94.3658 5.7574 94.3609 5.60101C94.3609 5.00474 94.3511 3.78776 94.3511 3.3479C94.3511 3.2697 94.3217 3.25503 94.2482 3.25503C93.9934 3.25503 91.6217 3.24037 90.9013 3.24037C90.7886 3.24037 90.6955 3.33323 90.6955 3.44564V4.82879C90.6955 4.93631 90.6073 5.02429 90.4995 5.02918C90.3525 5.02918 90.1516 5.02918 89.9996 5.02918C89.8918 5.02918 89.7987 4.9412 89.7987 4.83368V4.37915C89.7987 4.25207 89.6958 4.14944 89.5684 4.14944H89.1078C88.9804 4.14944 88.8775 4.25207 88.8775 4.37915V4.69194V4.82879C88.8775 4.9412 88.7844 5.03406 88.6717 5.03406H88.2502C88.1081 5.03406 87.9905 5.15136 87.9905 5.2931V8.26955C87.9905 8.43083 87.8582 8.5628 87.6965 8.56768C87.5103 8.56768 87.2849 8.56768 87.1624 8.56768C87.1231 8.56768 87.0839 8.56768 87.0398 8.57257C87.0398 8.62633 87.0398 8.66543 87.0398 8.70942C87.0398 9.20305 87.0398 9.69668 87.0398 10.1903C87.0398 10.2881 87.0153 10.3272 86.9026 10.3223C86.6919 10.3174 86.4812 10.3223 86.2656 10.3223C86.1725 10.3223 86.1382 10.3467 86.1382 10.4396C86.1382 10.552 86.1382 10.6595 86.1382 10.7719C86.1382 11.0114 86.3293 11.2069 86.5743 11.2069H86.5988C86.8389 11.2069 87.0349 11.4024 87.0349 11.6419C87.0349 11.8814 87.231 12.0769 87.4711 12.0769H87.525C87.7651 12.0769 87.9611 12.2724 87.9611 12.5118V12.5314C87.9611 12.7709 88.1571 12.9664 88.3972 12.9664H88.4511C88.6913 12.9664 88.8873 13.1619 88.8873 13.4014V13.4209C88.8873 13.6604 89.0833 13.8559 89.3234 13.8559H89.3773C89.6174 13.8559 89.8134 14.0514 89.8134 14.2909V15.1853C89.8134 15.4248 90.0045 15.6154 90.2447 15.6203C90.3525 15.6203 90.4652 15.6203 90.573 15.6203C90.6661 15.6203 90.7004 15.6398 90.7004 15.7376C90.7004 16.0992 90.7004 16.4609 90.7004 16.8275C90.7053 19.0317 90.7102 21.2359 90.7151 23.4402C90.7151 23.5428 90.7543 23.5672 90.8474 23.5624C91.0679 23.5575 91.2835 23.5624 91.504 23.5624C91.5775 23.5624 91.6364 23.6161 91.6315 23.6894C91.6266 23.8898 91.6315 24.0902 91.6315 24.2955C91.6315 24.4079 91.6658 24.4421 91.8324 24.4177C92.0088 24.3932 92.1852 24.403 92.3616 24.4177C92.5037 24.4323 92.5429 24.4079 92.5429 24.3004C92.5429 23.9924 92.5478 23.4793 92.5527 23.1078C92.5527 22.8634 92.7585 22.6631 93.0035 22.6631C93.2535 22.6631 93.4544 22.4627 93.4544 22.2134V20.4784C93.4544 20.2291 93.6553 20.0287 93.9052 20.0287C94.1551 20.0287 94.356 19.8283 94.356 19.5791V16.0601C94.356 15.8109 94.1551 15.6105 93.9052 15.6105C93.7974 15.6105 93.6847 15.6105 93.5769 15.6105L93.5867 15.5812Z" fill="#C471B6"/>
<path d="M84.3153 7.01836V7.13078C84.3153 7.26274 84.2075 7.37026 84.0752 7.37026H83.6488C83.5165 7.37026 83.4087 7.26274 83.4087 7.13078V6.12885C83.4087 5.99689 83.3009 5.88937 83.1686 5.88937H82.7276C82.5953 5.88937 82.4875 5.99689 82.4875 6.12885V7.41425C82.4875 7.54621 82.3796 7.65373 82.2473 7.65373H81.8063C81.674 7.65373 81.5662 7.54621 81.5662 7.41425V7.00859C81.5662 6.87663 81.4584 6.76911 81.3261 6.76911H80.9096C80.7772 6.76911 80.6694 6.87663 80.6694 7.00859V10.0535C80.6694 10.1854 80.7772 10.293 80.9096 10.293H81.3261C81.4584 10.293 81.5662 10.1805 81.5662 10.0486L81.8161 9.79443H83.1686C83.3009 9.79443 83.4087 9.90196 83.4087 10.0339V10.0584C83.4087 10.1903 83.5165 10.2978 83.6488 10.2978H84.0654C84.1977 10.2978 84.3055 10.1903 84.3055 10.0584V8.55302C84.5309 8.55302 84.7514 8.55302 84.9768 8.55302C85.1091 8.55302 85.2169 8.4455 85.2169 8.31354V7.02814C85.2169 6.89618 85.1091 6.78866 84.9768 6.78866H84.5456C84.4133 6.78866 84.3055 6.89618 84.3055 7.02814L84.3153 7.01836Z" fill="#508677"/>
<path d="M78.8365 5.30287V5.26866C78.8365 5.12693 78.7189 5.00963 78.5768 5.00963H78.1701C78.028 5.00963 77.9104 4.89233 77.9104 4.75059V4.38404C77.9104 4.2423 77.7927 4.125 77.6506 4.125H77.2635C77.1214 4.125 77.0038 4.0077 77.0038 3.86597V3.50918C77.0038 3.36745 76.8862 3.25015 76.7441 3.25015H70.8588C70.7167 3.25015 70.5991 3.36745 70.5991 3.50918V3.88063C70.5991 4.02236 70.4814 4.13966 70.3393 4.13966H68.144C68.0019 4.13966 67.8843 4.25696 67.8843 4.3987V4.76526C67.8843 4.90699 68.0019 5.02429 68.144 5.02429H69.423C69.5651 5.02429 69.6827 5.14159 69.6827 5.28332C69.6827 5.46905 69.6827 5.64499 69.6827 5.82094C69.6827 5.88448 69.6435 5.88448 69.5945 5.88448C69.4132 5.88448 69.2368 5.88448 69.0555 5.88448C68.9133 5.88448 68.8006 5.99689 68.8006 6.13863V6.50518C68.8006 6.64692 68.9182 6.76422 69.0604 6.76422H69.4328C69.5749 6.76422 69.6925 6.88152 69.6925 7.02325V7.39959C69.6925 7.54132 69.8101 7.65862 69.9522 7.65862H70.3589C70.5011 7.65862 70.6187 7.77592 70.6187 7.91766V8.2891C70.6187 8.43084 70.7363 8.54813 70.8784 8.54813H72.177C72.3191 8.54813 72.4367 8.66543 72.4367 8.80717V9.15418C72.4367 9.29591 72.5543 9.41321 72.6964 9.41321H75.9306C76.0923 9.40832 76.2197 9.27636 76.2197 9.11997V8.82183C76.2197 8.66543 76.0923 8.53836 75.9355 8.53836H74.5683C74.4115 8.53836 74.2841 8.41129 74.2841 8.25489V7.94698C74.2841 7.79058 74.4115 7.66351 74.5634 7.66351C75.2005 7.66351 76.7686 7.66351 77.6114 7.66351C77.8042 7.66351 77.9006 7.56902 77.9006 7.38004V7.02325C77.9006 6.88152 77.7829 6.76422 77.6408 6.76422H76.3422C76.2001 6.76422 76.0825 6.64692 76.0825 6.50518V6.16306C76.0825 6.00667 75.9551 5.87959 75.7983 5.87959C75.3328 5.87959 74.4066 5.87959 73.9019 5.8747C73.7598 5.8747 73.6422 5.75741 73.6422 5.61567V5.27844C73.6422 5.1367 73.7598 5.0194 73.9019 5.0194C74.044 5.0194 74.2008 5.0194 74.3478 5.0194C75.1956 5.0194 76.0433 5.0194 76.8911 5.0194C76.9205 5.0194 76.9548 5.0194 76.9989 5.02429V6.08975H78.567C78.7091 6.08975 78.8267 5.97245 78.8267 5.83072V5.2931L78.8365 5.30287Z" fill="#C3503F"/>
<path d="M84.2413 33C84.653 33 84.9617 32.6628 84.9666 32.2522C84.9715 31.8417 85.2998 31.5338 85.7016 31.5338H85.8829C86.4416 31.5338 86.9953 31.5338 87.554 31.5338C87.8578 31.5338 88.0293 31.3432 88.0342 31.0352C88.0342 30.83 88.0342 30.6296 88.0342 30.4243C88.044 30.1799 88.2302 29.9747 88.4752 29.9551C88.6761 29.9356 88.877 29.9502 89.0829 29.9453C89.4553 29.9405 89.6219 29.7792 89.6219 29.4028C89.6219 28.6991 89.6219 28.831 89.6219 28.1321C89.6219 27.658 89.3671 27.6336 88.7251 27.6336C87.3628 27.6336 87.0394 27.6287 86.2456 27.6336C86.0643 27.6336 85.9172 27.487 85.9172 27.311V26.7001C85.9172 26.5193 85.7702 26.3775 85.5938 26.3775H85.1332C84.9519 26.3775 84.8098 26.5241 84.8098 26.7001V30.7176C84.8098 30.9913 84.6677 31.2552 84.4177 31.3725C84.3246 31.4165 84.2168 31.4409 84.109 31.4409H82.9819C82.9819 31.4409 82.9574 31.4409 82.9427 31.4409C82.2469 31.4409 81.551 31.4409 80.8601 31.4409C80.5367 31.4409 80.3603 31.265 80.3505 30.9424C80.3456 30.7713 80.3505 30.6003 80.3505 30.4292C80.3505 30.1115 80.6102 29.8525 80.9287 29.8476C81.5755 29.8476 82.2175 29.8476 82.8643 29.8476C83.3985 29.8476 83.5308 29.7156 83.5308 29.1878C83.5308 26.9542 83.5308 25.5515 83.5308 23.318C83.5308 22.8977 83.6876 22.7413 84.109 22.7364C84.8098 22.7364 84.9176 22.7364 85.6183 22.7364C85.8878 22.7364 86.1084 22.5262 86.1231 22.2574C86.1329 22.0619 86.1231 21.8664 86.1231 21.666C86.128 21.3337 86.2848 21.1675 86.618 21.1577C86.8238 21.148 87.0247 21.1577 87.2305 21.1577C87.5245 21.148 87.701 20.972 87.7108 20.6788C87.7157 20.4686 87.7157 20.2536 87.7108 20.0434C87.701 19.755 87.5245 19.5791 87.2305 19.5693C87.0688 19.5644 86.9022 19.5693 86.7405 19.5693C86.2701 19.5693 86.128 19.4276 86.128 18.9535C86.128 17.761 86.128 19.452 86.128 18.2595C86.128 17.8489 85.9614 17.6876 85.5448 17.6828C85.3733 17.6828 82.1538 17.6828 81.9823 17.6828C81.6638 17.673 81.4873 17.4921 81.4775 17.1745C81.4726 17.0278 81.4775 17.0767 81.4775 16.9301C81.4775 16.4267 81.3452 16.2898 80.8405 16.2898C78.6158 16.2898 80.0368 16.2898 77.8121 16.2898C77.7533 16.2898 77.6994 16.2898 77.6406 16.2898C77.3466 16.3045 77.18 16.4707 77.1653 16.7688C77.1604 16.9301 77.1653 17.2233 77.1653 17.3846C77.1653 17.844 77.0084 18.0053 76.5478 18.0053C75.8716 18.0053 76.1166 18.0053 75.4354 18.0053C75.063 18.0053 74.9013 18.1715 74.8964 18.5478C74.8964 18.7336 74.8964 18.9242 74.8964 19.1099C74.8866 19.4031 74.7151 19.5791 74.4211 19.5889C74.3917 19.5889 74.328 19.5889 74.23 19.5889C73.9604 19.5889 73.7448 19.8088 73.7448 20.0776V20.8156C73.7448 21.0942 73.5194 21.3239 73.2352 21.3239H73.0833C72.8138 21.3239 72.5981 21.539 72.5981 21.8078C72.5981 22.5849 72.5981 23.4842 72.5981 24.3443C72.5981 25.5271 72.5981 26.7099 72.5981 27.8926C72.5981 29.1145 72.5981 29.5055 72.5981 30.7322C72.5981 31.3529 72.706 31.4605 73.3185 31.4605C73.3675 31.4605 73.3528 31.4605 73.343 31.4605C73.343 31.4605 73.3528 31.4605 73.3724 31.4605C73.8918 31.4605 74.0094 31.656 73.9604 32.2962C73.9653 32.9511 74.2545 33.0391 74.6465 33.0391H83.0505H84.2364L84.2413 33ZM79.8114 25.8985C79.6154 25.8985 79.4194 25.8985 79.2234 25.8985C78.949 25.9083 78.7824 26.0696 78.7628 26.3384C78.7481 26.5584 78.7628 26.7783 78.753 26.9982C78.7383 27.3012 78.5814 27.4772 78.2825 27.4772C76.9986 27.4821 75.7197 27.4821 74.4358 27.4772C74.1564 27.4772 73.9898 27.2866 73.9849 27.0031C73.98 26.7978 73.98 26.5975 73.9849 26.3922C73.9898 26.0696 74.1663 25.9034 74.4946 25.8937C74.6906 25.8937 74.8866 25.8937 75.0826 25.8937C75.3962 25.8839 75.5628 25.7177 75.5726 25.4049C75.5775 25.1948 75.5775 24.9797 75.5726 24.7695C75.5628 24.491 75.406 24.3297 75.1316 24.315C74.9209 24.3004 74.7053 24.315 74.4946 24.3052C74.1663 24.2955 73.9996 24.1244 73.9898 23.8018C73.9898 23.6161 73.9898 23.4255 73.9898 23.2398C73.9947 22.8879 74.1663 22.7119 74.5191 22.7119C75.4011 22.7119 76.2832 22.7119 77.1653 22.7119C78.0326 22.7119 78.8951 22.7119 79.7624 22.7119C80.1937 22.7119 80.3603 22.8732 80.3603 23.2935C80.3603 23.9778 80.3603 24.662 80.3603 25.3463C80.3603 25.7128 80.1839 25.8839 79.8212 25.8937L79.8114 25.8985Z" fill="white"/>
<path d="M22.4974 12.6047C21.733 12.6047 20.9734 12.6047 20.209 12.6047C19.0182 12.6047 17.8274 12.6047 16.6415 12.6047C16.5288 12.6047 16.4357 12.5998 16.3524 12.5998C16.2838 12.5998 16.2299 12.5998 16.1858 12.6096C16.1221 12.6194 16.0339 12.6634 16.0339 12.6682C16.0192 12.6829 16.0094 12.7025 15.9996 12.7367C15.9898 12.7758 15.98 12.8295 15.98 12.898C15.98 15.1999 15.98 17.497 15.98 19.799C15.98 21.8957 15.98 23.9973 15.9751 26.094C15.9751 26.226 16.0143 26.2847 16.0731 26.3433C16.1319 26.3971 16.2201 26.4362 16.3377 26.4362C16.7395 26.4362 17.1365 26.4411 17.5383 26.4411C17.9793 26.4411 18.4204 26.4411 18.8614 26.4362C18.9839 26.4362 19.1309 26.4068 19.2779 26.3629C19.3318 26.3482 19.371 26.3335 19.4004 26.3238C19.4004 26.2944 19.4004 26.2553 19.4004 26.1967C19.4004 25.0286 19.4004 23.8654 19.4053 22.6924C19.4053 22.4187 19.4445 22.1645 19.4739 21.9348C19.4886 21.8224 19.5278 21.754 19.5572 21.7051C19.5866 21.6563 19.616 21.6269 19.6258 21.6074C19.7288 21.4754 19.8758 21.3874 20.0032 21.3483C20.1355 21.3092 20.2433 21.3092 20.3266 21.3092C20.3658 21.3092 20.4001 21.3092 20.4295 21.3092C21.2185 21.3092 22.0025 21.3092 22.7915 21.3092C23.7029 21.3092 24.6095 21.3092 25.5209 21.3092C25.5405 21.3092 25.5797 21.3092 25.6435 21.3092C25.7121 21.3092 25.815 21.3092 25.9473 21.3728C26.0061 21.4021 26.0796 21.4412 26.1678 21.4999C26.2511 21.5585 26.3589 21.6416 26.4275 21.8126C26.5206 22.057 26.5304 22.2965 26.5353 22.4969C26.5353 23.1958 26.5402 23.8996 26.5402 24.5985C26.5402 25.1166 26.5402 25.6297 26.5353 26.1478C26.5353 26.2504 26.5549 26.2944 26.5647 26.3091L26.6088 26.3384C26.6088 26.3384 26.6676 26.3531 26.7264 26.3531H26.7411C26.9469 26.3482 27.1528 26.3482 27.3537 26.3482C27.7016 26.3482 28.0446 26.3482 28.3827 26.3482H28.417C28.8483 26.3482 29.2746 26.3482 29.696 26.3433C29.7156 26.3433 29.7254 26.3433 29.7401 26.3433C29.7989 26.1429 29.8479 25.967 29.8479 25.8448C29.8479 23.533 29.8528 21.2262 29.8528 18.9144C29.8528 17.0278 29.8528 15.1462 29.8528 13.2596C29.8528 13.0935 29.8283 12.898 29.7989 12.6878C29.7695 12.6487 29.7548 12.6389 29.7205 12.6243C29.6911 12.6096 29.6323 12.5998 29.549 12.5998C28.3092 12.5998 27.0694 12.5998 25.8346 12.5998C24.8545 12.5998 23.8695 12.5998 22.8895 12.5998H22.4974V12.6047ZM22.7866 15.9868C23.551 15.9868 24.3155 15.9868 25.0799 15.9868C25.1534 15.9868 25.222 15.9868 25.2955 15.9868C25.4474 15.9868 25.6042 16.0113 25.7513 16.0797C25.8983 16.1432 26.0306 16.2507 26.1335 16.3778C26.2511 16.5244 26.3246 16.7053 26.3246 16.8861C26.3246 17.0718 26.256 17.2331 26.158 17.3553C26.0649 17.4775 25.9473 17.5655 25.815 17.629C25.6189 17.7219 25.4425 17.7316 25.2955 17.7316C24.8741 17.7316 24.4576 17.7316 24.0361 17.7316C23.6392 17.7316 23.2423 17.7316 22.8503 17.7316H22.4582C22.1201 17.7316 21.782 17.7316 21.4488 17.7316C21.0861 17.7316 20.7186 17.7316 20.3511 17.7316C20.1551 17.7316 19.9591 17.6876 19.7876 17.5752C19.616 17.4579 19.5082 17.282 19.4494 17.106C19.42 17.0278 19.4102 16.9448 19.4102 16.8617C19.4102 16.6808 19.4788 16.5196 19.5719 16.3925C19.6699 16.2654 19.7925 16.1774 19.9297 16.1139C20.1894 15.9966 20.4393 15.9868 20.6451 15.9868C20.748 15.9868 20.8411 15.9868 20.9244 15.9868H20.9342C21.5517 15.9868 22.1691 15.9868 22.7866 15.9868Z" fill="#E5B661"/>
<path d="M47.9546 23.015C47.9546 24.0804 47.9546 25.1459 47.9595 26.2065C47.9595 26.226 47.9693 26.2798 47.9938 26.3384L48.0183 26.3775L48.0526 26.3971C48.0918 26.4166 48.1751 26.4264 48.2829 26.4313C48.7632 26.4411 49.2434 26.4459 49.7236 26.4459C50.1647 26.4459 50.6106 26.4459 51.0516 26.4313C51.179 26.4313 51.2672 26.3922 51.3113 26.3531C51.3505 26.314 51.3848 26.2798 51.3897 26.138V26.1283C51.3799 25.62 51.3799 25.1117 51.3799 24.6034C51.3799 23.8458 51.3848 23.0932 51.3848 22.3405V22.2574C51.3848 22.0277 51.4485 21.7833 51.6152 21.5927C51.7867 21.3972 52.0513 21.2995 52.3159 21.3044H52.3208C53.0804 21.3044 53.8399 21.3044 54.5995 21.3044C55.1434 21.3044 55.6824 21.3044 56.2264 21.3044C56.6478 21.3044 57.0741 21.3044 57.4956 21.3044C57.6867 21.3044 57.8778 21.3337 58.0542 21.4363C58.2306 21.539 58.358 21.7198 58.4119 21.9006C58.4511 22.0228 58.4609 22.145 58.4658 22.277C58.4658 23.5721 58.4658 24.8673 58.4707 26.1576C58.4707 26.2504 58.4903 26.2895 58.4952 26.2993L58.5246 26.3189C58.5246 26.3189 58.5834 26.3335 58.6422 26.3335C58.8725 26.3335 59.1029 26.3335 59.3381 26.3335C59.6321 26.3335 59.9212 26.3335 60.2152 26.3335C60.6465 26.3335 61.0777 26.3335 61.5089 26.3384H61.5285C61.6363 26.3384 61.7 26.3238 61.7098 26.314C61.7245 26.3042 61.7196 26.3189 61.7441 26.2602C61.7637 26.2065 61.7784 26.1283 61.7784 26.0452C61.7784 22.8243 61.7784 19.6035 61.7784 16.3827C61.7784 15.2293 61.7784 14.0758 61.7784 12.9224C61.7784 12.8637 61.7784 12.8246 61.7784 12.81C61.7637 12.7513 61.749 12.7025 61.7343 12.6682C61.7245 12.6438 61.7196 12.6291 61.7147 12.6243C61.5873 12.5998 61.4305 12.59 61.2639 12.59C58.5932 12.59 55.9274 12.59 53.2568 12.59C51.6593 12.59 50.0618 12.59 48.4642 12.59C48.3711 12.59 48.2976 12.5852 48.2486 12.5852C48.2094 12.5852 48.1898 12.5852 48.18 12.59C48.1212 12.6047 48.0379 12.6438 47.9497 12.6976V12.7073C47.9497 12.7464 47.9497 12.8002 47.9497 12.8784C47.9497 14.1834 47.9497 15.4932 47.9497 16.7981C47.9497 17.6876 47.9497 18.5772 47.9497 19.4667V19.8577C47.9497 20.4539 47.9497 21.0502 47.9497 21.6465C47.9497 22.101 47.9497 22.5555 47.9497 23.0052L47.9546 23.015ZM51.3946 16.6955C51.4044 16.6075 51.4387 16.5195 51.4828 16.4511C51.5269 16.3778 51.5809 16.3192 51.6348 16.2752C51.7426 16.1872 51.8308 16.1481 51.8945 16.1188C52.1493 15.9917 52.3894 15.9917 52.5609 15.9917H52.6491C53.3597 15.9917 54.0702 15.9917 54.7857 15.9917C55.5991 15.9917 56.4175 15.9917 57.2309 15.9966C57.373 15.9966 57.5397 16.0113 57.721 16.0846C57.9023 16.1579 58.0787 16.3143 58.1718 16.5244C58.2257 16.6417 58.2404 16.7493 58.2404 16.8519C58.2404 17.0034 58.2061 17.1451 58.1375 17.282C58.0689 17.414 57.9611 17.5606 57.7553 17.6388C57.6181 17.6876 57.4563 17.7316 57.275 17.7316C56.8487 17.7316 56.4273 17.7316 56.0009 17.7316C55.604 17.7316 55.2071 17.7316 54.8102 17.7316H54.7759C54.374 17.7316 53.9771 17.7316 53.5753 17.7316C53.1735 17.7316 52.7422 17.7316 52.3257 17.7219C52.1836 17.7219 52.0709 17.6828 51.9778 17.6437C51.8847 17.6046 51.8112 17.5655 51.7524 17.541C51.6201 17.4824 51.5024 17.37 51.4436 17.2478C51.3799 17.1256 51.3701 17.0034 51.3701 16.9105C51.3701 16.8226 51.3799 16.7493 51.3897 16.6906L51.3946 16.6955Z" fill="#E5B661"/>
<path d="M129.452 27.4919C129.531 27.4919 129.599 27.4919 129.668 27.4919C129.761 27.4919 129.844 27.4919 129.918 27.4821L129.972 27.4723C130.006 27.4088 130.03 27.3452 130.045 27.2621C130.06 27.1742 130.06 27.0666 130.06 26.9445C130.06 24.6474 130.06 22.3503 130.06 20.0532C130.06 18.6456 130.06 17.2331 130.06 15.8255C130.06 15.5127 130.06 15.1999 130.06 14.8871C130.06 14.6428 130.06 14.3984 130.05 14.154C130.05 13.9781 130.016 13.8021 129.972 13.7288L129.947 13.6995L129.883 13.6751C129.815 13.6555 129.697 13.6506 129.565 13.6506C127.355 13.6457 125.14 13.6408 122.93 13.6408C120.837 13.6408 118.75 13.6408 116.657 13.6506C116.55 13.6506 116.452 13.6555 116.383 13.6751C116.314 13.6946 116.29 13.7093 116.27 13.7288C116.261 13.7435 116.246 13.763 116.231 13.8119C116.202 13.9097 116.187 14.0221 116.187 14.1247C116.187 17.0425 116.187 19.9652 116.187 22.883C116.187 24.2661 116.187 25.6493 116.187 27.0324V27.1351C116.187 27.2035 116.187 27.2621 116.187 27.3208C116.187 27.3746 116.207 27.4088 116.236 27.4332C116.261 27.4576 116.295 27.4772 116.349 27.4772C116.442 27.4772 116.54 27.4821 116.648 27.4821H116.711C118.314 27.4821 119.916 27.4821 121.519 27.4821H123.121C124.057 27.4821 124.993 27.4821 125.929 27.4821C127.1 27.4821 128.271 27.4821 129.438 27.4821L129.452 27.4919ZM125.635 24.1831C125.057 24.1831 124.478 24.1831 123.905 24.1831C123.386 24.1831 122.871 24.1831 122.352 24.1831C121.788 24.1831 121.225 24.1831 120.661 24.1831C120.455 24.1831 120.259 24.1586 120.073 24.056C119.882 23.9582 119.735 23.7627 119.676 23.5624C119.637 23.4304 119.622 23.2887 119.622 23.142V23.1323C119.622 22.7901 119.622 22.448 119.622 22.1059C119.622 21.6074 119.622 21.1089 119.622 20.6103C119.622 20.102 119.622 19.5938 119.622 19.0903C119.622 18.7433 119.622 18.3963 119.622 18.0493V18.0395C119.622 17.8392 119.652 17.6485 119.754 17.4677C119.857 17.2869 120.048 17.1549 120.23 17.106C120.352 17.0718 120.48 17.0572 120.612 17.0572C121.347 17.0572 122.082 17.0572 122.817 17.0572C123.773 17.0572 124.728 17.0572 125.684 17.0621C125.904 17.0621 126.061 17.1305 126.174 17.1598C126.252 17.1842 126.311 17.2136 126.37 17.2576C126.429 17.3064 126.492 17.3553 126.546 17.497C126.566 17.5606 126.6 17.6388 126.635 17.7365C126.664 17.8343 126.698 17.9516 126.698 18.0933C126.703 19.0121 126.708 19.9359 126.708 20.8596C126.708 21.6171 126.708 22.3747 126.703 23.1371C126.703 23.4108 126.6 23.6699 126.414 23.8703C126.233 24.0706 125.958 24.2026 125.654 24.1977L125.635 24.1831Z" fill="#E5B661"/>
<path d="M0 22.145C0 23.5477 0 24.9504 0 26.3531C0 26.4117 0.00490033 26.4557 0.014701 26.4802L0.0245016 26.5095H0.0343023C0.0343023 26.5095 0.0980066 26.529 0.166611 26.529C0.646844 26.529 1.12708 26.529 1.60731 26.529C2.12184 26.529 2.63638 26.529 3.15091 26.529C3.23422 26.529 3.26852 26.5095 3.27832 26.5046L3.29792 26.4704C3.29792 26.4704 3.31262 26.4068 3.31752 26.3482C3.31752 26.226 3.31752 26.1038 3.31752 25.9768C3.31752 24.4568 3.31752 22.9368 3.31752 21.4217C3.31752 19.9896 3.31752 18.5625 3.30772 17.1305V17.1207C3.30772 16.8861 3.33712 16.6662 3.44983 16.4609C3.55764 16.2556 3.76835 16.0943 3.98887 16.0308C4.13588 15.9819 4.29269 15.9673 4.4593 15.9673H4.474C5.19435 15.9673 5.9098 15.9673 6.63015 15.9673C7.4975 15.9673 8.36976 15.9673 9.23712 15.9673C9.28613 15.9673 9.33023 15.9673 9.37923 15.9673C9.41353 15.9673 9.45274 15.9673 9.49684 15.9673C9.55564 15.9673 9.61935 15.9673 9.69775 15.977C9.82516 15.9917 9.96237 16.0259 10.0996 16.109C10.2368 16.1921 10.3642 16.3485 10.4132 16.5244C10.472 16.7297 10.5602 16.9839 10.5651 17.282C10.57 17.7267 10.5749 18.1715 10.5749 18.6114C10.5749 19.1099 10.5749 19.6035 10.5749 20.102V20.1411C10.5749 22.1352 10.5749 24.1244 10.5749 26.1185C10.5749 26.2162 10.5798 26.2895 10.5896 26.3286C10.6288 26.3384 10.7023 26.3433 10.8052 26.3433C11.163 26.3433 11.5207 26.3433 11.8784 26.3433C12.2018 26.3433 12.5252 26.3433 12.8487 26.3433H12.8585C13.0006 26.3433 13.1378 26.3433 13.2701 26.3433C13.4269 26.3433 13.5788 26.3433 13.7209 26.3286L13.765 26.3189C13.8336 26.1625 13.8777 26.0061 13.8728 25.8986C13.8777 23.665 13.8826 21.4265 13.8826 19.193C13.8826 17.15 13.8826 15.1071 13.8777 13.0641C13.8777 12.981 13.8434 12.8442 13.7944 12.6682C13.765 12.6389 13.7454 12.6291 13.7013 12.6145C13.6523 12.5998 13.5788 12.5949 13.4808 12.5949C10.5014 12.5949 7.52691 12.5949 4.54751 12.5949H1.71512C1.27409 12.5949 0.828156 12.5949 0.387126 12.5949H0.382226C0.30382 12.5949 0.235216 12.5949 0.171512 12.5949C0.0686046 12.5998 0.044103 12.6243 0.0392026 12.6291C0.0392026 12.634 0.014701 12.6536 0.00980066 12.7513C0.00980066 12.8784 0.00980066 13.0055 0.00980066 13.1374C0.00980066 14.6623 0.00980066 16.1921 0.00980066 17.717V19.5498C0.00980066 20.0923 0.00980066 20.6348 0.00980066 21.1822C0.00980066 21.4999 0.00980066 21.8175 0.00980066 22.1352L0 22.145Z" fill="#E5B661"/>
<path d="M100.942 13.6408C100.697 13.6408 100.471 13.6604 100.266 13.7239C100.236 13.7337 100.217 13.7386 100.202 13.7484C100.172 13.8608 100.153 13.9683 100.153 14.0514C100.153 17.1109 100.153 20.1705 100.153 23.23C100.153 24.5252 100.153 25.8252 100.153 27.1204C100.153 27.1791 100.153 27.2279 100.153 27.2573V27.3061C100.172 27.4039 100.192 27.4625 100.202 27.487C100.212 27.487 100.226 27.487 100.256 27.487H100.28C100.324 27.487 100.364 27.487 100.403 27.487C100.52 27.487 100.628 27.487 100.726 27.487C101.912 27.487 103.093 27.487 104.279 27.487H107.121C107.41 27.487 107.699 27.487 107.988 27.487H109.65C110.958 27.487 112.262 27.487 113.57 27.487H113.59H113.634C113.776 27.487 113.913 27.487 114.04 27.4772L114.089 27.4528L114.119 27.4088C114.119 26.9542 114.119 26.4948 114.119 26.0403C114.119 25.4587 114.119 24.8771 114.119 24.2906L114.109 24.2759C114.075 24.2222 114.055 24.2075 114.031 24.1928C114.006 24.1782 113.962 24.1684 113.874 24.1684C112.541 24.1684 111.203 24.1684 109.87 24.1684C108.42 24.1684 106.974 24.1684 105.528 24.1684C105.357 24.1684 105.176 24.1684 104.989 24.1684C104.838 24.1684 104.686 24.1684 104.529 24.1537C104.313 24.1391 104.102 24.0755 103.921 23.9631C103.74 23.8605 103.632 23.6796 103.588 23.5281C103.544 23.3766 103.544 23.2496 103.544 23.1469C103.544 22.6826 103.544 22.2134 103.544 21.7491V20.8889C103.544 19.9163 103.544 18.9388 103.544 17.9662V17.9222C103.544 17.8734 103.544 17.8049 103.559 17.7267C103.573 17.6241 103.603 17.5019 103.686 17.37C103.764 17.238 103.926 17.1109 104.107 17.0718C104.289 17.0327 104.519 16.9399 104.823 16.935C106.695 16.9301 108.567 16.9301 110.434 16.9301C111.12 16.9301 111.811 16.9301 112.497 16.9301C112.825 16.9301 113.149 16.9301 113.477 16.9301H113.536C113.658 16.9301 113.771 16.9301 113.874 16.9203L113.898 16.9057L113.937 16.8617C113.937 16.3241 113.937 15.7913 113.937 15.2537C113.937 14.7552 113.937 14.2567 113.933 13.763V13.7484H113.928C113.712 13.6751 113.555 13.6262 113.398 13.6262C109.498 13.6311 105.597 13.6262 101.701 13.636H101.692C101.432 13.636 101.187 13.6213 100.956 13.6213L100.942 13.6408Z" fill="#E5B661"/>
<path d="M5.26808 22.1303C5.26808 22.8634 5.26808 23.5917 5.26808 24.3248C5.26808 24.9455 5.26808 25.5711 5.26808 26.1918C5.26808 26.2456 5.29259 26.3091 5.34649 26.358C5.39549 26.4117 5.4641 26.4313 5.4739 26.4264C5.93453 26.4362 6.39516 26.4362 6.85579 26.4362C7.36543 26.4362 7.87996 26.4362 8.38959 26.4215C8.38959 26.4215 8.4288 26.4166 8.4631 26.3971C8.5023 26.3775 8.5415 26.3482 8.5562 26.3335C8.60031 26.2895 8.63461 26.2162 8.63951 26.0745C8.63951 24.5007 8.63461 22.927 8.63461 21.3532V20.3513C8.63461 19.6866 8.63461 19.0268 8.63461 18.3621V18.3523V18.2693C8.63461 18.1129 8.62481 18.0347 8.59051 17.9565C8.56111 17.8929 8.5415 17.8587 8.5268 17.8392H8.4974C8.03187 17.8392 7.56144 17.8343 7.09591 17.8343C6.52257 17.8343 5.94923 17.8343 5.37589 17.844H5.36609L5.36119 17.8489C5.30729 17.9467 5.27298 18.0591 5.27298 18.1177C5.26808 18.8215 5.26318 19.5253 5.26318 20.2291C5.26318 20.7325 5.26318 21.231 5.26318 21.7344V22.1254L5.26808 22.1303Z" fill="#E5B661"/>
<path d="M24.6142 24.7598C24.6142 24.4519 24.6142 24.144 24.6142 23.836C24.6142 23.6259 24.6142 23.4206 24.6142 23.2153C24.6142 23.1714 24.6093 23.142 24.6044 23.1274L24.5946 23.1078H24.5848C24.5848 23.1078 24.5456 23.0932 24.4965 23.0932C23.9869 23.0883 23.4822 23.0883 22.9725 23.0883C22.4629 23.0883 21.9533 23.0883 21.4436 23.0883C21.3799 23.0883 21.3358 23.1127 21.2966 23.1469C21.2623 23.1811 21.2427 23.2251 21.2378 23.2838C21.2378 23.7579 21.228 24.2319 21.228 24.7011C21.228 25.2094 21.228 25.7177 21.2476 26.2211V26.2309L21.277 26.2847C21.3015 26.3238 21.3358 26.358 21.3407 26.358C21.4289 26.4068 21.6348 26.4313 21.8602 26.4362C22.1591 26.4411 22.458 26.4459 22.7569 26.4459C23.0558 26.4459 23.3793 26.4459 23.688 26.4362C23.7468 26.4362 23.8007 26.4362 23.8546 26.4362H23.8644C24.0996 26.4362 24.2858 26.4362 24.4573 26.3824C24.5112 26.3677 24.5505 26.3531 24.575 26.3384L24.5995 26.3238C24.5995 26.3238 24.6093 26.2798 24.6093 26.2211C24.6093 26.0256 24.6093 25.8301 24.6093 25.6346C24.6093 25.4733 24.6093 25.3121 24.6093 25.1508V24.7598H24.6142Z" fill="#E5B661"/>
<path d="M53.2129 24.7305C53.2129 25.0237 53.2129 25.3169 53.2129 25.6102C53.2129 25.835 53.2129 26.0598 53.2129 26.2798L53.2325 26.3531C53.355 26.4068 53.5216 26.4362 53.6833 26.4362C54.0263 26.4411 54.3694 26.4459 54.7075 26.4459C55.075 26.4459 55.4376 26.4459 55.8052 26.4411H55.8591C55.8934 26.4411 55.9277 26.4411 55.962 26.4411C56.1335 26.4411 56.256 26.4313 56.3638 26.3922C56.4716 26.3531 56.5353 26.3189 56.5549 26.2993L56.5745 26.27C56.5745 26.27 56.5843 26.2211 56.5843 26.1625C56.5843 25.6933 56.5843 25.2241 56.5843 24.7598C56.5843 24.2955 56.5843 23.7872 56.5843 23.2984C56.5843 23.2007 56.5549 23.1616 56.5353 23.1371C56.5108 23.1127 56.4716 23.0883 56.3736 23.0883C55.9865 23.0883 55.5994 23.0883 55.2171 23.0883C54.6389 23.0883 54.0606 23.0883 53.4775 23.0883C53.4432 23.0883 53.404 23.0883 53.3697 23.0883C53.2962 23.0883 53.2717 23.1078 53.2521 23.1274C53.2325 23.1469 53.2129 23.1811 53.2129 23.2593C53.2129 23.4548 53.2129 23.6552 53.2129 23.8556C53.2129 24.0169 53.2129 24.1831 53.2129 24.3492V24.7402V24.7305Z" fill="#E5B661"/>
<path d="M148.171 24.1097C148.171 25.1752 148.171 26.2407 148.176 27.3012C148.176 27.3208 148.186 27.3746 148.211 27.4332L148.235 27.4723L148.269 27.4919C148.309 27.5114 148.392 27.5212 148.5 27.5261C148.98 27.5358 149.46 27.5407 149.94 27.5407C150.381 27.5407 150.827 27.5407 151.268 27.5261C151.396 27.5261 151.484 27.487 151.528 27.4479C151.567 27.4088 151.602 27.3746 151.607 27.2328V27.223C151.597 26.7148 151.597 26.2065 151.597 25.6982C151.597 24.9406 151.602 24.1879 151.602 23.4353V23.3522C151.602 23.1225 151.665 22.8781 151.832 22.6875C152.003 22.492 152.268 22.3943 152.533 22.3991H152.538C153.297 22.3991 154.057 22.3991 154.816 22.3991C155.36 22.3991 155.899 22.3991 156.443 22.3991C156.865 22.3991 157.291 22.3991 157.712 22.3991C157.903 22.3991 158.095 22.4285 158.271 22.5311C158.447 22.6337 158.575 22.8146 158.629 22.9954C158.668 23.1176 158.678 23.2398 158.683 23.3717C158.683 24.6669 158.683 25.9621 158.688 27.2524C158.688 27.3452 158.707 27.3843 158.712 27.3941L158.741 27.4137C158.741 27.4137 158.8 27.4283 158.859 27.4283C159.089 27.4283 159.32 27.4283 159.555 27.4283C159.849 27.4283 160.138 27.4283 160.432 27.4283C160.863 27.4283 161.294 27.4283 161.726 27.4332H161.745C161.853 27.4332 161.917 27.4185 161.927 27.4088C161.941 27.399 161.936 27.4137 161.961 27.355C161.981 27.3012 161.995 27.223 161.995 27.14C161.995 23.9191 161.995 20.6983 161.995 17.4775C161.995 16.3241 161.995 15.1706 161.995 14.0172C161.995 13.9585 161.995 13.9194 161.995 13.9048C161.981 13.8461 161.966 13.7972 161.951 13.763C161.941 13.7386 161.936 13.7239 161.932 13.719C161.804 13.6946 161.647 13.6848 161.481 13.6848C158.81 13.6848 156.144 13.6848 153.474 13.6848C151.876 13.6848 150.279 13.6848 148.681 13.6848C148.588 13.6848 148.514 13.6799 148.465 13.6799C148.426 13.6799 148.407 13.6799 148.397 13.6848C148.338 13.6995 148.255 13.7386 148.167 13.7924V13.8021C148.167 13.8412 148.167 13.895 148.167 13.9732C148.167 15.2781 148.167 16.588 148.167 17.8929C148.167 18.7824 148.167 19.6719 148.167 20.5615V20.9525C148.167 21.5487 148.167 22.145 148.167 22.7413C148.167 23.1958 148.167 23.6503 148.167 24.1L148.171 24.1097ZM151.607 17.7854C151.616 17.6974 151.651 17.6094 151.695 17.541C151.739 17.4677 151.793 17.4091 151.847 17.3651C151.954 17.2771 152.043 17.238 152.106 17.2087C152.361 17.0816 152.601 17.0816 152.773 17.0816H152.861C153.572 17.0816 154.282 17.0816 154.998 17.0816C155.811 17.0816 156.629 17.0816 157.443 17.0865C157.585 17.0865 157.752 17.1012 157.933 17.1745C158.114 17.2478 158.291 17.4042 158.384 17.6143C158.438 17.7316 158.452 17.8392 158.452 17.9418C158.452 18.0933 158.418 18.235 158.349 18.3719C158.281 18.5039 158.173 18.6505 157.967 18.7287C157.83 18.7775 157.668 18.8215 157.487 18.8215C157.061 18.8215 156.639 18.8215 156.213 18.8215C155.816 18.8215 155.419 18.8215 155.022 18.8215H154.988C154.586 18.8215 154.189 18.8215 153.787 18.8215C153.385 18.8215 152.954 18.8215 152.538 18.8118C152.395 18.8118 152.283 18.7727 152.19 18.7336C152.097 18.6945 152.023 18.6554 151.964 18.6309C151.832 18.5723 151.714 18.4599 151.656 18.3377C151.592 18.2155 151.582 18.0933 151.582 18.0004C151.582 17.9125 151.592 17.8392 151.602 17.7805L151.607 17.7854Z" fill="#E5B661"/>
<path d="M153.429 25.8203C153.429 26.1136 153.429 26.4068 153.429 26.7001C153.429 26.9249 153.429 27.1497 153.429 27.3697L153.449 27.443C153.571 27.4967 153.738 27.5261 153.9 27.5261C154.243 27.531 154.586 27.5358 154.924 27.5358C155.291 27.5358 155.654 27.5358 156.021 27.531H156.075C156.11 27.531 156.144 27.531 156.178 27.531C156.35 27.531 156.472 27.5212 156.58 27.4821C156.688 27.443 156.752 27.4088 156.771 27.3892L156.791 27.3599C156.791 27.3599 156.801 27.311 156.801 27.2524C156.801 26.7832 156.801 26.314 156.801 25.8497C156.801 25.3854 156.801 24.8771 156.801 24.3883C156.801 24.2906 156.771 24.2515 156.752 24.227C156.727 24.2026 156.688 24.1782 156.59 24.1782C156.203 24.1782 155.816 24.1782 155.433 24.1782C154.855 24.1782 154.277 24.1782 153.694 24.1782C153.66 24.1782 153.62 24.1782 153.586 24.1782C153.513 24.1782 153.488 24.1977 153.468 24.2173C153.449 24.2368 153.429 24.271 153.429 24.3492C153.429 24.5447 153.429 24.7451 153.429 24.9455C153.429 25.1068 153.429 25.273 153.429 25.4391V25.8301V25.8203Z" fill="#E5B661"/>
<path d="M124.836 20.5859V20.5077C124.836 20.2487 124.836 19.9847 124.836 19.7257C124.836 19.5302 124.836 19.3347 124.836 19.1441C124.836 19.0024 124.811 18.9388 124.806 18.9339C124.802 18.9291 124.816 18.9339 124.762 18.9144C124.728 18.9046 124.664 18.8948 124.576 18.8948C124.316 18.8948 124.057 18.8948 123.797 18.8948C123.415 18.8948 123.032 18.8948 122.645 18.8948C122.342 18.8948 122.038 18.8948 121.729 18.89C121.626 18.89 121.582 18.9193 121.538 18.9633C121.494 19.0073 121.464 19.0855 121.464 19.1783C121.464 19.6817 121.455 20.1802 121.455 20.6788C121.455 21.1089 121.455 21.539 121.464 21.9642C121.464 22.101 121.504 22.1597 121.523 22.1841C121.548 22.2085 121.582 22.2379 121.714 22.2427C122.219 22.2476 122.724 22.2525 123.229 22.2525C123.699 22.2525 124.169 22.2525 124.635 22.2379C124.738 22.2379 124.792 22.2183 124.802 22.2085L124.816 22.1841C124.816 22.1841 124.831 22.1206 124.831 22.0521V22.0424C124.831 21.8517 124.831 21.6611 124.831 21.4705C124.831 21.1773 124.831 20.884 124.831 20.5908" fill="#E5B661"/>
<path d="M43.0101 13.4502C43.0101 12.9859 42.6377 12.6096 42.1672 12.6096C40.7167 12.6096 37.7471 12.6096 36.2133 12.6096C35.0029 12.6096 33.7926 12.6096 32.5822 12.6096C32.4891 12.6096 32.4058 12.6096 32.3372 12.6096C32.2784 12.6096 32.2343 12.6096 32.2 12.6194C32.1853 12.6194 32.1167 12.6487 32.0529 12.6976C32.0284 12.7171 32.0284 12.7171 32.0137 12.766C31.999 12.8149 31.999 12.9028 31.999 13.0201C31.999 14.2469 31.999 15.4785 31.999 16.7053C31.999 17.6779 31.999 18.6554 31.999 19.628V20.019V22.0424C31.999 23.2496 31.999 24.4568 31.999 25.6591C31.999 25.8008 31.9941 25.9376 31.9941 26.0549C31.9941 26.138 31.9941 26.2162 32.0039 26.2847C32.0137 26.3629 32.0235 26.4264 32.0333 26.4704C32.0382 26.4948 32.0431 26.5095 32.048 26.5193C32.0578 26.5193 32.0872 26.529 32.146 26.529C32.5871 26.5388 33.0281 26.5388 33.4691 26.5388C34.0719 26.5388 34.6795 26.5388 35.2872 26.5339H35.3068L35.3117 26.5144C35.346 26.3286 35.3656 26.1478 35.3656 25.9767C35.3656 24.4225 35.3656 22.8732 35.3656 21.3239C35.3656 19.887 35.3656 18.4452 35.3558 17.0083V16.9985V16.9839C35.3607 16.7102 35.4783 16.4658 35.6547 16.285C35.836 16.1041 36.0908 15.9819 36.375 15.9819H36.3848C37.2424 15.9917 38.1 15.9966 38.9575 15.9966C39.8151 15.9966 40.6775 15.9966 41.5351 15.9819H41.5449C41.8095 15.9819 42.0496 16.0846 42.2358 16.2459C42.422 16.4071 42.5642 16.6466 42.5642 16.935C42.5642 16.979 42.5641 17.023 42.5543 17.0669V17.1012C42.5543 17.1354 42.5543 17.194 42.5543 17.2771C42.5543 20.234 42.5543 23.186 42.5543 26.1429C42.5543 26.2602 42.574 26.314 42.5838 26.3238C42.5936 26.3335 42.5789 26.3238 42.6181 26.3433C42.6426 26.3531 42.6965 26.3629 42.77 26.3629C43.0444 26.3629 43.3139 26.3629 43.5883 26.3629C43.9166 26.3629 44.245 26.3629 44.5684 26.3629C44.9212 26.3629 45.2789 26.3629 45.6318 26.3629C45.7053 26.3629 45.7445 26.3531 45.769 26.3433C45.7935 26.3335 45.8131 26.3238 45.8523 26.2749V26.2358C45.8523 26.2016 45.8523 26.1527 45.8523 26.0745C45.8523 23.4793 45.8621 18.4012 45.8621 16.3974C45.8621 15.9331 45.4847 15.5567 45.0192 15.5567H43.9509C43.4168 15.5567 42.9856 15.1266 42.9856 14.5939V13.46L43.0101 13.4502Z" fill="#E5B661"/>
<path d="M146.094 17.3553C146.054 16.9301 145.697 16.5977 145.26 16.5977H144.192C143.658 16.5977 143.227 16.1677 143.227 15.6398V14.5059C143.227 14.2225 143.085 13.9732 142.874 13.8217C142.737 13.7239 142.57 13.6653 142.389 13.6653C140.938 13.6653 137.969 13.6653 136.435 13.6653C136.131 13.6653 135.832 13.6653 135.528 13.6653C134.622 13.6653 133.71 13.6653 132.804 13.6653C132.711 13.6653 132.627 13.6653 132.559 13.6653C132.5 13.6653 132.456 13.6653 132.422 13.6751C132.407 13.6751 132.338 13.7044 132.275 13.7533C132.25 13.7728 132.25 13.7728 132.235 13.8217C132.221 13.8706 132.221 13.9585 132.221 14.0758C132.221 15.3026 132.221 16.5342 132.221 17.761C132.221 18.5576 132.221 19.3543 132.221 20.1509V21.0698C132.221 21.8664 132.221 22.6631 132.221 23.4597C132.221 24.6865 132.221 25.9181 132.221 27.1448C132.221 27.2621 132.221 27.3501 132.235 27.399C132.25 27.4479 132.25 27.443 132.275 27.4674C132.338 27.5163 132.412 27.5456 132.422 27.5456C132.456 27.5505 132.5 27.5554 132.559 27.5554C132.627 27.5554 132.706 27.5554 132.804 27.5554C133.71 27.5554 134.622 27.5554 135.528 27.5554C135.832 27.5554 136.131 27.5554 136.435 27.5554C137.969 27.5554 140.938 27.5554 142.389 27.5554C142.57 27.5554 142.737 27.4967 142.874 27.399C143.09 27.2475 143.227 26.9982 143.227 26.7148V25.5809C143.227 25.0481 143.658 24.618 144.192 24.618H145.26C145.697 24.618 146.049 24.2906 146.094 23.8703C146.094 23.0589 146.094 22.2427 146.094 21.4314C146.094 20.0776 146.094 18.7238 146.094 17.37V17.3553ZM142.776 23.3766C142.756 23.5819 142.678 23.7823 142.531 23.9338C142.364 24.1049 142.124 24.1879 141.889 24.1879C140.713 24.1928 139.532 24.1928 138.356 24.1928C138.189 24.1928 138.018 24.1928 137.851 24.1928C137.405 24.1928 136.954 24.1928 136.504 24.1879C136.263 24.1879 136.018 24.1049 135.847 23.9338C135.671 23.7578 135.587 23.5135 135.592 23.274C135.592 23.2642 135.592 23.2593 135.592 23.2496C135.592 23.2398 135.592 23.2349 135.592 23.2251C135.592 23.2105 135.587 23.1958 135.587 23.1811V23.1665V23.1567C135.587 22.3063 135.587 21.451 135.592 20.6006C135.592 19.7501 135.592 18.8948 135.587 18.0444V18.0347V18.02C135.587 18.0053 135.587 17.9956 135.592 17.9809C135.612 17.7219 135.72 17.497 135.886 17.326C136.067 17.1451 136.322 17.023 136.606 17.023H136.616C137.474 17.0327 138.331 17.0376 139.189 17.0376C140.047 17.0376 140.909 17.0376 141.767 17.023H141.776C142.041 17.023 142.281 17.1256 142.467 17.2869C142.644 17.4384 142.776 17.6632 142.791 17.932C142.791 17.9467 142.796 17.9613 142.796 17.976C142.796 18.0004 142.796 18.02 142.791 18.0444C142.791 18.8997 142.791 19.7501 142.791 20.6054C142.791 21.4608 142.791 22.3112 142.791 23.1665C142.791 23.1909 142.796 23.2105 142.796 23.2349C142.796 23.2496 142.796 23.2642 142.791 23.2789C142.791 23.3131 142.786 23.3522 142.776 23.3864V23.3766Z" fill="#E5B661"/>
</g>
<defs>
<clipPath id="clip0_234_6558">
<rect width="162" height="33" fill="white"/>
</clipPath>
</defs>
</svg>
