<svg width="1440" height="77" viewBox="0 0 1440 77" fill="none" xmlns="http://www.w3.org/2000/svg">
<g clip-path="url(#clip0_239_922)">
<path d="M127.373 35.2696C126.739 36.6524 126.426 38.0256 125.621 38.9727C122.998 42.0507 120.27 45.0624 117.429 47.951C112.106 53.3494 106.68 58.6531 101.272 63.9757C100.457 64.7712 99.6238 65.6046 98.6578 66.1729C97.1141 67.0821 95.7787 66.1824 95.9492 64.4018C96.1196 62.6592 97.0194 61.2859 98.2695 60.0737C102.2 56.2759 106.121 52.4591 109.985 48.5951C111.917 46.663 113.716 44.5984 115.573 42.5906C115.809 42.3348 116.018 42.0412 116.207 41.7477C120.232 35.4211 118.84 32.6273 114.237 28.7632C108.574 24.0088 102.958 19.1976 97.3698 14.3486C95.7124 12.909 94.197 11.2895 92.7007 9.66999C91.9525 8.8555 90.9959 7.97471 91.8672 6.66774C92.5018 5.72066 94.2444 5.06717 95.4377 5.66383C96.9152 6.40256 98.3074 7.37805 99.6049 8.41984C103.109 11.2421 106.519 14.1876 110.004 17.0288C113.006 19.4818 116.188 21.7358 119.067 24.3213C121.426 26.4333 123.576 28.801 125.583 31.2445C126.474 32.3242 126.777 33.8869 127.373 35.298V35.2696Z" fill="#BCA075"/>
<path d="M0.000681755 35.9515C0.474223 35.0329 0.815172 34.0005 1.46866 33.2239C2.82299 31.6044 4.34779 30.1459 5.78735 28.6022C9.75562 24.3498 13.5534 19.9269 17.7206 15.8829C21.1206 12.587 24.9468 9.72684 28.5931 6.68671C28.9246 6.41206 29.3129 6.05216 29.7012 6.00481C30.4399 5.91957 31.4533 5.75857 31.8984 6.14687C32.353 6.54465 32.5992 7.69062 32.3625 8.28728C31.7563 9.81208 31.1123 11.4979 29.9853 12.606C27.1062 15.4472 23.9145 17.9665 20.9122 20.694C17.5217 23.7721 14.1122 26.8311 10.93 30.1175C9.6988 31.3961 8.9506 33.205 8.20241 34.8813C7.4258 36.6334 7.79517 38.3477 9.11161 39.7872C9.82192 40.5638 10.5796 41.312 11.3467 42.0413C16.1295 46.6062 21.0827 51.0007 25.6477 55.774C27.9207 58.1511 29.5496 61.1629 31.3491 63.9662C31.9647 64.9228 32.2962 66.135 31.0366 67.0348C29.9095 67.8493 28.792 67.5841 27.8828 66.7791C25.1836 64.3829 22.5033 61.9489 19.9083 59.4392C15.6654 55.3288 11.3941 51.2469 7.35951 46.9472C5.02022 44.4563 3.0787 41.5867 1.06141 38.8117C0.521577 38.0635 0.370044 37.0312 -0.00878906 35.9705L0.000681755 35.9515Z" fill="#BCA075"/>
<path d="M14.7365 35.3356C15.4279 34.1518 15.9109 32.7406 16.8675 31.803C21.4608 27.3044 26.1867 22.9383 30.8748 18.5439C31.8408 17.6441 32.8258 16.7633 33.8486 15.9299C34.7862 15.1628 35.7807 15.0965 36.6899 16.0151C37.4854 16.8202 37.5517 17.7199 36.9172 18.648C35.8754 20.1823 34.8904 21.7545 33.7445 23.2035C31.3957 26.1679 29.1038 29.1985 26.5182 31.9451C23.4876 35.1557 23.2413 37.7791 26.7266 41.2075C30.2403 44.6644 33.4793 48.4148 36.7941 52.0706C37.4381 52.7809 37.8832 53.6711 38.4325 54.4667C39.0197 55.3285 39.4743 56.4082 38.603 57.0901C37.8737 57.6678 36.652 57.9993 35.7239 57.8667C34.7578 57.7246 33.8392 56.9764 32.9773 56.3703C29.6341 54.0121 26.9349 50.9814 24.3494 47.8466C21.546 44.456 18.7237 41.0655 15.9583 37.637C15.4752 37.0404 15.2195 36.2732 14.7271 35.3356H14.7365Z" fill="#BCA075"/>
<path d="M90.4371 14.3201C91.1 14.6326 91.9808 14.8883 92.6532 15.3997C95.8165 17.7959 98.9703 20.1636 101.461 23.3458C102.92 25.202 104.795 26.7363 106.443 28.4505C107.295 29.3408 108.129 30.2595 108.829 31.2728C110.809 34.1236 110.771 36.1882 108.924 39.0673C106.556 42.7609 103.194 45.5169 100.107 48.5287C97.7675 50.8017 95.2767 52.9231 92.8142 55.0635C91.4505 56.2474 90.617 56.2663 89.5942 55.3003C88.4577 54.2301 88.3724 53.2167 89.5847 51.8435C92.2081 48.8696 94.9168 45.9715 97.6065 43.0545C98.6862 41.8896 99.8511 40.8005 100.893 39.6072C103.696 36.3681 103.658 32.9681 100.552 29.9753C98.1463 27.655 95.4945 25.5903 92.9184 23.4405C91.2989 22.0861 89.5847 20.8265 88.0031 19.4248C87.2738 18.7714 86.071 18.2505 86.5067 16.8961C86.9234 15.5986 87.9178 14.9262 89.1964 14.6137C89.5373 14.5284 89.8783 14.4527 90.4181 14.3295L90.4371 14.3201Z" fill="#BCA075"/>
<path d="M94.8599 35.6579C94.661 36.1031 94.3958 36.8418 94.0075 37.4953C91.7819 41.1984 88.3629 43.7555 85.1902 46.5304C84.7734 46.8903 83.6464 47.1271 83.4475 46.8998C82.9172 46.3031 82.311 45.3182 82.472 44.6741C82.7846 43.4429 83.4854 42.2401 84.2526 41.1984C85.0292 40.1471 86.0899 39.3137 87.037 38.3855C88.7512 36.6997 89.4047 34.3794 86.4687 33.1576C84.9723 32.5326 83.637 31.3582 82.4342 30.2217C81.0609 28.9242 81.0419 27.674 82.0174 26.4712C82.9929 25.259 84.281 24.9654 85.7963 25.8272C86.857 26.4333 87.8041 27.2478 88.7701 28.015C89.8688 28.8958 90.9105 29.8428 92.0092 30.7236C93.515 31.9169 94.6136 33.3376 94.8788 35.6674L94.8599 35.6579Z" fill="#BCA075"/>
<path d="M36.8988 35.1464C37.486 36.3113 37.8459 37.4099 38.5088 38.2907C39.6738 39.825 41.047 41.2077 42.2877 42.6946C42.9791 43.5186 43.6704 44.3994 42.7707 45.498C42.0983 46.322 40.3746 46.625 39.3612 45.981C38.632 45.5169 38.0069 44.8729 37.3913 44.2479C35.4214 42.24 33.4893 40.2038 31.5288 38.1865C29.6726 36.2734 29.5779 34.9665 31.2731 32.9113C33.3662 30.3826 35.7434 28.1854 38.7361 26.7553C39.2097 26.528 39.6737 26.2249 40.1757 26.1397C41.4259 25.9313 42.2214 26.992 41.5584 28.1001C40.8481 29.3029 39.8348 30.3163 39.0582 31.4812C38.291 32.6272 37.647 33.8489 36.8799 35.1653L36.8988 35.1464Z" fill="#BCA075"/>
<path d="M88.0695 0.199276C87.5581 -0.10379 86.4689 0.426576 85.6639 0.767525C85.2377 0.947471 84.84 1.48731 84.499 1.92297C80.7201 6.66785 76.7235 11.2517 73.2287 16.2144C68.9479 22.2947 65.0838 28.6875 61.0303 34.9382C60.7557 35.3644 60.4715 35.7811 60.1874 36.1979L60.0832 36.2831C59.6286 36.8892 59.174 37.4954 58.7478 38.1299C54.4765 44.3712 50.4703 50.8019 46.4358 57.1947C43.9639 61.1061 41.5962 65.0839 39.2664 69.0805C38.4803 70.4254 38.3098 71.8081 39.3043 72.7931C40.4123 73.8917 41.6909 73.0583 42.6664 71.9976C45.5361 68.8817 48.6425 65.8889 50.9912 62.3941C55.7172 55.3763 59.998 48.0553 64.4777 40.867C65.0081 40.0146 74.3084 24.454 74.8766 23.5922C75.587 22.6356 76.3067 21.6791 77.0171 20.7225C80.114 16.5648 83.4288 12.5776 86.3932 8.32524C87.5486 6.65837 88.1453 4.49903 88.7135 2.5291C88.9313 1.76196 88.5999 0.521284 88.0695 0.208747V0.199276Z" fill="#BCA075"/>
<path d="M74.9048 0.199228C74.4028 -0.113309 73.5694 0.0098117 72.9538 0.0761074C72.6223 0.113991 72.4045 0.388644 72.1961 0.606473C69.9326 3.00259 67.4607 5.24717 65.5003 7.85165C63.0852 11.0433 61.1153 14.5286 58.937 17.8812C58.7854 18.1085 58.6339 18.3264 58.4824 18.5537L58.4161 18.5916C58.1509 18.9041 57.8857 19.2166 57.6489 19.5481C55.2812 22.8534 53.1882 26.3387 51.0573 29.7955C49.7503 31.9075 48.557 34.0858 47.3826 36.2831C46.9848 37.0218 47.1363 37.9215 48.1971 38.7928C49.3809 39.7683 50.3091 39.4747 50.9341 38.9633C52.7431 37.4764 54.7982 36.1126 56.0863 34.2468C58.6813 30.5153 60.8217 26.4902 63.161 22.5882C63.4356 22.1242 68.171 13.6099 68.4836 13.1458C68.8908 12.6534 69.3075 12.1609 69.7242 11.6684C71.5142 9.51851 73.5315 7.53911 75.1889 5.29453C75.8329 4.41374 75.8897 3.08783 75.9655 1.87556C75.9939 1.41149 75.4351 0.492823 74.9237 0.180286L74.9048 0.199228Z" fill="#BCA075"/>
<path d="M78.5229 36.4629C78.021 36.1504 77.1876 36.2735 76.5719 36.3398C76.2405 36.3777 76.0226 36.6523 75.8143 36.8701C73.5508 39.2663 71.0789 41.5108 69.1184 44.1153C66.7034 47.307 64.7334 50.7922 62.5551 54.1449C62.4036 54.3722 62.2521 54.59 62.1005 54.8173L62.0342 54.8552C61.7691 55.1678 61.5039 55.4803 61.2671 55.8118C58.8994 59.1171 56.8064 62.6024 54.6754 66.0592C53.3684 68.1712 52.1751 70.3495 51.0007 72.5467C50.603 73.2854 50.7545 74.1852 51.8152 75.0565C52.9991 76.032 53.9272 75.7384 54.5523 75.227C56.3612 73.74 58.4164 72.3762 59.7044 70.5105C62.2994 66.779 64.4398 62.7539 66.7791 58.8519C67.0538 58.3878 71.7892 49.8736 72.1017 49.4095C72.509 48.917 72.9257 48.4245 73.3424 47.9321C75.1324 45.7822 77.1497 43.8028 78.8071 41.5582C79.4511 40.6774 79.5079 39.3515 79.5837 38.1392C79.6121 37.6752 79.0533 36.7565 78.5419 36.444L78.5229 36.4629Z" fill="#BCA075"/>
<path d="M246.507 35.2696C245.873 36.6524 245.56 38.0256 244.755 38.9727C242.132 42.0507 239.404 45.0624 236.563 47.951C231.24 53.3494 225.813 58.6531 220.406 63.9757C219.591 64.7712 218.758 65.6046 217.792 66.1729C216.248 67.0821 214.912 66.1824 215.083 64.4018C215.253 62.6592 216.153 61.2859 217.403 60.0737C221.334 56.2759 225.255 52.4591 229.119 48.5951C231.051 46.663 232.85 44.5984 234.706 42.5906C234.943 42.3348 235.152 42.0412 235.341 41.7477C239.366 35.4211 237.974 32.6273 233.371 28.7632C227.708 24.0088 222.091 19.1976 216.504 14.3486C214.846 12.909 213.331 11.2895 211.834 9.66999C211.086 8.8555 210.13 7.97471 211.001 6.66774C211.636 5.72066 213.378 5.06717 214.572 5.66383C216.049 6.40256 217.441 7.37805 218.739 8.41984C222.243 11.2421 225.652 14.1876 229.138 17.0288C232.14 19.4818 235.322 21.7358 238.201 24.3213C240.559 26.4333 242.709 28.801 244.717 31.2445C245.607 32.3242 245.91 33.8869 246.507 35.298V35.2696Z" fill="#BCA075"/>
<path d="M119.134 35.9515C119.608 35.0329 119.948 34.0005 120.602 33.2239C121.956 31.6044 123.481 30.1459 124.921 28.6022C128.889 24.3498 132.687 19.9269 136.854 15.8829C140.254 12.587 144.08 9.72684 147.726 6.68671C148.058 6.41206 148.446 6.05216 148.834 6.00481C149.573 5.91957 150.587 5.75857 151.032 6.14687C151.486 6.54465 151.733 7.69062 151.496 8.28728C150.89 9.81208 150.246 11.4979 149.119 12.606C146.239 15.4472 143.048 17.9665 140.046 20.694C136.655 23.7721 133.246 26.8311 130.063 30.1175C128.832 31.3961 128.084 33.205 127.336 34.8813C126.559 36.6334 126.928 38.3477 128.245 39.7872C128.955 40.5638 129.713 41.312 130.48 42.0413C135.263 46.6062 140.216 51.0007 144.781 55.774C147.054 58.1511 148.683 61.1629 150.482 63.9662C151.098 64.9228 151.429 66.135 150.17 67.0348C149.043 67.8493 147.925 67.5841 147.016 66.7791C144.317 64.3829 141.637 61.9489 139.042 59.4392C134.799 55.3288 130.527 51.2469 126.493 46.9472C124.154 44.4563 122.212 41.5867 120.195 38.8117C119.655 38.0635 119.503 37.0312 119.125 35.9705L119.134 35.9515Z" fill="#BCA075"/>
<path d="M133.87 35.3356C134.562 34.1518 135.045 32.7406 136.001 31.803C140.595 27.3044 145.321 22.9383 150.009 18.5439C150.975 17.6441 151.96 16.7633 152.982 15.9299C153.92 15.1628 154.914 15.0965 155.824 16.0151C156.619 16.8202 156.686 17.7199 156.051 18.648C155.009 20.1823 154.024 21.7545 152.878 23.2035C150.529 26.1679 148.238 29.1985 145.652 31.9451C142.621 35.1557 142.375 37.7791 145.86 41.2075C149.374 44.6644 152.613 48.4148 155.928 52.0706C156.572 52.7809 157.017 53.6711 157.566 54.4667C158.153 55.3285 158.608 56.4082 157.737 57.0901C157.008 57.6678 155.786 57.9993 154.858 57.8667C153.892 57.7246 152.973 56.9764 152.111 56.3703C148.768 54.0121 146.069 50.9814 143.483 47.8466C140.68 44.456 137.858 41.0655 135.092 37.637C134.609 37.0404 134.353 36.2732 133.861 35.3356H133.87Z" fill="#BCA075"/>
<path d="M209.571 14.3201C210.234 14.6326 211.115 14.8883 211.787 15.3997C214.95 17.7959 218.104 20.1636 220.595 23.3458C222.053 25.202 223.929 26.7363 225.577 28.4505C226.429 29.3408 227.262 30.2595 227.963 31.2728C229.943 34.1236 229.905 36.1882 228.058 39.0673C225.69 42.7609 222.328 45.5169 219.241 48.5287C216.901 50.8017 214.41 52.9231 211.948 55.0635C210.584 56.2474 209.751 56.2663 208.728 55.3003C207.591 54.2301 207.506 53.2167 208.718 51.8435C211.342 48.8696 214.051 45.9715 216.74 43.0545C217.82 41.8896 218.985 40.8005 220.027 39.6072C222.83 36.3681 222.792 32.9681 219.686 29.9753C217.28 27.655 214.628 25.5903 212.052 23.4405C210.433 22.0861 208.718 20.8265 207.137 19.4248C206.408 18.7714 205.205 18.2505 205.64 16.8961C206.057 15.5986 207.052 14.9262 208.33 14.6137C208.671 14.5284 209.012 14.4527 209.552 14.3295L209.571 14.3201Z" fill="#BCA075"/>
<path d="M213.993 35.6579C213.794 36.1031 213.529 36.8418 213.141 37.4953C210.915 41.1984 207.496 43.7555 204.323 46.5304C203.907 46.8903 202.78 47.1271 202.581 46.8998C202.05 46.3031 201.444 45.3182 201.605 44.6741C201.918 43.4429 202.619 42.2401 203.386 41.1984C204.162 40.1471 205.223 39.3137 206.17 38.3855C207.884 36.6997 208.538 34.3794 205.602 33.1576C204.106 32.5326 202.77 31.3582 201.567 30.2217C200.194 28.9242 200.175 27.674 201.151 26.4712C202.126 25.259 203.414 24.9654 204.93 25.8272C205.99 26.4333 206.937 27.2478 207.903 28.015C209.002 28.8958 210.044 29.8428 211.142 30.7236C212.648 31.9169 213.747 33.3376 214.012 35.6674L213.993 35.6579Z" fill="#BCA075"/>
<path d="M156.032 35.1464C156.619 36.3113 156.979 37.4099 157.642 38.2907C158.807 39.825 160.18 41.2077 161.421 42.6946C162.112 43.5186 162.804 44.3994 161.904 45.498C161.232 46.322 159.508 46.625 158.495 45.981C157.765 45.5169 157.14 44.8729 156.525 44.2479C154.555 42.24 152.623 40.2038 150.662 38.1865C148.806 36.2734 148.711 34.9665 150.406 32.9113C152.499 30.3826 154.877 28.1854 157.869 26.7553C158.343 26.528 158.807 26.2249 159.309 26.1397C160.559 25.9313 161.355 26.992 160.692 28.1001C159.981 29.3029 158.968 30.3163 158.191 31.4812C157.424 32.6272 156.78 33.8489 156.013 35.1653L156.032 35.1464Z" fill="#BCA075"/>
<path d="M207.193 0.199276C206.682 -0.10379 205.592 0.426576 204.787 0.767525C204.361 0.947471 203.963 1.48731 203.623 1.92297C199.844 6.66785 195.847 11.2517 192.352 16.2144C188.071 22.2947 184.207 28.6875 180.154 34.9382C179.879 35.3644 179.595 35.7811 179.311 36.1979L179.207 36.2831C178.752 36.8892 178.298 37.4954 177.871 38.1299C173.6 44.3712 169.594 50.8019 165.559 57.1947C163.087 61.1061 160.72 65.0839 158.39 69.0805C157.604 70.4254 157.433 71.8081 158.428 72.7931C159.536 73.8917 160.814 73.0583 161.79 71.9976C164.66 68.8817 167.766 65.8889 170.115 62.3941C174.841 55.3763 179.122 48.0553 183.601 40.867C184.132 40.0146 193.432 24.454 194 23.5922C194.71 22.6356 195.43 21.6791 196.141 20.7225C199.238 16.5648 202.552 12.5776 205.517 8.32524C206.672 6.65837 207.269 4.49903 207.837 2.5291C208.055 1.76196 207.723 0.521284 207.193 0.208747V0.199276Z" fill="#BCA075"/>
<path d="M194.038 0.199228C193.536 -0.113309 192.703 0.0098117 192.087 0.0761074C191.756 0.113991 191.538 0.388644 191.329 0.606473C189.066 3.00259 186.594 5.24717 184.634 7.85165C182.218 11.0433 180.249 14.5286 178.07 17.8812C177.919 18.1085 177.767 18.3264 177.616 18.5537L177.549 18.5916C177.284 18.9041 177.019 19.2166 176.782 19.5481C174.415 22.8534 172.321 26.3387 170.191 29.7955C168.884 31.9075 167.69 34.0858 166.516 36.2831C166.118 37.0218 166.27 37.9215 167.33 38.7928C168.514 39.7683 169.442 39.4747 170.067 38.9633C171.876 37.4764 173.932 36.1126 175.22 34.2468C177.815 30.5153 179.955 26.4902 182.294 22.5882C182.569 22.1242 187.304 13.6099 187.617 13.1458C188.024 12.6534 188.441 12.1609 188.858 11.6684C190.648 9.51851 192.665 7.53911 194.322 5.29453C194.966 4.41374 195.023 3.08783 195.099 1.87556C195.127 1.41149 194.568 0.492823 194.057 0.180286L194.038 0.199228Z" fill="#BCA075"/>
<path d="M197.656 36.4629C197.154 36.1504 196.321 36.2735 195.705 36.3398C195.374 36.3777 195.156 36.6523 194.948 36.8701C192.684 39.2663 190.212 41.5108 188.252 44.1153C185.837 47.307 183.867 50.7922 181.688 54.1449C181.537 54.3722 181.385 54.59 181.234 54.8173L181.168 54.8552C180.902 55.1678 180.637 55.4803 180.4 55.8118C178.033 59.1171 175.94 62.6024 173.809 66.0592C172.502 68.1712 171.308 70.3495 170.134 72.5467C169.736 73.2854 169.888 74.1852 170.949 75.0565C172.132 76.032 173.061 75.7384 173.686 75.227C175.495 73.74 177.55 72.3762 178.838 70.5105C181.433 66.779 183.573 62.7539 185.912 58.8519C186.187 58.3878 190.922 49.8736 191.235 49.4095C191.642 48.917 192.059 48.4245 192.476 47.9321C194.266 45.7822 196.283 43.8028 197.94 41.5582C198.584 40.6774 198.641 39.3515 198.717 38.1392C198.745 37.6752 198.187 36.7565 197.675 36.444L197.656 36.4629Z" fill="#BCA075"/>
<path d="M365.034 35.2696C364.399 36.6524 364.087 38.0256 363.282 38.9727C360.658 42.0507 357.931 45.0624 355.09 47.951C349.767 53.3494 344.34 58.6531 338.932 63.9757C338.118 64.7712 337.284 65.6046 336.318 66.1729C334.775 67.0821 333.439 66.1824 333.61 64.4018C333.78 62.6592 334.68 61.2859 335.93 60.0737C339.861 56.2759 343.781 52.4591 347.646 48.5951C349.578 46.663 351.377 44.5984 353.233 42.5906C353.47 42.3348 353.678 42.0412 353.868 41.7477C357.893 35.4211 356.501 32.6273 351.898 28.7632C346.234 24.0088 340.618 19.1976 335.03 14.3486C333.373 12.909 331.858 11.2895 330.361 9.66999C329.613 8.8555 328.657 7.97471 329.528 6.66774C330.162 5.72066 331.905 5.06717 333.098 5.66383C334.576 6.40256 335.968 7.37805 337.266 8.41984C340.77 11.2421 344.179 14.1876 347.664 17.0288C350.667 19.4818 353.849 21.7358 356.728 24.3213C359.086 26.4333 361.236 28.801 363.244 31.2445C364.134 32.3242 364.437 33.8869 365.034 35.298V35.2696Z" fill="#BCA075"/>
<path d="M237.661 35.9515C238.134 35.0329 238.475 34.0005 239.129 33.2239C240.483 31.6044 242.008 30.1459 243.448 28.6022C247.416 24.3498 251.214 19.9269 255.381 15.8829C258.781 12.587 262.607 9.72684 266.253 6.68671C266.585 6.41206 266.973 6.05216 267.361 6.00481C268.1 5.91957 269.113 5.75857 269.559 6.14687C270.013 6.54465 270.259 7.69062 270.023 8.28728C269.416 9.81208 268.772 11.4979 267.645 12.606C264.766 15.4472 261.575 17.9665 258.572 20.694C255.182 23.7721 251.772 26.8311 248.59 30.1175C247.359 31.3961 246.611 33.205 245.863 34.8813C245.086 36.6334 245.455 38.3477 246.772 39.7872C247.482 40.5638 248.24 41.312 249.007 42.0413C253.79 46.6062 258.743 51.0007 263.308 55.774C265.581 58.1511 267.21 61.1629 269.009 63.9662C269.625 64.9228 269.956 66.135 268.697 67.0348C267.57 67.8493 266.452 67.5841 265.543 66.7791C262.844 64.3829 260.163 61.9489 257.568 59.4392C253.326 55.3288 249.054 51.2469 245.02 46.9472C242.68 44.4563 240.739 41.5867 238.722 38.8117C238.182 38.0635 238.03 37.0312 237.651 35.9705L237.661 35.9515Z" fill="#BCA075"/>
<path d="M252.398 35.3356C253.089 34.1518 253.572 32.7406 254.529 31.803C259.122 27.3044 263.848 22.9383 268.536 18.5439C269.502 17.6441 270.487 16.7633 271.51 15.9299C272.447 15.1628 273.442 15.0965 274.351 16.0151C275.147 16.8202 275.213 17.7199 274.578 18.648C273.537 20.1823 272.552 21.7545 271.406 23.2035C269.057 26.1679 266.765 29.1985 264.179 31.9451C261.149 35.1557 260.902 37.7791 264.388 41.2075C267.901 44.6644 271.14 48.4148 274.455 52.0706C275.099 52.7809 275.544 53.6711 276.094 54.4667C276.681 55.3285 277.135 56.4082 276.264 57.0901C275.535 57.6678 274.313 57.9993 273.385 57.8667C272.419 57.7246 271.5 56.9764 270.638 56.3703C267.295 54.0121 264.596 50.9814 262.011 47.8466C259.207 44.456 256.385 41.0655 253.619 37.637C253.136 37.0404 252.881 36.2732 252.388 35.3356H252.398Z" fill="#BCA075"/>
<path d="M328.098 14.3201C328.761 14.6326 329.642 14.8883 330.314 15.3997C333.478 17.7959 336.631 20.1636 339.122 23.3458C340.581 25.202 342.456 26.7363 344.104 28.4505C344.956 29.3408 345.79 30.2595 346.491 31.2728C348.47 34.1236 348.432 36.1882 346.585 39.0673C344.218 42.7609 340.855 45.5169 337.768 48.5287C335.429 50.8017 332.938 52.9231 330.475 55.0635C329.112 56.2474 328.278 56.2663 327.255 55.3003C326.119 54.2301 326.034 53.2167 327.246 51.8435C329.869 48.8696 332.578 45.9715 335.268 43.0545C336.347 41.8896 337.512 40.8005 338.554 39.6072C341.357 36.3681 341.319 32.9681 338.213 29.9753C335.807 27.655 333.156 25.5903 330.58 23.4405C328.96 22.0861 327.246 20.8265 325.664 19.4248C324.935 18.7714 323.732 18.2505 324.168 16.8961C324.585 15.5986 325.579 14.9262 326.858 14.6137C327.198 14.5284 327.539 14.4527 328.079 14.3295L328.098 14.3201Z" fill="#BCA075"/>
<path d="M332.521 35.6579C332.322 36.1031 332.057 36.8418 331.669 37.4953C329.443 41.1984 326.024 43.7555 322.851 46.5304C322.435 46.8903 321.308 47.1271 321.109 46.8998C320.578 46.3031 319.972 45.3182 320.133 44.6741C320.446 43.4429 321.147 42.2401 321.914 41.1984C322.69 40.1471 323.751 39.3137 324.698 38.3855C326.412 36.6997 327.066 34.3794 324.13 33.1576C322.633 32.5326 321.298 31.3582 320.095 30.2217C318.722 28.9242 318.703 27.674 319.679 26.4712C320.654 25.259 321.942 24.9654 323.457 25.8272C324.518 26.4333 325.465 27.2478 326.431 28.015C327.53 28.8958 328.572 29.8428 329.67 30.7236C331.176 31.9169 332.275 33.3376 332.54 35.6674L332.521 35.6579Z" fill="#BCA075"/>
<path d="M274.559 35.1464C275.147 36.3113 275.507 37.4099 276.169 38.2907C277.334 39.825 278.708 41.2077 279.948 42.6946C280.64 43.5186 281.331 44.3994 280.431 45.498C279.759 46.322 278.035 46.625 277.022 45.981C276.293 45.5169 275.668 44.8729 275.052 44.2479C273.082 42.24 271.15 40.2038 269.19 38.1865C267.333 36.2734 267.238 34.9665 268.934 32.9113C271.027 30.3826 273.404 28.1854 276.397 26.7553C276.87 26.528 277.334 26.2249 277.836 26.1397C279.086 25.9313 279.882 26.992 279.219 28.1001C278.509 29.3029 277.495 30.3163 276.719 31.4812C275.952 32.6272 275.308 33.8489 274.541 35.1653L274.559 35.1464Z" fill="#BCA075"/>
<path d="M325.73 0.199276C325.219 -0.10379 324.13 0.426576 323.325 0.767525C322.898 0.947471 322.501 1.48731 322.16 1.92297C318.381 6.66785 314.384 11.2517 310.889 16.2144C306.609 22.2947 302.744 28.6875 298.691 34.9382C298.416 35.3644 298.132 35.7811 297.848 36.1979L297.744 36.2831C297.289 36.8892 296.835 37.4954 296.408 38.1299C292.137 44.3712 288.131 50.8019 284.096 57.1947C281.625 61.1061 279.257 65.0839 276.927 69.0805C276.141 70.4254 275.97 71.8081 276.965 72.7931C278.073 73.8917 279.352 73.0583 280.327 71.9976C283.197 68.8817 286.303 65.8889 288.652 62.3941C293.378 55.3763 297.659 48.0553 302.138 40.867C302.669 40.0146 311.969 24.454 312.537 23.5922C313.248 22.6356 313.967 21.6791 314.678 20.7225C317.775 16.5648 321.089 12.5776 324.054 8.32524C325.209 6.65837 325.806 4.49903 326.374 2.5291C326.592 1.76196 326.261 0.521284 325.73 0.208747V0.199276Z" fill="#BCA075"/>
<path d="M312.565 0.199228C312.063 -0.113309 311.23 0.0098117 310.614 0.0761074C310.283 0.113991 310.065 0.388644 309.857 0.606473C307.593 3.00259 305.121 5.24717 303.161 7.85165C300.746 11.0433 298.776 14.5286 296.598 17.8812C296.446 18.1085 296.295 18.3264 296.143 18.5537L296.077 18.5916C295.812 18.9041 295.546 19.2166 295.31 19.5481C292.942 22.8534 290.849 26.3387 288.718 29.7955C287.411 31.9075 286.218 34.0858 285.043 36.2831C284.645 37.0218 284.797 37.9215 285.858 38.7928C287.042 39.7683 287.97 39.4747 288.595 38.9633C290.404 37.4764 292.459 36.1126 293.747 34.2468C296.342 30.5153 298.482 26.4902 300.822 22.5882C301.096 22.1242 305.832 13.6099 306.144 13.1458C306.551 12.6534 306.968 12.1609 307.385 11.6684C309.175 9.51851 311.192 7.53911 312.85 5.29453C313.494 4.41374 313.55 3.08783 313.626 1.87556C313.655 1.41149 313.096 0.492823 312.584 0.180286L312.565 0.199228Z" fill="#BCA075"/>
<path d="M316.184 36.4629C315.682 36.1504 314.848 36.2735 314.233 36.3398C313.901 36.3777 313.683 36.6523 313.475 36.8701C311.211 39.2663 308.74 41.5108 306.779 44.1153C304.364 47.307 302.394 50.7922 300.216 54.1449C300.064 54.3722 299.913 54.59 299.761 54.8173L299.695 54.8552C299.43 55.1678 299.165 55.4803 298.928 55.8118C296.56 59.1171 294.467 62.6024 292.336 66.0592C291.029 68.1712 289.836 70.3495 288.661 72.5467C288.264 73.2854 288.415 74.1852 289.476 75.0565C290.66 76.032 291.588 75.7384 292.213 75.227C294.022 73.74 296.077 72.3762 297.365 70.5105C299.96 66.779 302.1 62.7539 304.44 58.8519C304.714 58.3878 309.45 49.8736 309.762 49.4095C310.17 48.917 310.586 48.4245 311.003 47.9321C312.793 45.7822 314.81 43.8028 316.468 41.5582C317.112 40.6774 317.169 39.3515 317.244 38.1392C317.273 37.6752 316.714 36.7565 316.203 36.444L316.184 36.4629Z" fill="#BCA075"/>
<path d="M484.167 35.2696C483.533 36.6524 483.22 38.0256 482.415 38.9727C479.792 42.0507 477.064 45.0624 474.223 47.951C468.9 53.3494 463.474 58.6531 458.066 63.9757C457.251 64.7712 456.418 65.6046 455.452 66.1729C453.908 67.0821 452.573 66.1824 452.743 64.4018C452.914 62.6592 453.813 61.2859 455.063 60.0737C458.994 56.2759 462.915 52.4591 466.779 48.5951C468.711 46.663 470.51 44.5984 472.367 42.5906C472.603 42.3348 472.812 42.0412 473.001 41.7477C477.026 35.4211 475.634 32.6273 471.031 28.7632C465.368 24.0088 459.752 19.1976 454.164 14.3486C452.506 12.909 450.991 11.2895 449.495 9.66999C448.746 8.8555 447.79 7.97471 448.661 6.66774C449.296 5.72066 451.038 5.06717 452.232 5.66383C453.709 6.40256 455.101 7.37805 456.399 8.41984C459.903 11.2421 463.313 14.1876 466.798 17.0288C469.8 19.4818 472.982 21.7358 475.861 24.3213C478.22 26.4333 480.369 28.801 482.377 31.2445C483.268 32.3242 483.571 33.8869 484.167 35.298V35.2696Z" fill="#BCA075"/>
<path d="M356.794 35.9515C357.268 35.0329 357.609 34.0005 358.262 33.2239C359.616 31.6044 361.141 30.1459 362.581 28.6022C366.549 24.3498 370.347 19.9269 374.514 15.8829C377.914 12.587 381.74 9.72684 385.387 6.68671C385.718 6.41206 386.106 6.05216 386.495 6.00481C387.233 5.91957 388.247 5.75857 388.692 6.14687C389.146 6.54465 389.393 7.69062 389.156 8.28728C388.55 9.81208 387.906 11.4979 386.779 12.606C383.9 15.4472 380.708 17.9665 377.706 20.694C374.315 23.7721 370.906 26.8311 367.723 30.1175C366.492 31.3961 365.744 33.205 364.996 34.8813C364.219 36.6334 364.589 38.3477 365.905 39.7872C366.615 40.5638 367.373 41.312 368.14 42.0413C372.923 46.6062 377.876 51.0007 382.441 55.774C384.714 58.1511 386.343 61.1629 388.143 63.9662C388.758 64.9228 389.09 66.135 387.83 67.0348C386.703 67.8493 385.585 67.5841 384.676 66.7791C381.977 64.3829 379.297 61.9489 376.702 59.4392C372.459 55.3288 368.188 51.2469 364.153 46.9472C361.814 44.4563 359.872 41.5867 357.855 38.8117C357.315 38.0635 357.164 37.0312 356.785 35.9705L356.794 35.9515Z" fill="#BCA075"/>
<path d="M371.531 35.3356C372.222 34.1518 372.705 32.7406 373.662 31.803C378.255 27.3044 382.981 22.9383 387.669 18.5439C388.635 17.6441 389.62 16.7633 390.643 15.9299C391.581 15.1628 392.575 15.0965 393.484 16.0151C394.28 16.8202 394.346 17.7199 393.712 18.648C392.67 20.1823 391.685 21.7545 390.539 23.2035C388.19 26.1679 385.898 29.1985 383.313 31.9451C380.282 35.1557 380.036 37.7791 383.521 41.2075C387.035 44.6644 390.274 48.4148 393.588 52.0706C394.232 52.7809 394.678 53.6711 395.227 54.4667C395.814 55.3285 396.269 56.4082 395.397 57.0901C394.668 57.6678 393.446 57.9993 392.518 57.8667C391.552 57.7246 390.634 56.9764 389.772 56.3703C386.429 54.0121 383.729 50.9814 381.144 47.8466C378.34 44.456 375.518 41.0655 372.753 37.637C372.27 37.0404 372.014 36.2732 371.521 35.3356H371.531Z" fill="#BCA075"/>
<path d="M447.231 14.3201C447.894 14.6326 448.775 14.8883 449.448 15.3997C452.611 17.7959 455.765 20.1636 458.256 23.3458C459.714 25.202 461.589 26.7363 463.237 28.4505C464.09 29.3408 464.923 30.2595 465.624 31.2728C467.603 34.1236 467.565 36.1882 465.719 39.0673C463.351 42.7609 459.989 45.5169 456.901 48.5287C454.562 50.8017 452.071 52.9231 449.609 55.0635C448.245 56.2474 447.411 56.2663 446.389 55.3003C445.252 54.2301 445.167 53.2167 446.379 51.8435C449.003 48.8696 451.711 45.9715 454.401 43.0545C455.481 41.8896 456.645 40.8005 457.687 39.6072C460.491 36.3681 460.453 32.9681 457.346 29.9753C454.941 27.655 452.289 25.5903 449.713 23.4405C448.093 22.0861 446.379 20.8265 444.797 19.4248C444.068 18.7714 442.865 18.2505 443.301 16.8961C443.718 15.5986 444.712 14.9262 445.991 14.6137C446.332 14.5284 446.673 14.4527 447.213 14.3295L447.231 14.3201Z" fill="#BCA075"/>
<path d="M451.654 35.6579C451.455 36.1031 451.19 36.8418 450.802 37.4953C448.576 41.1984 445.157 43.7555 441.985 46.5304C441.568 46.8903 440.441 47.1271 440.242 46.8998C439.712 46.3031 439.105 45.3182 439.266 44.6741C439.579 43.4429 440.28 42.2401 441.047 41.1984C441.824 40.1471 442.884 39.3137 443.831 38.3855C445.546 36.6997 446.199 34.3794 443.263 33.1576C441.767 32.5326 440.431 31.3582 439.229 30.2217C437.855 28.9242 437.836 27.674 438.812 26.4712C439.787 25.259 441.075 24.9654 442.591 25.8272C443.651 26.4333 444.599 27.2478 445.565 28.015C446.663 28.8958 447.705 29.8428 448.804 30.7236C450.309 31.9169 451.408 33.3376 451.673 35.6674L451.654 35.6579Z" fill="#BCA075"/>
<path d="M393.683 35.1464C394.27 36.3113 394.63 37.4099 395.293 38.2907C396.458 39.825 397.831 41.2077 399.072 42.6946C399.763 43.5186 400.455 44.3994 399.555 45.498C398.882 46.322 397.159 46.625 396.145 45.981C395.416 45.5169 394.791 44.8729 394.175 44.2479C392.206 42.24 390.273 40.2038 388.313 38.1865C386.457 36.2734 386.362 34.9665 388.057 32.9113C390.15 30.3826 392.528 28.1854 395.52 26.7553C395.994 26.528 396.458 26.2249 396.96 26.1397C398.21 25.9313 399.006 26.992 398.343 28.1001C397.632 29.3029 396.619 30.3163 395.842 31.4812C395.075 32.6272 394.431 33.8489 393.664 35.1653L393.683 35.1464Z" fill="#BCA075"/>
<path d="M444.854 0.199276C444.343 -0.10379 443.254 0.426576 442.449 0.767525C442.022 0.947471 441.625 1.48731 441.284 1.92297C437.505 6.66785 433.508 11.2517 430.013 16.2144C425.733 22.2947 421.868 28.6875 417.815 34.9382C417.54 35.3644 417.256 35.7811 416.972 36.1979L416.868 36.2831C416.413 36.8892 415.959 37.4954 415.533 38.1299C411.261 44.3712 407.255 50.8019 403.22 57.1947C400.749 61.1061 398.381 65.0839 396.051 69.0805C395.265 70.4254 395.094 71.8081 396.089 72.7931C397.197 73.8917 398.476 73.0583 399.451 71.9976C402.321 68.8817 405.427 65.8889 407.776 62.3941C412.502 55.3763 416.783 48.0553 421.262 40.867C421.793 40.0146 431.093 24.454 431.661 23.5922C432.372 22.6356 433.091 21.6791 433.802 20.7225C436.899 16.5648 440.213 12.5776 443.178 8.32524C444.333 6.65837 444.93 4.49903 445.498 2.5291C445.716 1.76196 445.385 0.521284 444.854 0.208747V0.199276Z" fill="#BCA075"/>
<path d="M431.699 0.199228C431.197 -0.113309 430.364 0.0098117 429.748 0.0761074C429.417 0.113991 429.199 0.388644 428.991 0.606473C426.727 3.00259 424.255 5.24717 422.295 7.85165C419.88 11.0433 417.91 14.5286 415.731 17.8812C415.58 18.1085 415.428 18.3264 415.277 18.5537L415.211 18.5916C414.945 18.9041 414.68 19.2166 414.443 19.5481C412.076 22.8534 409.983 26.3387 407.852 29.7955C406.545 31.9075 405.351 34.0858 404.177 36.2831C403.779 37.0218 403.931 37.9215 404.991 38.7928C406.175 39.7683 407.103 39.4747 407.729 38.9633C409.537 37.4764 411.593 36.1126 412.881 34.2468C415.476 30.5153 417.616 26.4902 419.955 22.5882C420.23 22.1242 424.965 13.6099 425.278 13.1458C425.685 12.6534 426.102 12.1609 426.519 11.6684C428.309 9.51851 430.326 7.53911 431.983 5.29453C432.627 4.41374 432.684 3.08783 432.76 1.87556C432.788 1.41149 432.23 0.492823 431.718 0.180286L431.699 0.199228Z" fill="#BCA075"/>
<path d="M435.317 36.4629C434.815 36.1504 433.982 36.2735 433.366 36.3398C433.035 36.3777 432.817 36.6523 432.609 36.8701C430.345 39.2663 427.873 41.5108 425.913 44.1153C423.498 47.307 421.528 50.7922 419.35 54.1449C419.198 54.3722 419.047 54.59 418.895 54.8173L418.829 54.8552C418.564 55.1678 418.298 55.4803 418.062 55.8118C415.694 59.1171 413.601 62.6024 411.47 66.0592C410.163 68.1712 408.97 70.3495 407.795 72.5467C407.397 73.2854 407.549 74.1852 408.61 75.0565C409.794 76.032 410.722 75.7384 411.347 75.227C413.156 73.74 415.211 72.3762 416.499 70.5105C419.094 66.779 421.234 62.7539 423.574 58.8519C423.848 58.3878 428.584 49.8736 428.896 49.4095C429.303 48.917 429.72 48.4245 430.137 47.9321C431.927 45.7822 433.944 43.8028 435.602 41.5582C436.246 40.6774 436.302 39.3515 436.378 38.1392C436.407 37.6752 435.848 36.7565 435.336 36.444L435.317 36.4629Z" fill="#BCA075"/>
<path d="M604.665 35.6577C604.03 37.0499 603.727 38.4137 602.922 39.3608C600.308 42.4483 597.59 45.4695 594.758 48.3581C589.455 53.7754 584.037 59.098 578.658 64.4395C577.853 65.2446 577.019 66.0685 576.053 66.6462C574.51 67.5649 573.174 66.6652 573.335 64.8847C573.496 63.142 574.396 61.7593 575.646 60.547C579.567 56.7303 583.469 52.9041 587.324 49.0305C589.246 47.089 591.046 45.0244 592.893 43.0071C593.129 42.7514 593.338 42.4578 593.518 42.1547C597.514 35.8093 596.122 33.0248 591.5 29.1702C585.818 24.4348 580.183 19.6426 574.585 14.8125C572.919 13.3729 571.403 11.7628 569.897 10.1528C569.14 9.34779 568.183 8.467 569.055 7.15056C569.68 6.20348 571.422 5.54052 572.625 6.12771C574.112 6.85696 575.504 7.82299 576.802 8.86478C580.315 11.6776 583.734 14.6041 587.229 17.4359C590.241 19.8793 593.423 22.1239 596.321 24.7C598.679 26.8025 600.848 29.1607 602.856 31.6042C603.746 32.6839 604.059 34.2466 604.665 35.6483V35.6577Z" fill="#BCA075"/>
<path d="M477.292 36.7753C477.766 35.8566 478.106 34.8148 478.751 34.0382C480.095 32.4187 481.62 30.9507 483.06 29.3975C487.009 25.1356 490.797 20.6938 494.946 16.6403C498.336 13.335 502.153 10.4653 505.79 7.40625C506.121 7.12213 506.509 6.77171 506.898 6.72435C507.636 6.63912 508.65 6.46864 509.095 6.85695C509.55 7.25472 509.805 8.40069 509.569 8.98788C508.972 10.5127 508.328 12.1985 507.21 13.316C504.341 16.1668 501.158 18.6955 498.166 21.4325C494.794 24.52 491.385 27.5886 488.212 30.8844C486.981 32.163 486.242 33.9814 485.503 35.6482C484.727 37.4098 485.105 39.124 486.431 40.5541C487.151 41.3307 487.899 42.0695 488.666 42.7987C493.468 47.3447 498.431 51.7297 503.015 56.484C505.297 58.8517 506.936 61.8635 508.745 64.6573C509.36 65.6139 509.692 66.8167 508.451 67.7259C507.333 68.5404 506.206 68.2847 505.297 67.4797C502.589 65.093 499.899 62.6685 497.304 60.1682C493.051 56.0673 488.761 52.0043 484.708 47.7141C482.359 45.2327 480.408 42.363 478.381 39.5976C477.832 38.8494 477.68 37.8171 477.301 36.7658L477.292 36.7753Z" fill="#BCA075"/>
<path d="M492.028 36.1124C492.719 34.9285 493.193 33.5079 494.14 32.5797C498.724 28.0716 503.431 23.6866 508.1 19.2732C509.057 18.364 510.051 17.4833 511.064 16.6498C512.002 15.8827 512.996 15.8164 513.906 16.7256C514.701 17.5211 514.777 18.4303 514.142 19.3585C513.11 20.8928 512.125 22.4744 510.989 23.9234C508.649 26.8973 506.376 29.9374 503.791 32.6934C500.77 35.9135 500.533 38.5369 504.028 41.9464C507.551 45.3938 510.799 49.1253 514.133 52.7715C514.777 53.4818 515.231 54.3626 515.781 55.1582C516.368 56.0106 516.832 57.0997 515.961 57.7816C515.231 58.3593 514.01 58.6908 513.091 58.5677C512.125 58.4351 511.197 57.6774 510.345 57.0807C506.992 54.732 504.283 51.7108 501.688 48.5854C498.875 45.2043 496.044 41.8233 493.259 38.4043C492.776 37.8171 492.521 37.0405 492.019 36.1029L492.028 36.1124Z" fill="#BCA075"/>
<path d="M567.653 14.8313C568.316 15.1438 569.197 15.3901 569.869 15.9015C573.032 18.2881 576.205 20.6464 578.705 23.8096C580.173 25.6659 582.049 27.1907 583.697 28.9049C584.549 29.7952 585.392 30.7139 586.093 31.7178C588.082 34.559 588.044 36.6237 586.216 39.5123C583.867 43.2153 580.505 45.9808 577.427 49.002C575.097 51.2845 572.616 53.4059 570.163 55.5653C568.808 56.7586 567.966 56.7775 566.943 55.821C565.806 54.7603 565.711 53.7374 566.924 52.3642C569.538 49.3808 572.237 46.4733 574.917 43.5468C575.987 42.3724 577.152 41.2928 578.185 40.09C580.978 36.8415 580.931 33.4415 577.815 30.4581C575.4 28.1473 572.739 26.0921 570.163 23.9517C568.534 22.5974 566.82 21.3472 565.238 19.955C564.509 19.311 563.306 18.7901 563.742 17.4263C564.158 16.1288 565.153 15.4469 566.431 15.1344C566.772 15.0491 567.113 14.9734 567.653 14.8408V14.8313Z" fill="#BCA075"/>
<path d="M572.151 36.1597C571.953 36.6048 571.697 37.3435 571.299 38.0065C569.092 41.719 565.673 44.2856 562.51 47.0795C562.103 47.4394 560.976 47.6856 560.767 47.4583C560.237 46.8711 559.622 45.8767 559.783 45.2327C560.086 44.0015 560.786 42.7987 561.554 41.7569C562.33 40.7056 563.391 39.8627 564.329 38.9346C566.033 37.2393 566.687 34.919 563.751 33.7067C562.245 33.0911 560.91 31.9167 559.707 30.7802C558.333 29.4827 558.305 28.2326 559.271 27.0298C560.247 25.8175 561.525 25.5145 563.05 26.3668C564.111 26.9635 565.067 27.7875 566.024 28.5451C567.122 29.4164 568.174 30.3635 569.272 31.2348C570.778 32.4282 571.886 33.8393 572.151 36.1691V36.1597Z" fill="#BCA075"/>
<path d="M514.18 35.8378C514.768 37.0027 515.137 38.1013 515.8 38.9726C516.974 40.5069 518.348 41.8897 519.598 43.3576C520.289 44.1721 520.981 45.0529 520.09 46.161C519.427 46.985 517.704 47.288 516.681 46.6535C515.952 46.1894 515.317 45.5454 514.701 44.9203C512.722 42.922 510.78 40.8858 508.82 38.8779C506.954 36.9743 506.86 35.6673 508.555 33.6027C510.638 31.0645 513.006 28.8578 515.999 27.4182C516.472 27.1909 516.937 26.8784 517.438 26.7932C518.689 26.5848 519.484 27.6361 518.831 28.7442C518.13 29.947 517.116 30.9698 516.34 32.1347C515.573 33.2807 514.938 34.5119 514.18 35.8283V35.8378Z" fill="#BCA075"/>
<path d="M565.238 0.729183C564.726 0.435588 563.637 0.956483 562.832 1.3069C562.406 1.48685 562.018 2.03616 561.667 2.47181C557.898 7.22616 553.92 11.829 550.444 16.8012C546.183 22.8909 542.337 29.2932 538.312 35.5629C538.038 35.989 537.754 36.4058 537.479 36.8319L537.384 36.9172C536.93 37.5328 536.475 38.1389 536.049 38.764C531.796 45.0147 527.819 51.4644 523.803 57.8761C521.35 61.797 518.992 65.7842 516.672 69.7809C515.885 71.1352 515.724 72.518 516.719 73.4935C517.827 74.5826 519.106 73.7492 520.081 72.679C522.932 69.5536 526.038 66.5514 528.377 63.0472C533.075 56.0104 537.337 48.6799 541.788 41.4726C542.319 40.6203 551.562 25.0218 552.13 24.1695C552.841 23.2129 553.551 22.2469 554.261 21.2903C557.339 17.1232 560.645 13.1265 563.59 8.86462C564.745 7.19775 565.333 5.02893 565.891 3.059C566.109 2.29187 565.768 1.05119 565.247 0.748125L565.238 0.729183Z" fill="#BCA075"/>
<path d="M552.073 0.76709C551.571 0.454553 550.738 0.587145 550.122 0.65344C549.791 0.691324 549.573 0.965977 549.365 1.19328C547.111 3.59886 544.648 5.85292 542.688 8.4574C540.292 11.6585 538.322 15.1533 536.162 18.5154C536.02 18.7427 535.859 18.97 535.708 19.1878L535.641 19.2257C535.386 19.5383 535.111 19.8508 534.884 20.1917C532.535 23.4971 530.451 26.9918 528.33 30.4581C527.032 32.5796 525.839 34.7579 524.674 36.9646C524.276 37.7033 524.428 38.603 525.498 39.4743C526.692 40.4403 527.62 40.1468 528.235 39.6353C530.044 38.1389 532.09 36.7657 533.368 34.9094C535.945 31.1684 538.085 27.1338 540.405 23.2319C540.68 22.7678 545.377 14.2346 545.69 13.78C546.097 13.2875 546.514 12.7856 546.921 12.2931C548.702 10.1432 550.719 8.14486 552.367 5.90027C553.011 5.01949 553.058 3.6841 553.125 2.48131C553.153 2.01724 552.594 1.09857 552.073 0.786032V0.76709Z" fill="#BCA075"/>
<path d="M555.814 37.0215C555.312 36.7089 554.479 36.8415 553.863 36.9078C553.532 36.9457 553.314 37.2204 553.105 37.4477C550.851 39.8533 548.389 42.1073 546.428 44.7118C544.032 47.9129 542.062 51.4077 539.903 54.7698C539.761 54.9971 539.6 55.2244 539.448 55.4422L539.382 55.4801C539.126 55.7926 538.852 56.1052 538.624 56.4461C536.276 59.7514 534.192 63.2462 532.071 66.7125C530.773 68.834 529.58 71.0122 528.415 73.2189C528.017 73.9577 528.169 74.8574 529.239 75.7287C530.432 76.6947 531.36 76.4011 531.976 75.8897C533.785 74.3933 535.831 73.0201 537.109 71.1638C539.685 67.4228 541.826 63.3882 544.146 59.4863C544.421 59.0222 549.118 50.489 549.431 50.0344C549.838 49.5419 550.255 49.04 550.662 48.5475C552.442 46.3976 554.46 44.3992 556.108 42.1547C556.752 41.2739 556.799 39.9385 556.865 38.7357C556.894 38.2716 556.335 37.353 555.814 37.0404V37.0215Z" fill="#BCA075"/>
<path d="M723.789 35.26C723.154 36.6522 722.851 38.016 722.046 38.9631C719.432 42.0506 716.714 45.0718 713.882 47.9604C708.579 53.3777 703.161 58.7003 697.782 64.0418C696.977 64.8469 696.144 65.6708 695.177 66.2485C693.634 67.1672 692.298 66.2675 692.459 64.487C692.62 62.7443 693.52 61.3616 694.77 60.1493C698.691 56.3326 702.593 52.5064 706.448 48.6328C708.37 46.6913 710.17 44.6267 712.017 42.6094C712.253 42.3537 712.462 42.0601 712.642 41.757C716.638 35.4115 715.246 32.6271 710.624 28.7725C704.942 24.0371 699.307 19.2449 693.709 14.4147C692.043 12.9752 690.527 11.3651 689.021 9.7551C688.264 8.95008 687.307 8.0693 688.179 6.75286C688.804 5.80577 690.546 5.14282 691.749 5.73001C693.236 6.45926 694.628 7.42528 695.926 8.46707C699.439 11.2799 702.858 14.2064 706.353 17.0382C709.365 19.4816 712.547 21.7262 715.445 24.3023C717.803 26.4048 719.972 28.763 721.98 31.2065C722.87 32.2862 723.183 33.8489 723.789 35.2505V35.26Z" fill="#BCA075"/>
<path d="M596.416 36.368C596.889 35.4494 597.23 34.4076 597.874 33.631C599.219 32.0115 600.744 30.5435 602.183 28.9903C606.133 24.7284 609.921 20.2866 614.069 16.2331C617.46 12.9278 621.276 10.0581 624.913 6.99903C625.245 6.7149 625.633 6.36448 626.021 6.31713C626.76 6.23189 627.773 6.06142 628.219 6.44972C628.673 6.84749 628.929 7.99346 628.692 8.58065C628.095 10.1055 627.451 11.7913 626.334 12.9088C623.464 15.7595 620.282 18.2882 617.289 21.0253C613.918 24.1128 610.508 27.1813 607.335 30.4772C606.104 31.7557 605.365 33.5741 604.627 35.241C603.85 37.0026 604.229 38.7168 605.555 40.1469C606.275 40.9235 607.023 41.6622 607.79 42.3915C612.592 46.9375 617.554 51.3225 622.138 56.0768C624.421 58.4445 626.059 61.4562 627.868 64.2501C628.484 65.2067 628.815 66.4095 627.575 67.3187C626.457 68.1332 625.33 67.8774 624.421 67.0724C621.712 64.6858 619.022 62.2613 616.427 59.761C612.175 55.6601 607.885 51.5971 603.831 47.3068C601.482 44.8255 599.531 41.9558 597.505 39.1903C596.955 38.4421 596.804 37.4098 596.425 36.3586L596.416 36.368Z" fill="#BCA075"/>
<path d="M611.152 35.7051C611.843 34.5213 612.317 33.1007 613.264 32.1725C617.848 27.6644 622.555 23.2794 627.224 18.866C628.181 17.9568 629.175 17.076 630.188 16.2426C631.126 15.4755 632.12 15.4092 633.03 16.3184C633.825 17.1139 633.901 18.0231 633.266 18.9513C632.234 20.4855 631.249 22.0672 630.113 23.5162C627.773 26.49 625.5 29.5302 622.915 32.2862C619.894 35.5062 619.657 38.1297 623.152 41.5392C626.675 44.9865 629.923 48.718 633.257 52.3643C633.901 53.0746 634.356 53.9554 634.905 54.7509C635.492 55.6033 635.956 56.6925 635.085 57.3744C634.356 57.9521 633.134 58.2836 632.215 58.1604C631.249 58.0279 630.321 57.2702 629.469 56.6735C626.116 54.3248 623.407 51.3036 620.812 48.1782C617.999 44.7971 615.168 41.416 612.383 37.9971C611.9 37.4099 611.645 36.6333 611.143 35.6957L611.152 35.7051Z" fill="#BCA075"/>
<path d="M686.777 14.4241C687.439 14.7366 688.32 14.9829 688.993 15.4943C692.156 17.8809 695.329 20.2392 697.829 23.4024C699.297 25.2587 701.172 26.7835 702.82 28.4977C703.672 29.388 704.515 30.3066 705.216 31.3105C707.205 34.1518 707.167 36.2164 705.339 39.105C702.991 42.8081 699.628 45.5736 696.55 48.5948C694.221 50.8773 691.739 52.9987 689.286 55.1581C687.932 56.3514 687.089 56.3703 686.066 55.4138C684.93 54.353 684.835 53.3302 686.047 51.9569C688.661 48.9736 691.36 46.0661 694.041 43.1396C695.111 41.9652 696.276 40.8855 697.308 39.6827C700.102 36.4343 700.055 33.0342 696.939 30.0509C694.524 27.74 691.862 25.6849 689.286 23.5445C687.657 22.1901 685.943 20.94 684.361 19.5478C683.632 18.9038 682.429 18.3829 682.865 17.0191C683.282 15.7216 684.276 15.0397 685.555 14.7271C685.896 14.6419 686.237 14.5661 686.777 14.4335V14.4241Z" fill="#BCA075"/>
<path d="M691.275 35.7527C691.076 36.1978 690.82 36.9365 690.423 37.5995C688.216 41.312 684.797 43.8786 681.634 46.6725C681.226 47.0324 680.099 47.2787 679.891 47.0514C679.361 46.4642 678.745 45.4697 678.906 44.8257C679.209 43.5945 679.91 42.3917 680.677 41.3499C681.454 40.2987 682.514 39.4558 683.452 38.5276C685.157 36.8323 685.81 34.512 682.874 33.2997C681.369 32.6841 680.033 31.5097 678.83 30.3732C677.457 29.0757 677.429 27.8256 678.395 26.6228C679.37 25.4105 680.649 25.1075 682.173 25.9598C683.234 26.5565 684.191 27.3805 685.147 28.1381C686.246 29.0094 687.297 29.9565 688.396 30.8278C689.902 32.0212 691.01 33.4323 691.275 35.7621V35.7527Z" fill="#BCA075"/>
<path d="M633.314 35.4399C633.901 36.6048 634.27 37.7034 634.933 38.5747C636.108 40.109 637.481 41.4917 638.731 42.9597C639.422 43.7742 640.114 44.655 639.224 45.763C638.561 46.587 636.837 46.8901 635.814 46.2555C635.085 45.7915 634.45 45.1474 633.835 44.5224C631.855 42.524 629.914 40.4878 627.953 38.48C626.088 36.5764 625.993 35.2694 627.688 33.2047C629.772 30.6666 632.139 28.4599 635.132 27.0203C635.606 26.793 636.07 26.4805 636.572 26.3952C637.822 26.1869 638.617 27.2381 637.964 28.3462C637.263 29.549 636.25 30.5719 635.473 31.7368C634.706 32.8827 634.071 34.1139 633.314 35.4304V35.4399Z" fill="#BCA075"/>
<path d="M684.362 0.322201C683.85 0.0286057 682.761 0.549501 681.956 0.899921C681.53 1.07987 681.142 1.62917 680.791 2.06483C677.022 6.81918 673.044 11.422 669.568 16.3942C665.307 22.4839 661.461 28.8862 657.436 35.1559C657.162 35.5821 656.878 35.9988 656.603 36.425L656.508 36.5102C656.054 37.1258 655.599 37.7319 655.173 38.357C650.92 44.6077 646.943 51.0574 642.927 57.4691C640.474 61.39 638.116 65.3773 635.796 69.3739C635.01 70.7283 634.848 72.111 635.843 73.0865C636.951 74.1756 638.23 73.3422 639.205 72.272C642.056 69.1466 645.162 66.1444 647.501 62.6402C652.199 55.6034 656.461 48.273 660.912 41.0657C661.443 40.2133 670.686 24.6148 671.254 23.7625C671.965 22.8059 672.675 21.8399 673.385 20.8833C676.463 16.7162 679.769 12.7195 682.714 8.45763C683.869 6.79077 684.457 4.62195 685.015 2.65202C685.233 1.88489 684.892 0.644209 684.371 0.341143L684.362 0.322201Z" fill="#BCA075"/>
<path d="M671.207 0.369629C670.705 0.0570923 669.871 0.189684 669.256 0.255979C668.924 0.293863 668.706 0.568516 668.498 0.795816C666.244 3.2014 663.781 5.45546 661.821 8.05993C659.425 11.2611 657.455 14.7558 655.296 18.1179C655.154 18.3452 654.993 18.5725 654.841 18.7904L654.775 18.8283C654.519 19.1408 654.244 19.4533 654.017 19.7943C651.668 23.0996 649.585 26.5943 647.463 30.0606C646.166 32.1821 644.972 34.3604 643.808 36.5671C643.41 37.3058 643.561 38.2055 644.631 39.0769C645.825 40.0429 646.753 39.7493 647.369 39.2379C649.177 37.7415 651.223 36.3682 652.502 34.5119C655.078 30.771 657.218 26.7364 659.539 22.8344C659.813 22.3703 664.511 13.8371 664.823 13.3825C665.23 12.8901 665.647 12.3881 666.054 11.8956C667.835 9.74574 669.852 7.7474 671.5 5.50281C672.144 4.62203 672.192 3.28664 672.258 2.08385C672.286 1.61978 671.728 0.701108 671.207 0.388571V0.369629Z" fill="#BCA075"/>
<path d="M674.947 36.6145C674.445 36.302 673.612 36.4346 672.996 36.5009C672.665 36.5387 672.447 36.8134 672.239 37.0407C669.985 39.4463 667.522 41.7003 665.562 44.3048C663.166 47.5059 661.196 51.0007 659.036 54.3628C658.894 54.5901 658.733 54.8174 658.582 55.0352L658.515 55.0731C658.26 55.3857 657.985 55.6982 657.758 56.0391C655.409 59.3445 653.326 62.8392 651.204 66.3055C649.907 68.427 648.713 70.6053 647.548 72.812C647.15 73.5507 647.302 74.4504 648.372 75.3217C649.566 76.2878 650.494 75.9942 651.109 75.4827C652.918 73.9863 654.964 72.6131 656.242 70.7568C658.819 67.0158 660.959 62.9813 663.279 59.0793C663.554 58.6152 668.251 50.082 668.564 49.6274C668.971 49.1349 669.388 48.633 669.795 48.1405C671.576 45.9906 673.593 43.9923 675.241 41.7477C675.885 40.8669 675.932 39.5315 675.999 38.3287C676.027 37.8647 675.468 36.946 674.947 36.6334V36.6145Z" fill="#BCA075"/>
<path d="M843.584 35.2696C842.949 36.6524 842.637 38.0256 841.832 38.9727C839.208 42.0507 836.481 45.0624 833.639 47.951C828.317 53.3494 822.89 58.6531 817.482 63.9757C816.668 64.7712 815.834 65.6046 814.868 66.1729C813.325 67.0821 811.989 66.1824 812.16 64.4018C812.33 62.6592 813.23 61.2859 814.48 60.0737C818.41 56.2759 822.331 52.4591 826.195 48.5951C828.127 46.663 829.927 44.5984 831.783 42.5906C832.02 42.3348 832.228 42.0412 832.418 41.7477C836.443 35.4211 835.051 32.6273 830.448 28.7632C824.784 24.0088 819.168 19.1976 813.58 14.3486C811.923 12.909 810.408 11.2895 808.911 9.66999C808.163 8.8555 807.206 7.97471 808.078 6.66774C808.712 5.72066 810.455 5.06717 811.648 5.66383C813.126 6.40256 814.518 7.37805 815.815 8.41984C819.32 11.2421 822.729 14.1876 826.214 17.0288C829.217 19.4818 832.399 21.7358 835.278 24.3213C837.636 26.4333 839.786 28.801 841.794 31.2445C842.684 32.3242 842.987 33.8869 843.584 35.298V35.2696Z" fill="#BCA075"/>
<path d="M716.211 35.9515C716.684 35.0329 717.025 34.0005 717.679 33.2239C719.033 31.6044 720.558 30.1459 721.997 28.6022C725.966 24.3498 729.763 19.9269 733.931 15.8829C737.331 12.587 741.157 9.72684 744.803 6.68671C745.135 6.41206 745.523 6.05216 745.911 6.00481C746.65 5.91957 747.663 5.75857 748.108 6.14687C748.563 6.54465 748.809 7.69062 748.572 8.28728C747.966 9.81208 747.322 11.4979 746.195 12.606C743.316 15.4472 740.124 17.9665 737.122 20.694C733.732 23.7721 730.322 26.8311 727.14 30.1175C725.909 31.3961 725.161 33.205 724.412 34.8813C723.636 36.6334 724.005 38.3477 725.322 39.7872C726.032 40.5638 726.79 41.312 727.557 42.0413C732.339 46.6062 737.293 51.0007 741.858 55.774C744.131 58.1511 745.76 61.1629 747.559 63.9662C748.175 64.9228 748.506 66.135 747.247 67.0348C746.12 67.8493 745.002 67.5841 744.093 66.7791C741.394 64.3829 738.713 61.9489 736.118 59.4392C731.875 55.3288 727.604 51.2469 723.569 46.9472C721.23 44.4563 719.289 41.5867 717.271 38.8117C716.732 38.0635 716.58 37.0312 716.201 35.9705L716.211 35.9515Z" fill="#BCA075"/>
<path d="M730.957 35.3356C731.649 34.1518 732.132 32.7406 733.088 31.803C737.682 27.3044 742.407 22.9383 747.096 18.5439C748.062 17.6441 749.046 16.7633 750.069 15.9299C751.007 15.1628 752.001 15.0965 752.911 16.0151C753.706 16.8202 753.772 17.7199 753.138 18.648C752.096 20.1823 751.111 21.7545 749.965 23.2035C747.616 26.1679 745.324 29.1985 742.739 31.9451C739.708 35.1557 739.462 37.7791 742.947 41.2075C746.461 44.6644 749.7 48.4148 753.015 52.0706C753.659 52.7809 754.104 53.6711 754.653 54.4667C755.24 55.3285 755.695 56.4082 754.824 57.0901C754.094 57.6678 752.873 57.9993 751.945 57.8667C750.979 57.7246 750.06 56.9764 749.198 56.3703C745.855 54.0121 743.156 50.9814 740.57 47.8466C737.767 44.456 734.944 41.0655 732.179 37.637C731.696 37.0404 731.44 36.2732 730.948 35.3356H730.957Z" fill="#BCA075"/>
<path d="M806.648 14.3201C807.311 14.6326 808.192 14.8883 808.864 15.3997C812.027 17.7959 815.181 20.1636 817.672 23.3458C819.131 25.202 821.006 26.7363 822.654 28.4505C823.506 29.3408 824.34 30.2595 825.04 31.2728C827.02 34.1236 826.982 36.1882 825.135 39.0673C822.767 42.7609 819.405 45.5169 816.318 48.5287C813.978 50.8017 811.488 52.9231 809.025 55.0635C807.661 56.2474 806.828 56.2663 805.805 55.3003C804.669 54.2301 804.583 53.2167 805.796 51.8435C808.419 48.8696 811.128 45.9715 813.817 43.0545C814.897 41.8896 816.062 40.8005 817.104 39.6072C819.907 36.3681 819.869 32.9681 816.763 29.9753C814.357 27.655 811.705 25.5903 809.129 23.4405C807.51 22.0861 805.796 20.8265 804.214 19.4248C803.485 18.7714 802.282 18.2505 802.718 16.8961C803.134 15.5986 804.129 14.9262 805.407 14.6137C805.748 14.5284 806.089 14.4527 806.629 14.3295L806.648 14.3201Z" fill="#BCA075"/>
<path d="M811.071 35.6579C810.872 36.1031 810.607 36.8418 810.218 37.4953C807.993 41.1984 804.574 43.7555 801.401 46.5304C800.984 46.8903 799.857 47.1271 799.658 46.8998C799.128 46.3031 798.522 45.3182 798.683 44.6741C798.995 43.4429 799.696 42.2401 800.463 41.1984C801.24 40.1471 802.301 39.3137 803.248 38.3855C804.962 36.6997 805.616 34.3794 802.68 33.1576C801.183 32.5326 799.848 31.3582 798.645 30.2217C797.272 28.9242 797.253 27.674 798.228 26.4712C799.204 25.259 800.492 24.9654 802.007 25.8272C803.068 26.4333 804.015 27.2478 804.981 28.015C806.08 28.8958 807.121 29.8428 808.22 30.7236C809.726 31.9169 810.825 33.3376 811.09 35.6674L811.071 35.6579Z" fill="#BCA075"/>
<path d="M753.109 35.1464C753.696 36.3113 754.056 37.4099 754.719 38.2907C755.884 39.825 757.257 41.2077 758.498 42.6946C759.19 43.5186 759.881 44.3994 758.981 45.498C758.309 46.322 756.585 46.625 755.572 45.981C754.842 45.5169 754.217 44.8729 753.602 44.2479C751.632 42.24 749.7 40.2038 747.739 38.1865C745.883 36.2734 745.788 34.9665 747.484 32.9113C749.577 30.3826 751.954 28.1854 754.947 26.7553C755.42 26.528 755.884 26.2249 756.386 26.1397C757.636 25.9313 758.432 26.992 757.769 28.1001C757.059 29.3029 756.045 30.3163 755.269 31.4812C754.501 32.6272 753.857 33.8489 753.09 35.1653L753.109 35.1464Z" fill="#BCA075"/>
<path d="M804.28 0.199276C803.769 -0.10379 802.679 0.426576 801.874 0.767525C801.448 0.947471 801.05 1.48731 800.709 1.92297C796.931 6.66785 792.934 11.2517 789.439 16.2144C785.158 22.2947 781.294 28.6875 777.241 34.9382C776.966 35.3644 776.682 35.7811 776.398 36.1979L776.294 36.2831C775.839 36.8892 775.385 37.4954 774.958 38.1299C770.687 44.3712 766.681 50.8019 762.646 57.1947C760.174 61.1061 757.807 65.0839 755.477 69.0805C754.691 70.4254 754.52 71.8081 755.515 72.7931C756.623 73.8917 757.901 73.0583 758.877 71.9976C761.747 68.8817 764.853 65.8889 767.202 62.3941C771.928 55.3763 776.208 48.0553 780.688 40.867C781.219 40.0146 790.519 24.454 791.087 23.5922C791.797 22.6356 792.517 21.6791 793.228 20.7225C796.324 16.5648 799.639 12.5776 802.604 8.32524C803.759 6.65837 804.356 4.49903 804.924 2.5291C805.142 1.76196 804.81 0.521284 804.28 0.208747V0.199276Z" fill="#BCA075"/>
<path d="M791.125 0.199228C790.623 -0.113309 789.79 0.0098117 789.174 0.0761074C788.843 0.113991 788.625 0.388644 788.416 0.606473C786.153 3.00259 783.681 5.24717 781.72 7.85165C779.305 11.0433 777.335 14.5286 775.157 17.8812C775.006 18.1085 774.854 18.3264 774.703 18.5537L774.636 18.5916C774.371 18.9041 774.106 19.2166 773.869 19.5481C771.501 22.8534 769.408 26.3387 767.277 29.7955C765.971 31.9075 764.777 34.0858 763.603 36.2831C763.205 37.0218 763.357 37.9215 764.417 38.7928C765.601 39.7683 766.529 39.4747 767.154 38.9633C768.963 37.4764 771.018 36.1126 772.306 34.2468C774.901 30.5153 777.042 26.4902 779.381 22.5882C779.656 22.1242 784.391 13.6099 784.704 13.1458C785.111 12.6534 785.528 12.1609 785.944 11.6684C787.734 9.51851 789.752 7.53911 791.409 5.29453C792.053 4.41374 792.11 3.08783 792.186 1.87556C792.214 1.41149 791.655 0.492823 791.144 0.180286L791.125 0.199228Z" fill="#BCA075"/>
<path d="M794.743 36.4629C794.241 36.1504 793.407 36.2735 792.792 36.3398C792.46 36.3777 792.242 36.6523 792.034 36.8701C789.77 39.2663 787.299 41.5108 785.338 44.1153C782.923 47.307 780.953 50.7922 778.775 54.1449C778.623 54.3722 778.472 54.59 778.32 54.8173L778.254 54.8552C777.989 55.1678 777.724 55.4803 777.487 55.8118C775.119 59.1171 773.026 62.6024 770.895 66.0592C769.588 68.1712 768.395 70.3495 767.22 72.5467C766.823 73.2854 766.974 74.1852 768.035 75.0565C769.219 76.032 770.147 75.7384 770.772 75.227C772.581 73.74 774.636 72.3762 775.924 70.5105C778.519 66.779 780.66 62.7539 782.999 58.8519C783.273 58.3878 788.009 49.8736 788.321 49.4095C788.729 48.917 789.145 48.4245 789.562 47.9321C791.352 45.7822 793.369 43.8028 795.027 41.5582C795.671 40.6774 795.728 39.3515 795.803 38.1392C795.832 37.6752 795.273 36.7565 794.762 36.444L794.743 36.4629Z" fill="#BCA075"/>
<path d="M962.718 35.2696C962.083 36.6524 961.771 38.0256 960.966 38.9727C958.342 42.0507 955.615 45.0624 952.774 47.951C947.451 53.3494 942.024 58.6531 936.616 63.9757C935.802 64.7712 934.969 65.6046 934.003 66.1729C932.459 67.0821 931.123 66.1824 931.294 64.4018C931.464 62.6592 932.364 61.2859 933.614 60.0737C937.545 56.2759 941.466 52.4591 945.33 48.5951C947.262 46.663 949.061 44.5984 950.917 42.5906C951.154 42.3348 951.362 42.0412 951.552 41.7477C955.577 35.4211 954.185 32.6273 949.582 28.7632C943.918 24.0088 938.302 19.1976 932.714 14.3486C931.057 12.909 929.542 11.2895 928.045 9.66999C927.297 8.8555 926.341 7.97471 927.212 6.66774C927.847 5.72066 929.589 5.06717 930.782 5.66383C932.26 6.40256 933.652 7.37805 934.95 8.41984C938.454 11.2421 941.863 14.1876 945.349 17.0288C948.351 19.4818 951.533 21.7358 954.412 24.3213C956.77 26.4333 958.92 28.801 960.928 31.2445C961.818 32.3242 962.121 33.8869 962.718 35.298V35.2696Z" fill="#BCA075"/>
<path d="M835.344 35.9515C835.818 35.0329 836.159 34.0005 836.812 33.2239C838.167 31.6044 839.692 30.1459 841.131 28.6022C845.099 24.3498 848.897 19.9269 853.064 15.8829C856.464 12.587 860.291 9.72684 863.937 6.68671C864.268 6.41206 864.657 6.05216 865.045 6.00481C865.784 5.91957 866.797 5.75857 867.242 6.14687C867.697 6.54465 867.943 7.69062 867.706 8.28728C867.1 9.81208 866.456 11.4979 865.329 12.606C862.45 15.4472 859.258 17.9665 856.256 20.694C852.865 23.7721 849.456 26.8311 846.274 30.1175C845.043 31.3961 844.294 33.205 843.546 34.8813C842.77 36.6334 843.139 38.3477 844.455 39.7872C845.166 40.5638 845.923 41.312 846.69 42.0413C851.473 46.6062 856.426 51.0007 860.991 55.774C863.264 58.1511 864.893 61.1629 866.693 63.9662C867.308 64.9228 867.64 66.135 866.38 67.0348C865.253 67.8493 864.136 67.5841 863.227 66.7791C860.527 64.3829 857.847 61.9489 855.252 59.4392C851.009 55.3288 846.738 51.2469 842.703 46.9472C840.364 44.4563 838.422 41.5867 836.405 38.8117C835.865 38.0635 835.714 37.0312 835.335 35.9705L835.344 35.9515Z" fill="#BCA075"/>
<path d="M850.082 35.3356C850.773 34.1518 851.256 32.7406 852.213 31.803C856.806 27.3044 861.532 22.9383 866.22 18.5439C867.186 17.6441 868.171 16.7633 869.194 15.9299C870.131 15.1628 871.126 15.0965 872.035 16.0151C872.831 16.8202 872.897 17.7199 872.262 18.648C871.221 20.1823 870.236 21.7545 869.09 23.2035C866.741 26.1679 864.449 29.1985 861.863 31.9451C858.833 35.1557 858.587 37.7791 862.072 41.2075C865.585 44.6644 868.824 48.4148 872.139 52.0706C872.783 52.7809 873.228 53.6711 873.778 54.4667C874.365 55.3285 874.82 56.4082 873.948 57.0901C873.219 57.6678 871.997 57.9993 871.069 57.8667C870.103 57.7246 869.184 56.9764 868.323 56.3703C864.979 54.0121 862.28 50.9814 859.695 47.8466C856.891 44.456 854.069 41.0655 851.303 37.637C850.82 37.0404 850.565 36.2732 850.072 35.3356H850.082Z" fill="#BCA075"/>
<path d="M925.782 14.3201C926.445 14.6326 927.326 14.8883 927.998 15.3997C931.161 17.7959 934.315 20.1636 936.806 23.3458C938.264 25.202 940.14 26.7363 941.787 28.4505C942.64 29.3408 943.473 30.2595 944.174 31.2728C946.154 34.1236 946.116 36.1882 944.269 39.0673C941.901 42.7609 938.539 45.5169 935.451 48.5287C933.112 50.8017 930.621 52.9231 928.159 55.0635C926.795 56.2474 925.962 56.2663 924.939 55.3003C923.802 54.2301 923.717 53.2167 924.929 51.8435C927.553 48.8696 930.262 45.9715 932.951 43.0545C934.031 41.8896 935.196 40.8005 936.238 39.6072C939.041 36.3681 939.003 32.9681 935.897 29.9753C933.491 27.655 930.839 25.5903 928.263 23.4405C926.644 22.0861 924.929 20.8265 923.348 19.4248C922.619 18.7714 921.416 18.2505 921.851 16.8961C922.268 15.5986 923.263 14.9262 924.541 14.6137C924.882 14.5284 925.223 14.4527 925.763 14.3295L925.782 14.3201Z" fill="#BCA075"/>
<path d="M930.205 35.6579C930.006 36.1031 929.741 36.8418 929.353 37.4953C927.127 41.1984 923.708 43.7555 920.535 46.5304C920.119 46.8903 918.992 47.1271 918.793 46.8998C918.262 46.3031 917.656 45.3182 917.817 44.6741C918.13 43.4429 918.831 42.2401 919.598 41.1984C920.374 40.1471 921.435 39.3137 922.382 38.3855C924.096 36.6997 924.75 34.3794 921.814 33.1576C920.318 32.5326 918.982 31.3582 917.779 30.2217C916.406 28.9242 916.387 27.674 917.363 26.4712C918.338 25.259 919.626 24.9654 921.142 25.8272C922.202 26.4333 923.149 27.2478 924.115 28.015C925.214 28.8958 926.256 29.8428 927.354 30.7236C928.86 31.9169 929.959 33.3376 930.224 35.6674L930.205 35.6579Z" fill="#BCA075"/>
<path d="M872.242 35.1464C872.829 36.3113 873.189 37.4099 873.852 38.2907C875.017 39.825 876.39 41.2077 877.631 42.6946C878.322 43.5186 879.014 44.3994 878.114 45.498C877.442 46.322 875.718 46.625 874.705 45.981C873.975 45.5169 873.35 44.8729 872.735 44.2479C870.765 42.24 868.833 40.2038 866.872 38.1865C865.016 36.2734 864.921 34.9665 866.616 32.9113C868.709 30.3826 871.087 28.1854 874.079 26.7553C874.553 26.528 875.017 26.2249 875.519 26.1397C876.769 25.9313 877.565 26.992 876.902 28.1001C876.191 29.3029 875.178 30.3163 874.401 31.4812C873.634 32.6272 872.99 33.8489 872.223 35.1653L872.242 35.1464Z" fill="#BCA075"/>
<path d="M923.414 0.199276C922.902 -0.10379 921.813 0.426576 921.008 0.767525C920.582 0.947471 920.184 1.48731 919.843 1.92297C916.064 6.66785 912.068 11.2517 908.573 16.2144C904.292 22.2947 900.428 28.6875 896.375 34.9382C896.1 35.3644 895.816 35.7811 895.532 36.1979L895.427 36.2831C894.973 36.8892 894.518 37.4954 894.092 38.1299C889.821 44.3712 885.815 50.8019 881.78 57.1947C879.308 61.1061 876.94 65.0839 874.611 69.0805C873.825 70.4254 873.654 71.8081 874.649 72.7931C875.757 73.8917 877.035 73.0583 878.011 71.9976C880.88 68.8817 883.987 65.8889 886.335 62.3941C891.061 55.3763 895.342 48.0553 899.822 40.867C900.352 40.0146 909.653 24.454 910.221 23.5922C910.931 22.6356 911.651 21.6791 912.361 20.7225C915.458 16.5648 918.773 12.5776 921.737 8.32524C922.893 6.65837 923.49 4.49903 924.058 2.5291C924.276 1.76196 923.944 0.521284 923.414 0.208747V0.199276Z" fill="#BCA075"/>
<path d="M910.249 0.199228C909.747 -0.113309 908.914 0.0098117 908.298 0.0761074C907.967 0.113991 907.749 0.388644 907.54 0.606473C905.277 3.00259 902.805 5.24717 900.844 7.85165C898.429 11.0433 896.46 14.5286 894.281 17.8812C894.13 18.1085 893.978 18.3264 893.827 18.5537L893.76 18.5916C893.495 18.9041 893.23 19.2166 892.993 19.5481C890.626 22.8534 888.532 26.3387 886.401 29.7955C885.095 31.9075 883.901 34.0858 882.727 36.2831C882.329 37.0218 882.481 37.9215 883.541 38.7928C884.725 39.7683 885.653 39.4747 886.278 38.9633C888.087 37.4764 890.142 36.1126 891.431 34.2468C894.026 30.5153 896.166 26.4902 898.505 22.5882C898.78 22.1242 903.515 13.6099 903.828 13.1458C904.235 12.6534 904.652 12.1609 905.069 11.6684C906.858 9.51851 908.876 7.53911 910.533 5.29453C911.177 4.41374 911.234 3.08783 911.31 1.87556C911.338 1.41149 910.779 0.492823 910.268 0.180286L910.249 0.199228Z" fill="#BCA075"/>
<path d="M913.867 36.4629C913.365 36.1504 912.532 36.2735 911.916 36.3398C911.585 36.3777 911.367 36.6523 911.159 36.8701C908.895 39.2663 906.423 41.5108 904.463 44.1153C902.048 47.307 900.078 50.7922 897.899 54.1449C897.748 54.3722 897.596 54.59 897.445 54.8173L897.379 54.8552C897.113 55.1678 896.848 55.4803 896.611 55.8118C894.244 59.1171 892.151 62.6024 890.02 66.0592C888.713 68.1712 887.519 70.3495 886.345 72.5467C885.947 73.2854 886.099 74.1852 887.159 75.0565C888.343 76.032 889.271 75.7384 889.897 75.227C891.705 73.74 893.761 72.3762 895.049 70.5105C897.644 66.779 899.784 62.7539 902.123 58.8519C902.398 58.3878 907.133 49.8736 907.446 49.4095C907.853 48.917 908.27 48.4245 908.687 47.9321C910.477 45.7822 912.494 43.8028 914.151 41.5582C914.795 40.6774 914.852 39.3515 914.928 38.1392C914.956 37.6752 914.398 36.7565 913.886 36.444L913.867 36.4629Z" fill="#BCA075"/>
<path d="M1081.24 35.2696C1080.61 36.6524 1080.3 38.0256 1079.49 38.9727C1076.87 42.0507 1074.14 45.0624 1071.3 47.951C1065.98 53.3494 1060.55 58.6531 1055.14 63.9757C1054.33 64.7712 1053.49 65.6046 1052.53 66.1729C1050.99 67.0821 1049.65 66.1824 1049.82 64.4018C1049.99 62.6592 1050.89 61.2859 1052.14 60.0737C1056.07 56.2759 1059.99 52.4591 1063.86 48.5951C1065.79 46.663 1067.59 44.5984 1069.44 42.5906C1069.68 42.3348 1069.89 42.0412 1070.08 41.7477C1074.1 35.4211 1072.71 32.6273 1068.11 28.7632C1062.44 24.0088 1056.83 19.1976 1051.24 14.3486C1049.58 12.909 1048.07 11.2895 1046.57 9.66999C1045.82 8.8555 1044.87 7.97471 1045.74 6.66774C1046.37 5.72066 1048.12 5.06717 1049.31 5.66383C1050.79 6.40256 1052.18 7.37805 1053.48 8.41984C1056.98 11.2421 1060.39 14.1876 1063.87 17.0288C1066.88 19.4818 1070.06 21.7358 1072.94 24.3213C1075.3 26.4333 1077.45 28.801 1079.45 31.2445C1080.34 32.3242 1080.65 33.8869 1081.24 35.298V35.2696Z" fill="#BCA075"/>
<path d="M953.872 35.9515C954.345 35.0329 954.686 34.0005 955.34 33.2239C956.694 31.6044 958.219 30.1459 959.658 28.6022C963.627 24.3498 967.425 19.9269 971.592 15.8829C974.992 12.587 978.818 9.72684 982.464 6.68671C982.796 6.41206 983.184 6.05216 983.572 6.00481C984.311 5.91957 985.324 5.75857 985.769 6.14687C986.224 6.54465 986.47 7.69062 986.234 8.28728C985.627 9.81208 984.983 11.4979 983.856 12.606C980.977 15.4472 977.786 17.9665 974.783 20.694C971.393 23.7721 967.983 26.8311 964.801 30.1175C963.57 31.3961 962.822 33.205 962.074 34.8813C961.297 36.6334 961.666 38.3477 962.983 39.7872C963.693 40.5638 964.451 41.312 965.218 42.0413C970.001 46.6062 974.954 51.0007 979.519 55.774C981.792 58.1511 983.421 61.1629 985.22 63.9662C985.836 64.9228 986.167 66.135 984.908 67.0348C983.781 67.8493 982.663 67.5841 981.754 66.7791C979.055 64.3829 976.374 61.9489 973.779 59.4392C969.536 55.3288 965.265 51.2469 961.231 46.9472C958.891 44.4563 956.95 41.5867 954.933 38.8117C954.393 38.0635 954.241 37.0312 953.862 35.9705L953.872 35.9515Z" fill="#BCA075"/>
<path d="M968.618 35.3356C969.309 34.1518 969.792 32.7406 970.749 31.803C975.342 27.3044 980.068 22.9383 984.756 18.5439C985.722 17.6441 986.707 16.7633 987.73 15.9299C988.668 15.1628 989.662 15.0965 990.571 16.0151C991.367 16.8202 991.433 17.7199 990.799 18.648C989.757 20.1823 988.772 21.7545 987.626 23.2035C985.277 26.1679 982.985 29.1985 980.4 31.9451C977.369 35.1557 977.123 37.7791 980.608 41.2075C984.122 44.6644 987.361 48.4148 990.675 52.0706C991.319 52.7809 991.765 53.6711 992.314 54.4667C992.901 55.3285 993.356 56.4082 992.484 57.0901C991.755 57.6678 990.533 57.9993 989.605 57.8667C988.639 57.7246 987.721 56.9764 986.859 56.3703C983.515 54.0121 980.816 50.9814 978.231 47.8466C975.427 44.456 972.605 41.0655 969.84 37.637C969.357 37.0404 969.101 36.2732 968.608 35.3356H968.618Z" fill="#BCA075"/>
<path d="M1044.31 14.3201C1044.97 14.6326 1045.85 14.8883 1046.52 15.3997C1049.69 17.7959 1052.84 20.1636 1055.33 23.3458C1056.79 25.202 1058.67 26.7363 1060.31 28.4505C1061.17 29.3408 1062 30.2595 1062.7 31.2728C1064.68 34.1236 1064.64 36.1882 1062.8 39.0673C1060.43 42.7609 1057.07 45.5169 1053.98 48.5287C1051.64 50.8017 1049.15 52.9231 1046.69 55.0635C1045.32 56.2474 1044.49 56.2663 1043.47 55.3003C1042.33 54.2301 1042.24 53.2167 1043.46 51.8435C1046.08 48.8696 1048.79 45.9715 1051.48 43.0545C1052.56 41.8896 1053.72 40.8005 1054.76 39.6072C1057.57 36.3681 1057.53 32.9681 1054.42 29.9753C1052.02 27.655 1049.37 25.5903 1046.79 23.4405C1045.17 22.0861 1043.46 20.8265 1041.87 19.4248C1041.14 18.7714 1039.94 18.2505 1040.38 16.8961C1040.79 15.5986 1041.79 14.9262 1043.07 14.6137C1043.41 14.5284 1043.75 14.4527 1044.29 14.3295L1044.31 14.3201Z" fill="#BCA075"/>
<path d="M1048.73 35.6579C1048.53 36.1031 1048.27 36.8418 1047.88 37.4953C1045.65 41.1984 1042.23 43.7555 1039.06 46.5304C1038.65 46.8903 1037.52 47.1271 1037.32 46.8998C1036.79 46.3031 1036.18 45.3182 1036.34 44.6741C1036.66 43.4429 1037.36 42.2401 1038.12 41.1984C1038.9 40.1471 1039.96 39.3137 1040.91 38.3855C1042.62 36.6997 1043.28 34.3794 1040.34 33.1576C1038.84 32.5326 1037.51 31.3582 1036.31 30.2217C1034.93 28.9242 1034.91 27.674 1035.89 26.4712C1036.86 25.259 1038.15 24.9654 1039.67 25.8272C1040.73 26.4333 1041.68 27.2478 1042.64 28.015C1043.74 28.8958 1044.78 29.8428 1045.88 30.7236C1047.39 31.9169 1048.49 33.3376 1048.75 35.6674L1048.73 35.6579Z" fill="#BCA075"/>
<path d="M990.769 35.1464C991.357 36.3113 991.716 37.4099 992.379 38.2907C993.544 39.825 994.918 41.2077 996.158 42.6946C996.85 43.5186 997.541 44.3994 996.641 45.498C995.969 46.322 994.245 46.625 993.232 45.981C992.503 45.5169 991.878 44.8729 991.262 44.2479C989.292 42.24 987.36 40.2038 985.399 38.1865C983.543 36.2734 983.448 34.9665 985.144 32.9113C987.237 30.3826 989.614 28.1854 992.607 26.7553C993.08 26.528 993.544 26.2249 994.046 26.1397C995.296 25.9313 996.092 26.992 995.429 28.1001C994.719 29.3029 993.705 30.3163 992.929 31.4812C992.162 32.6272 991.518 33.8489 990.75 35.1653L990.769 35.1464Z" fill="#BCA075"/>
<path d="M1041.94 0.199276C1041.43 -0.10379 1040.34 0.426576 1039.53 0.767525C1039.11 0.947471 1038.71 1.48731 1038.37 1.92297C1034.59 6.66785 1030.59 11.2517 1027.1 16.2144C1022.82 22.2947 1018.95 28.6875 1014.9 34.9382C1014.63 35.3644 1014.34 35.7811 1014.06 36.1979L1013.95 36.2831C1013.5 36.8892 1013.04 37.4954 1012.62 38.1299C1008.35 44.3712 1004.34 50.8019 1000.31 57.1947C997.834 61.1061 995.467 65.0839 993.137 69.0805C992.351 70.4254 992.18 71.8081 993.175 72.7931C994.283 73.8917 995.561 73.0583 996.537 71.9976C999.407 68.8817 1002.51 65.8889 1004.86 62.3941C1009.59 55.3763 1013.87 48.0553 1018.35 40.867C1018.88 40.0146 1028.18 24.454 1028.75 23.5922C1029.46 22.6356 1030.18 21.6791 1030.89 20.7225C1033.98 16.5648 1037.3 12.5776 1040.26 8.32524C1041.42 6.65837 1042.02 4.49903 1042.58 2.5291C1042.8 1.76196 1042.47 0.521284 1041.94 0.208747V0.199276Z" fill="#BCA075"/>
<path d="M1028.79 0.199228C1028.28 -0.113309 1027.45 0.0098117 1026.83 0.0761074C1026.5 0.113991 1026.28 0.388644 1026.08 0.606473C1023.81 3.00259 1021.34 5.24717 1019.38 7.85165C1016.97 11.0433 1015 14.5286 1012.82 17.8812C1012.67 18.1085 1012.51 18.3264 1012.36 18.5537L1012.3 18.5916C1012.03 18.9041 1011.77 19.2166 1011.53 19.5481C1009.16 22.8534 1007.07 26.3387 1004.94 29.7955C1003.63 31.9075 1002.44 34.0858 1001.26 36.2831C1000.87 37.0218 1001.02 37.9215 1002.08 38.7928C1003.26 39.7683 1004.19 39.4747 1004.81 38.9633C1006.62 37.4764 1008.68 36.1126 1009.97 34.2468C1012.56 30.5153 1014.7 26.4902 1017.04 22.5882C1017.32 22.1242 1022.05 13.6099 1022.36 13.1458C1022.77 12.6534 1023.19 12.1609 1023.6 11.6684C1025.39 9.51851 1027.41 7.53911 1029.07 5.29453C1029.71 4.41374 1029.77 3.08783 1029.85 1.87556C1029.87 1.41149 1029.32 0.492823 1028.8 0.180286L1028.79 0.199228Z" fill="#BCA075"/>
<path d="M1032.4 36.4629C1031.9 36.1504 1031.07 36.2735 1030.45 36.3398C1030.12 36.3777 1029.9 36.6523 1029.69 36.8701C1027.43 39.2663 1024.96 41.5108 1023 44.1153C1020.58 47.307 1018.61 50.7922 1016.44 54.1449C1016.28 54.3722 1016.13 54.59 1015.98 54.8173L1015.91 54.8552C1015.65 55.1678 1015.38 55.4803 1015.15 55.8118C1012.78 59.1171 1010.69 62.6024 1008.56 66.0592C1007.25 68.1712 1006.06 70.3495 1004.88 72.5467C1004.48 73.2854 1004.63 74.1852 1005.7 75.0565C1006.88 76.032 1007.81 75.7384 1008.43 75.227C1010.24 73.74 1012.3 72.3762 1013.58 70.5105C1016.18 66.779 1018.32 62.7539 1020.66 58.8519C1020.93 58.3878 1025.67 49.8736 1025.98 49.4095C1026.39 48.917 1026.81 48.4245 1027.22 47.9321C1029.01 45.7822 1031.03 43.8028 1032.69 41.5582C1033.33 40.6774 1033.39 39.3515 1033.46 38.1392C1033.49 37.6752 1032.93 36.7565 1032.42 36.444L1032.4 36.4629Z" fill="#BCA075"/>
<path d="M1200.38 35.2696C1199.74 36.6524 1199.43 38.0256 1198.63 38.9727C1196 42.0507 1193.28 45.0624 1190.43 47.951C1185.11 53.3494 1179.68 58.6531 1174.28 63.9757C1173.46 64.7712 1172.63 65.6046 1171.66 66.1729C1170.12 67.0821 1168.78 66.1824 1168.95 64.4018C1169.12 62.6592 1170.02 61.2859 1171.27 60.0737C1175.2 56.2759 1179.13 52.4591 1182.99 48.5951C1184.92 46.663 1186.72 44.5984 1188.58 42.5906C1188.81 42.3348 1189.02 42.0412 1189.21 41.7477C1193.24 35.4211 1191.84 32.6273 1187.24 28.7632C1181.58 24.0088 1175.96 19.1976 1170.37 14.3486C1168.72 12.909 1167.2 11.2895 1165.71 9.66999C1164.96 8.8555 1164 7.97471 1164.87 6.66774C1165.51 5.72066 1167.25 5.06717 1168.44 5.66383C1169.92 6.40256 1171.31 7.37805 1172.61 8.41984C1176.11 11.2421 1179.52 14.1876 1183.01 17.0288C1186.01 19.4818 1189.19 21.7358 1192.07 24.3213C1194.43 26.4333 1196.58 28.801 1198.59 31.2445C1199.48 32.3242 1199.78 33.8869 1200.38 35.298V35.2696Z" fill="#BCA075"/>
<path d="M1073 35.9515C1073.48 35.0329 1073.82 34.0005 1074.47 33.2239C1075.83 31.6044 1077.35 30.1459 1078.79 28.6022C1082.76 24.3498 1086.56 19.9269 1090.72 15.8829C1094.12 12.587 1097.95 9.72684 1101.6 6.68671C1101.93 6.41206 1102.32 6.05216 1102.71 6.00481C1103.44 5.91957 1104.46 5.75857 1104.9 6.14687C1105.36 6.54465 1105.6 7.69062 1105.37 8.28728C1104.76 9.81208 1104.12 11.4979 1102.99 12.606C1100.11 15.4472 1096.92 17.9665 1093.92 20.694C1090.53 23.7721 1087.12 26.8311 1083.93 30.1175C1082.7 31.3961 1081.95 33.205 1081.21 34.8813C1080.43 36.6334 1080.8 38.3477 1082.12 39.7872C1082.83 40.5638 1083.58 41.312 1084.35 42.0413C1089.13 46.6062 1094.09 51.0007 1098.65 55.774C1100.92 58.1511 1102.55 61.1629 1104.35 63.9662C1104.97 64.9228 1105.3 66.135 1104.04 67.0348C1102.91 67.8493 1101.8 67.5841 1100.89 66.7791C1098.19 64.3829 1095.51 61.9489 1092.91 59.4392C1088.67 55.3288 1084.4 51.2469 1080.36 46.9472C1078.02 44.4563 1076.08 41.5867 1074.07 38.8117C1073.53 38.0635 1073.37 37.0312 1073 35.9705L1073 35.9515Z" fill="#BCA075"/>
<path d="M1087.74 35.3356C1088.43 34.1518 1088.92 32.7406 1089.87 31.803C1094.47 27.3044 1099.19 22.9383 1103.88 18.5439C1104.85 17.6441 1105.83 16.7633 1106.85 15.9299C1107.79 15.1628 1108.79 15.0965 1109.7 16.0151C1110.49 16.8202 1110.56 17.7199 1109.92 18.648C1108.88 20.1823 1107.9 21.7545 1106.75 23.2035C1104.4 26.1679 1102.11 29.1985 1099.52 31.9451C1096.49 35.1557 1096.25 37.7791 1099.73 41.2075C1103.25 44.6644 1106.48 48.4148 1109.8 52.0706C1110.44 52.7809 1110.89 53.6711 1111.44 54.4667C1112.03 55.3285 1112.48 56.4082 1111.61 57.0901C1110.88 57.6678 1109.66 57.9993 1108.73 57.8667C1107.76 57.7246 1106.84 56.9764 1105.98 56.3703C1102.64 54.0121 1099.94 50.9814 1097.35 47.8466C1094.55 44.456 1091.73 41.0655 1088.96 37.637C1088.48 37.0404 1088.22 36.2732 1087.73 35.3356H1087.74Z" fill="#BCA075"/>
<path d="M1163.44 14.3201C1164.1 14.6326 1164.98 14.8883 1165.66 15.3997C1168.82 17.7959 1171.97 20.1636 1174.46 23.3458C1175.92 25.202 1177.8 26.7363 1179.45 28.4505C1180.3 29.3408 1181.13 30.2595 1181.83 31.2728C1183.81 34.1236 1183.77 36.1882 1181.93 39.0673C1179.56 42.7609 1176.2 45.5169 1173.11 48.5287C1170.77 50.8017 1168.28 52.9231 1165.82 55.0635C1164.45 56.2474 1163.62 56.2663 1162.6 55.3003C1161.46 54.2301 1161.38 53.2167 1162.59 51.8435C1165.21 48.8696 1167.92 45.9715 1170.61 43.0545C1171.69 41.8896 1172.85 40.8005 1173.9 39.6072C1176.7 36.3681 1176.66 32.9681 1173.56 29.9753C1171.15 27.655 1168.5 25.5903 1165.92 23.4405C1164.3 22.0861 1162.59 20.8265 1161.01 19.4248C1160.28 18.7714 1159.07 18.2505 1159.51 16.8961C1159.93 15.5986 1160.92 14.9262 1162.2 14.6137C1162.54 14.5284 1162.88 14.4527 1163.42 14.3295L1163.44 14.3201Z" fill="#BCA075"/>
<path d="M1167.86 35.6579C1167.67 36.1031 1167.4 36.8418 1167.01 37.4953C1164.79 41.1984 1161.37 43.7555 1158.19 46.5304C1157.78 46.8903 1156.65 47.1271 1156.45 46.8998C1155.92 46.3031 1155.32 45.3182 1155.48 44.6741C1155.79 43.4429 1156.49 42.2401 1157.26 41.1984C1158.03 40.1471 1159.09 39.3137 1160.04 38.3855C1161.76 36.6997 1162.41 34.3794 1159.47 33.1576C1157.98 32.5326 1156.64 31.3582 1155.44 30.2217C1154.07 28.9242 1154.05 27.674 1155.02 26.4712C1156 25.259 1157.29 24.9654 1158.8 25.8272C1159.86 26.4333 1160.81 27.2478 1161.77 28.015C1162.87 28.8958 1163.91 29.8428 1165.01 30.7236C1166.52 31.9169 1167.62 33.3376 1167.88 35.6674L1167.86 35.6579Z" fill="#BCA075"/>
<path d="M1109.9 35.1464C1110.49 36.3113 1110.85 37.4099 1111.51 38.2907C1112.68 39.825 1114.05 41.2077 1115.29 42.6946C1115.98 43.5186 1116.67 44.3994 1115.77 45.498C1115.1 46.322 1113.38 46.625 1112.36 45.981C1111.64 45.5169 1111.01 44.8729 1110.39 44.2479C1108.42 42.24 1106.49 40.2038 1104.53 38.1865C1102.68 36.2734 1102.58 34.9665 1104.28 32.9113C1106.37 30.3826 1108.75 28.1854 1111.74 26.7553C1112.21 26.528 1112.68 26.2249 1113.18 26.1397C1114.43 25.9313 1115.22 26.992 1114.56 28.1001C1113.85 29.3029 1112.84 30.3163 1112.06 31.4812C1111.29 32.6272 1110.65 33.8489 1109.88 35.1653L1109.9 35.1464Z" fill="#BCA075"/>
<path d="M1161.07 0.199276C1160.56 -0.10379 1159.47 0.426576 1158.67 0.767525C1158.24 0.947471 1157.84 1.48731 1157.5 1.92297C1153.72 6.66785 1149.73 11.2517 1146.23 16.2144C1141.95 22.2947 1138.09 28.6875 1134.03 34.9382C1133.76 35.3644 1133.48 35.7811 1133.19 36.1979L1133.09 36.2831C1132.63 36.8892 1132.18 37.4954 1131.75 38.1299C1127.48 44.3712 1123.47 50.8019 1119.44 57.1947C1116.97 61.1061 1114.6 65.0839 1112.27 69.0805C1111.48 70.4254 1111.31 71.8081 1112.31 72.7931C1113.42 73.8917 1114.7 73.0583 1115.67 71.9976C1118.54 68.8817 1121.65 65.8889 1124 62.3941C1128.72 55.3763 1133 48.0553 1137.48 40.867C1138.01 40.0146 1147.31 24.454 1147.88 23.5922C1148.59 22.6356 1149.31 21.6791 1150.02 20.7225C1153.12 16.5648 1156.43 12.5776 1159.4 8.32524C1160.55 6.65837 1161.15 4.49903 1161.72 2.5291C1161.94 1.76196 1161.6 0.521284 1161.07 0.208747V0.199276Z" fill="#BCA075"/>
<path d="M1147.91 0.199228C1147.41 -0.113309 1146.57 0.0098117 1145.96 0.0761074C1145.63 0.113991 1145.41 0.388644 1145.2 0.606473C1142.94 3.00259 1140.47 5.24717 1138.5 7.85165C1136.09 11.0433 1134.12 14.5286 1131.94 17.8812C1131.79 18.1085 1131.64 18.3264 1131.49 18.5537L1131.42 18.5916C1131.16 18.9041 1130.89 19.2166 1130.65 19.5481C1128.29 22.8534 1126.19 26.3387 1124.06 29.7955C1122.75 31.9075 1121.56 34.0858 1120.39 36.2831C1119.99 37.0218 1120.14 37.9215 1121.2 38.7928C1122.39 39.7683 1123.31 39.4747 1123.94 38.9633C1125.75 37.4764 1127.8 36.1126 1129.09 34.2468C1131.69 30.5153 1133.83 26.4902 1136.17 22.5882C1136.44 22.1242 1141.18 13.6099 1141.49 13.1458C1141.9 12.6534 1142.31 12.1609 1142.73 11.6684C1144.52 9.51851 1146.54 7.53911 1148.19 5.29453C1148.84 4.41374 1148.89 3.08783 1148.97 1.87556C1149 1.41149 1148.44 0.492823 1147.93 0.180286L1147.91 0.199228Z" fill="#BCA075"/>
<path d="M1151.53 36.4629C1151.03 36.1504 1150.19 36.2735 1149.58 36.3398C1149.25 36.3777 1149.03 36.6523 1148.82 36.8701C1146.56 39.2663 1144.08 41.5108 1142.12 44.1153C1139.71 47.307 1137.74 50.7922 1135.56 54.1449C1135.41 54.3722 1135.26 54.59 1135.11 54.8173L1135.04 54.8552C1134.77 55.1678 1134.51 55.4803 1134.27 55.8118C1131.9 59.1171 1129.81 62.6024 1127.68 66.0592C1126.37 68.1712 1125.18 70.3495 1124.01 72.5467C1123.61 73.2854 1123.76 74.1852 1124.82 75.0565C1126 76.032 1126.93 75.7384 1127.56 75.227C1129.37 73.74 1131.42 72.3762 1132.71 70.5105C1135.3 66.779 1137.45 62.7539 1139.78 58.8519C1140.06 58.3878 1144.79 49.8736 1145.11 49.4095C1145.51 48.917 1145.93 48.4245 1146.35 47.9321C1148.14 45.7822 1150.16 43.8028 1151.81 41.5582C1152.46 40.6774 1152.51 39.3515 1152.59 38.1392C1152.62 37.6752 1152.06 36.7565 1151.55 36.444L1151.53 36.4629Z" fill="#BCA075"/>
<path d="M1320.87 35.6577C1320.24 37.0499 1319.94 38.4137 1319.13 39.3608C1316.52 42.4483 1313.8 45.4695 1310.97 48.3581C1305.66 53.7754 1300.25 59.098 1294.87 64.4395C1294.06 65.2446 1293.23 66.0685 1292.26 66.6462C1290.72 67.5649 1289.38 66.6652 1289.55 64.8847C1289.71 63.142 1290.61 61.7593 1291.86 60.547C1295.78 56.7303 1299.68 52.9041 1303.53 49.0305C1305.46 47.089 1307.26 45.0244 1309.1 43.0071C1309.34 42.7514 1309.55 42.4578 1309.73 42.1547C1313.72 35.8093 1312.33 33.0248 1307.71 29.1702C1302.03 24.4348 1296.39 19.6426 1290.8 14.8125C1289.13 13.3729 1287.61 11.7628 1286.11 10.1528C1285.35 9.34779 1284.39 8.467 1285.26 7.15056C1285.89 6.20348 1287.63 5.54052 1288.83 6.12771C1290.32 6.85696 1291.71 7.82299 1293.01 8.86478C1296.53 11.6776 1299.94 14.6041 1303.44 17.4359C1306.45 19.8793 1309.63 22.1239 1312.53 24.7C1314.89 26.8025 1317.06 29.1607 1319.07 31.6042C1319.96 32.6839 1320.27 34.2466 1320.87 35.6483V35.6577Z" fill="#BCA075"/>
<path d="M1193.5 36.7753C1193.98 35.8566 1194.32 34.8148 1194.96 34.0382C1196.31 32.4187 1197.83 30.9507 1199.27 29.3975C1203.22 25.1356 1207.01 20.6938 1211.16 16.6403C1214.55 13.335 1218.36 10.4653 1222 7.40625C1222.33 7.12213 1222.72 6.77171 1223.11 6.72435C1223.85 6.63912 1224.86 6.46864 1225.31 6.85695C1225.76 7.25472 1226.02 8.40069 1225.78 8.98788C1225.18 10.5127 1224.54 12.1985 1223.42 13.316C1220.55 16.1668 1217.37 18.6955 1214.38 21.4325C1211 24.52 1207.59 27.5886 1204.42 30.8844C1203.19 32.163 1202.45 33.9814 1201.71 35.6482C1200.94 37.4098 1201.32 39.124 1202.64 40.5541C1203.36 41.3307 1204.11 42.0695 1204.88 42.7987C1209.68 47.3447 1214.64 51.7297 1219.22 56.484C1221.51 58.8517 1223.15 61.8635 1224.95 64.6573C1225.57 65.6139 1225.9 66.8167 1224.66 67.7259C1223.54 68.5404 1222.42 68.2847 1221.51 67.4797C1218.8 65.093 1216.11 62.6685 1213.51 60.1682C1209.26 56.0673 1204.97 52.0043 1200.92 47.7141C1198.57 45.2327 1196.62 42.363 1194.59 39.5976C1194.04 38.8494 1193.89 37.8171 1193.51 36.7658L1193.5 36.7753Z" fill="#BCA075"/>
<path d="M1208.24 36.1124C1208.93 34.9285 1209.4 33.5079 1210.35 32.5797C1214.93 28.0716 1219.64 23.6866 1224.31 19.2732C1225.27 18.364 1226.26 17.4833 1227.27 16.6498C1228.21 15.8827 1229.21 15.8164 1230.12 16.7256C1230.91 17.5211 1230.99 18.4303 1230.35 19.3585C1229.32 20.8928 1228.34 22.4744 1227.2 23.9234C1224.86 26.8973 1222.59 29.9374 1220 32.6934C1216.98 35.9135 1216.74 38.5369 1220.24 41.9464C1223.76 45.3938 1227.01 49.1253 1230.34 52.7715C1230.99 53.4818 1231.44 54.3626 1231.99 55.1582C1232.58 56.0106 1233.04 57.0997 1232.17 57.7816C1231.44 58.3593 1230.22 58.6908 1229.3 58.5677C1228.34 58.4351 1227.41 57.6774 1226.55 57.0807C1223.2 54.732 1220.49 51.7108 1217.9 48.5854C1215.09 45.2043 1212.25 41.8233 1209.47 38.4043C1208.99 37.8171 1208.73 37.0405 1208.23 36.1029L1208.24 36.1124Z" fill="#BCA075"/>
<path d="M1283.86 14.8313C1284.53 15.1438 1285.41 15.3901 1286.08 15.9015C1289.24 18.2881 1292.42 20.6464 1294.92 23.8096C1296.38 25.6659 1298.26 27.1907 1299.91 28.9049C1300.76 29.7952 1301.6 30.7139 1302.3 31.7178C1304.29 34.559 1304.25 36.6237 1302.43 39.5123C1300.08 43.2153 1296.72 45.9808 1293.64 49.002C1291.31 51.2845 1288.83 53.4059 1286.37 55.5653C1285.02 56.7586 1284.18 56.7775 1283.15 55.821C1282.02 54.7603 1281.92 53.7374 1283.13 52.3642C1285.75 49.3808 1288.45 46.4733 1291.13 43.5468C1292.2 42.3724 1293.36 41.2928 1294.39 40.09C1297.19 36.8415 1297.14 33.4415 1294.03 30.4581C1291.61 28.1473 1288.95 26.0921 1286.37 23.9517C1284.74 22.5974 1283.03 21.3472 1281.45 19.955C1280.72 19.311 1279.52 18.7901 1279.95 17.4263C1280.37 16.1288 1281.36 15.4469 1282.64 15.1344C1282.98 15.0491 1283.32 14.9734 1283.86 14.8408V14.8313Z" fill="#BCA075"/>
<path d="M1288.36 36.1597C1288.16 36.6048 1287.91 37.3435 1287.51 38.0065C1285.3 41.719 1281.88 44.2856 1278.72 47.0795C1278.31 47.4394 1277.19 47.6856 1276.98 47.4583C1276.45 46.8711 1275.83 45.8767 1275.99 45.2327C1276.3 44.0015 1277 42.7987 1277.76 41.7569C1278.54 40.7056 1279.6 39.8627 1280.54 38.9346C1282.24 37.2393 1282.9 34.919 1279.96 33.7067C1278.45 33.0911 1277.12 31.9167 1275.92 30.7802C1274.54 29.4827 1274.51 28.2326 1275.48 27.0298C1276.46 25.8175 1277.73 25.5145 1279.26 26.3668C1280.32 26.9635 1281.28 27.7875 1282.23 28.5451C1283.33 29.4164 1284.38 30.3635 1285.48 31.2348C1286.99 32.4282 1288.1 33.8393 1288.36 36.1691V36.1597Z" fill="#BCA075"/>
<path d="M1230.39 35.8378C1230.98 37.0027 1231.35 38.1013 1232.01 38.9726C1233.18 40.5069 1234.56 41.8897 1235.81 43.3576C1236.5 44.1721 1237.19 45.0529 1236.3 46.161C1235.64 46.985 1233.91 47.288 1232.89 46.6535C1232.16 46.1894 1231.53 45.5454 1230.91 44.9203C1228.93 42.922 1226.99 40.8858 1225.03 38.8779C1223.16 36.9743 1223.07 35.6673 1224.76 33.6027C1226.85 31.0645 1229.22 28.8578 1232.21 27.4182C1232.68 27.1909 1233.15 26.8784 1233.65 26.7932C1234.9 26.5848 1235.69 27.6361 1235.04 28.7442C1234.34 29.947 1233.33 30.9698 1232.55 32.1347C1231.78 33.2807 1231.15 34.5119 1230.39 35.8283V35.8378Z" fill="#BCA075"/>
<path d="M1281.45 0.729183C1280.94 0.435588 1279.85 0.956483 1279.04 1.3069C1278.62 1.48685 1278.23 2.03616 1277.88 2.47181C1274.11 7.22616 1270.13 11.829 1266.65 16.8012C1262.39 22.8909 1258.55 29.2932 1254.52 35.5629C1254.25 35.989 1253.96 36.4058 1253.69 36.8319L1253.59 36.9172C1253.14 37.5328 1252.68 38.1389 1252.26 38.764C1248.01 45.0147 1244.03 51.4644 1240.01 57.8761C1237.56 61.797 1235.2 65.7842 1232.88 69.7809C1232.09 71.1352 1231.93 72.518 1232.93 73.4935C1234.04 74.5826 1235.32 73.7492 1236.29 72.679C1239.14 69.5536 1242.25 66.5514 1244.59 63.0472C1249.28 56.0104 1253.55 48.6799 1258 41.4726C1258.53 40.6203 1267.77 25.0218 1268.34 24.1695C1269.05 23.2129 1269.76 22.2469 1270.47 21.2903C1273.55 17.1232 1276.85 13.1265 1279.8 8.86462C1280.95 7.19775 1281.54 5.02893 1282.1 3.059C1282.32 2.29187 1281.98 1.05119 1281.46 0.748125L1281.45 0.729183Z" fill="#BCA075"/>
<path d="M1268.28 0.76709C1267.78 0.454553 1266.95 0.587145 1266.33 0.65344C1266 0.691324 1265.78 0.965977 1265.57 1.19328C1263.32 3.59886 1260.86 5.85292 1258.9 8.4574C1256.5 11.6585 1254.53 15.1533 1252.37 18.5154C1252.23 18.7427 1252.07 18.97 1251.92 19.1878L1251.85 19.2257C1251.6 19.5383 1251.32 19.8508 1251.09 20.1917C1248.74 23.4971 1246.66 26.9918 1244.54 30.4581C1243.24 32.5796 1242.05 34.7579 1240.88 36.9646C1240.49 37.7033 1240.64 38.603 1241.71 39.4743C1242.9 40.4403 1243.83 40.1468 1244.44 39.6353C1246.25 38.1389 1248.3 36.7657 1249.58 34.9094C1252.15 31.1684 1254.29 27.1338 1256.61 23.2319C1256.89 22.7678 1261.59 14.2346 1261.9 13.78C1262.31 13.2875 1262.72 12.7856 1263.13 12.2931C1264.91 10.1432 1266.93 8.14486 1268.58 5.90027C1269.22 5.01949 1269.27 3.6841 1269.33 2.48131C1269.36 2.01724 1268.8 1.09857 1268.28 0.786032V0.76709Z" fill="#BCA075"/>
<path d="M1272.02 37.0215C1271.52 36.7089 1270.69 36.8415 1270.07 36.9078C1269.74 36.9457 1269.52 37.2204 1269.32 37.4477C1267.06 39.8533 1264.6 42.1073 1262.64 44.7118C1260.24 47.9129 1258.27 51.4077 1256.11 54.7698C1255.97 54.9971 1255.81 55.2244 1255.66 55.4422L1255.59 55.4801C1255.34 55.7926 1255.06 56.1052 1254.83 56.4461C1252.49 59.7514 1250.4 63.2462 1248.28 66.7125C1246.98 68.834 1245.79 71.0122 1244.62 73.2189C1244.23 73.9577 1244.38 74.8574 1245.45 75.7287C1246.64 76.6947 1247.57 76.4011 1248.19 75.8897C1249.99 74.3933 1252.04 73.0201 1253.32 71.1638C1255.9 67.4228 1258.04 63.3882 1260.36 59.4863C1260.63 59.0222 1265.33 50.489 1265.64 50.0344C1266.05 49.5419 1266.46 49.04 1266.87 48.5475C1268.65 46.3976 1270.67 44.3992 1272.32 42.1547C1272.96 41.2739 1273.01 39.9385 1273.08 38.7357C1273.1 38.2716 1272.54 37.353 1272.02 37.0404V37.0215Z" fill="#BCA075"/>
<path d="M1440 35.26C1439.36 36.6522 1439.06 38.016 1438.26 38.9631C1435.64 42.0506 1432.92 45.0718 1430.09 47.9604C1424.79 53.3777 1419.37 58.7003 1413.99 64.0418C1413.19 64.8469 1412.35 65.6708 1411.39 66.2485C1409.84 67.1672 1408.51 66.2675 1408.67 64.487C1408.83 62.7443 1409.73 61.3616 1410.98 60.1493C1414.9 56.3326 1418.8 52.5064 1422.66 48.6328C1424.58 46.6913 1426.38 44.6267 1428.23 42.6094C1428.46 42.3537 1428.67 42.0601 1428.85 41.757C1432.85 35.4115 1431.46 32.6271 1426.83 28.7725C1421.15 24.0371 1415.52 19.2449 1409.92 14.4147C1408.25 12.9752 1406.74 11.3651 1405.23 9.7551C1404.47 8.95008 1403.52 8.0693 1404.39 6.75286C1405.01 5.80577 1406.76 5.14282 1407.96 5.73001C1409.45 6.45926 1410.84 7.42528 1412.14 8.46707C1415.65 11.2799 1419.07 14.2064 1422.56 17.0382C1425.57 19.4816 1428.76 21.7262 1431.66 24.3023C1434.01 26.4048 1436.18 28.763 1438.19 31.2065C1439.08 32.2862 1439.39 33.8489 1440 35.2505V35.26Z" fill="#BCA075"/>
<path d="M1312.63 36.368C1313.1 35.4494 1313.44 34.4076 1314.08 33.631C1315.43 32.0115 1316.95 30.5435 1318.39 28.9903C1322.34 24.7284 1326.13 20.2866 1330.28 16.2331C1333.67 12.9278 1337.49 10.0581 1341.12 6.99903C1341.46 6.7149 1341.84 6.36448 1342.23 6.31713C1342.97 6.23189 1343.98 6.06142 1344.43 6.44972C1344.88 6.84749 1345.14 7.99346 1344.9 8.58065C1344.31 10.1055 1343.66 11.7913 1342.54 12.9088C1339.67 15.7595 1336.49 18.2882 1333.5 21.0253C1330.13 24.1128 1326.72 27.1813 1323.55 30.4772C1322.31 31.7557 1321.58 33.5741 1320.84 35.241C1320.06 37.0026 1320.44 38.7168 1321.77 40.1469C1322.49 40.9235 1323.23 41.6622 1324 42.3915C1328.8 46.9375 1333.76 51.3225 1338.35 56.0768C1340.63 58.4445 1342.27 61.4562 1344.08 64.2501C1344.69 65.2067 1345.03 66.4095 1343.78 67.3187C1342.67 68.1332 1341.54 67.8774 1340.63 67.0724C1337.92 64.6858 1335.23 62.2613 1332.64 59.761C1328.39 55.6601 1324.1 51.5971 1320.04 47.3068C1317.69 44.8255 1315.74 41.9558 1313.72 39.1903C1313.17 38.4421 1313.01 37.4098 1312.64 36.3586L1312.63 36.368Z" fill="#BCA075"/>
<path d="M1327.37 35.7051C1328.06 34.5213 1328.54 33.1007 1329.48 32.1725C1334.07 27.6644 1338.77 23.2794 1343.44 18.866C1344.4 17.9568 1345.39 17.076 1346.41 16.2426C1347.35 15.4755 1348.34 15.4092 1349.25 16.3184C1350.04 17.1139 1350.12 18.0231 1349.49 18.9513C1348.45 20.4855 1347.47 22.0672 1346.33 23.5162C1343.99 26.49 1341.72 29.5302 1339.13 32.2862C1336.11 35.5062 1335.88 38.1297 1339.37 41.5392C1342.89 44.9865 1346.14 48.718 1349.48 52.3643C1350.12 53.0746 1350.58 53.9554 1351.12 54.7509C1351.71 55.6033 1352.18 56.6925 1351.3 57.3744C1350.58 57.9521 1349.35 58.2836 1348.43 58.1604C1347.47 58.0279 1346.54 57.2702 1345.69 56.6735C1342.34 54.3248 1339.63 51.3036 1337.03 48.1782C1334.22 44.7971 1331.39 41.416 1328.6 37.9971C1328.12 37.4099 1327.86 36.6333 1327.36 35.6957L1327.37 35.7051Z" fill="#BCA075"/>
<path d="M1403 14.4241C1403.66 14.7366 1404.54 14.9829 1405.21 15.4943C1408.38 17.8809 1411.55 20.2392 1414.05 23.4024C1415.52 25.2587 1417.39 26.7835 1419.04 28.4977C1419.89 29.388 1420.74 30.3066 1421.44 31.3105C1423.43 34.1518 1423.39 36.2164 1421.56 39.105C1419.21 42.8081 1415.85 45.5736 1412.77 48.5948C1410.44 50.8773 1407.96 52.9987 1405.51 55.1581C1404.15 56.3514 1403.31 56.3703 1402.29 55.4138C1401.15 54.353 1401.06 53.3302 1402.27 51.9569C1404.88 48.9736 1407.58 46.0661 1410.26 43.1396C1411.33 41.9652 1412.5 40.8855 1413.53 39.6827C1416.32 36.4343 1416.28 33.0342 1413.16 30.0509C1410.74 27.74 1408.08 25.6849 1405.51 23.5445C1403.88 22.1901 1402.16 20.94 1400.58 19.5478C1399.85 18.9038 1398.65 18.3829 1399.09 17.0191C1399.5 15.7216 1400.5 15.0397 1401.78 14.7271C1402.12 14.6419 1402.46 14.5661 1403 14.4335V14.4241Z" fill="#BCA075"/>
<path d="M1407.49 35.7527C1407.29 36.1978 1407.03 36.9365 1406.63 37.5995C1404.43 41.312 1401.01 43.8786 1397.84 46.6725C1397.44 47.0324 1396.31 47.2787 1396.1 47.0514C1395.57 46.4642 1394.96 45.4697 1395.12 44.8257C1395.42 43.5945 1396.12 42.3917 1396.89 41.3499C1397.66 40.2987 1398.73 39.4558 1399.66 38.5276C1401.37 36.8323 1402.02 34.512 1399.09 33.2997C1397.58 32.6841 1396.24 31.5097 1395.04 30.3732C1393.67 29.0757 1393.64 27.8256 1394.61 26.6228C1395.58 25.4105 1396.86 25.1075 1398.38 25.9598C1399.45 26.5565 1400.4 27.3805 1401.36 28.1381C1402.46 29.0094 1403.51 29.9565 1404.61 30.8278C1406.11 32.0212 1407.22 33.4323 1407.49 35.7621V35.7527Z" fill="#BCA075"/>
<path d="M1349.52 35.4399C1350.11 36.6048 1350.48 37.7034 1351.14 38.5747C1352.32 40.109 1353.69 41.4917 1354.94 42.9597C1355.63 43.7742 1356.32 44.655 1355.43 45.763C1354.77 46.587 1353.05 46.8901 1352.02 46.2555C1351.3 45.7915 1350.66 45.1474 1350.05 44.5224C1348.07 42.524 1346.12 40.4878 1344.16 38.48C1342.3 36.5764 1342.2 35.2694 1343.9 33.2047C1345.98 30.6666 1348.35 28.4599 1351.34 27.0203C1351.82 26.793 1352.28 26.4805 1352.78 26.3952C1354.03 26.1869 1354.83 27.2381 1354.17 28.3462C1353.47 29.549 1352.46 30.5719 1351.68 31.7368C1350.92 32.8827 1350.28 34.1139 1349.52 35.4304V35.4399Z" fill="#BCA075"/>
<path d="M1400.57 0.322201C1400.06 0.0286057 1398.97 0.549501 1398.17 0.899921C1397.74 1.07987 1397.35 1.62917 1397 2.06483C1393.23 6.81918 1389.25 11.422 1385.78 16.3942C1381.52 22.4839 1377.67 28.8862 1373.65 35.1559C1373.37 35.5821 1373.09 35.9988 1372.81 36.425L1372.72 36.5102C1372.26 37.1258 1371.81 37.7319 1371.38 38.357C1367.13 44.6077 1363.15 51.0574 1359.14 57.4691C1356.68 61.39 1354.33 65.3773 1352.01 69.3739C1351.22 70.7283 1351.06 72.111 1352.05 73.0865C1353.16 74.1756 1354.44 73.3422 1355.41 72.272C1358.27 69.1466 1361.37 66.1444 1363.71 62.6402C1368.41 55.6034 1372.67 48.273 1377.12 41.0657C1377.65 40.2133 1386.9 24.6148 1387.46 23.7625C1388.17 22.8059 1388.88 21.8399 1389.59 20.8833C1392.67 16.7162 1395.98 12.7195 1398.92 8.45763C1400.08 6.79077 1400.67 4.62195 1401.22 2.65202C1401.44 1.88489 1401.1 0.644209 1400.58 0.341143L1400.57 0.322201Z" fill="#BCA075"/>
<path d="M1387.42 0.369629C1386.92 0.0570923 1386.08 0.189684 1385.47 0.255979C1385.14 0.293863 1384.92 0.568516 1384.71 0.795816C1382.45 3.2014 1379.99 5.45546 1378.03 8.05993C1375.64 11.2611 1373.67 14.7558 1371.51 18.1179C1371.36 18.3452 1371.2 18.5725 1371.05 18.7904L1370.99 18.8283C1370.73 19.1408 1370.46 19.4533 1370.23 19.7943C1367.88 23.0996 1365.8 26.5943 1363.67 30.0606C1362.38 32.1821 1361.18 34.3604 1360.02 36.5671C1359.62 37.3058 1359.77 38.2055 1360.84 39.0769C1362.04 40.0429 1362.96 39.7493 1363.58 39.2379C1365.39 37.7415 1367.43 36.3682 1368.71 34.5119C1371.29 30.771 1373.43 26.7364 1375.75 22.8344C1376.02 22.3703 1380.72 13.8371 1381.03 13.3825C1381.44 12.8901 1381.86 12.3881 1382.27 11.8956C1384.05 9.74574 1386.06 7.7474 1387.71 5.50281C1388.36 4.62203 1388.4 3.28664 1388.47 2.08385C1388.5 1.61978 1387.94 0.701108 1387.42 0.388571V0.369629Z" fill="#BCA075"/>
<path d="M1391.16 36.6145C1390.66 36.302 1389.82 36.4346 1389.21 36.5009C1388.88 36.5387 1388.66 36.8134 1388.45 37.0407C1386.2 39.4463 1383.73 41.7003 1381.77 44.3048C1379.38 47.5059 1377.41 51.0007 1375.25 54.3628C1375.1 54.5901 1374.94 54.8174 1374.79 55.0352L1374.73 55.0731C1374.47 55.3857 1374.2 55.6982 1373.97 56.0391C1371.62 59.3445 1369.54 62.8392 1367.41 66.3055C1366.12 68.427 1364.92 70.6053 1363.76 72.812C1363.36 73.5507 1363.51 74.4504 1364.58 75.3217C1365.78 76.2878 1366.7 75.9942 1367.32 75.4827C1369.13 73.9863 1371.17 72.6131 1372.45 70.7568C1375.03 67.0158 1377.17 62.9813 1379.49 59.0793C1379.76 58.6152 1384.46 50.082 1384.77 49.6274C1385.18 49.1349 1385.6 48.633 1386.01 48.1405C1387.79 45.9906 1389.8 43.9923 1391.45 41.7477C1392.1 40.8669 1392.14 39.5315 1392.21 38.3287C1392.24 37.8647 1391.68 36.946 1391.16 36.6334V36.6145Z" fill="#BCA075"/>
</g>
<defs>
<clipPath id="clip0_239_922">
<rect width="1440" height="76.3443" fill="white"/>
</clipPath>
</defs>
</svg>
