<svg width="77" height="122" viewBox="0 0 77 122" fill="none" xmlns="http://www.w3.org/2000/svg">
<g clip-path="url(#clip0_244_1791)">
<path d="M28.0924 84.5403C27.1407 84.5403 26.1951 84.5403 25.2435 84.5403C23.761 84.5403 22.2786 84.5403 20.8023 84.5403C20.662 84.5403 20.5461 84.5342 20.4424 84.5342C20.357 84.5342 20.2899 84.5342 20.235 84.5464C20.1557 84.5586 20.0459 84.6135 20.0459 84.6196C20.0276 84.6379 20.0154 84.6623 20.0032 84.705C19.991 84.7538 19.9788 84.8209 19.9788 84.9063C19.9788 87.7796 19.9788 90.6468 19.9788 93.5202C19.9788 96.1373 19.9788 98.7604 19.9727 101.378C19.9727 101.542 20.0215 101.615 20.0947 101.689C20.1679 101.756 20.2777 101.805 20.4241 101.805C20.9243 101.805 21.4185 101.811 21.9187 101.811C22.4677 101.811 23.0168 101.811 23.5658 101.805C23.7183 101.805 23.9014 101.768 24.0844 101.713C24.1515 101.695 24.2003 101.676 24.2369 101.664C24.2369 101.628 24.2369 101.579 24.2369 101.506C24.2369 100.048 24.2369 98.5957 24.243 97.1316C24.243 96.79 24.2918 96.4728 24.3284 96.1861C24.3467 96.0457 24.3955 95.9603 24.4321 95.8993C24.4687 95.8383 24.5053 95.8017 24.5175 95.7773C24.6456 95.6126 24.8286 95.5028 24.9872 95.454C25.1519 95.4052 25.2862 95.4052 25.3899 95.4052C25.4387 95.4052 25.4814 95.4052 25.518 95.4052C26.5001 95.4052 27.4762 95.4052 28.4584 95.4052C29.5931 95.4052 30.7217 95.4052 31.8563 95.4052C31.8808 95.4052 31.9296 95.4052 32.0089 95.4052C32.0943 95.4052 32.2224 95.4052 32.3871 95.4845C32.4603 95.5211 32.5518 95.5699 32.6616 95.6431C32.7653 95.7163 32.8995 95.82 32.9849 96.0335C33.1008 96.3386 33.113 96.6375 33.1191 96.8876C33.1191 97.76 33.1252 98.6384 33.1252 99.5108C33.1252 100.157 33.1252 100.798 33.1191 101.445C33.1191 101.573 33.1435 101.628 33.1557 101.646L33.2107 101.683C33.2107 101.683 33.2839 101.701 33.3571 101.701H33.3754C33.6316 101.695 33.8878 101.695 34.1379 101.695C34.5711 101.695 34.9981 101.695 35.419 101.695H35.4617C35.9986 101.695 36.5293 101.695 37.0539 101.689C37.0783 101.689 37.0905 101.689 37.1088 101.689C37.1821 101.439 37.2431 101.219 37.2431 101.066C37.2431 98.1809 37.2492 95.3015 37.2492 92.416C37.2492 90.0612 37.2492 87.7125 37.2492 85.3577C37.2492 85.1503 37.2187 84.9063 37.1821 84.644C37.1454 84.5952 37.1271 84.583 37.0844 84.5647C37.0478 84.5464 36.9746 84.5342 36.8709 84.5342C35.3275 84.5342 33.7841 84.5342 32.2468 84.5342C31.0267 84.5342 29.8005 84.5342 28.5804 84.5342H28.0924V84.5403ZM28.4523 88.7618C29.404 88.7618 30.3556 88.7618 31.3073 88.7618C31.3988 88.7618 31.4842 88.7618 31.5757 88.7618C31.7648 88.7618 31.9601 88.7923 32.1431 88.8777C32.3261 88.957 32.4908 89.0912 32.6189 89.2498C32.7653 89.4328 32.8568 89.6586 32.8568 89.8843C32.8568 90.1161 32.7714 90.3174 32.6494 90.4699C32.5335 90.6224 32.3871 90.7322 32.2224 90.8115C31.9784 90.9275 31.7587 90.9397 31.5757 90.9397C31.0511 90.9397 30.5325 90.9397 30.0079 90.9397C29.5138 90.9397 29.0196 90.9397 28.5316 90.9397H28.0436C27.6226 90.9397 27.2017 90.9397 26.7869 90.9397C26.3354 90.9397 25.8779 90.9397 25.4204 90.9397C25.1763 90.9397 24.9323 90.8848 24.7188 90.7444C24.5053 90.598 24.3711 90.3784 24.2979 90.1588C24.2613 90.0612 24.2491 89.9575 24.2491 89.8538C24.2491 89.6281 24.3345 89.4267 24.4504 89.2681C24.5724 89.1095 24.7249 88.9997 24.8957 88.9204C25.2191 88.774 25.5302 88.7618 25.7864 88.7618C25.9145 88.7618 26.0304 88.7618 26.1341 88.7618H26.1463C26.915 88.7618 27.6836 88.7618 28.4523 88.7618Z" fill="#E5B661"/>
<path d="M59.7839 97.534C59.7839 98.8639 59.7839 100.194 59.79 101.518C59.79 101.542 59.8022 101.609 59.8327 101.682L59.8632 101.731L59.9059 101.756C59.9547 101.78 60.0585 101.792 60.1927 101.798C60.7905 101.81 61.3884 101.817 61.9862 101.817C62.5352 101.817 63.0904 101.817 63.6394 101.798C63.798 101.798 63.9078 101.749 63.9627 101.701C64.0116 101.652 64.0543 101.609 64.0604 101.432V101.42C64.0482 100.786 64.0482 100.151 64.0482 99.5167C64.0482 98.5711 64.0543 97.6316 64.0543 96.6921V96.5884C64.0543 96.3017 64.1336 95.9967 64.341 95.7588C64.5545 95.5148 64.8839 95.3928 65.2133 95.3989H65.2194C66.165 95.3989 67.1106 95.3989 68.0562 95.3989C68.7333 95.3989 69.4044 95.3989 70.0815 95.3989C70.6061 95.3989 71.1369 95.3989 71.6615 95.3989C71.8994 95.3989 72.1374 95.4354 72.357 95.5636C72.5766 95.6917 72.7352 95.9174 72.8023 96.1431C72.8511 96.2956 72.8633 96.4481 72.8694 96.6128C72.8694 98.2295 72.8694 99.8461 72.8755 101.457C72.8755 101.573 72.8999 101.621 72.906 101.634L72.9426 101.658C72.9426 101.658 73.0158 101.676 73.089 101.676C73.3758 101.676 73.6625 101.676 73.9553 101.676C74.3213 101.676 74.6813 101.676 75.0473 101.676C75.5841 101.676 76.121 101.676 76.6578 101.682H76.6822C76.8164 101.682 76.8957 101.664 76.9079 101.652C76.9262 101.64 76.9201 101.658 76.9506 101.585C76.975 101.518 76.9933 101.42 76.9933 101.316C76.9933 97.2961 76.9933 93.2759 76.9933 89.2557C76.9933 87.816 76.9933 86.3763 76.9933 84.9366C76.9933 84.8634 76.9933 84.8146 76.9933 84.7963C76.975 84.723 76.9567 84.662 76.9384 84.6193C76.9262 84.5888 76.9201 84.5705 76.914 84.5644C76.7554 84.5339 76.5602 84.5217 76.3528 84.5217C73.028 84.5217 69.7094 84.5217 66.3846 84.5217C64.3959 84.5217 62.4071 84.5217 60.4184 84.5217C60.3025 84.5217 60.211 84.5156 60.15 84.5156C60.1012 84.5156 60.0768 84.5156 60.0646 84.5217C59.9913 84.54 59.8876 84.5888 59.7778 84.6559V84.6681C59.7778 84.7169 59.7778 84.784 59.7778 84.8817C59.7778 86.5105 59.7778 88.1454 59.7778 89.7742C59.7778 90.8845 59.7778 91.9948 59.7778 93.1051V93.5931C59.7778 94.3374 59.7778 95.0816 59.7778 95.8259C59.7778 96.3932 59.7778 96.9606 59.7778 97.5218L59.7839 97.534ZM64.0665 89.6461C64.0787 89.5363 64.1214 89.4265 64.1763 89.3411C64.2312 89.2496 64.2983 89.1764 64.3654 89.1215C64.4996 89.0117 64.6094 88.9629 64.6887 88.9263C65.0059 88.7677 65.3049 88.7676 65.5184 88.7676H65.6282C66.5127 88.7676 67.3973 88.7676 68.288 88.7676C69.3007 88.7676 70.3194 88.7677 71.3321 88.7738C71.509 88.7738 71.7164 88.792 71.9422 88.8836C72.1679 88.9751 72.3875 89.1703 72.5034 89.4326C72.5705 89.579 72.5888 89.7132 72.5888 89.8413C72.5888 90.0304 72.5461 90.2074 72.4607 90.3782C72.3753 90.5429 72.2411 90.7259 71.9849 90.8235C71.814 90.8845 71.6127 90.9394 71.387 90.9394C70.8563 90.9394 70.3316 90.9394 69.8009 90.9394C69.3068 90.9394 68.8126 90.9394 68.3185 90.9394H68.2758C67.7755 90.9394 67.2814 90.9394 66.7812 90.9394C66.2809 90.9394 65.7441 90.9394 65.2255 90.9272C65.0486 90.9272 64.9083 90.8784 64.7924 90.8296C64.6765 90.7808 64.585 90.732 64.5118 90.7015C64.3471 90.6283 64.2007 90.488 64.1275 90.3355C64.0482 90.183 64.036 90.0304 64.036 89.9145C64.036 89.8047 64.0482 89.7132 64.0604 89.64L64.0665 89.6461Z" fill="#E5B661"/>
<path d="M36.4807 121.393C36.5783 121.393 36.6638 121.393 36.7492 121.393C36.8651 121.393 36.9688 121.393 37.0603 121.381L37.1274 121.368C37.1701 121.289 37.2006 121.21 37.2189 121.106C37.2372 120.996 37.2372 120.862 37.2372 120.709C37.2372 117.842 37.2372 114.975 37.2372 112.108C37.2372 110.351 37.2372 108.588 37.2372 106.831C37.2372 106.44 37.2372 106.05 37.2372 105.66C37.2372 105.355 37.2372 105.05 37.225 104.745C37.225 104.525 37.1823 104.305 37.1274 104.214L37.0969 104.177L37.0176 104.147C36.9322 104.122 36.7858 104.116 36.621 104.116C33.8697 104.11 31.1123 104.104 28.361 104.104C25.7561 104.104 23.1573 104.104 20.5524 104.116C20.4182 104.116 20.2962 104.122 20.2108 104.147C20.1254 104.171 20.0949 104.189 20.0705 104.214C20.0583 104.232 20.04 104.257 20.0217 104.318C19.9851 104.44 19.9668 104.58 19.9668 104.708C19.9668 108.35 19.9668 111.998 19.9668 115.64C19.9668 117.366 19.9668 119.093 19.9668 120.819V120.947C19.9668 121.033 19.9668 121.106 19.9668 121.179C19.9668 121.246 19.9912 121.289 20.0278 121.32C20.0583 121.35 20.101 121.374 20.1681 121.374C20.284 121.374 20.406 121.381 20.5402 121.381H20.6195C22.6144 121.381 24.6092 121.381 26.6041 121.381H28.5989C29.7641 121.381 30.9293 121.381 32.0945 121.381C33.5525 121.381 35.0105 121.381 36.4624 121.381L36.4807 121.393ZM31.7285 117.263C31.0086 117.263 30.2888 117.263 29.575 117.263C28.9284 117.263 28.2878 117.263 27.6412 117.263C26.9396 117.263 26.2381 117.263 25.5365 117.263C25.2803 117.263 25.0363 117.232 24.8045 117.104C24.5665 116.982 24.3835 116.738 24.3103 116.488C24.2615 116.323 24.2432 116.146 24.2432 115.963V115.951C24.2432 115.524 24.2432 115.097 24.2432 114.67C24.2432 114.048 24.2432 113.426 24.2432 112.803C24.2432 112.169 24.2432 111.534 24.2432 110.906C24.2432 110.473 24.2432 110.04 24.2432 109.607V109.594C24.2432 109.344 24.2798 109.106 24.4079 108.881C24.536 108.655 24.774 108.49 24.9997 108.429C25.1522 108.387 25.3108 108.368 25.4755 108.368C26.3906 108.368 27.3056 108.368 28.2207 108.368C29.4103 108.368 30.5999 108.368 31.7895 108.374C32.064 108.374 32.2592 108.46 32.3995 108.496C32.4971 108.527 32.5703 108.563 32.6435 108.618C32.7168 108.679 32.7961 108.74 32.8632 108.917C32.8876 108.997 32.9303 109.094 32.973 109.216C33.0096 109.338 33.0523 109.485 33.0523 109.662C33.0584 110.808 33.0645 111.961 33.0645 113.114C33.0645 114.06 33.0645 115.006 33.0584 115.957C33.0584 116.299 32.9303 116.622 32.6985 116.872C32.4727 117.122 32.1311 117.287 31.7529 117.281L31.7285 117.263Z" fill="#E5B661"/>
<path d="M0.0854492 96.4481C0.0854492 98.199 0.0854492 99.9498 0.0854492 101.701C0.0854492 101.774 0.0915497 101.829 0.103751 101.859L0.115952 101.896H0.128152C0.128152 101.896 0.207458 101.92 0.292865 101.92C0.89071 101.92 1.48855 101.92 2.0864 101.92C2.72695 101.92 3.3675 101.92 4.00804 101.92C4.11175 101.92 4.15446 101.896 4.16666 101.89L4.19106 101.847C4.19106 101.847 4.20936 101.768 4.21546 101.695C4.21546 101.542 4.21546 101.39 4.21546 101.231C4.21546 99.3337 4.21546 97.4364 4.21546 95.5453C4.21546 93.7578 4.21546 91.9765 4.20326 90.1891V90.1769C4.20326 89.884 4.23986 89.6095 4.38017 89.3533C4.51438 89.0971 4.7767 88.8958 5.05122 88.8165C5.23424 88.7554 5.42945 88.7372 5.63687 88.7372H5.65517C6.55194 88.7372 7.4426 88.7372 8.33937 88.7372C9.41915 88.7372 10.505 88.7372 11.5848 88.7372C11.6458 88.7372 11.7007 88.7372 11.7617 88.7372C11.8044 88.7372 11.8532 88.7372 11.9081 88.7372C11.9813 88.7372 12.0607 88.7371 12.1583 88.7493C12.3169 88.7677 12.4877 88.8104 12.6585 88.9141C12.8293 89.0178 12.9879 89.213 13.0489 89.4326C13.1221 89.6888 13.2319 90.006 13.238 90.3782C13.2441 90.9333 13.2502 91.4885 13.2502 92.0375C13.2502 92.6597 13.2502 93.2759 13.2502 93.8981V93.9469C13.2502 96.4359 13.2502 98.9188 13.2502 101.408C13.2502 101.53 13.2563 101.621 13.2685 101.67C13.3173 101.682 13.4089 101.688 13.537 101.688C13.9823 101.688 14.4276 101.688 14.873 101.688C15.2756 101.688 15.6782 101.688 16.0809 101.688H16.0931C16.27 101.688 16.4408 101.688 16.6055 101.688C16.8007 101.688 16.9898 101.688 17.1667 101.67L17.2216 101.658C17.307 101.463 17.3619 101.267 17.3559 101.133C17.3619 98.3454 17.368 95.5514 17.368 92.7635C17.368 90.2135 17.368 87.6635 17.3619 85.1135C17.3619 85.0098 17.3192 84.839 17.2582 84.6193C17.2216 84.5827 17.1972 84.5705 17.1423 84.5522C17.0813 84.5339 16.9898 84.5278 16.8678 84.5278C13.1587 84.5278 9.45575 84.5278 5.74668 84.5278H2.22061C1.67157 84.5278 1.11643 84.5278 0.567385 84.5278H0.561285C0.463678 84.5278 0.378271 84.5278 0.298965 84.5278C0.170856 84.5339 0.140353 84.5644 0.134253 84.5705C0.134253 84.5766 0.103751 84.601 0.0976501 84.7231C0.0976501 84.8817 0.0976501 85.0403 0.0976501 85.205C0.0976501 87.1083 0.0976501 89.0178 0.0976501 90.9211V93.2088C0.0976501 93.8859 0.0976501 94.5631 0.0976501 95.2463C0.0976501 95.6429 0.0976501 96.0394 0.0976501 96.4359L0.0854492 96.4481Z" fill="#E5B661"/>
<path d="M0.988033 104.104C0.68301 104.104 0.402389 104.129 0.14617 104.208C0.109567 104.22 0.0851654 104.226 0.066864 104.239C0.0302612 104.379 0.00585938 104.513 0.00585938 104.617C0.00585938 108.436 0.00585938 112.255 0.00585938 116.074C0.00585938 117.69 0.00585938 119.313 0.00585938 120.93C0.00585938 121.003 0.00585938 121.064 0.00585938 121.1V121.161C0.0302612 121.283 0.0546631 121.357 0.066864 121.387C0.0790649 121.387 0.0973663 121.387 0.133969 121.387H0.164471C0.219375 121.387 0.268179 121.387 0.316983 121.387C0.463394 121.387 0.597604 121.387 0.719613 121.387C2.19592 121.387 3.66614 121.387 5.14245 121.387H8.68071C9.04064 121.387 9.40057 121.387 9.76049 121.387H11.8285C13.4574 121.387 15.0801 121.387 16.7089 121.387H16.7333H16.7882C16.9651 121.387 17.136 121.387 17.2946 121.375L17.3556 121.344L17.3922 121.289C17.3922 120.722 17.3922 120.149 17.3922 119.581C17.3922 118.855 17.3922 118.129 17.3922 117.397L17.38 117.379C17.3373 117.312 17.3129 117.294 17.2824 117.275C17.2519 117.257 17.197 117.245 17.0871 117.245C15.4278 117.245 13.7624 117.245 12.1031 117.245C10.2973 117.245 8.4977 117.245 6.69806 117.245C6.48455 117.245 6.25883 117.245 6.02701 117.245C5.8379 117.245 5.64878 117.245 5.45357 117.227C5.18515 117.208 4.92283 117.129 4.69711 116.989C4.4714 116.861 4.33719 116.635 4.28228 116.446C4.22738 116.257 4.22738 116.098 4.22738 115.97C4.22738 115.39 4.22738 114.805 4.22738 114.225V113.151C4.22738 111.937 4.22738 110.717 4.22738 109.503V109.448C4.22738 109.387 4.22738 109.302 4.24568 109.204C4.26398 109.076 4.30058 108.924 4.40429 108.759C4.5019 108.594 4.70321 108.436 4.92893 108.387C5.15465 108.338 5.44137 108.222 5.8196 108.216C8.14997 108.21 10.4803 108.21 12.8046 108.21C13.6587 108.21 14.5189 108.21 15.3729 108.21C15.7816 108.21 16.1843 108.21 16.593 108.21H16.6662C16.8187 108.21 16.959 108.21 17.0871 108.198L17.1176 108.18L17.1665 108.125C17.1665 107.454 17.1665 106.789 17.1665 106.118C17.1665 105.495 17.1665 104.873 17.1604 104.257V104.239H17.1543C16.8858 104.147 16.6906 104.086 16.4954 104.086C11.6394 104.092 6.78347 104.086 1.9336 104.098H1.9214C1.59808 104.098 1.29306 104.08 1.00633 104.08L0.988033 104.104Z" fill="#E5B661"/>
<path d="M6.64331 96.4297C6.64331 97.3448 6.64331 98.2537 6.64331 99.1688C6.64331 99.9436 6.64331 100.724 6.64331 101.499C6.64331 101.566 6.67381 101.646 6.74091 101.707C6.80192 101.774 6.88733 101.798 6.89953 101.792C7.47297 101.804 8.04641 101.804 8.61986 101.804C9.2543 101.804 9.89485 101.804 10.5293 101.786C10.5293 101.786 10.5781 101.78 10.6208 101.755C10.6696 101.731 10.7184 101.694 10.7367 101.676C10.7916 101.621 10.8343 101.53 10.8404 101.353C10.8404 99.3884 10.8343 97.4241 10.8343 95.4597V94.2091C10.8343 93.3795 10.8343 92.5559 10.8343 91.7262V91.714V91.6103C10.8343 91.4151 10.8221 91.3175 10.7794 91.2199C10.7428 91.1406 10.7184 91.0979 10.7001 91.0735H10.6635C10.084 91.0735 9.49832 91.0674 8.91878 91.0674C8.20502 91.0674 7.49127 91.0674 6.77752 91.0796H6.76532L6.75922 91.0857C6.69211 91.2077 6.64941 91.348 6.64941 91.4212C6.64331 92.2997 6.63721 93.1781 6.63721 94.0566C6.63721 94.685 6.63721 95.3072 6.63721 95.9355V96.4236L6.64331 96.4297Z" fill="#E5B661"/>
<path d="M30.7276 99.7118C30.7276 99.3275 30.7276 98.9432 30.7276 98.5589C30.7276 98.2965 30.7276 98.0403 30.7276 97.7841C30.7276 97.7292 30.7215 97.6926 30.7154 97.6743L30.7032 97.6499H30.691C30.691 97.6499 30.6422 97.6316 30.5812 97.6316C29.9468 97.6255 29.3184 97.6255 28.684 97.6255C28.0495 97.6255 27.4151 97.6255 26.7806 97.6255C26.7013 97.6255 26.6464 97.656 26.5976 97.6987C26.5549 97.7414 26.5305 97.7963 26.5244 97.8695C26.5244 98.4612 26.5122 99.053 26.5122 99.6386C26.5122 100.273 26.5122 100.908 26.5366 101.536V101.548L26.5732 101.615C26.6037 101.664 26.6464 101.707 26.6525 101.707C26.7623 101.768 27.0185 101.798 27.2992 101.804C27.6713 101.81 28.0434 101.817 28.4156 101.817C28.7877 101.817 29.1903 101.817 29.5746 101.804C29.6478 101.804 29.7149 101.804 29.7821 101.804H29.7943C30.0871 101.804 30.3189 101.804 30.5324 101.737C30.5995 101.719 30.6483 101.701 30.6788 101.682L30.7093 101.664C30.7093 101.664 30.7215 101.609 30.7215 101.536C30.7215 101.292 30.7215 101.048 30.7215 100.804C30.7215 100.603 30.7215 100.401 30.7215 100.2V99.7118H30.7276Z" fill="#E5B661"/>
<path d="M66.3306 99.6752C66.3306 100.041 66.3306 100.407 66.3306 100.773C66.3306 101.054 66.3306 101.335 66.3306 101.609L66.355 101.701C66.5075 101.768 66.7149 101.804 66.9162 101.804C67.3432 101.81 67.7703 101.817 68.1912 101.817C68.6487 101.817 69.1002 101.817 69.5577 101.81H69.6248C69.6675 101.81 69.7102 101.81 69.7529 101.81C69.9664 101.81 70.119 101.798 70.2532 101.749C70.3874 101.701 70.4667 101.658 70.4911 101.633L70.5155 101.597C70.5155 101.597 70.5277 101.536 70.5277 101.463C70.5277 100.877 70.5277 100.291 70.5277 99.7118C70.5277 99.1323 70.5277 98.4979 70.5277 97.8878C70.5277 97.7658 70.4911 97.717 70.4667 97.6865C70.4362 97.656 70.3874 97.6255 70.2654 97.6255C69.7834 97.6255 69.3015 97.6255 68.8257 97.6255C68.1058 97.6255 67.3859 97.6255 66.66 97.6255C66.6173 97.6255 66.5685 97.6255 66.5258 97.6255C66.4343 97.6255 66.4038 97.6499 66.3794 97.6743C66.355 97.6987 66.3306 97.7414 66.3306 97.839C66.3306 98.083 66.3306 98.3331 66.3306 98.5833C66.3306 98.7846 66.3306 98.992 66.3306 99.1994V99.6874V99.6752Z" fill="#E5B661"/>
<path d="M59.7839 117.171C59.7839 118.501 59.7839 119.831 59.79 121.155C59.79 121.179 59.8022 121.246 59.8327 121.32L59.8632 121.368L59.9059 121.393C59.9547 121.417 60.0585 121.429 60.1927 121.435C60.7905 121.448 61.3884 121.454 61.9862 121.454C62.5352 121.454 63.0904 121.454 63.6394 121.435C63.798 121.435 63.9078 121.387 63.9627 121.338C64.0116 121.289 64.0543 121.246 64.0604 121.069V121.057C64.0482 120.423 64.0482 119.788 64.0482 119.154C64.0482 118.208 64.0543 117.269 64.0543 116.329V116.226C64.0543 115.939 64.1336 115.634 64.341 115.396C64.5545 115.152 64.8839 115.03 65.2133 115.036H65.2194C66.165 115.036 67.1106 115.036 68.0562 115.036C68.7333 115.036 69.4044 115.036 70.0815 115.036C70.6061 115.036 71.1369 115.036 71.6615 115.036C71.8994 115.036 72.1374 115.073 72.357 115.201C72.5766 115.329 72.7352 115.555 72.8023 115.78C72.8511 115.933 72.8633 116.085 72.8694 116.25C72.8694 117.867 72.8694 119.483 72.8755 121.094C72.8755 121.21 72.8999 121.259 72.906 121.271L72.9426 121.295C72.9426 121.295 73.0158 121.313 73.089 121.313C73.3758 121.313 73.6625 121.313 73.9553 121.313C74.3213 121.313 74.6813 121.313 75.0473 121.313C75.5841 121.313 76.121 121.313 76.6578 121.32H76.6822C76.8164 121.32 76.8957 121.301 76.9079 121.289C76.9262 121.277 76.9201 121.295 76.9506 121.222C76.975 121.155 76.9933 121.057 76.9933 120.954C76.9933 116.933 76.9933 112.913 76.9933 108.893C76.9933 107.453 76.9933 106.013 76.9933 104.574C76.9933 104.501 76.9933 104.452 76.9933 104.433C76.975 104.36 76.9567 104.299 76.9384 104.257C76.9262 104.226 76.9201 104.208 76.914 104.202C76.7554 104.171 76.5602 104.159 76.3528 104.159C73.028 104.159 69.7094 104.159 66.3846 104.159C64.3959 104.159 62.4071 104.159 60.4184 104.159C60.3025 104.159 60.211 104.153 60.15 104.153C60.1012 104.153 60.0768 104.153 60.0646 104.159C59.9913 104.177 59.8876 104.226 59.7778 104.293V104.305C59.7778 104.354 59.7778 104.421 59.7778 104.519C59.7778 106.148 59.7778 107.783 59.7778 109.411C59.7778 110.522 59.7778 111.632 59.7778 112.742V113.23C59.7778 113.975 59.7778 114.719 59.7778 115.463C59.7778 116.03 59.7778 116.598 59.7778 117.159L59.7839 117.171ZM64.0665 109.277C64.0787 109.167 64.1214 109.058 64.1763 108.972C64.2312 108.881 64.2983 108.807 64.3654 108.753C64.4996 108.643 64.6094 108.594 64.6887 108.557C65.0059 108.399 65.3049 108.399 65.5184 108.399H65.6282C66.5127 108.399 67.3973 108.399 68.288 108.399C69.3007 108.399 70.3194 108.399 71.3321 108.405C71.509 108.405 71.7164 108.423 71.9422 108.515C72.1679 108.606 72.3875 108.801 72.5034 109.064C72.5705 109.21 72.5888 109.344 72.5888 109.472C72.5888 109.662 72.5461 109.838 72.4607 110.009C72.3753 110.174 72.2411 110.357 71.9849 110.455C71.814 110.516 71.6127 110.571 71.387 110.571C70.8563 110.571 70.3316 110.571 69.8009 110.571C69.3068 110.571 68.8126 110.571 68.3185 110.571H68.2758C67.7755 110.571 67.2814 110.571 66.7812 110.571C66.2809 110.571 65.7441 110.571 65.2255 110.558C65.0486 110.558 64.9083 110.51 64.7924 110.461C64.6765 110.412 64.585 110.363 64.5118 110.333C64.3471 110.259 64.2007 110.119 64.1275 109.967C64.0482 109.814 64.036 109.662 64.036 109.546C64.036 109.436 64.0482 109.344 64.0604 109.271L64.0665 109.277Z" fill="#E5B661"/>
<path d="M66.3306 119.307C66.3306 119.673 66.3306 120.039 66.3306 120.405C66.3306 120.685 66.3306 120.966 66.3306 121.24L66.355 121.332C66.5075 121.399 66.7149 121.436 66.9162 121.436C67.3432 121.442 67.7703 121.448 68.1912 121.448C68.6487 121.448 69.1002 121.448 69.5577 121.442H69.6248C69.6675 121.442 69.7102 121.442 69.7529 121.442C69.9664 121.442 70.119 121.43 70.2532 121.381C70.3874 121.332 70.4667 121.289 70.4911 121.265L70.5155 121.228C70.5155 121.228 70.5277 121.167 70.5277 121.094C70.5277 120.508 70.5277 119.923 70.5277 119.343C70.5277 118.764 70.5277 118.129 70.5277 117.519C70.5277 117.397 70.4911 117.348 70.4667 117.318C70.4362 117.287 70.3874 117.257 70.2654 117.257C69.7834 117.257 69.3015 117.257 68.8257 117.257C68.1058 117.257 67.3859 117.257 66.66 117.257C66.6173 117.257 66.5685 117.257 66.5258 117.257C66.4343 117.257 66.4038 117.281 66.3794 117.306C66.355 117.33 66.3306 117.373 66.3306 117.47C66.3306 117.714 66.3306 117.964 66.3306 118.215C66.3306 118.416 66.3306 118.623 66.3306 118.831V119.319V119.307Z" fill="#E5B661"/>
<path d="M30.7342 112.774V112.676C30.7342 112.353 30.7342 112.023 30.7342 111.7C30.7342 111.456 30.7342 111.212 30.7342 110.974C30.7342 110.797 30.7037 110.718 30.6976 110.712C30.6915 110.706 30.7098 110.712 30.6427 110.687C30.6 110.675 30.5207 110.663 30.4109 110.663C30.0876 110.663 29.7642 110.663 29.4409 110.663C28.9651 110.663 28.4893 110.663 28.0073 110.663C27.6291 110.663 27.2509 110.663 26.8665 110.657C26.7384 110.657 26.6835 110.693 26.6286 110.748C26.5737 110.803 26.5371 110.901 26.5371 111.017C26.5371 111.645 26.5249 112.267 26.5249 112.89C26.5249 113.426 26.5249 113.963 26.5371 114.494C26.5371 114.665 26.5859 114.738 26.6103 114.768C26.6408 114.799 26.6835 114.836 26.8482 114.842C27.4766 114.848 28.1049 114.854 28.7333 114.854C29.3189 114.854 29.9046 114.854 30.4841 114.836C30.6122 114.836 30.6793 114.811 30.6915 114.799L30.7098 114.768C30.7098 114.768 30.7281 114.689 30.7281 114.604V114.592C30.7281 114.354 30.7281 114.116 30.7281 113.878C30.7281 113.512 30.7281 113.146 30.7281 112.78" fill="#E5B661"/>
<path d="M53.6294 85.5952C53.6294 85.0156 53.1657 84.5459 52.5801 84.5459C50.7743 84.5459 47.0775 84.5459 45.168 84.5459C43.6612 84.5459 42.1544 84.5459 40.6476 84.5459C40.5317 84.5459 40.428 84.5459 40.3426 84.5459C40.2694 84.5459 40.2144 84.5459 40.1717 84.5581C40.1534 84.5581 40.068 84.5947 39.9887 84.6557C39.9582 84.6801 39.9582 84.6801 39.9399 84.7411C39.9216 84.8021 39.9216 84.9119 39.9216 85.0583C39.9216 86.5896 39.9216 88.1269 39.9216 89.6581C39.9216 90.8721 39.9216 92.0922 39.9216 93.3062V93.7942V96.3198C39.9216 97.8266 39.9216 99.3334 39.9216 100.834C39.9216 101.011 39.9155 101.182 39.9155 101.328C39.9155 101.432 39.9155 101.53 39.9277 101.615C39.9399 101.713 39.9521 101.792 39.9643 101.847C39.9704 101.877 39.9765 101.896 39.9826 101.908C39.9948 101.908 40.0314 101.92 40.1046 101.92C40.6537 101.932 41.2027 101.932 41.7518 101.932C42.5021 101.932 43.2586 101.932 44.015 101.926H44.0394L44.0455 101.902C44.0882 101.67 44.1126 101.444 44.1126 101.231C44.1126 99.2907 44.1126 97.3569 44.1126 95.423C44.1126 93.6295 44.1126 91.8298 44.1004 90.0363V90.0241V90.0058C44.1065 89.6642 44.253 89.3592 44.4726 89.1334C44.6983 88.9077 45.0155 88.7552 45.3693 88.7552H45.3815C46.4491 88.7674 47.5167 88.7735 48.5843 88.7735C49.6519 88.7735 50.7255 88.7735 51.7931 88.7552H51.8053C52.1347 88.7552 52.4337 88.8833 52.6655 89.0846C52.8973 89.286 53.0742 89.5849 53.0742 89.9448C53.0742 89.9997 53.0742 90.0546 53.062 90.1095V90.1522C53.062 90.1949 53.062 90.2681 53.062 90.3718C53.062 94.0626 53.062 97.7473 53.062 101.438C53.062 101.584 53.0864 101.652 53.0986 101.664C53.1108 101.676 53.0925 101.664 53.1413 101.688C53.1718 101.7 53.2389 101.713 53.3304 101.713C53.6721 101.713 54.0076 101.713 54.3492 101.713C54.7579 101.713 55.1667 101.713 55.5693 101.713C56.0085 101.713 56.4539 101.713 56.8931 101.713C56.9846 101.713 57.0334 101.7 57.0639 101.688C57.0944 101.676 57.1188 101.664 57.1676 101.603V101.554C57.1676 101.511 57.1676 101.45 57.1676 101.353C57.1676 98.1133 57.1798 91.7749 57.1798 89.2738C57.1798 88.6942 56.7101 88.2245 56.1305 88.2245H54.8006C54.1357 88.2245 53.5989 87.6876 53.5989 87.0227V85.6074L53.6294 85.5952Z" fill="#E5B661"/>
<path d="M57.1977 108.74C57.1488 108.209 56.7035 107.795 56.1606 107.795H54.8307C54.1657 107.795 53.6289 107.258 53.6289 106.599V105.184C53.6289 104.83 53.452 104.519 53.1896 104.329C53.0188 104.207 52.8114 104.134 52.5857 104.134C50.78 104.134 47.0831 104.134 45.1736 104.134C44.7954 104.134 44.4233 104.134 44.0451 104.134C42.9165 104.134 41.7818 104.134 40.6532 104.134C40.5373 104.134 40.4336 104.134 40.3482 104.134C40.275 104.134 40.2201 104.134 40.1774 104.146C40.1591 104.146 40.0737 104.183 39.9944 104.244C39.9638 104.268 39.9639 104.268 39.9456 104.329C39.9273 104.391 39.9272 104.5 39.9272 104.647C39.9272 106.178 39.9272 107.715 39.9272 109.246C39.9272 110.241 39.9272 111.235 39.9272 112.23V113.376C39.9272 114.371 39.9272 115.365 39.9272 116.36C39.9272 117.891 39.9272 119.428 39.9272 120.959C39.9272 121.106 39.9273 121.216 39.9456 121.277C39.9639 121.338 39.9638 121.331 39.9944 121.362C40.0737 121.423 40.1652 121.46 40.1774 121.46C40.2201 121.466 40.275 121.472 40.3482 121.472C40.4336 121.472 40.5312 121.472 40.6532 121.472C41.7818 121.472 42.9165 121.472 44.0451 121.472C44.4233 121.472 44.7954 121.472 45.1736 121.472C47.0831 121.472 50.78 121.472 52.5857 121.472C52.8114 121.472 53.0188 121.399 53.1896 121.277C53.4581 121.087 53.6289 120.776 53.6289 120.423V119.007C53.6289 118.342 54.1657 117.805 54.8307 117.805H56.1606C56.7035 117.805 57.1427 117.397 57.1977 116.872C57.1977 115.859 57.1977 114.841 57.1977 113.828C57.1977 112.138 57.1977 110.448 57.1977 108.758V108.74ZM53.0676 116.256C53.0432 116.512 52.9456 116.762 52.7626 116.951C52.5552 117.165 52.2563 117.269 51.9635 117.269C50.4993 117.275 49.0291 117.275 47.565 117.275C47.3576 117.275 47.1441 117.275 46.9367 117.275C46.3815 117.275 45.8203 117.275 45.2591 117.269C44.9601 117.269 44.6551 117.165 44.4416 116.951C44.222 116.732 44.1183 116.427 44.1244 116.128C44.1244 116.116 44.1244 116.109 44.1244 116.097C44.1244 116.085 44.1244 116.079 44.1244 116.067C44.1244 116.048 44.1183 116.03 44.1183 116.012V115.994V115.981C44.1183 114.92 44.1183 113.852 44.1244 112.791C44.1244 111.729 44.1244 110.662 44.1183 109.6V109.588V109.57C44.1183 109.551 44.1183 109.539 44.1244 109.521C44.1488 109.198 44.283 108.917 44.4904 108.704C44.7161 108.478 45.0333 108.325 45.3872 108.325H45.3994C46.4669 108.338 47.5345 108.344 48.6021 108.344C49.6697 108.344 50.7434 108.344 51.8109 108.325H51.8231C52.1526 108.325 52.4515 108.453 52.6833 108.655C52.9029 108.844 53.0676 109.124 53.0859 109.46C53.0859 109.478 53.092 109.497 53.092 109.515C53.092 109.545 53.092 109.57 53.0859 109.6C53.0859 110.668 53.0859 111.729 53.0859 112.797C53.0859 113.865 53.0859 114.926 53.0859 115.994C53.0859 116.024 53.092 116.048 53.092 116.079C53.092 116.097 53.092 116.116 53.0859 116.134C53.0859 116.177 53.0798 116.225 53.0676 116.268V116.256Z" fill="#E5B661"/>
<path d="M58.0522 29.0639C58.0522 29.0639 58.0522 29.0571 58.0454 29.0571H58.0522V29.0639Z" fill="white"/>
<path d="M55.5331 26.6298V26.623H55.5264L55.5331 26.6298Z" fill="white"/>
<path d="M60.5663 33.8705C60.5663 33.8705 60.5663 33.8638 60.5596 33.8638H60.5663V33.8705Z" fill="white"/>
<path d="M53.0136 24.1952V24.1885H53.0068L53.0136 24.1952Z" fill="white"/>
<path d="M60.5596 4.89982H60.5663V4.89307L60.5596 4.89982Z" fill="white"/>
<path d="M58.0396 4.89307V4.89982H58.0463L58.0396 4.89307Z" fill="white"/>
<path d="M48.8896 21.8091C48.8896 21.8091 48.8956 21.815 48.9015 21.815H48.8896V21.8091Z" fill="white"/>
<path d="M51.2617 24.188V24.1947H51.2685L51.2617 24.188Z" fill="white"/>
<path d="M53.6963 26.6221V26.6288H53.703L53.6963 26.6221Z" fill="white"/>
<path d="M56.1304 29.0562V29.0629H56.1371L56.1304 29.0562Z" fill="white"/>
<path d="M60.48 73.2422V66.9038H57.5396V73.2422H60.48Z" fill="white"/>
<path d="M60.9984 34.9304V34.9182C60.9984 34.3387 60.5287 33.869 59.9491 33.869H59.5404C58.9426 33.869 58.4606 33.387 58.4606 32.7892V30.1355C58.4606 29.5376 57.9787 29.0557 57.3808 29.0557H57.0209C56.4231 29.0557 55.9411 28.5738 55.9411 27.9759V27.7014C55.9411 27.1035 55.4592 26.6216 54.8613 26.6216H54.5014C53.9036 26.6216 53.4216 26.1397 53.4216 25.5418V25.2612C53.4216 24.6634 52.9397 24.1814 52.3419 24.1814H52.0368C51.439 24.1814 50.9571 23.6995 50.9571 23.1016V22.882C50.9571 22.2842 50.4751 21.8022 49.8773 21.8022C49.3221 21.8022 48.767 21.8022 48.2179 21.8022C46.5708 21.8022 43.6548 21.8022 42.0504 21.8022C41.4281 21.8022 40.9218 22.3086 40.9218 22.9308C40.9218 23.242 40.9218 23.5531 40.9279 23.8642C40.9279 24.0411 40.7937 24.1692 40.6168 24.1631C40.2385 24.1448 39.8603 24.1631 39.476 24.1631C38.8903 24.1631 38.4145 24.639 38.4145 25.2246V25.554C38.4145 26.1397 37.9387 26.6216 37.3469 26.6216H37.0358C36.4502 26.6216 35.9743 27.0974 35.9743 27.6831V30.4222C35.9743 31.0078 35.4985 31.4837 34.9128 31.4837H34.5224C33.9368 31.4837 33.4609 31.9595 33.4609 32.5452V33.8568C33.6134 33.8568 33.7355 33.8568 33.8514 33.8568C35.4741 33.8568 39.3662 33.8568 41.4464 33.8629C42.2029 33.8629 42.819 34.4607 42.819 35.1928V35.3819C42.819 35.3819 42.819 35.5283 42.819 36.0285C42.819 36.5288 43.2217 36.907 43.7219 36.907C45.5886 36.907 49.859 36.9253 51.744 36.9375C52.9519 36.9436 53.928 37.8892 53.928 39.0604V41.1102L53.9463 42.6719C53.9463 43.1661 54.3733 43.5626 54.8858 43.5565L56.6244 43.5443C57.5028 43.5443 58.2166 44.2275 58.2166 45.0755V45.0877C58.2166 45.5513 58.5887 45.9357 59.0524 45.9357H59.6014C60.364 45.9357 60.9862 45.3195 60.9862 44.557C60.9862 42.2327 60.9862 37.5414 60.9862 34.906L60.9984 34.9304Z" fill="#E5B661"/>
<path d="M45.9302 14.5674C45.9302 14.5674 45.9302 14.5741 45.9369 14.5741L45.9302 14.5674Z" fill="#508677"/>
<path d="M45.9428 14.5741C45.9428 14.5741 45.9428 14.5674 45.936 14.5674L45.9428 14.5741Z" fill="#508677"/>
<path d="M32.2905 31.4839H32.2837C32.2837 31.4839 32.2837 31.4839 32.2837 31.4906H32.2905V31.4839Z" fill="white"/>
<path d="M22.2006 16.9521H22.1938C22.1938 16.9521 22.1938 16.9589 22.2006 16.9589V16.9521Z" fill="#4498D6"/>
<path d="M27.2565 20.7227V20.4604C27.2565 19.8687 27.7384 19.3867 28.3301 19.3867H28.6901C29.2818 19.3867 29.7637 18.9048 29.7637 18.313V17.8921C29.7637 17.3736 29.3428 16.9526 28.8243 16.9465C27.6225 16.9465 25.5544 16.9404 24.3892 16.9404C24.011 16.9404 23.6328 16.9404 23.2607 16.9526C22.675 16.9587 22.1992 17.4407 22.1992 18.0263V18.2642C22.1992 18.8743 21.7111 19.3684 21.1011 19.3684C19.4418 19.3806 16.2878 19.3928 14.5065 19.3989H13.1583C12.5666 19.3989 12.0846 19.8809 12.0846 20.4726V20.7471C12.0846 21.3389 11.6027 21.8208 11.0109 21.8208H10.7608C10.1691 21.8208 9.68713 22.3027 9.68713 22.8945V23.3825C9.68713 23.9743 10.1691 24.4562 10.7608 24.4562H12.8594C13.4511 24.4562 13.9331 24.9381 13.9331 25.5299C13.9331 26.1216 13.4511 26.6036 12.8594 26.6036C11.3404 26.6036 9.50412 26.6036 8.32063 26.6097C7.67398 26.6097 7.14324 27.1221 7.11274 27.7626C7.07614 28.4642 6.5576 29.0437 5.84995 29.0437H5.83774C5.14839 29.0437 4.59325 29.5928 4.58715 30.2821C4.58105 31.7096 4.56885 34.0278 4.56885 35.3638C4.56885 35.8763 4.13572 36.2911 3.59888 36.285C3.43416 36.285 3.26335 36.285 3.09864 36.285C2.5679 36.285 2.13477 36.6998 2.13477 37.2123C2.13477 38.0053 2.13477 39.0973 2.13477 39.6402C2.13477 40.4455 2.81802 41.086 3.65378 41.086C3.83069 41.086 4.01371 41.086 4.19062 41.0799C4.47124 41.0738 4.56885 41.141 4.56885 41.4338C4.56885 43.636 4.58715 47.5464 4.60545 49.5413C4.60545 50.2428 5.2094 50.8041 5.94145 50.7858C6.6003 50.7736 7.13104 51.3165 7.13104 51.9571V54.4827C7.13104 55.1293 7.67398 55.6539 8.34503 55.6539H8.44264C9.12589 55.6539 9.64443 56.1908 9.65663 56.8435C9.66883 57.478 10.2057 57.9904 10.8706 57.9904H12.0785C12.0785 57.9904 12.1212 57.9721 12.1212 57.9477V49.1936C12.1212 48.3944 12.7984 47.7477 13.628 47.7477C14.1954 47.7477 14.6529 47.3085 14.6529 46.7656V44.0936C14.6529 43.4164 15.2203 42.8735 15.9218 42.8735H15.9401C16.6356 42.8735 17.1968 42.3305 17.1968 41.6656C17.1968 40.9579 17.1968 40.0917 17.1968 39.4084C17.1968 38.7374 17.758 38.1944 18.4596 38.2005C19.3808 38.2005 20.6253 38.2005 21.5769 38.2066C22.2785 38.2066 22.8458 37.6637 22.8458 36.9926C22.8458 36.3399 22.8458 35.5651 22.8458 34.9551C22.8458 34.345 23.3156 33.8814 23.9073 33.8814C25.1884 33.8753 27.3419 33.8631 28.6657 33.8509C29.2574 33.8509 29.7332 33.369 29.7332 32.7772V32.5637C29.7332 31.972 30.2152 31.49 30.8069 31.49H31.1913C31.783 31.49 32.2649 31.0142 32.2649 30.4224C32.2649 29.6843 32.2832 28.4886 32.2954 27.6345C32.3015 27.0733 32.7591 26.628 33.3203 26.628H33.906C34.394 26.628 34.7905 26.2314 34.7905 25.7434V22.8823C34.7905 22.2905 34.3086 21.8086 33.7168 21.8086H28.3057C27.714 21.8086 27.2321 21.3267 27.2321 20.7349L27.2565 20.7227Z" fill="#4498D6"/>
<path d="M71.2902 33.8634C71.1011 33.8634 70.9424 33.7231 70.9424 33.5279C70.9424 32.015 70.9302 29.3613 70.9241 27.8179C70.9241 27.1468 70.3751 26.61 69.7101 26.61H69.6735C69.0025 26.61 68.4596 26.067 68.4596 25.396V23.029C68.4596 22.3579 67.9166 21.815 67.2456 21.815H67.1663C66.4952 21.815 65.9523 21.2721 65.9523 20.601C65.9523 19.93 65.4154 19.387 64.7444 19.387C63.3657 19.387 61.139 19.3748 59.8518 19.3748C59.3882 19.3748 59.0221 19.0027 59.0221 18.5391V17.7948C59.0221 17.3373 59.3943 16.9651 59.8518 16.959C60.3826 16.959 60.9194 16.9468 61.4501 16.9468C62.3408 16.9468 63.8903 16.9468 64.9213 16.9468C65.4947 16.9468 65.9645 16.4832 65.9645 15.9037V15.5803C65.9645 15.0191 66.4159 14.5677 66.9771 14.5677H67.4713C68.0325 14.5677 68.484 14.1162 68.484 13.555V13.1401C68.484 12.5789 68.9354 12.1275 69.4966 12.1275H69.9237C70.4788 12.1275 70.9241 11.6821 70.9241 11.127V11.1148C70.9241 10.1082 70.9241 9.09554 70.9302 8.08897C70.9302 7.64973 71.2841 7.29591 71.7172 7.28981C72.0344 7.28981 72.3822 7.27761 72.6872 7.27761C73.1203 7.27761 73.4741 6.91768 73.468 6.48455C73.468 4.84352 73.4436 1.51267 73.4436 0.310882C73.4436 0.103467 73.3643 0.0485626 73.163 0.0485626C72.4676 0.0485626 65.9767 0.0119598 64.0062 0.00585938C63.6951 0.00585938 63.4389 0.255978 63.4389 0.573202V4.36769C63.4389 4.66661 63.1949 4.91063 62.8959 4.91063C62.4933 4.91063 61.9382 4.91063 61.5355 4.91063C61.2366 4.91063 60.9926 4.66661 60.9926 4.36769V3.12319C60.9926 2.77547 60.7059 2.50095 60.3642 2.50095H59.1076C58.7598 2.50095 58.4792 2.78157 58.4792 3.12929V3.98336V4.35549C58.4792 4.66661 58.2291 4.91673 57.918 4.91673H56.7711C56.3806 4.91673 56.0695 5.23395 56.0695 5.61828V13.7807C56.0695 14.226 55.7096 14.5921 55.2582 14.5921C54.7518 14.5921 54.1235 14.5921 53.7941 14.5921C53.6903 14.5921 53.5805 14.6043 53.4524 14.6104C53.4524 14.7568 53.4524 14.8727 53.4524 14.9825C53.4524 16.3368 53.4463 17.685 53.4524 19.0393C53.4524 19.3138 53.3792 19.4175 53.0864 19.4053C52.5069 19.387 51.9273 19.4053 51.3478 19.3931C51.0915 19.387 51 19.4541 51.0061 19.7164C51.0061 20.0215 51.0122 20.3204 51.0061 20.6254C51.0061 21.2843 51.5308 21.8211 52.1957 21.8211H52.2628C52.9217 21.8211 53.4524 22.3518 53.4524 23.0107C53.4524 23.6695 53.9832 24.2003 54.642 24.2003H54.7823C55.4412 24.2003 55.9719 24.731 55.9719 25.3899V25.4448C55.9719 26.1036 56.5027 26.6344 57.1615 26.6344H57.3018C57.9607 26.6344 58.4914 27.1651 58.4914 27.824V27.8789C58.4914 28.5377 59.0221 29.0684 59.681 29.0684H59.8213C60.4802 29.0684 61.0109 29.5992 61.0109 30.258V32.7043C61.0109 33.3571 61.5416 33.8878 62.1944 33.8939C62.4933 33.8939 62.7983 33.8939 63.0973 33.8939C63.3474 33.8939 63.4511 33.9427 63.445 34.2111C63.4328 35.2055 63.445 36.1999 63.445 37.1943C63.4572 43.2398 63.4755 49.2793 63.4816 55.3248C63.4816 55.6054 63.5853 55.6664 63.8476 55.6603C64.4455 55.6481 65.0433 55.6603 65.6472 55.6542C65.8486 55.6542 66.0011 55.8068 65.995 56.0081C65.9828 56.5632 66.0011 57.1123 65.9889 57.6674C65.9828 57.9724 66.0804 58.0639 66.5318 58.0029C67.0137 57.9358 67.5018 57.9541 67.9837 58.009C68.3742 58.0517 68.4718 57.9846 68.4718 57.6918C68.4718 56.8499 68.484 55.4407 68.5023 54.4281C68.5084 53.757 69.0574 53.2141 69.7346 53.2141C70.4178 53.2141 70.9668 52.665 70.9668 51.9818V47.2234C70.9668 46.5402 71.5159 45.9911 72.1991 45.9911H72.2052C72.8885 45.9911 73.4375 45.4421 73.4375 44.7588V35.1079C73.4375 34.4308 72.8885 33.8756 72.2052 33.8756C71.9063 33.8756 71.6074 33.8756 71.3085 33.8878L71.2902 33.8634Z" fill="#C471B6"/>
<path d="M45.9425 10.383V10.6941C45.9425 11.054 45.6497 11.3469 45.2898 11.3469H44.1307C43.7708 11.3469 43.4779 11.054 43.4779 10.6941V7.955C43.4779 7.59507 43.1851 7.30225 42.8252 7.30225H41.6173C41.2574 7.30225 40.9646 7.59507 40.9646 7.955V11.4811C40.9646 11.841 40.6717 12.1338 40.3118 12.1338H39.11C38.7501 12.1338 38.4573 11.841 38.4573 11.4811V10.3647C38.4573 10.0047 38.1645 9.71193 37.8045 9.71193H36.6698C36.3099 9.71193 36.0171 10.0047 36.0171 10.3647V18.7101C36.0171 19.07 36.3099 19.3629 36.6698 19.3629H37.8106C38.1767 19.3629 38.4695 19.0639 38.4634 18.6918C38.4634 18.6918 38.4634 18.6857 38.4634 18.6796L39.1405 17.9841H42.8435C43.2034 17.9841 43.4963 18.277 43.4963 18.6369V18.704C43.4963 19.0639 43.7891 19.3568 44.149 19.3568H45.2959C45.6558 19.3568 45.9486 19.0639 45.9486 18.704V14.5618H45.9547C46.5648 14.5618 47.1809 14.5618 47.791 14.5618C48.1509 14.5618 48.4437 14.269 48.4437 13.909V10.3769C48.4437 10.017 48.1509 9.72413 47.791 9.72413H46.6075C46.2476 9.72413 45.9547 10.017 45.9547 10.3769L45.9425 10.383Z" fill="#508677"/>
<path d="M23.4447 16.9526H23.438V16.9594L23.4447 16.9526Z" fill="#C3503F"/>
<path d="M30.9599 5.67321V5.5756C30.9599 5.18517 30.6426 4.86795 30.2522 4.86795H29.1419C28.7515 4.86795 28.4343 4.55073 28.4343 4.1603V3.15372C28.4343 2.76329 28.117 2.44607 27.7266 2.44607H26.6712C26.2808 2.44607 25.9636 2.12884 25.9636 1.73841V0.762341C25.9636 0.371911 25.6464 0.0546875 25.2559 0.0546875H9.15681C8.76639 0.0546875 8.44916 0.371911 8.44916 0.762341V1.77502C8.44916 2.16545 8.13194 2.48267 7.74151 2.48267H1.73256C1.34213 2.48267 1.0249 2.79989 1.0249 3.19032V4.1969C1.0249 4.58733 1.34213 4.90455 1.73256 4.90455H5.22812C5.61855 4.90455 5.93577 5.22178 5.93577 5.61221C5.93577 6.11244 5.93577 6.60048 5.93577 7.08852C5.93577 7.25933 5.83206 7.27153 5.69785 7.27153C5.20982 7.27153 4.72178 7.27153 4.22764 7.27153H4.22154C3.83111 7.27153 3.51999 7.58875 3.51999 7.97308V8.97966C3.51999 9.37009 3.83721 9.68731 4.22764 9.68731H5.24032C5.63075 9.68731 5.94797 10.0045 5.94797 10.395V11.4259C5.94797 11.8164 6.2652 12.1336 6.65563 12.1336H7.77201C8.16244 12.1336 8.47966 12.4508 8.47966 12.8412V13.86C8.47966 14.2505 8.79689 14.5677 9.18732 14.5677H12.7317C13.1221 14.5677 13.4393 14.8849 13.4393 15.2753V16.227C13.4393 16.6174 13.7566 16.9347 14.147 16.9347L22.9988 16.9164C23.438 16.9164 23.7857 16.5625 23.7857 16.1233V15.3058C23.7857 14.8788 23.438 14.5311 23.011 14.5311H19.2653C18.8382 14.5311 18.4905 14.1834 18.4905 13.7563V12.9084C18.4905 12.4813 18.8321 12.1336 19.2592 12.1336C21.0039 12.1336 25.2925 12.1336 27.5985 12.1336C28.1272 12.1336 28.3916 11.8753 28.3916 11.3588V10.3767C28.3916 9.98623 28.0743 9.66901 27.6839 9.66901H24.1395C23.7491 9.66901 23.4319 9.35179 23.4319 8.96136V8.02189C23.4319 7.59485 23.0903 7.24713 22.6632 7.24713C21.3882 7.24713 18.8565 7.23493 17.4839 7.22883C17.0935 7.22883 16.7824 6.9116 16.7824 6.52117V5.5939C16.7824 5.20347 17.0996 4.88625 17.49 4.88625C17.8805 4.88625 18.3014 4.88625 18.7101 4.88625C21.0283 4.88625 23.3404 4.88625 25.6586 4.89235C25.744 4.89235 25.8355 4.89845 25.9575 4.91065V7.83887H30.2461C30.6365 7.83887 30.9538 7.52165 30.9538 7.13122V5.65491H30.9477L30.9599 5.67321Z" fill="#C3503F"/>
<path d="M45.7411 81.6298C46.8636 81.6298 47.7055 80.6965 47.7299 79.574C47.7543 78.4515 48.645 77.6035 49.743 77.6035H50.2433C51.7684 77.6035 53.2874 77.6035 54.8125 77.5913C55.6422 77.5852 56.1119 77.0728 56.1302 76.2187C56.1424 75.6575 56.1241 75.1023 56.1424 74.5411C56.1668 73.87 56.6793 73.3088 57.3442 73.2539C57.8932 73.2051 58.4484 73.2356 59.0035 73.2234C60.0223 73.2051 60.4737 72.772 60.4798 71.741C60.492 69.8193 60.492 70.1793 60.4798 68.2515C60.4737 66.9582 59.7844 66.885 58.0336 66.8789C54.3123 66.8789 53.4216 66.8606 51.2559 66.8728C50.7618 66.8728 50.3592 66.4763 50.3592 65.9822V64.3045C50.3592 63.8104 49.9626 63.4139 49.4685 63.4139H48.2057C47.7116 63.4139 47.315 63.8104 47.315 64.3045V75.322C47.315 76.0723 46.9185 76.7983 46.2414 77.1216C45.9851 77.2436 45.6984 77.3107 45.3934 77.3107H42.3066C42.27 77.3107 42.2334 77.3107 42.1968 77.3107C40.2934 77.3107 38.3962 77.3107 36.4928 77.3046C35.6022 77.2985 35.1324 76.8166 35.1019 75.932C35.0897 75.4623 35.1019 74.9925 35.1019 74.5228C35.1019 73.6504 35.8096 72.9367 36.688 72.9367C38.4511 72.9306 40.2202 72.9367 41.9832 72.9367C43.4474 72.9367 43.8134 72.5768 43.8134 71.1187C43.8134 64.9878 43.8134 61.1445 43.8134 55.0196C43.8134 53.8605 44.2465 53.4335 45.3934 53.4274C47.3151 53.4213 47.6018 53.4274 49.5173 53.4213C50.2494 53.4213 50.8594 52.8357 50.8899 52.1036C50.9143 51.5668 50.8899 51.0238 50.896 50.487C50.9143 49.578 51.3414 49.1205 52.2442 49.0839C52.8055 49.0595 53.3606 49.09 53.9218 49.0717C54.7332 49.0412 55.209 48.5592 55.2334 47.7601C55.2517 47.1805 55.2517 46.5949 55.2334 46.0154C55.209 45.2223 54.721 44.7465 53.9157 44.716C53.4704 44.6977 53.019 44.716 52.5736 44.716C51.2803 44.716 50.9021 44.3316 50.9021 43.0261C50.9021 39.7624 50.9021 44.3865 50.9021 41.1228C50.9021 39.9942 50.4446 39.5489 49.3099 39.5428C48.8402 39.5428 40.0372 39.555 39.5736 39.5428C38.7012 39.5123 38.2254 39.0242 38.1949 38.1458C38.1827 37.7431 38.1949 37.8773 38.1949 37.4747C38.1949 36.096 37.8288 35.7178 36.4501 35.7178C30.368 35.7178 34.2479 35.7178 28.1657 35.7178C28.0071 35.7178 27.8546 35.7178 27.696 35.7178C26.8846 35.7605 26.4271 36.218 26.3966 37.0355C26.3783 37.4808 26.3966 38.28 26.3966 38.7253C26.3966 39.9881 25.9634 40.4212 24.7128 40.4212C22.8583 40.4212 23.5355 40.4212 21.6748 40.4212C20.656 40.4212 20.2168 40.8849 20.2046 41.9097C20.2046 42.4222 20.2168 42.9407 20.1985 43.4532C20.1741 44.2584 19.6983 44.7343 18.893 44.7648C18.8198 44.7648 18.6307 44.7648 18.3745 44.7709C17.6424 44.7709 17.0446 45.3687 17.0446 46.1069V48.1322C17.0446 48.9009 16.4223 49.5231 15.6537 49.5231H15.2388C14.5068 49.5231 13.9089 50.1149 13.9089 50.853C13.9089 52.9882 13.9089 55.4467 13.9089 57.8014H13.9028C13.9028 61.0469 13.9028 64.2862 13.9028 67.5317C13.9028 70.8869 13.9028 71.9606 13.9028 75.3159C13.9028 77.0179 14.2018 77.3168 15.8794 77.3168C16.0197 77.3168 15.9709 77.3168 15.9465 77.3168C15.9587 77.3168 15.977 77.3168 16.0319 77.3168C17.4594 77.3168 17.7705 77.8475 17.6424 79.6045C17.6607 81.4041 18.4477 81.6359 19.5214 81.6359H42.5079H45.7472L45.7411 81.6298ZM33.6256 62.1511C33.0888 62.1572 32.5519 62.1389 32.0151 62.1633C31.2708 62.1938 30.8011 62.6269 30.7523 63.3712C30.7096 63.969 30.7462 64.579 30.7218 65.1769C30.6852 66.0066 30.2521 66.4885 29.4285 66.4946C25.9207 66.5129 22.413 66.5129 18.9052 66.4946C18.1427 66.4946 17.6912 65.97 17.6668 65.1952C17.6485 64.634 17.6485 64.0788 17.6668 63.5176C17.6851 62.6391 18.161 62.1755 19.0577 62.1572C19.5946 62.145 20.1314 62.1633 20.6682 62.1511C21.5223 62.1267 21.9859 61.6691 22.0042 60.809C22.0164 60.2294 22.0225 59.6438 22.0042 59.0642C21.9737 58.3078 21.5528 57.8624 20.7964 57.8136C20.2168 57.777 19.6373 57.8136 19.0516 57.7892C18.1549 57.7587 17.6973 57.2951 17.6729 56.4105C17.6607 55.8981 17.6668 55.3796 17.6729 54.8671C17.6851 53.9093 18.161 53.4213 19.1187 53.4213C21.5345 53.4152 23.9442 53.4213 26.36 53.4213C28.7269 53.4213 31.0939 53.4213 33.467 53.4213C34.6505 53.4213 35.1019 53.8605 35.108 55.0196C35.108 56.8986 35.1141 58.7714 35.108 60.6504C35.108 61.6508 34.6261 62.1328 33.6378 62.145L33.6256 62.1511Z" fill="white"/>
</g>
<defs>
<clipPath id="clip0_244_1791">
<rect width="77" height="121.46" fill="white"/>
</clipPath>
</defs>
</svg>
